<svg width="428" height="428" viewBox="0 0 428 428" fill="none" xmlns="http://www.w3.org/2000/svg">
<g style="mix-blend-mode:overlay">
<path d="M126.442 269.074C128.241 264.836 132.63 262.303 137.199 262.863L142.317 263.49C144.222 263.723 146.155 263.469 147.934 262.75L152.716 260.82C156.985 259.096 161.879 260.408 164.714 264.035L167.89 268.097C169.072 269.609 170.618 270.796 172.385 271.546L177.131 273.562C181.368 275.362 183.902 279.75 183.342 284.32L182.714 289.438C182.481 291.343 182.735 293.276 183.454 295.055L185.384 299.836C187.108 304.105 185.797 309 182.169 311.835L178.107 315.01C176.595 316.192 175.408 317.739 174.658 319.505L172.642 324.251C170.842 328.489 166.454 331.022 161.884 330.462L156.766 329.835C154.862 329.601 152.929 329.856 151.149 330.574L146.368 332.505C142.099 334.229 137.205 332.917 134.369 329.29L131.194 325.227C130.012 323.715 128.465 322.529 126.699 321.778L121.953 319.763C117.716 317.963 115.182 313.575 115.742 309.005L116.369 303.887C116.603 301.982 116.348 300.049 115.63 298.27L113.699 293.489C111.976 289.219 113.287 284.325 116.914 281.49L120.977 278.314C122.489 277.133 123.676 275.586 124.426 273.82L126.442 269.074Z" stroke="white"/>
<path d="M117.325 99.8607C125.009 81.7689 143.744 70.952 163.254 73.3432L184.333 75.9266C191.915 76.8559 199.609 75.843 206.693 72.9829L226.384 65.032C244.61 57.6727 265.507 63.272 277.612 78.7585L290.69 95.4899C295.394 101.509 301.551 106.233 308.582 109.219L328.128 117.521C346.22 125.205 357.037 143.941 354.646 163.451L352.062 184.529C351.133 192.111 352.146 199.805 355.006 206.889L362.957 226.58C370.316 244.807 364.717 265.703 349.231 277.808L332.499 290.886C326.48 295.591 321.756 301.747 318.77 308.778L310.468 328.325C302.784 346.416 284.048 357.233 264.538 354.842L243.46 352.259C235.878 351.329 228.184 352.342 221.1 355.202L201.409 363.153C183.182 370.513 162.286 364.913 150.181 349.427L137.103 332.695C132.398 326.677 126.242 321.952 119.21 318.966L99.6644 310.664C81.5726 302.98 70.7557 284.245 73.1469 264.735L75.7303 243.656C76.6596 236.074 75.6467 228.38 72.7866 221.296L64.8357 201.605C57.4764 183.379 63.0756 162.482 78.5622 150.377L95.2936 137.299C101.312 132.595 106.037 126.438 109.023 119.407L117.325 99.8607Z" stroke="white"/>
<path d="M138.077 256.427C132.818 255.783 127.767 258.699 125.696 263.576L123.483 268.785C122.696 270.639 121.451 272.262 119.864 273.502L115.405 276.987C111.23 280.25 109.721 285.883 111.705 290.797L113.824 296.045C114.578 297.912 114.845 299.94 114.6 301.939L113.911 307.557C113.267 312.816 116.182 317.867 121.059 319.938L126.269 322.151C128.123 322.938 129.745 324.183 130.985 325.77L134.471 330.229C137.734 334.404 143.367 335.913 148.28 333.929L153.529 331.81C155.396 331.056 157.424 330.789 159.423 331.034L165.041 331.723C170.3 332.367 175.351 329.452 177.422 324.575L179.635 319.365C180.422 317.512 181.667 315.889 183.253 314.649L187.713 311.163C191.888 307.9 193.397 302.267 191.413 297.354L189.294 292.105C188.54 290.238 188.273 288.21 188.518 286.211L189.207 280.593C189.851 275.334 186.935 270.284 182.059 268.212L176.849 265.999C174.995 265.212 173.373 263.967 172.133 262.381L168.647 257.921C165.384 253.746 159.751 252.237 154.838 254.221L149.589 256.34C147.722 257.094 145.694 257.361 143.695 257.116L138.077 256.427Z" stroke="white"/>
<path d="M139.415 246.709C133.389 245.971 127.603 249.311 125.23 254.899L122.695 260.868C121.793 262.991 120.366 264.85 118.549 266.271L113.44 270.264C108.657 274.003 106.928 280.456 109.2 286.085L111.628 292.099C112.492 294.238 112.798 296.561 112.517 298.851L111.728 305.288C110.99 311.313 114.33 317.099 119.918 319.472L125.887 322.008C128.01 322.909 129.869 324.336 131.29 326.154L135.284 331.263C139.022 336.046 145.476 337.775 151.104 335.502L157.118 333.074C159.257 332.21 161.58 331.904 163.87 332.185L170.307 332.974C176.332 333.713 182.118 330.372 184.491 324.784L187.027 318.816C187.928 316.692 189.355 314.833 191.173 313.412L196.282 309.419C201.065 305.68 202.794 299.227 200.521 293.598L198.093 287.585C197.229 285.446 196.923 283.122 197.204 280.832L197.993 274.396C198.732 268.37 195.391 262.584 189.803 260.211L183.835 257.676C181.711 256.774 179.852 255.347 178.431 253.53L174.438 248.421C170.699 243.638 164.246 241.909 158.617 244.181L152.604 246.609C150.465 247.473 148.141 247.779 145.851 247.498L139.415 246.709Z" stroke="white"/>
<path d="M141.269 233.21C134.18 232.341 127.372 236.272 124.579 242.846L121.597 249.869C120.535 252.367 118.857 254.555 116.718 256.226L110.707 260.925C105.079 265.324 103.045 272.917 105.719 279.54L108.576 286.616C109.592 289.132 109.952 291.866 109.622 294.56L108.693 302.134C107.824 309.223 111.755 316.031 118.329 318.824L125.352 321.807C127.85 322.868 130.038 324.546 131.71 326.685L136.409 332.696C140.807 338.324 148.401 340.359 155.024 337.684L162.099 334.828C164.616 333.811 167.349 333.451 170.044 333.782L177.617 334.71C184.707 335.579 191.515 331.648 194.307 325.074L197.29 318.051C198.351 315.553 200.029 313.365 202.168 311.694L208.18 306.995C213.807 302.596 215.842 295.003 213.167 288.38L210.311 281.304C209.294 278.788 208.935 276.054 209.265 273.36L210.193 265.786C211.062 258.697 207.131 251.889 200.557 249.096L193.534 246.113C191.036 245.052 188.848 243.374 187.177 241.235L182.478 235.224C178.079 229.596 170.486 227.561 163.863 230.236L156.788 233.092C154.271 234.109 151.537 234.469 148.843 234.138L141.269 233.21Z" stroke="white"/>
<path d="M143.645 215.932C135.193 214.896 127.077 219.582 123.748 227.419L120.192 235.791C118.927 238.769 116.926 241.377 114.377 243.37L107.21 248.972C100.502 254.216 98.0761 263.268 101.264 271.163L104.67 279.598C105.881 282.598 106.31 285.857 105.917 289.069L104.81 298.098C103.774 306.549 108.46 314.665 116.297 317.994L124.669 321.55C127.648 322.815 130.256 324.816 132.248 327.365L137.85 334.532C143.094 341.241 152.146 343.666 160.042 340.478L168.476 337.073C171.477 335.861 174.736 335.432 177.947 335.826L186.976 336.932C195.428 337.968 203.544 333.282 206.872 325.445L210.428 317.073C211.693 314.095 213.694 311.487 216.244 309.494L223.41 303.892C230.119 298.649 232.545 289.596 229.357 281.701L225.951 273.266C224.739 270.266 224.31 267.007 224.704 263.795L225.811 254.766C226.846 246.315 222.161 238.199 214.323 234.87L205.951 231.314C202.973 230.049 200.365 228.048 198.372 225.499L192.771 218.332C187.527 211.623 178.475 209.198 170.579 212.386L162.145 215.791C159.144 217.003 155.885 217.432 152.673 217.038L143.645 215.932Z" stroke="white"/>
<path d="M146.541 194.874C136.429 193.635 126.719 199.241 122.737 208.618L118.482 218.634C116.969 222.198 114.575 225.318 111.525 227.702L102.95 234.404C94.9239 240.678 92.0219 251.508 95.8361 260.954L99.9107 271.045C101.36 274.635 101.873 278.534 101.402 282.377L100.079 293.179C98.8393 303.291 104.445 313.001 113.822 316.983L123.839 321.238C127.402 322.751 130.522 325.145 132.906 328.195L139.608 336.77C145.882 344.796 156.712 347.698 166.159 343.884L176.25 339.809C179.839 338.36 183.739 337.846 187.581 338.317L198.383 339.641C208.495 340.881 218.205 335.274 222.188 325.898L226.442 315.881C227.955 312.318 230.35 309.198 233.4 306.814L241.974 300.112C250 293.838 252.902 283.008 249.088 273.561L245.014 263.47C243.564 259.88 243.051 255.981 243.522 252.139L244.846 241.337C246.085 231.225 240.479 221.515 231.102 217.532L221.085 213.278C217.522 211.765 214.402 209.37 212.018 206.32L205.316 197.746C199.042 189.72 188.212 186.818 178.766 190.632L168.675 194.706C165.085 196.156 161.186 196.669 157.343 196.198L146.541 194.874Z" stroke="white"/>
<path d="M149.954 170.038C137.885 168.558 126.294 175.25 121.54 186.442L116.462 198.399C114.656 202.652 111.798 206.376 108.157 209.222L97.9227 217.222C88.3421 224.71 84.8782 237.638 89.431 248.913L94.2945 260.958C96.0246 265.243 96.6373 269.898 96.0752 274.484L94.4949 287.378C93.0156 299.447 99.7074 311.038 110.9 315.792L122.856 320.87C127.109 322.676 130.834 325.534 133.679 329.175L141.679 339.409C149.167 348.99 162.095 352.454 173.37 347.901L185.416 343.038C189.701 341.307 194.355 340.695 198.941 341.257L211.835 342.837C223.905 344.316 235.495 337.625 240.249 326.432L245.327 314.476C247.134 310.223 249.991 306.499 253.632 303.653L263.867 295.653C273.447 288.165 276.911 275.237 272.358 263.962L267.495 251.916C265.765 247.631 265.152 242.977 265.714 238.391L267.294 225.497C268.774 213.427 262.082 201.837 250.89 197.083L238.933 192.005C234.68 190.198 230.956 187.341 228.11 183.7L220.11 173.465C212.622 163.885 199.694 160.421 188.419 164.974L176.374 169.837C172.089 171.567 167.434 172.18 162.848 171.618L149.954 170.038Z" stroke="white"/>
<path d="M153.888 141.42C139.563 139.664 125.806 147.607 120.164 160.891L114.136 175.082C111.992 180.13 108.6 184.551 104.279 187.928L92.1314 197.423C80.7602 206.311 76.6489 221.655 82.0526 235.038L87.8251 249.335C89.8786 254.421 90.6059 259.945 89.9387 265.389L88.063 280.692C86.3072 295.018 94.2497 308.775 107.534 314.417L121.725 320.444C126.773 322.588 131.194 325.98 134.571 330.302L144.066 342.449C152.955 353.82 168.298 357.932 181.681 352.528L195.978 346.755C201.064 344.702 206.588 343.975 212.032 344.642L227.335 346.518C241.661 348.273 255.418 340.331 261.06 327.047L267.087 312.856C269.232 307.807 272.623 303.387 276.945 300.009L289.092 290.514C300.464 281.626 304.575 266.282 299.171 252.899L293.399 238.603C291.345 233.517 290.618 227.993 291.285 222.549L293.161 207.245C294.916 192.92 286.974 179.163 273.69 173.521L259.499 167.493C254.45 165.349 250.03 161.957 246.652 157.636L237.157 145.488C228.269 134.117 212.925 130.006 199.542 135.409L185.246 141.182C180.16 143.235 174.636 143.963 169.192 143.296L153.888 141.42Z" stroke="white"/>
<path d="M158.343 109.023C141.464 106.954 125.254 116.313 118.606 131.965L111.504 148.686C108.978 154.634 104.981 159.843 99.8897 163.823L85.5766 175.01C72.1781 185.483 67.3339 203.562 73.7009 219.331L80.5026 236.176C82.9222 242.169 83.7791 248.678 82.9929 255.092L80.7829 273.124C78.7141 290.004 88.0726 306.213 103.725 312.861L120.446 319.963C126.394 322.49 131.603 326.486 135.583 331.578L146.77 345.891C157.243 359.289 175.322 364.134 191.091 357.767L207.936 350.965C213.929 348.545 220.438 347.688 226.852 348.475L244.884 350.685C261.764 352.753 277.973 343.395 284.621 327.742L291.723 311.021C294.249 305.073 298.246 299.865 303.338 295.885L317.651 284.697C331.049 274.225 335.894 256.145 329.527 240.376L322.725 223.531C320.305 217.539 319.448 211.03 320.235 204.615L322.445 186.583C324.513 169.704 315.155 153.495 299.502 146.846L282.781 139.744C276.833 137.218 271.625 133.221 267.645 128.13L256.457 113.817C245.984 100.418 227.905 95.5739 212.136 101.941L195.291 108.743C189.299 111.162 182.79 112.019 176.375 111.233L158.343 109.023Z" stroke="white"/>
</g>
</svg>
