<svg width="12" height="457" viewBox="0 0 12 457" fill="none" xmlns="http://www.w3.org/2000/svg">
<g clip-path="url(#clip0_412_11079)">
<path fill-rule="evenodd" clip-rule="evenodd" d="M0 -19.0148V-20H12V-19.0148H0ZM8 1.67488V0.689655H12V1.67488H8ZM8 22.3645V21.3793H12V22.3645H8ZM8 43.0542V42.069H12V43.0542H8ZM8 63.7438V62.7586H12V63.7438H8ZM8 84.4335V83.4483H12V84.4335H8ZM8 105.123V104.138H12V105.123H8ZM8 125.813V124.828H12V125.813H8ZM0 146.502V145.517H12V146.502H0ZM8 167.192V166.207H12V167.192H8ZM8 187.882V186.897H12V187.882H8ZM8 208.571V207.586H12V208.571H8ZM8 229.261V228.276H12V229.261H8ZM8 249.951V248.965H12V249.951H8ZM8 270.64V269.655H12V270.64H8ZM8 291.33V290.345H12V291.33H8ZM0 312.02V311.035H12V312.02H0ZM8 332.709V331.724H12V332.709H8ZM8 353.399V352.414H12V353.399H8ZM8 374.089V373.103H12V374.089H8ZM8 394.778V393.793H12V394.778H8ZM8 415.468V414.483H12V415.468H8ZM8 436.158V435.172H12V436.158H8ZM8 456.847V455.862H12V456.847H8ZM0 477.537V476.552H12V477.537H0ZM8 498.227V497.241H12V498.227H8ZM8 518.916V517.931H12V518.916H8ZM8 539.606V538.621H12V539.606H8Z" fill="#FF4B00"/>
</g>
<defs>
<clipPath id="clip0_412_11079">
<rect width="12" height="457" fill="white"/>
</clipPath>
</defs>
</svg>
