<svg width="621" height="507" viewBox="0 0 621 507" fill="none" xmlns="http://www.w3.org/2000/svg">
<g opacity="0.5">
<path opacity="0.2" d="M444.974 61.771C453.293 70.0899 456.01 83.3462 453.654 100.34C451.299 117.324 443.887 137.94 432.089 160.839C408.496 206.633 367.417 261.456 314.436 314.436C261.456 367.417 206.633 408.496 160.839 432.089C137.94 443.887 117.324 451.299 100.34 453.654C83.3462 456.01 70.0898 453.293 61.771 444.974C53.4521 436.655 50.7348 423.399 53.091 406.405C55.4458 389.421 62.8576 368.805 74.6556 345.906C98.2487 300.112 139.328 245.289 192.309 192.309C245.289 139.328 300.111 98.2487 345.906 74.6556C368.805 62.8577 389.421 55.4459 406.405 53.0911C423.399 50.7349 436.655 53.4521 444.974 61.771Z" stroke="#E83F03"/>
<path opacity="0.2" d="M559.228 61.771C567.547 70.0899 570.264 83.3462 567.908 100.34C565.553 117.324 558.141 137.94 546.343 160.839C522.75 206.633 481.671 261.456 428.69 314.436C375.71 367.417 320.887 408.496 275.093 432.089C252.194 443.887 231.577 451.299 214.594 453.654C197.6 456.01 184.344 453.293 176.025 444.974C167.706 436.655 164.989 423.399 167.345 406.405C169.7 389.421 177.112 368.805 188.909 345.906C212.503 300.112 253.582 245.289 306.563 192.309C359.543 139.328 414.365 98.2487 460.159 74.6556C483.059 62.8577 503.675 55.4459 520.659 53.0911C537.653 50.7349 550.909 53.4521 559.228 61.771Z" stroke="#E83F03"/>
</g>
</svg>
