<svg width="362" height="362" viewBox="0 0 362 362" fill="none" xmlns="http://www.w3.org/2000/svg">
<path d="M181 1L190.552 132.981L249.883 14.7017L208.201 140.291L308.279 53.7208L221.709 153.799L347.298 112.117L229.019 171.448L361 181L229.019 190.552L347.298 249.883L221.709 208.201L308.279 308.279L208.201 221.709L249.883 347.298L190.552 229.019L181 361L171.448 229.019L112.117 347.298L153.799 221.709L53.7208 308.279L140.291 208.201L14.7017 249.883L132.981 190.552L1 181L132.981 171.448L14.7017 112.117L140.291 153.799L53.7208 53.7208L153.799 140.291L112.117 14.7017L171.448 132.981L181 1Z" stroke="#4B4BFF" stroke-width="2" stroke-linejoin="bevel"/>
</svg>
