<svg width="699" height="225" viewBox="0 0 699 225" fill="none" xmlns="http://www.w3.org/2000/svg">
<path d="M698.018 9.54013C698.815 12.2399 697.409 15.679 693.603 19.842C689.825 23.9739 683.809 28.6784 675.752 33.8565C659.646 44.2085 635.488 56.3888 605.066 69.6134C544.229 96.0597 458.412 126.652 362.039 155.118C265.665 183.583 176.999 204.528 111.556 215.381C78.8312 220.809 51.932 223.709 32.7861 223.769C23.2092 223.8 15.6026 223.119 10.186 221.703C4.72878 220.276 1.67944 218.153 0.881997 215.453C0.0845499 212.753 1.49107 209.314 5.29723 205.151C9.07504 201.019 15.091 196.315 23.1474 191.137C39.2535 180.785 63.4116 168.604 93.8335 155.38C154.671 128.934 240.487 98.3414 336.861 69.8756C433.234 41.4097 521.901 20.4649 587.344 9.6118C620.069 4.18466 646.968 1.28422 666.114 1.22377C675.691 1.19354 683.297 1.87433 688.714 3.29055C694.171 4.71741 697.22 6.8403 698.018 9.54013Z" stroke="url(#paint0_linear_753_12299)"/>
<defs>
<linearGradient id="paint0_linear_753_12299" x1="336.719" y1="69.396" x2="362.18" y2="155.597" gradientUnits="userSpaceOnUse">
<stop offset="0.0733836" stop-color="#1A1A1A" stop-opacity="0"/>
<stop offset="1" stop-color="#1A1A1A"/>
</linearGradient>
</defs>
</svg>
