<svg width="200" height="120" viewBox="0 0 200 120" fill="none" xmlns="http://www.w3.org/2000/svg">
<path fill-rule="evenodd" clip-rule="evenodd" d="M114.742 45.7192C114.175 45.557 113.58 45.5087 112.994 45.577C112.407 45.6454 111.84 45.829 111.325 46.1173C110.81 46.4056 110.356 46.7929 109.991 47.257C109.626 47.7211 109.357 48.2528 109.198 48.8215L107.079 56.311H96.9736L98.3974 51.3334C98.6418 50.7505 98.7604 50.1226 98.7455 49.4907C98.7305 48.8588 98.5824 48.2371 98.3107 47.6664C98.039 47.0957 97.6499 46.5888 97.1689 46.1787C96.6879 45.7687 96.1257 45.4648 95.5192 45.287C94.9126 45.1091 94.2754 45.0613 93.6491 45.1466C93.0228 45.2319 92.4216 45.4484 91.8847 45.782C91.3478 46.1157 90.8874 46.5588 90.5336 47.0826C90.1798 47.6064 89.9405 48.1989 89.8313 48.8215L83.7888 69.8547C83.5886 70.5269 83.5483 71.2366 83.671 71.9271C83.7936 72.6177 84.0759 73.27 84.4952 73.8322C84.9146 74.3943 85.4595 74.8508 86.0865 75.1651C86.7135 75.4794 87.4052 75.6429 88.1066 75.6426C89.0833 75.6407 90.0327 75.3196 90.8101 74.7282C91.5875 74.1368 92.1503 73.3075 92.4128 72.3667L94.5427 64.8887H104.648L103.225 69.8547C102.895 71.0029 103.034 72.2348 103.612 73.2805C104.189 74.3263 105.157 75.1007 106.304 75.4342C106.705 75.5596 107.122 75.6297 107.542 75.6426C108.514 75.6319 109.456 75.3071 110.228 74.7166C111 74.1262 111.561 73.3018 111.825 72.3667L117.822 51.3334C117.99 50.7626 118.044 50.1642 117.98 49.5725C117.916 48.9809 117.736 48.4077 117.45 47.8859C117.163 47.3642 116.777 46.9041 116.312 46.5323C115.848 46.1604 115.314 45.8841 114.742 45.7192ZM78.1286 45.7191C77.5608 45.5586 76.967 45.5115 76.381 45.5805C75.795 45.6495 75.2284 45.8333 74.7134 46.1214C74.1985 46.4095 73.7454 46.7963 73.38 47.2596C73.0146 47.7228 72.744 48.2536 72.5838 48.8215L69.331 60.2931L61.228 47.6176C60.7704 46.8814 60.109 46.2938 59.3241 45.926C58.5392 45.5583 57.6645 45.4261 56.806 45.5455C55.9457 45.6817 55.143 46.0632 54.4941 46.6443C53.8453 47.2254 53.3779 47.9813 53.148 48.8215L47.1749 69.8547C46.8457 71.0029 46.9848 72.2347 47.562 73.2805C48.1391 74.3263 49.1071 75.1007 50.2541 75.4342C50.6556 75.5596 51.0723 75.6297 51.4927 75.6426C52.4685 75.6369 53.4161 75.3143 54.1927 74.7235C54.9693 74.1327 55.533 73.3055 55.7989 72.3666L59.0517 60.895L67.1548 73.6284C67.6122 74.3665 68.2748 74.9552 69.0615 75.3228C69.8482 75.6903 70.725 75.8206 71.5846 75.6978C72.4442 75.575 73.2494 75.2044 73.9018 74.6313C74.5541 74.0582 75.0253 73.3074 75.2578 72.4708L81.2078 51.3334C81.376 50.7626 81.4298 50.1642 81.366 49.5725C81.3021 48.9809 81.1219 48.4077 80.8358 47.8859C80.5496 47.3641 80.1631 46.9041 79.6985 46.5323C79.2339 46.1604 78.7004 45.8841 78.1286 45.7191ZM151.283 46.1694C151.79 46.4696 152.232 46.8673 152.584 47.3396C153.303 48.2924 153.615 49.4909 153.452 50.6731C153.289 51.8554 152.665 52.9251 151.716 53.6484L141.854 61.1495L148.186 68.0255C148.997 68.9036 149.429 70.0673 149.385 71.2624C149.342 72.4575 148.827 73.5869 147.954 74.4038C147.524 74.8065 147.018 75.12 146.466 75.3259C145.914 75.5319 145.326 75.6263 144.737 75.6037C144.148 75.5811 143.57 75.4419 143.035 75.1942C142.5 74.9465 142.02 74.5953 141.622 74.1607L131.898 63.6267C131.866 63.5947 131.841 63.5555 131.816 63.5152C131.795 63.4827 131.774 63.4494 131.748 63.4184C131.699 63.375 131.652 63.3286 131.609 63.2795L129.039 72.3317C128.773 73.2706 128.21 74.0978 127.433 74.6886C126.656 75.2794 125.709 75.602 124.733 75.6077C124.314 75.6061 123.897 75.5477 123.494 75.4341C122.347 75.1006 121.379 74.3261 120.802 73.2803C120.225 72.2346 120.086 71.0027 120.415 69.8545L126.354 48.856C126.493 48.2646 126.752 47.7077 127.113 47.219C127.475 46.7304 127.932 46.3202 128.456 46.0133C128.981 45.7064 129.562 45.5091 130.165 45.4334C130.768 45.3577 131.38 45.4052 131.964 45.573C132.549 45.7408 133.093 46.0254 133.563 46.4096C134.034 46.7937 134.422 47.2695 134.704 47.808C134.986 48.3466 135.155 48.9367 135.202 49.5426C135.249 50.1485 135.173 50.7577 134.978 51.3332L133.658 56.1025L146.31 46.4598C146.779 46.1027 147.314 45.8419 147.883 45.6928C148.453 45.5436 149.047 45.5089 149.631 45.5907C150.214 45.6725 150.776 45.8692 151.283 46.1694Z" fill="white" fill-opacity="0.5"/>
</svg>
