<svg width="200" height="120" viewBox="0 0 200 120" fill="none" xmlns="http://www.w3.org/2000/svg">
<path d="M95.0506 39.293C103.177 39.293 110.036 44.6977 111.99 51.9838C109.097 46.4789 103.182 42.699 96.3912 42.699C86.7538 42.699 78.8933 50.3052 78.8933 59.6315C78.8931 61.0638 79.0808 62.4899 79.4515 63.8732C78.2113 61.5183 77.5629 58.8957 77.5625 56.2328C77.5552 46.8992 85.4133 39.293 95.0506 39.293Z" fill="white" fill-opacity="0.5"/>
<path d="M140.4 68.4215V60.1751C139.581 59.3712 138.694 58.7726 137.868 58.6749C135.431 58.3866 132.82 60.5807 133.11 64.4363C133.4 68.292 134.682 69.5674 137.254 69.8924C137.775 69.9583 139.099 69.4037 140.408 68.4263M140.408 52.4688H142.794V70.8575H140.408V69.4819C139.494 70.6278 138.287 71.4512 136.832 71.4512C133.447 71.4512 130.688 69.4061 130.688 64.3655C130.688 59.3248 133.447 57.1478 136.832 57.1478C138.241 57.1478 139.467 57.9419 140.408 59.0609V52.4688Z" fill="white" fill-opacity="0.5"/>
<path d="M127.162 57.5898H124.812V70.9379H127.162V57.5898Z" fill="white" fill-opacity="0.5"/>
<path d="M126.014 52.2891C126.29 52.2891 126.56 52.3712 126.79 52.5252C127.02 52.6791 127.199 52.8979 127.304 53.1539C127.41 53.4099 127.437 53.6915 127.383 53.9631C127.329 54.2348 127.196 54.4843 127 54.68C126.805 54.8757 126.556 55.0088 126.285 55.0625C126.014 55.1163 125.733 55.0882 125.478 54.9819C125.223 54.8755 125.005 54.6957 124.851 54.4652C124.698 54.2346 124.617 53.9637 124.617 53.6867C124.618 53.3158 124.765 52.9603 125.027 52.6983C125.289 52.4362 125.644 52.2891 126.014 52.2891Z" fill="white" fill-opacity="0.5"/>
<path d="M158.828 63.5203V64.0506H148.694C148.694 64.5612 148.733 64.9399 148.733 65.067C148.733 65.067 149.483 70.9897 155.389 69.1327C155.389 69.1327 156.8 68.6905 157.992 66.7896L158.653 67.0119C158.653 67.0119 157.992 70.2371 154.816 71.0312C151.64 71.8253 147.504 70.9457 146.442 65.7291C144.389 54.9906 159.523 54.0743 158.828 63.5301M148.764 62.824H156.54C156.551 61.8818 156.298 60.9553 155.808 60.151C155.419 59.5972 154.888 59.1584 154.271 58.8803C153.655 58.6023 152.975 58.4951 152.303 58.5701C150.651 58.7362 149.542 60.0361 149.067 61.4533C148.92 61.8955 148.819 62.3515 148.764 62.8142" fill="white" fill-opacity="0.5"/>
<path d="M169.702 67.8297L169.682 64.3113C169.344 64.1427 168.515 63.8739 166.675 63.8739C163.994 63.8739 163.367 66.437 163.367 66.437C163.236 69.5303 166.233 69.7966 167.511 69.4838C168.369 69.2786 169.217 68.3917 169.704 67.8297M162.309 61.0371L161.78 60.8172C161.78 60.8172 162.531 56.1504 167.998 57.0227C167.998 57.1449 171.788 57.5236 171.876 60.9125C171.966 64.536 171.966 70.5907 171.966 70.5907H169.716V69.2102C168.958 69.8601 167.523 70.813 167.523 70.813C163.07 72.2253 161.429 69.176 161.174 68.5578C160.918 67.9396 160.645 63.7395 164.259 62.7695C167.128 61.9974 169.024 62.5887 169.685 62.8672V62.1073C169.646 57.1278 163.896 58.0587 162.309 61.0371Z" fill="white" fill-opacity="0.5"/>
<path d="M112.26 52.4308L112.616 55.3116C112.598 55.2603 112.584 55.2089 112.569 55.1552C112.925 59.227 111.757 63.2859 109.291 66.5412L106.912 52.3698L101.25 52.2109C100.382 62.9006 96.9895 67.3744 93.4675 69.3927C92.088 70.1843 90.9205 70.4457 89.5068 70.7096C101.494 71.792 102.649 59.0866 102.832 60.9973L103.821 71.3693C101.269 72.8381 98.4134 73.6999 95.4759 73.8884C87.1889 74.426 77.9001 67.8875 75.6406 59.7389C76.2914 69.1263 86.7404 77.2774 95.961 76.6788C105.316 76.0728 112.913 68.6719 112.913 59.1134C112.92 58.9224 112.96 58.7341 113.03 58.5563L114.575 71.0346L120.552 70.8782L117.622 52.272L112.26 52.4308Z" fill="white" fill-opacity="0.5"/>
<path d="M174.61 50.3484C175.027 50.3479 175.435 50.4715 175.782 50.7035C176.129 50.9356 176.4 51.2657 176.56 51.6519C176.719 52.0382 176.761 52.4634 176.68 52.8736C176.599 53.2838 176.398 53.6606 176.103 53.9564C175.808 54.2521 175.432 54.4534 175.023 54.5349C174.614 54.6164 174.19 54.5743 173.804 54.414C173.419 54.2538 173.09 53.9825 172.858 53.6346C172.627 53.2866 172.503 52.8777 172.504 52.4594C172.505 51.8999 172.727 51.3637 173.122 50.9681C173.517 50.5725 174.052 50.3497 174.61 50.3484ZM174.61 50.0625C175.083 50.0625 175.545 50.2031 175.938 50.4665C176.331 50.7298 176.638 51.1042 176.819 51.5422C177 51.9802 177.047 52.4621 176.955 52.9271C176.863 53.392 176.635 53.8191 176.301 54.1543C175.966 54.4895 175.54 54.7178 175.076 54.8103C174.612 54.9028 174.132 54.8553 173.695 54.6739C173.258 54.4925 172.884 54.1853 172.622 53.7911C172.359 53.3969 172.219 52.9335 172.219 52.4594C172.22 51.8241 172.472 51.2152 172.921 50.766C173.369 50.3167 173.976 50.0638 174.61 50.0625Z" fill="white" fill-opacity="0.5"/>
<path d="M55.917 64.5306H51.8101V67.9025H55.9146L55.917 64.5306ZM52.5193 59.0526C52.222 59.2481 51.9685 59.3971 51.8125 59.4876V62.6053H55.917V60.5504C55.7342 58.0044 53.2822 58.757 52.5193 59.0551M59.2367 62.6957L60.1556 61.8649L60.6431 61.6011L63.875 65.5422L61.9081 66.8103C61.9081 66.8103 61.2963 65.701 60.6236 64.6113C60.0216 63.6339 59.1368 62.8056 59.244 62.7079M49.4556 57.6184H51.8101V58.3929C52.5193 57.6428 53.0775 55.1652 53.0775 55.1652L55.4783 55.3851C55.51 56.1524 55.0079 56.9196 54.3571 57.5842C54.8744 57.5297 55.3949 57.5126 55.9146 57.5329C57.4184 57.5622 57.9522 59.0209 58.1375 59.8834C58.8102 59.2408 60.5748 57.3178 60.5456 54.9062L62.9464 54.9918C62.9464 54.9918 62.961 56.2599 61.891 57.8432C62.437 57.6672 63.5241 57.4498 65.2619 57.6208C67.9259 57.8823 67.8382 61.0415 67.8382 61.0415C67.8382 61.0415 67.7943 66.7737 67.6627 67.7388C67.5311 68.7039 67.1387 69.6202 65.9565 70.9347C64.7744 72.2492 60.9331 71.7654 60.9331 71.7654V70.837C60.9331 70.837 61.1769 70.7881 62.7246 70.6195C64.2723 70.4509 64.6209 68.3032 64.733 68.3423C64.8451 68.3814 65.1693 62.6932 65.1693 61.6426C65.1693 60.592 65.1254 61.0318 64.382 59.5413C63.7654 58.3001 61.4767 58.9476 60.726 59.1968C59.984 59.8931 59.1558 60.491 58.2618 60.9756V71.0129H55.9024V69.8352H51.8101V71.0178H49.4531L49.4556 57.6184Z" fill="white" fill-opacity="0.5"/>
<path d="M34.6471 67.6879L35.6732 67.0942C35.942 67.1242 36.1996 67.2189 36.4239 67.3703C36.7408 67.6146 40.8843 69.8137 43.4509 69.7868L42.9634 71.6071C42.9634 71.6071 37.5183 71.4067 34.6349 67.6977M25.585 56.6391H30.2842C29.9527 56.1748 29.2703 55.2293 29.2386 55.349L31.1349 55.0338C31.8547 55.4323 32.4819 55.9795 32.9751 56.6391H36.1047C36.7701 56.1504 37.4891 55.024 37.6475 54.9141C37.8449 54.7748 40.0849 54.9141 40.0166 55.1902L38.503 56.6391H43.4338V58.3494H35.5806C35.5611 58.6353 35.5441 58.9236 35.5367 59.2095H42.4589V60.9198H35.5172C35.5172 61.2741 35.5172 61.626 35.5172 61.9754H42.4589V63.6857H35.4076C35.3667 64.0656 35.3065 64.4432 35.2272 64.817H44.0115V66.5274H34.691C32.7996 71.2479 25.078 71.3212 25.078 71.3212V70.3439C25.078 70.3439 28.4294 70.0776 30.0649 68.8559C30.8776 68.2343 31.5511 67.4485 32.0416 66.5493H25V64.839H32.763C32.763 64.7975 32.785 64.7608 32.7947 64.7217C32.8544 64.3869 32.8878 64.0478 32.8946 63.7077H26.5599V61.9974H32.9361C32.9361 61.648 32.9361 61.2888 32.9361 60.9418H26.5599V59.2315H32.9288C32.9288 58.8552 32.9166 58.5547 32.9141 58.3714H25.585V56.6391Z" fill="white" fill-opacity="0.5"/>
</svg>
