<svg width="200" height="120" viewBox="0 0 200 120" fill="none" xmlns="http://www.w3.org/2000/svg">
<g clip-path="url(#clip0_825_6380)">
<path d="M109.25 61.0325L104.106 70.9486H103.999L103.739 61.0325H99.4364L99.2685 61.3893L99.6375 61.6102C99.9935 61.8566 100.093 62.1065 100.139 62.7947L100.722 74.8281H105.516L113.252 61.0325H109.25ZM93.9383 68.1739C93.4567 69.5305 93.0785 70.4034 92.5195 70.9794C92.0804 71.4322 91.5011 71.7564 90.1671 71.7564C89.121 71.7564 88.538 71.3362 88.538 70.5411C88.5306 70.0285 88.6727 69.2497 89.2317 67.7338C89.7151 66.379 90.0933 65.5061 90.6542 64.9301C91.0878 64.4773 91.6689 64.1513 93.0047 64.1513C94.0508 64.1513 94.632 64.5715 94.6302 65.363C94.6412 65.8828 94.4992 66.6616 93.9383 68.1739ZM93.715 60.8622H93.2686C90.621 60.8622 89.1081 61.5632 87.8664 62.8581C86.3222 64.461 84.872 68.7951 84.8997 71.0881C84.9292 73.4263 86.4698 75.0473 89.7077 75.0473H90.1819C92.8368 75.0473 94.3497 74.3463 95.5914 73.0514C97.1338 71.4449 98.5545 67.1126 98.5268 64.8214C98.4954 62.485 96.9548 60.8622 93.715 60.8622ZM80.7152 66.0404C80.4736 66.629 80.2079 66.7703 79.8592 66.9097C79.6249 67.0003 79.1286 67.0329 78.6507 67.0329H76.8002L77.8075 64.1821H80.0437C80.7134 64.1821 80.9865 64.5244 80.9957 64.9138C80.9994 65.1619 80.8831 65.6165 80.7152 66.0404ZM80.3831 61.0325H74.315L74.1932 61.3893L74.4386 61.6265C74.6969 61.8765 74.6877 62.1735 74.4607 62.811L70.2209 74.8281H74.0954L75.7522 70.0575L77.064 70.0593L78.5216 74.8281H82.4145L80.5843 69.947C81.647 69.7786 82.1802 69.4797 82.7134 69.0143C83.444 68.3586 83.9495 67.4386 84.3683 66.0838C84.9809 64.1187 84.61 62.9958 84.217 62.4198C83.6765 61.6265 82.5381 61.0325 80.3831 61.0325ZM121.032 69.295L122.106 66.4098H117.167L117.932 64.2075H123.283L124.458 61.0234H114.357L114.217 61.4291L114.458 61.6628C114.718 61.9109 114.707 62.2061 114.482 62.8473L110.276 74.8227H119.715L120.855 71.6169H115.346L116.157 69.295H121.032ZM132.366 66.0404C132.124 66.629 131.855 66.7703 131.511 66.9097C131.272 67.0003 130.783 67.0329 130.305 67.0329H128.456L129.454 64.1821H131.694C132.36 64.1821 132.637 64.5244 132.642 64.9138C132.65 65.1619 132.53 65.6165 132.366 66.0404ZM132.028 61.0325H125.962L125.844 61.3893L126.087 61.6265C126.347 61.8765 126.334 62.1735 126.111 62.811L121.868 74.8281H125.748L127.403 70.0593H128.713L130.172 74.8281H134.061L132.235 69.947C133.296 69.7786 133.829 69.4797 134.36 69.0143C135.093 68.3586 135.6 67.4386 136.019 66.0838C136.631 64.1187 136.261 62.9958 135.869 62.4198C135.329 61.6265 134.189 61.0325 132.028 61.0325ZM139.984 79.5462C129.34 84.9453 115.143 87.9192 100.001 87.9192C84.8609 87.9192 70.6656 84.9453 60.02 79.5462C49.7822 74.3518 44.1402 67.5871 44.1402 60.5018C44.1402 53.4111 49.7822 46.6464 60.02 41.4556C70.6656 36.0583 84.8609 33.0808 100.001 33.0808C115.143 33.0808 129.34 36.0583 139.984 41.4556C150.223 46.6464 155.86 53.4111 155.86 60.5018C155.86 67.5871 150.223 74.3518 139.984 79.5462ZM141.425 38.7171C130.34 33.0953 115.63 30 100.001 30C84.372 30 69.6601 33.0953 58.5791 38.7171C52.0146 42.0479 41 49.307 41 60.5018C41 71.6912 52.0146 78.9521 58.5791 82.2829C69.6582 87.9047 84.3683 91 100.001 91C115.632 91 130.342 87.9047 141.425 82.2829C147.989 78.9521 159 71.693 159 60.5018C159 49.3052 147.989 42.0479 141.425 38.7171ZM138.493 76.7154C127.041 82.5219 112.796 84.7298 100.001 84.7298C87.2041 84.7298 72.9626 82.5219 61.5071 76.7154C55.4463 73.6382 47.3892 67.9692 47.3892 60.5018C47.3892 53.0271 55.4444 47.3636 61.5071 44.2883C72.9626 38.4817 87.2041 36.2739 100.001 36.2739C112.796 36.2739 127.041 38.4781 138.493 44.2883C144.559 47.3636 152.613 53.0271 152.613 60.5018C152.613 67.9729 144.557 73.6382 138.493 76.7154ZM139.087 43.1563C127.46 37.2537 112.982 34.9952 100.001 34.9952C87.0177 34.9952 72.5438 37.2555 60.9111 43.1563C54.3799 46.4671 46.0903 52.4439 46.0903 60.5018C46.0903 68.5524 54.3799 74.5329 60.9111 77.8473C72.5438 83.7445 87.0214 86.0048 100.001 86.0048C112.982 86.0048 127.46 83.7481 139.087 77.8473C145.622 74.5329 153.912 68.5524 153.912 60.5018C153.912 52.4439 145.624 46.4671 139.087 43.1563ZM70.673 62.811L60.0698 66.2341L58.7746 69.7224H68.125L69.3427 66.4352H62.8613L70.2191 63.9901L70.673 62.811ZM112.864 47.5266H114.401C115.447 47.5266 116.025 47.8708 116.038 48.6659C116.047 49.1784 115.907 49.8811 115.364 51.3935C114.884 52.7464 114.501 53.5306 113.956 54.1048C113.519 54.5576 112.938 54.7586 111.604 54.7586H110.32L112.864 47.5266ZM109.495 46.0324L105.3 58.0495H111.49C114.143 58.0495 115.658 57.4717 116.886 56.1786C118.429 54.5775 119.838 50.4118 119.792 48.1189C119.746 45.7789 118.207 44.2557 114.969 44.2557H109.346L109.228 44.6107L109.471 44.8443C109.73 45.0961 109.72 45.3931 109.495 46.0324ZM132.853 49.202H123.502L122.285 52.4856H128.764L121.405 54.9379L120.951 56.1134L131.554 52.6903L132.853 49.202ZM91.0619 58.0423H94.5859L97.6596 49.1186L99.4566 58.0423H102.984L107.792 44.2502L104.106 44.2557L101.538 51.7521L100.071 44.2557H95.1025L94.9807 44.6107L95.2242 44.8443C95.4862 45.0961 95.4733 45.3931 95.2501 46.0324L91.0619 58.0423ZM65.7967 58.0495L75.3851 58.0459L76.5437 54.7586H70.97L74.6526 44.2557H69.8446L69.7246 44.6107L69.9645 44.8443C70.2265 45.0961 70.2154 45.3931 69.9903 46.0324L65.7967 58.0495ZM86.1967 48.0682H86.3222L86.3886 52.2338H83.8019L86.1967 48.0682ZM76.3795 58.0423H80.4588L82.2263 54.9941H86.4495L86.4919 58.0423H90.193L89.3941 44.2557H83.8536L83.73 44.6107L83.9089 44.7863C84.2004 45.0671 84.0805 45.471 83.0012 47.1517L76.3795 58.0423Z" fill="white" fill-opacity="0.5"/>
</g>
<defs>
<clipPath id="clip0_825_6380">
<rect width="118" height="61" fill="white" transform="translate(41 30)"/>
</clipPath>
</defs>
</svg>
