<svg width="200" height="120" viewBox="0 0 200 120" fill="none" xmlns="http://www.w3.org/2000/svg">
<g clip-path="url(#clip0_336_10379)">
<path d="M16.0927 46.3085C16.2547 46.3682 16.4295 46.3816 16.5975 46.348L16.6601 46.3331C16.9615 46.2512 17.1449 46.361 17.2104 46.6624C17.224 46.7253 17.2845 46.7665 17.348 46.7558C17.763 46.6788 18.0558 46.8433 18.2264 47.2494L18.2471 47.3014C18.3503 47.5767 18.5402 47.6693 18.817 47.5791C18.8989 47.5529 18.9775 47.5447 19.0528 47.5546C19.5507 47.6135 19.7775 47.3915 19.7333 46.8885C19.7241 46.7825 19.7594 46.6776 19.83 46.6008C19.9007 46.5241 19.9997 46.4829 20.1018 46.488L23.907 46.6846C23.9983 46.6775 24.0865 46.6916 24.1717 46.7267L24.2141 46.746C24.5875 46.8181 24.9003 46.746 25.1525 46.5297C25.1982 46.4917 25.2691 46.4992 25.3146 46.5469L25.5775 46.8271C25.5979 46.8489 25.6283 46.8597 25.6616 46.8569C25.6949 46.8541 25.7284 46.838 25.7544 46.8124C25.8575 46.7141 25.9796 46.6518 26.1204 46.6256C26.1621 46.6172 26.2303 46.6313 26.3094 46.6644L26.7984 46.8861C26.847 46.9076 26.9156 46.9107 26.9926 46.8953L27.0318 46.8861C27.8507 46.6665 28.5991 46.8582 29.2771 47.4612C29.3741 47.5473 29.4227 47.6758 29.4073 47.8052C29.3107 48.6097 29.2886 49.3191 29.341 49.9335C29.5146 51.975 29.5269 53.9321 29.3778 55.8048C29.3634 55.9934 29.2005 56.1356 29.0118 56.1243C28.5893 56.103 28.4844 56.2636 28.6974 56.606C28.7811 56.7414 28.7564 56.9177 28.6384 57.0263C28.3223 57.3163 28.2707 57.6423 28.4836 58.0044C29.2845 59.3692 29.3623 60.8102 28.717 62.3274C28.7045 62.3591 28.7089 62.3951 28.7287 62.4229C28.7486 62.4507 28.7812 62.4665 28.8153 62.465C29.2622 62.4413 29.4799 62.6217 29.4685 63.0063L29.4368 63.4775C29.4908 66.9461 29.4654 70.4138 29.3606 73.8807C29.3596 73.9065 29.3452 73.9298 29.3224 73.9427C29.2996 73.9556 29.2715 73.9563 29.2476 73.9446C28.473 73.5661 27.6549 73.3842 26.7935 73.399C26.7064 73.4006 26.6286 73.4277 26.5749 73.4752C26.4245 73.6115 26.4899 73.6894 26.771 73.7088L26.8107 73.7111C27.1317 73.7275 27.1874 73.8086 26.9777 73.9544C26.865 74.0326 26.646 74.0982 26.3208 74.1513L26.1851 74.1718C26.1615 74.1752 26.1374 74.1784 26.1129 74.1816L25.9602 74.2002C25.9074 74.2061 25.8527 74.2119 25.7961 74.2174C25.4882 74.2469 25.0936 74.2141 24.6121 74.1191C24.1633 74.0322 23.7089 73.9921 23.2487 73.9986C23.1864 73.9986 23.1103 73.9782 23.0202 73.9372L22.7352 73.8069C22.6742 73.7789 22.59 73.7825 22.5043 73.8168C21.9868 74.0298 21.3694 74.1576 20.6521 74.2002C20.4102 74.2153 20.2165 74.1648 20.0709 74.0487L20.0355 74.0183C19.9814 73.9672 19.9215 73.9432 19.8881 73.9593C19.8668 73.9691 19.8545 73.988 19.8512 74.0158C19.8467 74.0467 19.8642 74.0863 19.8979 74.1215C20.0737 74.3067 20.0699 74.4409 19.8866 74.5241L19.6884 74.6023L19.5545 74.6522L19.5245 74.6622C19.3968 74.7064 19.2739 74.6974 19.156 74.6352C19.0823 74.5975 19.0831 74.5549 19.1585 74.5074L19.1951 74.4846L19.2616 74.4413C19.2719 74.4344 19.2818 74.4276 19.2914 74.4209L19.3443 74.3822L19.3882 74.3466C19.526 74.2275 19.4977 74.1646 19.3033 74.158L19.2433 74.1576L19.1742 74.1603L19.0961 74.1661C19.0823 74.1673 19.0681 74.1687 19.0536 74.1701L18.9619 74.1805C18.862 74.192 18.7589 74.1952 18.6524 74.1903C18.0777 74.1582 17.5186 74.2346 16.9753 74.4194L16.8591 74.4607C16.5479 74.577 16.236 74.613 15.9232 74.5688L14.1225 74.3181C13.9984 74.3007 13.8822 74.3568 13.8375 74.4558C13.7393 74.6638 13.5951 74.7818 13.4052 74.8097C13.3269 74.8203 13.2494 74.7872 13.2037 74.7236L12.6043 73.8905C12.5464 73.8084 12.4522 73.7676 12.366 73.7873C11.9222 73.8905 11.53 73.8971 11.1893 73.8069C11.1171 73.7877 11.037 73.7902 10.9584 73.8143C10.7365 73.8852 10.5805 73.8314 10.4906 73.6527L10.4745 73.6177C10.424 73.497 10.2874 73.4286 10.1453 73.453L8.36673 73.7602C8.31359 73.7697 8.24577 73.7595 8.17272 73.7315L8.13581 73.716C7.69653 73.5221 7.27367 73.5416 6.86722 73.7747L6.80926 73.8094C6.65859 73.9028 6.58408 73.861 6.58571 73.6841C6.59063 73.4137 6.52757 73.3179 6.39656 73.3965L6.31641 73.4428L6.27833 73.4637L6.25254 73.4766L6.24425 73.4801C5.62192 73.716 4.97829 73.7611 4.31338 73.6152C4.23313 73.5972 4.1537 73.5997 4.07509 73.6226C3.47896 73.7897 2.87792 73.8119 2.27197 73.689C2.20318 73.6759 2.13358 73.639 2.06316 73.5784C1.9043 73.4457 1.71842 73.3793 1.50551 73.3793C1.4754 73.3794 1.44665 73.367 1.42681 73.3452C1.40698 73.3235 1.39804 73.2946 1.40234 73.2663L1.41937 73.151L1.45067 72.9286L1.4783 72.7168L1.50224 72.5158L1.52251 72.3256L1.53909 72.146L1.552 71.9772L1.56123 71.8191L1.56678 71.6717C1.57111 71.5061 1.56793 71.3623 1.55723 71.2405L1.55219 71.1896C1.42936 70.0836 1.44901 68.9818 1.61115 67.8841C1.61979 67.82 1.68149 67.7732 1.75363 67.7759C2.01239 67.7825 2.12621 67.6727 2.09509 67.4466L2.08035 67.3369L2.06954 67.2437L2.06267 67.167C2.05939 67.1214 2.05874 67.0868 2.0607 67.0632C2.1213 66.2948 2.15159 65.5247 2.15159 64.753C2.15159 64.6892 2.0955 64.6375 2.02631 64.6375C1.69058 64.6359 1.52599 64.4835 1.53254 64.1804L1.53803 63.8638L1.53777 63.8248L1.53745 63.8191C1.48873 63.1941 1.46947 62.5684 1.47968 61.9421L1.48611 61.6654L1.4839 61.6178L1.47039 61.4628C1.46908 61.4494 1.46768 61.4352 1.46621 61.4205C1.44463 61.1907 1.56522 61.0147 1.82798 60.8923L1.87891 60.87C2.06945 60.7915 2.20917 60.6232 2.25231 60.4202C2.31618 60.1368 2.25805 59.8665 2.0779 59.6092L1.99466 59.4876C1.82556 59.2346 1.72966 59.0498 1.70695 58.9334C1.65127 58.6499 1.64718 58.3648 1.69467 58.0781C1.75527 57.721 1.77246 57.4465 1.74626 57.2548C1.66274 56.6699 1.54728 56.0907 1.39988 55.5173C1.38623 55.4668 1.35723 55.41 1.31288 55.347L1.28442 55.3084C1.15832 55.1462 1.15914 54.9815 1.28688 54.8144C1.34067 54.7421 1.36181 54.6621 1.34338 54.6006L1.23038 54.2221C1.20946 54.1512 1.22752 54.0771 1.27705 54.0304C1.55874 53.7666 1.51125 53.5209 1.13457 53.2931C1.06592 53.2512 1.04118 53.1641 1.07807 53.0941C1.34993 52.5665 1.49569 52.0053 1.51534 51.4106L1.5571 50.1769C1.59968 49.4854 1.53499 48.8039 1.36303 48.1321C1.09936 48.0174 1.0142 47.8134 1.10755 47.5202C1.15493 47.3688 1.24868 47.3094 1.3888 47.3422L1.41953 47.3506L1.48095 46.9328C1.48564 46.9025 1.50383 46.8758 1.53101 46.8594C1.55818 46.843 1.59178 46.8384 1.62343 46.8468C2.19598 46.9993 2.71605 46.9692 3.18366 46.7565L3.25705 46.7214C3.44212 46.628 3.60097 46.6264 3.73363 46.7165C3.81132 46.7705 3.88787 46.8009 3.94981 46.8025C5.23542 46.8566 6.52102 46.9082 7.80663 46.9574L7.96511 46.9434L8.28075 46.9131C8.49529 46.8918 8.69755 46.9508 8.88753 47.0901C8.94833 47.1334 9.02439 47.1582 9.10616 47.1613L11.3662 47.2597C11.4476 47.2627 11.5231 47.2361 11.575 47.1859C12.5314 46.2848 13.6533 46.0358 14.9405 46.4388C14.989 46.427 15.038 46.4246 15.0875 46.4317L15.1248 46.4388C15.3442 46.193 15.6669 46.1496 16.0927 46.3085ZM6.56854 63.4453C6.54344 63.4507 6.52226 63.4683 6.51202 63.4923L4.7482 67.7145C4.66376 67.916 4.7226 68.1505 4.89313 68.292C5.21494 68.5574 5.52406 68.8051 5.82049 69.0348L6.11269 69.2587C6.30466 69.404 6.491 69.5413 6.67169 69.6708C7.02872 69.9263 7.38574 70.0541 7.74276 70.0541C8.28812 70.0525 8.90636 69.9395 9.59748 69.715L12.0516 68.9187C12.0872 68.9076 12.1143 68.8785 12.1229 68.8421C12.1314 68.8058 12.1202 68.7677 12.0934 68.7418L6.6373 63.4652C6.61941 63.4473 6.59365 63.4399 6.56854 63.4453ZM4.60326 51.821C4.55435 51.8496 4.52129 51.8991 4.51362 51.9552C4.50595 52.0113 4.52451 52.0679 4.56395 52.1085C9.464 57.2647 14.3207 62.4101 19.1339 67.5449C19.6301 68.0741 20.1223 68.6074 20.6103 69.1448C20.9149 69.4791 21.3997 69.6691 22.0646 69.715C22.2015 69.7244 22.3345 69.7323 22.4634 69.7386L22.7159 69.7492C22.7571 69.7507 22.7979 69.7519 22.8382 69.753L23.0747 69.7575C23.6527 69.7636 24.1308 69.7314 24.5089 69.6609C24.5842 69.6484 24.6494 69.5979 24.6833 69.5258C25.3106 68.2019 25.8166 66.7126 26.2015 65.0578C26.2948 64.6531 26.1769 64.3254 25.8477 64.0747L25.7738 64.0191L25.6166 63.9047C25.5894 63.8852 25.5616 63.8656 25.5334 63.8458L25.3576 63.7248L25.1694 63.5994C25.1046 63.5568 25.0377 63.5136 24.9688 63.4696L24.7558 63.3355L24.5304 63.197C24.4918 63.1735 24.4527 63.1499 24.4131 63.1261C23.8726 62.8 23.4214 62.6018 23.0595 62.5313C23.0013 62.5188 22.9651 62.4573 22.9784 62.3937C23.0145 62.2233 22.9531 62.0841 22.7942 61.9759C18.7032 59.1857 14.5778 56.4479 10.418 53.7625C10.0113 53.4994 9.55861 53.1706 9.05985 52.7762L8.72625 52.5104C8.21683 52.109 7.78582 51.8071 7.43323 51.6047C6.598 51.1263 5.65467 51.1984 4.60326 51.821ZM174.242 51.6269L176.119 53.1063C176.178 53.1533 176.205 53.2309 176.19 53.3079C176.126 53.6093 176.063 53.9108 176.001 54.2123C175.939 54.5088 175.906 54.8128 175.903 55.1241L175.898 55.5649L175.892 55.9976L175.881 56.6313L175.874 57.0435L175.86 57.6466L175.85 58.0384L175.834 58.6108L175.822 58.9822L175.803 59.5239L175.79 59.8749L175.767 60.386L175.752 60.7165L175.727 61.197L175.709 61.5071L175.681 61.957L175.661 62.2466L175.63 62.6658L175.609 62.9351L175.575 63.3236L175.551 63.5725L175.539 63.6938C175.385 65.2126 175.14 66.4005 174.802 67.2574C174.448 68.1536 173.87 68.8655 173.065 69.393C172.982 69.4481 172.874 69.4481 172.793 69.393C171.518 68.5462 170.132 67.9858 168.634 67.7118L168.467 67.6825C168.059 67.6154 167.986 67.4949 168.248 67.3213C168.31 67.2797 168.39 67.2583 168.477 67.2598C169.345 67.2844 170.212 67.2844 171.08 67.2598C171.478 67.2484 171.786 67.1394 172.004 66.933C172.45 66.5102 172.727 65.9016 172.837 65.1069C173.415 60.9044 173.642 57.1762 173.517 53.9223C173.515 53.8536 173.459 53.7982 173.39 53.7945C171.937 53.7086 170.483 53.6679 169.027 53.6726L168.474 53.6764L168.287 53.6647L168.108 53.6519C167.741 53.6257 167.568 53.7937 167.59 54.1558L167.609 54.5129L167.609 54.5588C167.526 56.887 167.155 58.9645 166.497 60.7913C165.502 63.5439 163.898 65.8721 161.684 67.7759C160.95 68.4067 160.122 68.863 159.198 69.1448C159.008 69.2022 158.902 69.1825 158.879 69.0858C158.863 69.0262 158.9 68.9466 158.972 68.8819C163.43 64.9595 165.53 59.9779 165.273 53.937C165.27 53.867 165.217 53.8085 165.145 53.7969C163.31 53.4824 161.463 53.2407 159.606 53.0719C159.527 53.0654 159.472 53.0416 159.439 53.0007C159.401 52.9515 159.399 52.9032 159.434 52.8557C159.469 52.8039 159.549 52.7722 159.645 52.7721C161.526 52.761 163.406 52.7551 165.287 52.7541L167.188 52.7556L169.292 52.8385C170.545 52.8876 171.786 52.7729 173.016 52.4944C173.508 52.383 173.845 52.1135 174.028 51.6858C174.046 51.6454 174.081 51.6149 174.123 51.6033C174.164 51.5918 174.209 51.6005 174.242 51.6269ZM193.516 62.293L195.455 63.8118C195.51 63.8542 195.528 63.9335 195.499 64.0059C195.179 64.8071 195.057 65.5837 195.13 66.3358C195.206 67.1173 195.211 67.7939 195.145 68.3658C195.136 68.4435 195.093 68.5129 195.027 68.555C194.539 68.8663 194.006 69.0588 193.428 69.1325C193.354 69.1415 193.279 69.1076 193.234 69.0441C192.738 68.3529 192.047 68.0578 191.158 68.1585L191.075 68.1691C190.398 68.2625 189.663 68.2887 188.869 68.2478C188.734 68.24 188.603 68.29 188.507 68.3854C188.013 68.8769 187.517 69.1915 187.019 69.3291C186.922 69.3562 186.818 69.3377 186.737 69.2788C186.656 69.22 186.606 69.1272 186.601 69.0269C186.544 67.8355 186.518 66.6779 186.522 65.5539L186.524 65.118L186.466 63.9789C186.446 63.5578 186.484 63.14 186.579 62.7255C186.596 62.6527 186.659 62.6005 186.731 62.5977C187.319 62.5806 187.788 62.7062 188.136 62.9744L188.191 63.018C188.513 63.2899 188.846 63.4218 189.188 63.4136L189.652 63.4038C190.777 63.4759 191.86 63.2981 192.9 62.8705C193.124 62.7771 193.238 62.6329 193.241 62.438C193.243 62.2004 193.335 62.1521 193.516 62.293ZM79.4109 53.2636C81.2189 54.0501 82.4063 55.4296 82.9729 57.4023C83.8426 60.4366 83.4331 63.2047 81.7447 65.7066C80.6376 67.345 79.0678 68.4198 77.0354 68.931C74.7541 69.5045 72.6414 69.3554 70.6974 68.4837C69.1416 67.7841 67.9207 66.7314 67.0347 65.3257C66.1045 63.8478 65.6696 62.1774 65.7302 60.3146C65.8056 58.047 66.5704 56.1882 68.0247 54.7382C69.1318 53.6372 70.5639 52.8958 72.3212 52.5141C74.7057 51.9963 77.069 52.2462 79.4109 53.2636ZM41.985 52.4723C44.494 52.5771 47.0046 52.6058 49.5168 52.5583C51.9063 52.5124 53.9894 52.9933 55.7664 54.0009C57.5236 54.9987 58.5931 56.5913 58.9747 58.7785C59.3087 60.6922 59.1491 62.4339 58.4956 64.0035C58.0043 65.1864 57.219 66.2055 56.1398 67.0608C55.0458 67.9291 53.8412 68.4862 52.5261 68.7319C51.0556 69.0072 49.3064 69.0931 47.2786 68.9895L46.3693 68.9395L45.6053 68.9008L45.0229 68.8747L44.4898 68.854L43.9152 68.8364L43.4907 68.8277L43.1865 68.8248L42.9139 68.8253L42.7302 68.828L42.6176 68.8309L42.4635 68.8369L42.3706 68.842L42.2461 68.8513L42.1265 68.8618L42.0545 68.8656C41.8202 68.8739 41.771 68.8258 41.9069 68.7215L41.9507 68.6902L42.0046 68.6558C42.0554 68.6246 42.1127 68.6074 42.1766 68.6041C42.5483 68.5861 42.8325 68.5288 43.029 68.4321C43.3304 68.2863 43.4966 68.0471 43.5277 67.7145C43.6227 66.7314 43.6636 65.8008 43.6505 64.9226L43.6159 62.5392L43.591 60.3175L43.5803 58.7304L43.5785 58.0977L43.5787 57.4887L43.5821 56.8126L43.5876 56.3238L43.5954 55.9027L43.608 55.4869L43.6182 55.264L43.6211 55.215C43.6636 54.4859 43.5547 53.8518 43.2943 53.3128C43.2595 53.2414 43.2005 53.1841 43.1273 53.1506C42.7522 52.9851 42.3584 52.8835 41.9457 52.8458L41.8473 52.8361L41.7586 52.8254L41.6796 52.8138C41.6549 52.8098 41.6318 52.8056 41.6103 52.8013L41.5506 52.7879C41.5414 52.7856 41.5327 52.7832 41.5244 52.7808L41.4792 52.766C41.3513 52.7178 41.3688 52.6558 41.5317 52.5801L41.588 52.5557L41.6539 52.5304L41.7295 52.5042C41.8081 52.478 41.8933 52.4674 41.985 52.4723ZM146.107 53.448C147.088 54.2344 147.584 55.3559 147.596 56.8124C147.605 58.1428 147.202 59.4216 146.385 60.6488C145.268 62.3256 144.094 63.6687 142.861 64.6781L142.457 65.0034C142.368 65.0754 142.28 65.1466 142.195 65.217L141.943 65.4258L141.701 65.6299L141.47 65.8291C141.395 65.8948 141.322 65.9596 141.25 66.0236L141.039 66.2133C140.868 66.3695 140.708 66.5206 140.559 66.6667L140.384 66.8397C140.3 66.925 140.219 67.0085 140.142 67.0902C140.085 67.1509 140.097 67.1795 140.179 67.1763L140.614 67.1585L141.156 67.1391L141.657 67.1246L142.116 67.1148L142.533 67.1099L142.819 67.1094L143.081 67.1116L143.243 67.1146L143.394 67.1187L143.535 67.1241L143.665 67.1307L143.727 67.1345C144.855 67.2082 145.792 67.0804 146.537 66.7511C147.156 66.477 147.609 65.9718 147.896 65.2357L147.93 65.1463C147.958 65.0676 147.991 65.0062 148.03 64.9619C148.151 64.8237 148.217 64.8412 148.229 65.0143L148.231 65.0742L148.23 65.1444C148.229 65.1695 148.227 65.1963 148.225 65.2249C148.143 66.2211 147.916 67.2549 147.544 68.3264C147.475 68.5239 147.297 68.6632 147.087 68.6828C143.785 68.9875 140.593 69.017 137.509 68.7713C136.964 68.727 136.895 68.5222 137.303 68.1569L138.965 66.6616L140.71 65.0996C142.334 63.6512 143.483 62.0972 144.156 60.4374C144.867 58.6893 144.97 56.9484 144.463 55.215C144.264 54.5285 143.884 54.005 143.324 53.6446C142.847 53.3382 142.259 53.1858 141.56 53.1874C139.84 53.1891 138.83 54.1246 138.528 55.9941C138.509 56.112 138.479 56.2013 138.44 56.2619C138.338 56.4159 138.237 56.4119 138.135 56.2497C138.096 56.1874 138.074 56.1079 138.069 56.0113C138.018 55.1888 137.978 54.3261 137.949 53.4234C137.946 53.3131 138.01 53.2115 138.111 53.1653C139.321 52.6181 140.495 52.2986 141.634 52.2069C143.404 52.0659 144.895 52.4797 146.107 53.448ZM89.7408 52.283C91.0817 52.4781 92.4282 52.586 93.7803 52.6066L94.2378 52.6105L97.5306 52.6271C99.5385 52.6632 101.544 52.5927 103.547 52.4158C103.579 52.4123 103.611 52.422 103.635 52.4425C103.659 52.463 103.673 52.4925 103.674 52.5239C103.709 53.4627 103.695 54.3999 103.633 55.3354C103.625 55.4337 103.604 55.514 103.571 55.5763C103.483 55.7417 103.392 55.7204 103.299 55.5124C103.278 55.4673 103.261 55.4058 103.246 55.3277L103.237 55.2789C103.082 54.3417 102.494 53.8445 101.473 53.7871C100.334 53.7232 99.1929 53.6921 98.0514 53.6937C97.9822 53.6937 97.9261 53.7498 97.9261 53.8191C97.9081 58.0527 97.8999 62.2864 97.9016 66.5201C97.9016 66.9756 97.9458 67.4278 98.0342 67.8767C98.0948 68.1749 98.3093 68.36 98.6778 68.4321L100.007 68.6951C100.108 68.7147 100.11 68.7442 100.012 68.7835C99.7534 68.886 99.3981 68.9271 98.9457 68.9068L98.701 68.8938L98.4191 68.8835L97.9954 68.8735L97.3005 68.8636L96.1115 68.8558L95.1521 68.854L94.084 68.8548C94.0481 68.8548 94.0142 68.8545 93.9821 68.8537L93.8914 68.8504C93.8773 68.8497 93.8636 68.8489 93.8504 68.848L93.7768 68.8414C93.5958 68.8209 93.5361 68.7771 93.5976 68.7098C93.6186 68.6869 93.6631 68.6636 93.7312 68.6401L93.7954 68.6198L93.8711 68.5994L93.9583 68.5789L94.0572 68.5582L94.1675 68.5373L94.2895 68.5163L94.4229 68.4952L94.568 68.4739C94.7371 68.4501 94.8765 68.3299 94.9242 68.1667C95.1207 67.4966 95.2181 66.7839 95.2165 66.0285C95.2034 61.9685 95.2059 57.9085 95.2239 53.8485C95.2239 53.7807 95.17 53.7257 95.1035 53.7257C93.849 53.7404 92.5945 53.7453 91.34 53.7404C90.9863 53.7388 90.6334 53.8322 90.2812 54.0206C90.0995 54.1172 89.9529 54.2655 89.8415 54.4654C89.7629 54.6067 89.6885 54.7503 89.6181 54.8963L89.5492 55.043C89.4951 55.1642 89.4362 55.2576 89.3723 55.3231C89.1469 55.5472 89.0415 55.4711 89.0559 55.0948L89.061 55.0062L89.0702 54.9078C89.1619 54.0493 89.333 53.2071 89.5836 52.3813C89.6044 52.315 89.6708 52.2735 89.7408 52.283ZM116.82 52.111C117.606 53.6446 118.318 55.2174 118.957 56.8297C119.903 59.2135 120.831 61.6048 121.74 64.0035C121.783 64.114 121.887 64.1865 122.001 64.1853L125.852 64.1288C125.942 64.1289 126.021 64.1545 126.071 64.2001C126.247 64.3599 126.193 64.4643 125.912 64.5132L125.872 64.5196C124.772 64.685 123.664 64.9054 122.548 65.1807C122.479 65.1988 122.434 65.2668 122.445 65.338C122.617 66.3456 123.012 67.209 123.629 67.9283C123.855 68.1921 124.121 68.3707 124.425 68.4641C124.74 68.5591 125.066 68.6074 125.405 68.6091C125.468 68.6091 125.52 68.6189 125.563 68.6385C125.707 68.7008 125.705 68.7639 125.558 68.8278C125.517 68.8458 125.467 68.8556 125.408 68.8573C124.01 68.898 122.611 68.9135 121.212 68.9036L120.512 68.8966C120.134 68.8917 120.117 68.7565 120.463 68.4911C120.576 68.4033 120.624 68.263 120.581 68.1446L119.566 65.4191C119.54 65.3494 119.471 65.3027 119.392 65.3011L113.221 65.2347C112.944 65.2315 112.752 65.3642 112.646 65.6329C112.521 65.9504 112.398 66.3093 112.278 66.7096L112.227 66.8813L112.017 67.4835C111.76 68.2191 112.053 68.5804 112.896 68.5673C112.973 68.5656 113.043 68.5771 113.105 68.6017L113.176 68.6304C113.187 68.635 113.198 68.6396 113.208 68.6441L113.263 68.6705L113.308 68.6952C113.433 68.7711 113.403 68.8231 113.216 68.8514L113.151 68.8596C113.14 68.8608 113.128 68.8619 113.115 68.863L113.036 68.8688C113.021 68.8696 113.007 68.8704 112.992 68.8711L112.896 68.8745C111.341 68.9105 109.785 68.9097 108.229 68.872C108.152 68.8687 108.101 68.8458 108.077 68.8032C108.061 68.7773 108.063 68.7447 108.083 68.7155C108.103 68.6863 108.138 68.6641 108.177 68.6558L108.249 68.6421L108.334 68.6279L108.488 68.6054L108.672 68.5815L108.966 68.5476C109.428 68.4968 109.829 68.1847 110.17 67.6113C110.587 66.91 110.936 66.1768 111.216 65.4117L111.661 64.1976C112.8 61.3154 113.955 58.4394 115.124 55.5696L115.832 53.8349L116.056 53.2243C116.193 52.8491 116.382 52.4747 116.623 52.1012C116.694 51.9914 116.759 51.9947 116.82 52.111ZM46.6279 53.679C46.4879 53.7036 46.385 53.8231 46.3822 53.9641C46.32 58.0535 46.3036 62.1774 46.3331 66.3358C46.3364 66.9043 46.5534 67.3188 46.9841 67.5793C47.5901 67.9463 48.2902 68.1454 49.0845 68.1765C50.0949 68.2142 51.0841 68.0987 52.052 67.83C54.0746 67.2664 55.3709 65.9728 55.9408 63.9494C56.5746 61.7015 56.4223 59.5937 55.4839 57.6259C55.0417 56.6986 54.4889 55.9424 53.8257 55.3575C53.1067 54.7202 52.2666 54.2557 51.3052 53.9641C49.7723 53.5004 48.2132 53.4054 46.6279 53.679ZM73.3432 53.2735C71.7169 53.3996 70.5558 54.0927 69.8597 55.3526C68.7543 57.3564 68.421 59.5273 68.8599 61.8653C69.0515 62.8926 69.2955 63.7323 69.592 64.3844C69.9605 65.1987 70.4894 65.9163 71.1789 66.5373C72.5022 67.7251 74.0187 68.2699 75.7285 68.1716C76.4065 68.1323 77.0076 67.9758 77.5316 67.7022C78.1343 67.3893 78.6174 66.9698 78.981 66.4439C79.7163 65.3773 80.17 64.1919 80.3419 62.8877C80.4975 61.7211 80.4902 60.5382 80.3198 59.3389C80.143 58.097 79.7221 56.9681 79.0572 55.9523C77.7601 53.9731 75.8554 53.0801 73.3432 53.2735ZM193.091 64.3696H188.611C188.57 64.3696 188.537 64.4027 188.537 64.4434V67.2451C188.537 67.2646 188.545 67.2834 188.559 67.2972C188.572 67.311 188.591 67.3188 188.611 67.3188H193.091C193.111 67.3188 193.13 67.311 193.144 67.2972C193.157 67.2834 193.165 67.2646 193.165 67.2451V64.4434C193.165 64.4027 193.132 64.3696 193.091 64.3696ZM181.052 51.5088L181.655 51.5249L182.242 51.538L182.815 51.5482C183.098 51.5526 183.375 51.5559 183.646 51.558L183.727 51.5604C184.018 51.5757 184.082 51.6618 183.921 51.8185C183.882 51.8566 183.82 51.8851 183.746 51.9005L183.707 51.907C183.542 51.93 183.391 51.9848 183.255 52.0717C183.188 52.1127 183.147 52.1854 183.147 52.2634L183.108 55.5713C183.108 55.6097 183.13 55.6447 183.166 55.6656C183.201 55.6864 183.247 55.6907 183.29 55.677L184.692 55.2322C184.758 55.2104 184.841 55.2288 184.913 55.2813C185.302 55.5582 185.563 55.99 185.697 56.5765C185.709 56.6283 185.698 56.6826 185.666 56.7246C185.635 56.7665 185.587 56.7915 185.535 56.7928L183.459 56.837C183.256 56.841 183.093 56.9961 183.093 57.186L183.108 63.0008C183.108 63.0704 183.164 63.1272 183.233 63.1285C184 63.14 184.737 63.0032 185.447 62.7181C185.581 62.6641 185.695 62.6436 185.788 62.6567C186.007 62.6878 186.056 62.8025 185.933 63.0008C185.884 63.081 185.805 63.1408 185.697 63.1802C185.604 63.2151 185.511 63.2482 185.417 63.2796L185.275 63.3252C185.119 63.3727 184.981 63.4284 184.859 63.4923C183.236 64.3672 181.619 65.3191 180.008 66.348C179.958 66.3796 179.898 66.3898 179.842 66.3764C179.785 66.363 179.736 66.327 179.706 66.2768C179.33 65.6591 179.078 65.0062 178.949 64.318C178.917 64.1448 179.038 63.9761 179.222 63.9396L180.995 63.5857C181.064 63.5727 181.114 63.5102 181.116 63.4358C181.176 61.3124 181.137 59.1914 180.998 57.073C180.993 57.0009 180.94 56.9418 180.87 56.9304C180.458 56.8649 180.043 56.8427 179.626 56.8639L179.47 56.8739C179.049 56.905 178.937 56.8108 179.136 56.5913C179.184 56.5378 179.261 56.505 179.349 56.5003C179.929 56.4708 180.466 56.3095 180.961 56.0162C181.029 55.9768 181.071 55.9051 181.069 55.8294L180.946 51.6195C180.945 51.5899 180.956 51.5614 180.976 51.5405C180.996 51.5196 181.024 51.5082 181.052 51.5088ZM116.078 56.7117L113.366 63.8855C113.35 63.9265 113.355 63.9725 113.378 64.0095C113.402 64.0464 113.442 64.0697 113.486 64.0723C115.314 64.1935 117.082 64.2074 118.792 64.1141C118.833 64.1114 118.87 64.0904 118.892 64.0574C118.914 64.0244 118.919 63.9834 118.905 63.9469L116.257 56.7117C116.198 56.5528 116.138 56.5528 116.078 56.7117ZM191.534 55.6205C191.622 55.644 191.692 55.7104 191.721 55.7979C191.75 55.8854 191.734 55.9828 191.679 56.058L190.976 57.0041C190.927 57.0697 190.945 57.1057 191.03 57.1123C191.728 57.1614 192.372 57.3761 192.961 57.7562C193.587 58.1599 194.207 58.5725 194.821 58.994L195.28 59.3119C196.395 60.0917 197.538 60.1032 198.707 59.3463C198.843 59.2594 198.92 59.275 198.938 59.393C198.949 59.4662 198.917 59.5449 198.852 59.6019L196.629 61.5286C196.306 61.8088 195.958 61.8113 195.585 61.536L190.623 57.8692C190.567 57.8266 190.487 57.8318 190.436 57.8815C190.082 58.2289 189.727 58.5747 189.369 58.9192L188.832 59.4347C188.177 60.0639 187.612 60.548 187.137 60.8872C186.208 61.5524 185.356 62.0013 184.582 62.234C184.308 62.3175 184.229 62.2315 184.344 61.9759C184.372 61.9093 184.431 61.8508 184.508 61.8113C184.868 61.6228 185.241 61.3541 185.626 61.0052C187.293 59.5011 188.608 57.698 189.571 55.5959C189.606 55.5194 189.68 55.4689 189.763 55.4657C190.424 55.4329 191.015 55.4845 191.534 55.6205ZM192.219 59.6461C192.775 60.0033 193.01 60.4669 192.927 61.0371C192.917 61.1082 192.856 61.1627 192.779 61.1674C191.255 61.2689 189.729 61.278 188.203 61.1944C188.131 61.1911 188.077 61.1731 188.041 61.1403C187.975 61.083 187.983 61.0256 188.063 60.9683C188.099 60.9421 188.146 60.9282 188.205 60.9265C189.525 60.8937 190.768 60.4686 191.934 59.651C192.02 59.5916 192.132 59.5896 192.219 59.6461ZM1.15914 57.6161C1.22298 57.6314 1.27558 57.6859 1.29671 57.7586C1.33601 57.9012 1.29834 57.9487 1.1837 57.9012C1.10842 57.8696 1.05786 57.7999 1.05351 57.7218C1.04695 57.6333 1.08217 57.5981 1.15914 57.6161ZM1.3704 56.8591C1.3704 56.9083 1.36058 56.9566 1.34092 57.0041L1.32606 57.0387L1.2978 57.1002L1.27147 57.1515C1.18696 57.3054 1.13479 57.289 1.11498 57.1022L1.11001 57.041C1.10516 56.9615 1.12769 56.8826 1.17388 56.8174L1.2108 56.7673C1.32165 56.6269 1.37485 56.6575 1.3704 56.8591ZM21.2711 51.5826C20.2082 51.8841 19.1675 52.1487 18.1488 52.3764C18.0296 52.404 18.0102 52.4536 18.0907 52.5254L18.1095 52.5411C19.8733 53.9763 21.6445 55.31 23.4231 56.5421C23.4452 56.5577 23.4738 56.5608 23.4988 56.5503C23.5237 56.5398 23.5415 56.5172 23.5459 56.4905C23.6704 55.8273 23.7859 55.1625 23.8926 54.4961L24.1208 53.0228C24.1126 52.6705 23.9594 52.3568 23.6614 52.0815C23.3076 51.7555 22.9244 51.5466 22.5117 51.4548C22.2136 51.3893 21.8001 51.4319 21.2711 51.5826ZM190.318 51.2017C190.323 51.2562 190.295 51.3077 190.247 51.3295C189.534 51.6686 189.229 52.1249 189.33 52.6984C189.343 52.7727 189.407 52.8274 189.483 52.8286L192.423 52.8753C192.462 52.8763 192.499 52.8607 192.524 52.8331C192.549 52.8054 192.56 52.7685 192.553 52.7328L192.318 51.4671C192.299 51.3693 192.32 51.2679 192.375 51.1931C192.43 51.1184 192.512 51.0788 192.598 51.0862C193.252 51.1425 193.864 51.1112 194.434 50.9923L194.565 50.9633C194.749 50.9207 194.881 50.9117 194.961 50.9363C195.116 50.9838 195.17 51.1067 195.121 51.3049C195.105 51.372 195.042 51.4251 194.961 51.4401C194.289 51.5613 194.03 51.9816 194.182 52.7008C194.197 52.7733 194.256 52.8292 194.33 52.8409C195.073 52.9671 195.726 52.7688 196.287 52.2462C196.375 52.1638 196.512 52.1617 196.604 52.2413C197.007 52.5902 197.258 53.0326 197.356 53.5684C197.366 53.6265 197.35 53.6861 197.313 53.7312C197.276 53.7763 197.22 53.8022 197.162 53.8019H194.337C194.232 53.8019 194.148 53.8866 194.148 53.9911V55.4632C194.148 55.653 194.017 55.8175 193.833 55.8589L192.934 56.0678C192.827 56.0924 192.713 56.0664 192.627 55.9971C192.54 55.9278 192.49 55.8227 192.49 55.7114V54.0869C192.49 53.9376 192.372 53.8166 192.227 53.8166L189.495 53.8141C189.411 53.8137 189.343 53.8681 189.34 53.937L189.316 54.8169C189.31 54.9861 189.239 55.129 189.129 55.1929C188.731 55.4272 188.32 55.5181 187.896 55.4657C187.818 55.4551 187.754 55.405 187.729 55.3354C187.619 55.0552 187.617 54.7456 187.721 54.4064C187.773 54.2379 187.685 54.0583 187.52 53.996C186.411 53.5831 185.346 53.3374 184.324 53.2587C184.229 53.2504 184.155 53.2009 184.147 53.1408C184.139 53.0621 184.217 53.022 184.383 53.0203L185.074 53.0135L185.783 53.0084L186.509 53.005L187.252 53.0033C187.378 53.0032 187.504 53.0031 187.63 53.0031C187.665 53.0035 187.698 52.9887 187.721 52.9627C187.743 52.9367 187.753 52.9021 187.748 52.868L187.52 51.2656C187.516 51.235 187.525 51.2041 187.544 51.181C187.564 51.1578 187.593 51.1447 187.623 51.1452L187.728 51.1447L187.93 51.1428L188.214 51.1377L188.389 51.1327L188.554 51.1265L188.708 51.119L188.852 51.1103L188.985 51.1003C189.006 51.0985 189.027 51.0967 189.047 51.0949L189.164 51.083C189.183 51.0809 189.201 51.0788 189.218 51.0766L189.319 51.0629L189.41 51.0479C189.509 51.0297 189.586 51.009 189.642 50.9857L189.664 50.9756C190.058 50.7855 190.275 50.8609 190.318 51.2017ZM1.30408 51.386C1.31882 51.5351 1.27705 51.5695 1.17879 51.4892C1.1336 51.4518 1.10665 51.3907 1.10509 51.3221L1.10282 51.0254L1.10483 50.647L1.10849 50.5038L1.11392 50.3924L1.11917 50.3295L1.12322 50.2975L1.13012 50.2644L1.13528 50.2522C1.13977 50.2453 1.14472 50.2467 1.15013 50.2563L1.15684 50.2718L1.16774 50.3099L1.17964 50.3658L1.18813 50.413L1.2017 50.4985L1.22134 50.6403L1.24839 50.8621L1.29744 51.3199C1.29964 51.3416 1.30185 51.3636 1.30408 51.386ZM18.5615 46.1857C18.9185 46.2758 19.0258 46.4871 18.8833 46.8197C18.8707 46.8494 18.8461 46.8722 18.8156 46.8825C18.7851 46.8929 18.7517 46.8897 18.7237 46.8738C18.4747 46.7378 18.3404 46.5781 18.3208 46.3946C18.314 46.3314 18.3386 46.2688 18.3866 46.2272C18.4346 46.1855 18.4999 46.17 18.5615 46.1857Z" fill="white" fill-opacity="0.5"/>
</g>
<defs>
<clipPath id="clip0_336_10379">
<rect width="198" height="29" fill="white" transform="translate(1 46)"/>
</clipPath>
</defs>
</svg>
