<svg width="200" height="120" viewBox="0 0 200 120" fill="none" xmlns="http://www.w3.org/2000/svg">
<g clip-path="url(#clip0_825_6611)">
<path d="M63.5428 71.4782C62.4611 72.8401 61.2584 74.0803 59.9347 75.1987C59.6179 75.4666 59.5569 75.6821 59.7518 75.8452L59.7745 75.8631C60.0409 76.0612 60.0341 76.2497 59.7542 76.4285C57.4124 77.9321 55.0252 78.9535 52.5928 79.4928C51.0365 79.8381 49.464 79.9605 47.8752 79.8601C43.5241 79.585 39.6956 78.0305 36.3897 75.1966C36.3491 75.1624 36.3241 75.1127 36.3207 75.0588C36.3172 75.005 36.3356 74.9519 36.3715 74.9119C37.7479 73.3794 39.1663 71.9342 40.6266 70.5765C40.7055 70.5027 40.8248 70.4974 40.9085 70.5641C43.1429 72.36 45.6863 73.2885 48.5387 73.3495L48.6865 73.3518C52.1493 73.3243 55.0658 72.1867 57.436 69.9388C58.4515 68.9759 59.2817 67.898 59.9266 66.7053C60.8501 65.0009 61.3659 63.1383 61.4741 61.1174C61.5836 59.0966 61.228 57.1706 60.4073 55.3396C59.8894 54.3106 59.3337 53.3745 58.7401 52.5312C58.6514 52.4063 58.6643 52.2345 58.7706 52.1247L59.7383 51.1313L60.7013 50.1464L61.6594 49.17C62.4559 48.3598 63.2473 47.5584 64.0337 46.7658L64.9749 45.819L65.9113 44.8806C66.067 44.7249 66.2224 44.5695 66.3777 44.4145L67.3069 43.4888C67.4613 43.3353 67.6156 43.182 67.7696 43.0292L68.6916 42.1161C68.8448 41.9647 68.9979 41.8136 69.1507 41.6628C69.1953 41.6188 69.2406 41.5865 69.2866 41.5658L69.3265 41.5493C69.4485 41.5048 69.4634 41.5657 69.3711 41.732L69.3402 41.785C69.3345 41.7944 69.3285 41.804 69.3223 41.8139L69.3028 41.8444C66.7138 45.8535 65.9652 50.1826 67.057 54.8316L67.156 55.2441L67.2164 55.5011L67.2735 55.7496L67.3272 55.9895L67.3775 56.2209L67.4244 56.4437L67.4679 56.658L67.508 56.8637C67.5144 56.8973 67.5207 56.9305 67.5268 56.9634L67.5619 57.1563L67.5936 57.3407C67.5986 57.3707 67.6035 57.4004 67.6082 57.4297L67.6348 57.6012L67.658 57.7642C68.3151 62.8789 67.2125 67.5232 64.3501 71.6969C64.311 71.7533 64.2506 71.786 64.1898 71.7836C63.9651 71.7734 63.7631 71.6849 63.5838 71.5181L63.5428 71.4782ZM50.5016 41.2339L50.664 41.248C54.7122 41.6429 58.2581 43.1664 61.3017 45.8187C61.3387 45.8512 61.3608 45.8978 61.3629 45.9475C61.3646 45.9971 61.3462 46.0454 61.3119 46.0807L57.0324 50.4347C56.9623 50.5043 56.8528 50.5105 56.7769 50.4492C55.5464 49.4642 54.1984 48.7296 52.7327 48.2453C51.436 47.8161 50.1062 47.6098 48.7433 47.6263C46.4799 47.6524 44.3449 48.277 42.3383 49.4999C39.9153 50.9788 38.1583 53.0457 37.0671 55.7007C36.6789 56.6921 36.4204 57.7122 36.2915 58.7612L36.2701 58.9466C35.9469 61.7323 36.4634 64.322 37.8196 66.7157C38.2036 67.3939 38.5943 68.0253 38.9919 68.6099C39.0445 68.6878 39.0352 68.7927 38.9695 68.8596C35.3418 72.5904 31.7452 76.2098 28.1797 79.7177C28.1553 79.7425 28.1351 79.7459 28.1188 79.728C28.1042 79.7114 28.1068 79.6806 28.1249 79.6538C30.4465 76.205 31.3957 72.4164 30.9725 68.288L30.9648 68.2164L30.9467 68.0663C30.9434 68.0405 30.9399 68.0143 30.9363 67.9878L30.9127 67.8241C30.9084 67.796 30.904 67.7676 30.8995 67.7388L30.8704 67.5614C30.8653 67.5311 30.86 67.5004 30.8545 67.4694L30.82 67.2784L30.7818 67.0783C30.7751 67.0442 30.7683 67.0097 30.7614 66.9749L30.7177 66.7612L30.6704 66.5384L30.6194 66.3066L30.5648 66.0657C30.3971 65.3297 30.2376 64.5916 30.0862 63.8515C29.2154 58.4658 30.3295 53.5974 33.4286 49.2461C33.4631 49.1964 33.5267 49.1789 33.5787 49.2049L34.0796 49.4504C34.134 49.4767 34.1979 49.4631 34.2338 49.4174C35.329 48.0129 36.5702 46.7583 37.9575 45.6536C38.0098 45.6127 38.0293 45.5461 38.0041 45.4947L37.8317 45.148C37.7311 44.946 37.7626 44.7209 37.9048 44.626C41.7663 42.0225 45.9105 40.8874 50.3375 41.2208L50.5016 41.2339ZM154.967 58.8434L155.001 72.1984C155.001 72.2558 154.958 72.3046 154.9 72.3118C153.882 72.4467 152.797 72.4226 151.647 72.2396C151.576 72.2286 151.511 72.2059 151.45 72.1715C151.256 72.067 151.112 71.9418 151.018 71.796C150.945 71.6818 150.906 71.5023 150.902 71.2574C150.863 68.4442 150.831 65.6303 150.805 62.8157C150.802 62.5281 150.892 62.2915 151.075 62.1058L154.488 58.635C154.807 58.3117 154.967 58.3812 154.967 58.8434ZM73.4383 50.2965L96.4215 50.3357C96.4654 50.3356 96.5075 50.3542 96.5384 50.3871C96.5692 50.4201 96.5863 50.4647 96.5858 50.5111L96.5533 53.3649C96.5533 53.4298 96.5025 53.4825 96.4397 53.4825L88.1466 53.5444C88.1197 53.5449 88.0941 53.5563 88.0754 53.5761C88.0568 53.5958 88.0466 53.6223 88.0472 53.6496L88.0837 59.4336C88.0848 59.5092 88.1462 59.5698 88.2216 59.5698L89.0978 59.578L96.4357 59.6317C96.4946 59.6325 96.543 59.6782 96.5472 59.7369C96.6378 60.726 96.6385 61.7151 96.5493 62.7042C96.543 62.7632 96.494 62.8077 96.4357 62.8074L89.3006 62.8095L88.1851 62.8198C88.1291 62.8198 88.0837 62.866 88.0837 62.923L88.0918 68.9071C89.3831 68.9855 90.6743 68.9903 91.9656 68.9215C92.3063 68.9036 92.591 68.8067 92.8195 68.6306C93.0561 68.449 93.3069 68.2186 93.5719 67.9393C95.8706 65.5275 98.2148 63.1146 100.604 60.7005L101.403 59.8958C101.541 59.7583 101.512 59.6895 101.315 59.6895L97.9203 59.6771C97.8606 59.6771 97.8119 59.6285 97.8108 59.5677L97.7763 57.2092C97.7758 57.165 97.7935 57.1225 97.8255 57.0911C97.8575 57.0597 97.9011 57.042 97.9467 57.042L98.8617 57.0416L100.214 57.0396L101.979 57.0341L103.701 57.0255C104.121 57.0227 104.463 56.8701 104.727 56.5674L104.944 56.3177C105.299 55.9504 105.654 55.5817 106.009 55.2117C106.514 54.6834 107.097 54.3512 107.757 54.215L107.798 54.2079L107.847 54.2009L107.905 54.1943L108.007 54.1849L108.128 54.176L108.319 54.1652L108.485 54.1577L108.735 54.1488L109.019 54.1409L109.688 54.1284C110.46 54.1174 111.263 54.1277 112.097 54.1593C112.284 54.1676 112.324 54.2494 112.217 54.4049C111.884 54.8941 111.481 55.346 111.009 55.7605L110.899 55.8555C110.521 56.176 110.183 56.5103 109.884 56.8584C109.779 56.9808 109.807 57.042 109.968 57.042L111.884 57.0435L113.148 57.0462L114.399 57.0503C114.793 57.0516 115.169 56.9835 115.527 56.846C115.73 56.7668 115.923 56.6099 116.104 56.3753L116.145 56.3198C116.497 55.8383 116.913 55.4015 117.395 55.0095C117.438 54.9732 117.494 54.9557 117.549 54.9607C117.604 54.9658 117.655 54.993 117.689 55.0363L121.307 59.5492C121.373 59.6317 121.354 59.673 121.248 59.673L107.252 59.7245C107.186 59.7245 107.122 59.7505 107.075 59.7968L106.006 60.8555L105.173 61.6844L104.56 62.2954L103.96 62.8973L103.175 63.6858L102.6 64.2665L101.851 65.0267L101.121 65.7707L100.411 66.4986L99.7208 67.2103L99.0502 67.9058L98.5603 68.4169L97.9242 69.0842L97.6136 69.4118L97.0072 70.0548L96.7114 70.3703L96.1346 70.9891L95.8536 71.2925C95.4048 71.7793 94.9047 72.0862 94.3532 72.2131L94.2696 72.2307L94.2336 72.2346L94.1351 72.2407L93.8775 72.2492L93.6034 72.2545L92.9208 72.262L92.5335 72.2644C86.7911 72.296 81.0486 72.2919 75.3062 72.252L69.7247 72.2087C69.507 72.2073 69.4752 72.1282 69.6294 71.9714L73.0894 68.4531C73.1492 68.3923 73.2319 68.3605 73.3176 68.3652C73.4034 68.3699 73.4846 68.4107 73.5417 68.4779C73.6566 68.6141 73.7858 68.7289 73.9291 68.8225C74.0548 68.905 74.2144 68.947 74.4077 68.9484C76.8361 68.9607 79.2497 68.9642 81.6483 68.9587C81.7014 68.9587 81.7522 68.9373 81.7896 68.8993C81.8269 68.8613 81.8476 68.8099 81.8471 68.7565L81.7862 62.9333C81.7851 62.8771 81.7382 62.8321 81.6808 62.8322L73.3896 62.7579C73.3333 62.7568 73.2882 62.71 73.2882 62.6526V59.6853C73.2882 59.6272 73.3354 59.5801 73.3937 59.5801L81.6848 59.5553C81.7397 59.5553 81.7842 59.5101 81.7842 59.4542V53.695C81.7842 53.5796 81.691 53.4857 81.5753 53.4845L73.343 53.4206C73.3166 53.4201 73.2915 53.4085 73.2732 53.3883C73.255 53.3682 73.245 53.3412 73.2456 53.3133L73.276 50.4657C73.2771 50.3719 73.3495 50.2965 73.4383 50.2965ZM127.734 64.3034C129.576 64.3695 131.418 64.4245 133.261 64.4685C133.327 64.4698 133.391 64.4922 133.444 64.5325C134.029 64.9837 134.567 65.4948 135.056 66.0657C135.229 66.2679 135.423 66.4474 135.638 66.6042C135.883 66.7831 136.005 67.1036 136.005 67.5658C136.008 69.0749 136.002 70.5579 135.987 72.0147C135.986 72.1191 135.905 72.2034 135.804 72.2045L130.929 72.2604C130.903 72.2611 130.879 72.2504 130.862 72.231C130.845 72.2116 130.837 72.1854 130.84 72.1591C131.061 70.3722 131.1 68.4683 130.955 66.4474C130.94 66.2466 130.863 66.217 130.724 66.3587L125.175 72.0003C125.004 72.1736 124.803 72.2604 124.57 72.2604H119.342C119.158 72.2604 119.13 72.1942 119.259 72.0622C120.689 70.5856 122.12 69.1118 123.551 67.6408L125.704 65.4298L126.034 65.0459C126.046 65.0326 126.057 65.019 126.069 65.005C126.494 64.5125 127.049 64.2787 127.734 64.3034ZM135.851 58.6928C135.932 58.6928 135.997 58.7695 135.997 58.8641L135.991 60.4984C136.015 60.6359 136.103 60.6903 136.253 60.6614L144.972 60.7026C145.03 60.7024 145.079 60.7479 145.085 60.8079C145.165 61.7076 145.153 62.6059 145.049 63.5028C145.042 63.5621 144.994 63.6075 144.935 63.6101L144.097 63.6304L143.47 63.6434L142.738 63.6553L142.196 63.6616L141.691 63.6649C141.651 63.665 141.611 63.6651 141.571 63.6652L141.148 63.6649L140.785 63.6624L140.559 63.6595L140.345 63.6557L140.047 63.6482C140.016 63.6472 139.985 63.6462 139.954 63.6452C139.772 63.6389 139.643 63.6649 139.568 63.7234L139.548 63.7401L139.751 63.998L140.371 64.5927L141.096 65.2957L141.481 65.674L141.807 65.9985L142.003 66.1974L142.169 66.3689L142.279 66.4863L142.371 66.5862L142.426 66.6496C143.017 67.3388 143.654 67.9799 144.337 68.5728C144.601 68.8025 144.848 68.9435 145.079 68.9958C145.389 69.066 145.683 69.0467 145.962 68.938C146.208 68.8426 146.326 68.6653 146.315 68.406L146.312 68.3644C146.281 68.0095 146.289 67.6924 146.335 67.4131C146.378 67.149 146.527 66.8856 146.781 66.6228C147.796 65.569 148.842 64.5256 149.919 63.4925C150.056 63.359 150.135 63.3886 150.154 63.5812C150.228 64.3142 150.262 65.0588 150.257 65.8152L150.211 68.548L150.211 68.8341L150.21 69.2459L150.207 69.5089L150.204 69.7626L150.199 70.0071L150.193 70.2423L150.186 70.4684L150.177 70.6852L150.168 70.8927L150.157 71.091L150.146 71.2801C150.121 71.635 149.958 71.937 149.655 72.186C149.606 72.226 149.543 72.2479 149.476 72.2479H142.299C142.236 72.2479 142.175 72.2193 142.132 72.1695L142.035 72.055C142.018 72.0354 142.001 72.0155 141.983 71.9954L141.817 71.8076L141.697 71.6747L141.57 71.5357L141.436 71.3905L141.294 71.2392L141.067 71.0008L140.824 70.7485L140.564 70.4825L135.259 65.1148L133.906 63.7566C133.858 63.709 133.795 63.6823 133.73 63.6823L121.865 63.6328C121.834 63.6325 121.804 63.6215 121.782 63.6024C121.761 63.5832 121.75 63.5577 121.751 63.5317L121.759 63.3357L121.7 60.843C121.699 60.7932 121.717 60.7448 121.75 60.709C121.783 60.6732 121.829 60.6531 121.877 60.6531L130.874 60.6015C130.934 60.6005 130.985 60.5564 130.996 60.4963C131.084 59.9797 130.94 59.5217 130.562 59.1224L130.517 59.0766C130.268 58.829 130.318 58.7045 130.665 58.7031L135.851 58.6928ZM162.215 55.8679C162.256 56.8226 162.255 57.7986 162.213 58.796C162.194 59.2623 161.97 59.7218 161.54 60.1744C161.247 60.4839 160.95 60.79 160.65 61.0925L160.347 61.396L160.031 61.6766C159.642 62.0219 159.448 62.4621 159.449 62.9972L159.451 63.1826L159.453 63.2912L159.458 63.4316L159.465 63.545L159.471 63.6056C159.474 63.6329 159.478 63.6558 159.481 63.6741C159.541 63.9643 159.759 64.1067 160.134 64.1012L161.142 64.0853L162.63 64.0562L163.126 64.0455C163.275 64.0428 163.41 63.9572 163.479 63.8226C163.655 63.4774 163.62 63.1231 163.375 62.7599C163.339 62.7071 163.282 62.6707 163.217 62.6588C162.598 62.5392 161.94 62.5103 161.244 62.5722C161.049 62.5887 161.006 62.5144 161.114 62.3493C161.257 62.1333 161.426 61.9304 161.619 61.7406L161.796 61.5674L161.909 61.4587L162.06 61.318L162.127 61.2579L162.163 61.228L162.191 61.2061C162.459 61.0149 162.804 60.9166 163.227 60.9111C165.357 60.8863 167.487 60.9028 169.616 60.9606C169.677 60.9618 169.728 61.0038 169.74 61.0617C169.837 61.528 169.837 61.9951 169.74 62.4628C169.728 62.5203 169.677 62.5616 169.616 62.5618H167.701C167.317 62.5618 167.069 62.6478 166.957 62.8198C166.817 63.0344 166.796 63.3535 166.894 63.7772C166.934 63.9459 167.071 64.0663 167.229 64.0703L169.553 64.1239C169.616 64.1265 169.668 64.1645 169.685 64.2188C169.819 64.6798 169.836 65.1443 169.737 65.6126L169.717 65.7004C169.254 65.7169 168.791 65.7142 168.328 65.6922L168.181 65.6858L168.043 65.6818L167.915 65.68L167.796 65.6806L167.687 65.6834C167.67 65.684 167.653 65.6848 167.636 65.6856L167.542 65.6919C167.422 65.7017 167.328 65.7176 167.259 65.7396C166.735 65.9088 166.631 66.3277 166.947 66.9963C166.975 67.0544 167.029 67.0952 167.093 67.1057C167.926 67.2322 168.763 67.2556 169.604 67.1758C169.633 67.1729 169.661 67.1812 169.683 67.1988C169.704 67.2164 169.717 67.2417 169.717 67.2687L169.766 68.5687C169.769 68.6552 169.732 68.7385 169.665 68.7973C169.597 68.8561 169.505 68.8849 169.413 68.8761C168.636 68.7991 167.905 68.7943 167.221 68.8617C167.096 68.8742 166.991 68.9601 166.953 69.0804C166.819 69.5041 166.823 69.8336 166.963 70.0688C167.078 70.2601 167.328 70.3515 167.714 70.3433C168.263 70.3336 168.812 70.3213 169.361 70.3061C169.488 70.302 169.616 70.2676 169.746 70.203C169.838 70.1562 169.932 70.1142 170.028 70.0771C170.086 70.0548 170.152 70.0693 170.196 70.1142L171.853 71.8249C171.934 71.9088 171.917 71.9507 171.8 71.9507L159.019 71.9425L156.303 72.0004C156.257 72.0014 156.213 71.9836 156.18 71.951C156.147 71.9183 156.129 71.8736 156.129 71.8269L156.141 62.0604C156.141 61.9904 156.159 61.9238 156.194 61.8685C156.382 61.5617 156.606 61.2894 156.867 61.0514L157.467 60.5045L160.227 57.6951L162.077 55.8122C162.164 55.7241 162.21 55.7427 162.215 55.8679ZM107.402 60.9111L120.113 60.9131C120.232 60.9131 120.328 61.0116 120.33 61.1339C120.357 63.943 120.34 66.6544 120.281 69.2682C120.274 69.5305 120.082 69.8668 119.704 70.277L119.574 70.4154L119.417 70.5786L119.265 70.7338L119.119 70.881C119.095 70.9049 119.071 70.9284 119.048 70.9516L118.909 71.087L118.776 71.2143L118.648 71.3338C118.627 71.353 118.607 71.3719 118.586 71.3905L118.466 71.498C118.369 71.5843 118.276 71.6623 118.19 71.732C117.948 71.9256 117.637 72.0038 117.256 71.9667L117.188 71.959L102.027 71.9941L99.2995 71.9466C99.2433 71.9453 99.1958 71.8979 99.1879 71.8352C99.073 70.8984 99.0858 70.073 99.2264 69.359C99.3035 68.9669 99.5266 68.5921 99.8957 68.2344C101.298 66.8752 102.693 65.501 104.08 64.1115L104.122 64.0711C104.279 63.9319 104.359 63.9713 104.362 64.1894L104.352 64.8317C104.379 65.0477 104.5 65.155 104.715 65.1536L108.851 65.1457L114.247 65.1413L115.356 65.1412C115.504 65.1412 115.632 65.0377 115.665 64.8915C115.757 64.5008 115.756 64.0696 115.663 63.5977C115.639 63.4772 115.536 63.3897 115.415 63.3872L111.103 63.2923L105.25 63.2201C105.127 63.2187 105.103 63.1685 105.177 63.0695C105.799 62.2496 106.48 61.5507 107.219 60.973C107.272 60.9328 107.336 60.9111 107.402 60.9111ZM48.218 52.1598C48.2449 52.1581 48.2712 52.1675 48.2908 52.1859C48.3104 52.2043 48.3215 52.2299 48.3214 52.2568L48.2971 57.4155C48.2959 57.4796 48.2615 57.5395 48.2058 57.5744C47.9624 57.7285 47.7116 57.8688 47.4534 57.9953C47.1451 58.148 46.9146 58.3117 46.7618 58.4865C46.1101 59.2321 45.8701 60.0836 46.0418 61.0411C46.1459 61.623 46.373 62.1072 46.7232 62.4938C47.0951 62.9037 47.5703 63.1919 48.149 63.3584C48.2568 63.3889 48.3314 63.4892 48.3316 63.6039C48.3388 65.723 48.3134 67.8579 48.2555 70.0086L48.2322 70.8158C48.2241 71.0827 48.1693 71.1391 48.0679 70.985C48.0449 70.9506 48.024 70.9039 48.005 70.8447C47.7955 70.1651 47.4101 69.6609 46.849 69.3322L46.7878 69.2967L46.6576 69.2233C46.6351 69.2108 46.6121 69.1982 46.5887 69.1854L46.4431 69.1072C46.418 69.0939 46.3925 69.0805 46.3665 69.067L46.2055 68.984L46.0343 68.8977L45.8528 68.8083C45.8217 68.7932 45.7902 68.7779 45.7583 68.7624L45.5614 68.6682L45.161 68.4796C45.0983 68.4496 45.0373 68.4201 44.978 68.3911L44.8052 68.3051C44.7772 68.291 44.7497 68.277 44.7226 68.2631L44.5651 68.1811C44.5143 68.1541 44.4653 68.1277 44.4179 68.1016L44.2809 68.0248C44.127 67.9366 43.9939 67.8538 43.8818 67.7763C41.928 66.424 40.7151 64.5194 40.2432 62.0625C40.1783 61.7241 40.325 61.4544 40.6833 61.2536C40.586 60.6098 40.586 59.9969 40.6833 59.415C40.8808 57.507 41.6481 55.883 42.9853 54.5431C44.4361 53.0904 46.1804 52.296 48.218 52.1598ZM159.803 69.0991C159.784 69.099 159.765 69.1068 159.752 69.1207C159.738 69.1346 159.73 69.1534 159.73 69.1731L159.727 69.9614C159.727 69.9811 159.735 70 159.749 70.014C159.762 70.028 159.781 70.0359 159.8 70.0359L163.22 70.0481C163.239 70.0481 163.258 70.0404 163.271 70.0265C163.285 70.0126 163.293 69.9938 163.293 69.9741L163.296 69.1858C163.296 69.1661 163.288 69.1472 163.274 69.1332C163.261 69.1192 163.242 69.1113 163.223 69.1112L159.803 69.0991ZM115.298 67.6669H104.682C104.646 67.6669 104.617 67.6965 104.617 67.733V68.8761C104.617 68.9126 104.646 68.9422 104.682 68.9422H115.298C115.315 68.9422 115.331 68.9352 115.344 68.9228C115.356 68.9104 115.363 68.8936 115.363 68.8761V67.733C115.363 67.7154 115.356 67.6987 115.344 67.6863C115.331 67.6739 115.315 67.6669 115.298 67.6669ZM49.5176 49.9045L49.5282 49.9374C49.836 50.9292 50.4626 51.6072 51.4079 51.9713L51.4874 52.0009C53.7481 52.8112 55.4626 54.2769 56.6308 56.3982C57.1122 57.2731 57.4049 58.2106 57.509 59.2107C57.5199 59.3193 57.4598 59.4208 57.3635 59.4618L57.3387 59.4707C57.1426 59.5285 57.0568 59.6743 57.0811 59.9082L57.1073 60.1563L57.1075 60.1599C57.1318 61.2522 57.0081 62.1863 56.7363 62.9622C55.5437 66.3628 53.1627 68.3424 49.5931 68.9009C49.5205 68.9118 49.4468 68.8899 49.3917 68.841C49.3366 68.7921 49.3056 68.7212 49.3071 68.6471C49.333 67.3654 49.3463 66.0919 49.3468 64.8265L49.3455 64.0636L49.3294 63.8392C49.3048 63.528 49.464 63.3135 49.8069 63.1957L49.8527 63.1809C50.3922 63.0172 50.8174 62.6953 51.1284 62.2152C51.3867 61.8176 51.5408 61.3293 51.5908 60.7501C51.7247 59.208 50.9973 58.168 49.4085 57.6301C49.3387 57.6067 49.2919 57.5398 49.2929 57.465C49.3213 54.8994 49.3348 52.3881 49.3335 49.9312C49.3335 49.8734 49.3402 49.8267 49.3538 49.7909C49.3999 49.6775 49.4545 49.7154 49.5176 49.9045ZM159.902 66.0649C159.873 66.0648 159.846 66.0763 159.826 66.0968C159.806 66.1173 159.794 66.145 159.794 66.1741L159.793 66.7807C159.793 66.8097 159.804 66.8376 159.824 66.8581C159.845 66.8787 159.872 66.8902 159.9 66.8903L163.113 66.896C163.142 66.896 163.169 66.8845 163.189 66.8641C163.209 66.8436 163.221 66.8158 163.221 66.7868L163.222 66.1801C163.222 66.1511 163.211 66.1233 163.19 66.1027C163.17 66.0822 163.143 66.0706 163.114 66.0706L159.902 66.0649ZM151.693 49.7166C151.791 49.7166 151.87 49.7979 151.87 49.8982L151.92 56.328L152.016 56.3219C152.317 55.8032 152.446 55.244 152.401 54.6442L152.326 53.6538V49.9333C152.326 49.8773 152.347 49.8236 152.384 49.7844C152.421 49.7452 152.471 49.7238 152.523 49.7248L154.762 49.7599C154.818 49.7612 154.864 49.8098 154.867 49.8714C154.996 52.0257 155 54.1806 154.881 56.3363C154.86 56.7174 154.764 57.0544 154.595 57.3474C154.159 58.1085 153.608 58.7801 152.945 59.3622L152.833 59.4584L146.479 65.8015C146.362 65.9185 146.304 65.893 146.304 65.7252L146.292 62.4607C146.292 62.2338 146.375 62.0377 146.54 61.8726L149.016 59.4026C149.149 59.2711 149.23 59.0917 149.243 58.8992C149.368 56.976 149.401 54.9985 149.342 52.9666L149.292 50.2325L149.288 49.8322C149.287 49.7752 149.335 49.7281 149.395 49.7269L151.693 49.7166ZM148.835 49.8755C148.87 52.0338 148.886 54.1632 148.882 56.2639L148.881 57.0687L148.9 57.5476C148.922 57.9958 148.821 58.3888 148.596 58.7266L148.553 58.7888L148.478 58.8705L148.071 59.2964L147.712 59.6688C147.332 60.065 146.932 60.4468 146.511 60.8141C146.314 60.9874 146.214 60.9468 146.211 60.6923L146.199 59.3634L146.191 49.8219C146.191 49.7399 146.255 49.6725 146.337 49.6692C147.212 49.6361 148.044 49.7049 148.835 49.8755ZM158.666 53.0698C158.728 53.0698 158.789 53.0957 158.836 53.142L160.942 55.2819C160.991 55.3343 160.993 55.4165 160.946 55.4696C159.403 57.1837 157.788 58.8262 156.102 60.3972C155.951 60.5389 155.875 60.5052 155.875 60.2961V57.6611C155.875 57.3969 156.065 57.0908 156.445 56.7428C156.889 56.3356 157.291 55.9449 157.652 55.5707C157.777 55.4417 157.776 55.2348 157.65 55.1085C157.371 54.8238 157.087 54.5555 156.798 54.3038C156.432 53.9832 156.122 53.6448 155.869 53.2885C155.766 53.1427 155.803 53.0698 155.979 53.0698H158.666ZM166.075 53.0698C166.179 53.0671 166.28 53.108 166.357 53.1833L168.428 55.2406C168.496 55.3072 168.497 55.4188 168.432 55.4923C167.058 57.0234 165.618 58.5277 164.112 60.0052C163.943 60.1716 163.765 60.2948 163.578 60.3745C163.548 60.3878 163.514 60.3856 163.486 60.3685C163.459 60.3515 163.442 60.322 163.442 60.2899L163.43 57.8653C163.429 57.5489 163.561 57.2497 163.826 56.9677L165.286 55.416C165.326 55.3732 165.326 55.3066 165.286 55.2653L163.375 53.2472C163.298 53.1661 163.315 53.1248 163.424 53.1234L166.075 53.0698ZM169.75 50.1046C169.895 50.3109 169.976 50.6541 169.993 51.1342C170.019 51.8138 170.034 52.4934 170.038 53.173L170.04 53.4835L170.044 53.8055L170.049 54.1392L170.055 54.4844L170.068 55.024C170.069 55.0854 170.071 55.1473 170.072 55.2096C170.113 56.7421 170.081 58.2595 169.975 59.7617C169.97 59.853 169.896 59.9248 169.805 59.9268C169.03 59.946 168.296 59.9336 167.602 59.8896L167.274 59.9041C167.059 59.9137 166.952 59.8133 166.955 59.6028C166.956 59.564 166.956 59.5276 166.956 59.4937L166.954 59.3992C166.952 59.3411 166.948 59.2928 166.943 59.2543L166.939 59.2272C166.886 58.9205 166.9 58.624 166.981 58.3379C167.045 58.1123 167.201 57.8743 167.448 57.6239C168.15 56.9099 168.85 56.1967 169.549 55.4841C169.58 55.4526 169.598 55.4103 169.599 55.3665C169.6 55.3227 169.583 55.2811 169.553 55.2509L166.88 52.5457C166.714 52.3778 166.491 52.2925 166.211 52.2898L162.976 52.2547C162.919 52.2547 162.872 52.2057 162.872 52.1453V49.8838C162.873 49.8217 162.918 49.7691 162.978 49.7599C163.484 49.687 164.01 49.6547 164.558 49.663L164.836 49.6659L165.251 49.6676L165.83 49.6661L166.503 49.6606L167.256 49.6509L168.237 49.6345L168.691 49.6258C169.166 49.6162 169.519 49.7758 169.75 50.1046ZM143.765 54.6153C144.549 54.6525 145.001 54.9778 145.12 55.5914L145.121 55.6386L145.121 55.7315L145.118 57.0503C145.114 57.8922 145.128 58.7162 145.161 59.5223C145.162 59.5664 145.146 59.6093 145.116 59.6409C145.085 59.6725 145.044 59.6901 145 59.6895L142.027 59.673C141.946 59.673 141.881 59.6074 141.881 59.5265V58.1006C141.881 57.9992 141.799 57.9169 141.698 57.9169L125.031 57.9706C124.994 57.9706 124.96 57.9852 124.934 58.0112C124.908 58.0372 124.894 58.0724 124.895 58.1088L124.905 59.5326C124.906 59.5909 124.864 59.6408 124.806 59.6482C123.824 59.7789 122.844 59.7706 121.865 59.6234C121.805 59.6152 121.759 59.5665 121.753 59.5058C121.591 58.0215 121.59 56.6843 121.751 55.4944C121.808 55.0789 122.079 54.8038 122.563 54.669L143.765 54.6153ZM109.698 48.6828C109.776 48.6828 109.797 48.7111 109.762 48.7678L109.751 48.7839C109.465 49.1719 109.384 49.6217 109.505 50.1334C109.519 50.1918 109.572 50.2327 109.633 50.2325L120.315 50.2841C120.374 50.2849 120.423 50.331 120.429 50.3914C120.505 51.3392 120.499 52.2919 120.413 53.2493C120.403 53.3462 120.322 53.4191 120.226 53.4165C115.974 53.3298 111.699 53.3518 107.402 53.4825C106.945 53.4962 106.493 53.7418 106.047 54.2192C105.651 54.6415 105.231 55.0501 104.786 55.4449C104.603 55.6072 104.511 55.5645 104.51 55.3169L104.5 53.5939C104.5 53.54 104.455 53.496 104.4 53.4949L97.8716 53.4288C97.8142 53.4277 97.7682 53.3791 97.7682 53.3195V50.3707C97.7682 50.2944 97.829 50.2325 97.9041 50.2325H104.169C104.475 50.2325 104.557 50.0942 104.417 49.8177C104.253 49.4971 104.035 49.237 103.761 49.0373L103.671 48.9747L103.626 48.9412C103.458 48.8072 103.507 48.7389 103.774 48.7365L109.698 48.6828ZM155.713 49.9601L161.522 50.0158C161.983 50.0199 162.213 50.2628 162.213 50.7442V54.929C162.213 55.0583 162.166 55.0796 162.071 54.993C161.429 54.4085 160.803 53.7875 160.192 53.1302L159.964 52.882C159.726 52.6193 159.468 52.3806 159.189 52.166C159.137 52.1246 159.073 52.1021 159.007 52.102L155.766 52.0772C155.664 52.0761 155.582 51.9948 155.583 51.8957L155.601 50.0633C155.601 50.0356 155.613 50.009 155.634 49.9896C155.655 49.9702 155.684 49.9595 155.713 49.9601ZM123.901 48.6723L129.623 48.7715C129.685 48.7726 129.735 48.82 129.736 48.8788L129.754 50.0303C129.756 50.1307 129.829 50.2126 129.921 50.218C132.336 50.357 134.649 50.346 136.861 50.185C136.896 50.1827 136.927 50.1646 136.947 50.1356C136.967 50.1067 136.973 50.0702 136.963 50.0365C136.815 49.5529 136.59 49.201 136.289 48.9806L136.241 48.9469C136.037 48.8122 136.047 48.7422 136.272 48.7368L141.97 48.7488C142 48.7489 142.028 48.76 142.049 48.7794C142.07 48.7989 142.081 48.8251 142.08 48.852L142.021 49.9972C142.017 50.059 142.038 50.1194 142.077 50.1646C142.116 50.2098 142.17 50.2358 142.228 50.2366L144.909 50.2903C144.969 50.2914 145.016 50.3391 145.016 50.3976V52.7314C145.016 52.8343 144.93 52.918 144.822 52.9192L142.256 52.9584C142.174 52.96 142.097 53.0011 142.047 53.0698C141.998 53.1386 141.981 53.2275 142.003 53.3112C142.115 53.7487 142.019 53.9523 141.715 53.922L141.46 53.8966L141.437 53.8952C140.001 53.9007 138.565 53.8966 137.129 53.8828C137.072 53.883 137.024 53.8385 137.017 53.7796L136.958 53.0719C136.95 52.9838 136.878 52.9168 136.792 52.9171L129.876 52.8758C129.818 52.8758 129.771 52.922 129.771 52.979L129.763 53.6971C129.761 53.8068 129.676 53.8952 129.572 53.8952H124.978C124.878 53.8951 124.796 53.8099 124.794 53.7033L124.785 53.0326C124.785 52.9734 124.738 52.9253 124.68 52.9253H121.891C121.835 52.9253 121.79 52.8801 121.79 52.8242L121.814 50.4017C121.814 50.3417 121.859 50.2925 121.916 50.2903L124.7 50.1809C124.726 50.1796 124.75 50.1669 124.766 50.1461C124.782 50.1254 124.787 50.0988 124.781 50.0736C124.652 49.5136 124.373 49.1077 123.945 48.8559L123.891 48.8252C123.728 48.7369 123.709 48.6869 123.835 48.675L123.877 48.6726C123.884 48.6724 123.893 48.6723 123.901 48.6723Z" fill="white" fill-opacity="0.5"/>
</g>
<defs>
<clipPath id="clip0_825_6611">
<rect width="144" height="39" fill="white" transform="translate(28 41)"/>
</clipPath>
</defs>
</svg>
