<svg width="200" height="120" viewBox="0 0 200 120" fill="none" xmlns="http://www.w3.org/2000/svg">
<g clip-path="url(#clip0_825_6602)">
<path d="M41.9528 43.9991L43.0138 43.9844C49.7887 45.7542 56.5415 47.6026 63.2721 49.5296C63.7195 49.6572 64.0459 49.8399 64.2515 50.0776C64.729 50.6256 64.5406 51.0627 63.6862 51.3888C63.5997 51.4213 63.5002 51.4255 63.4021 51.4005C58.0156 49.9411 52.6341 48.46 47.2577 46.9573C45.8148 46.5527 44.7136 46.3896 43.9538 46.4682C42.3155 46.6332 41.0681 47.4425 40.2117 48.8961C39.9336 49.3675 39.7452 49.9077 39.6465 50.5166C39.5517 51.0882 39.5034 51.6657 39.5014 52.2491C39.4812 57.3307 39.5054 62.4113 39.5739 67.491C39.588 68.6244 39.7351 69.4906 40.0152 70.0897C40.5633 71.2624 41.4641 72.0491 42.7175 72.4498C43.3745 72.66 44.3216 72.7081 45.5589 72.5942C49.4985 72.2308 53.4382 71.8645 57.3778 71.4952C58.9335 71.3498 60.0942 71.1043 60.86 70.7586C63.4212 69.6075 64.6192 67.4399 64.454 64.2558C64.3976 63.1597 64.4157 60.8036 64.5084 57.1873C64.5093 57.1653 64.5067 57.1445 64.501 57.1266C64.4952 57.1087 64.4863 57.0942 64.4751 57.0842C64.459 57.0685 64.4419 57.0577 64.4238 57.0518C64.4006 57.0439 64.373 57.0488 64.3462 57.0657C64.3195 57.0825 64.2954 57.1101 64.2787 57.1431L58.9012 68.2865C58.8718 68.3476 58.8258 68.4004 58.7675 68.4396C58.7092 68.4789 58.6407 68.5033 58.5687 68.5105L54.4215 68.9023C54.3695 68.9073 54.3173 68.8959 54.273 68.8698C54.2288 68.8438 54.1949 68.8044 54.1767 68.758L48.4486 54.2821C48.237 53.7498 48.1313 53.7685 48.1313 54.3381L48.1131 69.3207C48.1134 69.3611 48.0981 69.4003 48.0702 69.4307C48.0424 69.4611 48.0039 69.4807 47.962 69.4857C47.4804 69.5466 46.9967 69.5987 46.5111 69.6419C45.8602 69.7008 45.3342 69.6615 44.9332 69.524C43.8047 69.1371 43.2334 68.2895 43.2193 66.9813C43.1972 65.1034 43.2022 60.4628 43.2344 53.0594C43.2385 52.0988 43.3473 51.3897 43.5609 50.9321C43.9478 50.111 44.5806 49.6405 45.4592 49.5207C45.9851 49.45 46.9433 49.6111 48.3338 50.0039C49.4038 50.3064 50.49 50.6011 51.5923 50.8879C51.6662 50.9071 51.7342 50.9427 51.791 50.9918C51.8477 51.041 51.8915 51.1023 51.9187 51.1707L56.8307 63.5457C56.8911 63.693 56.9556 63.695 57.0241 63.5516L61.6882 53.9463C61.7066 53.9082 61.7372 53.877 61.7753 53.8574C61.8135 53.8377 61.8572 53.8307 61.8998 53.8372C62.4499 53.9237 62.991 54.0464 63.523 54.2055C63.5572 54.2154 63.9331 54.3067 64.6505 54.4796C65.382 54.6563 65.9391 55.0286 66.322 55.5963C66.588 55.993 66.721 56.5902 66.721 57.3877C66.721 60.0807 66.721 62.7738 66.721 65.4668C66.721 65.4943 66.7301 65.8646 66.7482 66.5776C66.7845 67.9133 66.5739 69.1037 66.1165 70.1487C64.7099 73.3662 62.1416 75.1438 58.4115 75.4817C52.9868 75.9728 47.564 76.4786 42.1432 76.9991H41.2364C36.9844 76.4236 34.5723 74.0605 34 69.91V51.5685C34.6952 47.0978 37.3462 44.5746 41.9528 43.9991Z" fill="white" fill-opacity="0.5"/>
<path d="M96.6389 54.7696L96.3215 56.8174C96.3091 56.899 96.267 56.9735 96.2032 57.0272C96.1393 57.0808 96.0578 57.1099 95.9739 57.1091L92.3224 57.0973C92.2785 57.0972 92.2353 57.0869 92.1957 57.067C92.1561 57.0472 92.1209 57.0184 92.0926 56.9824C92.0643 56.9464 92.0434 56.9041 92.0315 56.8584C92.0195 56.8127 92.0167 56.7646 92.0232 56.7172L92.2801 54.8109C92.2827 54.7922 92.2807 54.7732 92.2743 54.7551C92.2678 54.7371 92.2571 54.7204 92.2428 54.7062C92.2285 54.692 92.2109 54.6805 92.1913 54.6727C92.1717 54.6648 92.1504 54.6607 92.129 54.6606L79.2914 54.6105C79.2319 54.6106 79.1742 54.6334 79.1291 54.6746C79.084 54.7158 79.0547 54.7726 79.0466 54.8344L78.7504 56.9235C78.743 56.9758 78.7154 57.0238 78.6726 57.0585C78.6298 57.0931 78.5747 57.1122 78.5176 57.112H74.7483C74.7126 57.1118 74.6774 57.1044 74.6449 57.0902C74.6124 57.076 74.5835 57.0553 74.56 57.0297C74.5366 57.004 74.5191 56.9739 74.5089 56.9414C74.4986 56.9088 74.4957 56.8746 74.5004 56.841L74.7906 54.8344C74.7949 54.8064 74.7931 54.7777 74.7853 54.7504C74.7774 54.7232 74.7637 54.6979 74.745 54.6763C74.7264 54.6548 74.7032 54.6375 74.6772 54.6256C74.6512 54.6138 74.6228 54.6076 74.5941 54.6076H71.8162C71.7821 54.6076 71.7484 54.6003 71.7174 54.5861C71.6864 54.5719 71.6588 54.5511 71.6364 54.5251C71.6141 54.4992 71.5975 54.4686 71.5879 54.4356C71.5782 54.4025 71.5757 54.3678 71.5805 54.3336L71.7921 52.7454C71.8053 52.649 71.8524 52.5605 71.9247 52.4965C71.997 52.4326 72.0896 52.3974 72.185 52.3978H74.9841C75.0329 52.3975 75.0803 52.3783 75.1175 52.3436C75.1547 52.309 75.1793 52.2612 75.1866 52.2092L75.4677 50.2763C75.4735 50.2362 75.4956 50.1994 75.5299 50.1724C75.5642 50.1454 75.6086 50.13 75.6551 50.129L79.4879 50.1172C79.5215 50.1167 79.5547 50.1235 79.5854 50.1373C79.616 50.151 79.6434 50.1713 79.6655 50.1968C79.6876 50.2223 79.704 50.2523 79.7135 50.2848C79.723 50.3174 79.7255 50.3517 79.7207 50.3853L79.4516 52.2328C79.449 52.2512 79.4506 52.2699 79.4563 52.2877C79.462 52.3055 79.4716 52.3219 79.4845 52.3359C79.4974 52.3499 79.5133 52.3611 79.5311 52.3687C79.5489 52.3763 79.5682 52.3802 79.5877 52.3801L92.5129 52.4154C92.5606 52.4165 92.6075 52.3982 92.6448 52.3641C92.6821 52.3299 92.7072 52.2822 92.7154 52.2298L93.0358 50.3117C93.0423 50.2706 93.0649 50.233 93.0997 50.2055C93.1346 50.178 93.1793 50.1624 93.2262 50.1614L96.9321 50.1231C96.973 50.1229 97.0136 50.131 97.051 50.147C97.0885 50.163 97.1219 50.1864 97.1491 50.2157C97.1763 50.245 97.1967 50.2795 97.2088 50.3169C97.2208 50.3543 97.2244 50.3937 97.2192 50.4325L96.9774 52.2534C96.9749 52.2744 96.9766 52.2957 96.9825 52.3159C96.9885 52.3361 96.9985 52.3547 97.0119 52.3706C97.0253 52.3864 97.0418 52.3991 97.0604 52.4079C97.0789 52.4166 97.0991 52.4212 97.1195 52.4213L100.78 52.4154C100.797 52.4152 100.815 52.4188 100.83 52.426C100.846 52.4331 100.861 52.4437 100.872 52.4571C100.884 52.4704 100.893 52.4862 100.898 52.5034C100.904 52.5206 100.906 52.5388 100.904 52.5569L100.732 54.2982C100.723 54.383 100.683 54.4618 100.62 54.519C100.556 54.5762 100.473 54.6078 100.387 54.6076L96.8112 54.6223C96.7697 54.6232 96.7298 54.6384 96.6984 54.6653C96.6669 54.6922 96.6459 54.7291 96.6389 54.7696Z" fill="white" fill-opacity="0.5"/>
<path d="M123.799 66.4601C124.697 67.8135 125.629 69.1443 126.595 70.4525C126.992 70.9907 127.219 71.2863 127.278 71.3394C127.57 71.6026 127.941 71.746 128.39 71.7695C128.412 71.7707 128.433 71.7759 128.452 71.785C128.471 71.794 128.489 71.8067 128.503 71.8223C128.517 71.8379 128.528 71.8561 128.535 71.8759C128.542 71.8957 128.545 71.9166 128.544 71.9375C128.53 72.2223 128.506 72.4767 128.472 72.7006C128.466 72.7281 128.448 72.956 128.417 73.3842C128.385 73.8203 128.133 74.0314 127.662 74.0177C127.238 74.0079 127.015 74.0029 126.991 74.0029C126.082 74.0285 125.343 73.7201 124.775 73.0778C123.058 71.1331 121.398 68.94 119.793 66.4984C119.765 66.4544 119.728 66.418 119.688 66.3927C119.647 66.3674 119.603 66.3541 119.561 66.354L117.937 66.3511C117.896 66.3508 117.856 66.3674 117.825 66.3977C117.793 66.4281 117.772 66.4701 117.765 66.5161L116.753 73.7879C116.746 73.8409 116.72 73.8897 116.679 73.925C116.638 73.9604 116.586 73.9797 116.532 73.9794H112.614C112.595 73.9795 112.575 73.9755 112.557 73.9677C112.539 73.9598 112.522 73.9482 112.509 73.9336C112.496 73.9191 112.486 73.902 112.48 73.8835C112.474 73.8649 112.473 73.8454 112.475 73.8262L113.473 66.5603C113.477 66.5305 113.474 66.5004 113.466 66.4717C113.457 66.4431 113.443 66.4168 113.423 66.3944C113.404 66.3721 113.38 66.3542 113.353 66.3422C113.326 66.3301 113.297 66.3241 113.267 66.3245L111.55 66.3304C111.504 66.3314 111.459 66.3421 111.415 66.3619C111.372 66.3816 111.333 66.41 111.3 66.4453C110.02 67.8243 108.718 69.1826 107.394 70.5203C107.378 70.536 107.062 70.8748 106.445 71.5368C105.832 72.1909 105.15 72.7723 104.399 73.2811C103.528 73.8684 102.43 74.0864 101.104 73.9352C101.078 73.9325 101.053 73.925 101.03 73.913C101.007 73.9011 100.987 73.885 100.971 73.8657C100.955 73.8465 100.943 73.8244 100.936 73.8009C100.93 73.7774 100.928 73.7529 100.932 73.7289L101.167 72.0288C101.173 71.9838 101.191 71.9397 101.219 71.8999C101.247 71.8601 101.286 71.8256 101.331 71.799C101.901 71.4631 102.374 71.0948 102.751 70.6941C103.112 70.3091 103.294 70.1146 103.298 70.1107C104.455 68.9773 105.646 67.7889 106.871 66.5455C107.055 66.3609 107.013 66.2695 106.747 66.2715L102.156 66.3187C102.128 66.3189 102.1 66.3132 102.074 66.302C102.048 66.2908 102.025 66.2742 102.006 66.2535C101.988 66.2328 101.974 66.2085 101.966 66.1821C101.958 66.1557 101.955 66.1279 101.959 66.1006L102.231 64.2738C102.237 64.2328 102.258 64.1952 102.29 64.1681C102.321 64.141 102.362 64.1262 102.404 64.1265L113.555 64.0912C113.605 64.0913 113.653 64.077 113.69 64.051C113.727 64.0251 113.751 63.9891 113.757 63.9497L113.975 62.5472C113.978 62.5284 113.976 62.5092 113.969 62.4908C113.963 62.4725 113.952 62.4554 113.937 62.4409C113.922 62.4264 113.904 62.4147 113.883 62.4066C113.862 62.3985 113.84 62.3942 113.818 62.394L102.667 62.3439C102.639 62.3437 102.611 62.3377 102.586 62.3264C102.56 62.3151 102.538 62.2988 102.519 62.2784C102.501 62.258 102.487 62.2341 102.479 62.2083C102.471 62.1826 102.469 62.1554 102.473 62.1288C102.85 59.5733 103.215 57.0325 103.567 54.5064C103.727 53.373 103.982 52.548 104.332 52.0314C104.802 51.34 105.434 50.8322 106.23 50.5081C106.756 50.294 107.537 50.1879 108.573 50.1899C116.182 50.2135 123.764 50.1879 131.319 50.1133C131.354 50.1129 131.389 50.12 131.421 50.1339C131.453 50.1479 131.481 50.1685 131.504 50.1943C131.527 50.2201 131.544 50.2505 131.554 50.2833C131.564 50.3161 131.566 50.3506 131.561 50.3844C131.204 52.7395 130.865 55.0928 130.542 57.444C130.347 58.874 130.065 59.8768 129.696 60.4523C128.87 61.7389 127.526 62.3704 125.664 62.3469C123.288 62.3154 120.913 62.3302 118.539 62.3911C118.49 62.3929 118.444 62.4085 118.408 62.4354C118.372 62.4623 118.349 62.4987 118.343 62.5384L118.107 63.9556C118.104 63.9745 118.105 63.9937 118.112 64.0121C118.118 64.0305 118.129 64.0475 118.144 64.0621C118.158 64.0766 118.176 64.0883 118.197 64.0964C118.217 64.1045 118.239 64.1087 118.261 64.1088H129.463C129.49 64.1089 129.516 64.1147 129.541 64.1259C129.565 64.1371 129.587 64.1535 129.604 64.1739C129.622 64.1942 129.635 64.2182 129.642 64.2441C129.65 64.27 129.651 64.2972 129.648 64.3239L129.375 66.0594C129.364 66.1324 129.326 66.199 129.269 66.2471C129.212 66.2952 129.139 66.3217 129.064 66.3216L123.871 66.3363C123.768 66.3363 123.744 66.3776 123.799 66.4601ZM115.317 52.5353C115.32 52.5108 115.317 52.486 115.31 52.4625C115.302 52.439 115.289 52.4173 115.272 52.3989C115.255 52.3805 115.234 52.3658 115.21 52.3558C115.187 52.3458 115.161 52.3407 115.135 52.3408C113.231 52.3192 111.274 52.33 109.265 52.3732C108.133 52.3987 107.484 52.9478 107.319 54.0203C107.266 54.364 107.203 54.747 107.128 55.1694C107.125 55.1907 107.126 55.2126 107.132 55.2334C107.138 55.2543 107.149 55.2736 107.163 55.2901C107.177 55.3066 107.195 55.3199 107.215 55.3291C107.235 55.3382 107.257 55.3431 107.279 55.3432H114.8C114.845 55.343 114.888 55.3277 114.921 55.3C114.955 55.2723 114.976 55.2343 114.981 55.1929L115.317 52.5353ZM127.541 52.5853C127.545 52.5531 127.542 52.5204 127.533 52.4894C127.523 52.4583 127.507 52.4297 127.485 52.4054C127.463 52.3811 127.436 52.3617 127.406 52.3485C127.376 52.3353 127.344 52.3287 127.311 52.329L119.905 52.3732C119.858 52.3741 119.813 52.3891 119.778 52.4155C119.743 52.442 119.721 52.4781 119.715 52.5176L119.34 55.1782C119.337 55.1965 119.339 55.2152 119.345 55.2329C119.352 55.2506 119.362 55.267 119.376 55.2809C119.389 55.2949 119.406 55.3061 119.425 55.3138C119.444 55.3215 119.464 55.3255 119.485 55.3255L126.951 55.3432C127.019 55.3435 127.084 55.3191 127.135 55.2745C127.186 55.23 127.218 55.1684 127.226 55.1016L127.541 52.5853ZM107.089 57.1641C107.019 57.1639 106.951 57.1897 106.897 57.2368C106.844 57.284 106.809 57.3492 106.799 57.4204L106.448 59.8807C106.444 59.912 106.446 59.9438 106.455 59.9741C106.463 60.0043 106.478 60.0322 106.498 60.0559C106.518 60.0797 106.543 60.0987 106.571 60.1116C106.599 60.1246 106.629 60.1313 106.66 60.1312H114.141C114.202 60.1313 114.261 60.1086 114.308 60.0674C114.354 60.0261 114.384 59.9692 114.392 59.9072L114.712 57.3733C114.716 57.3473 114.713 57.3208 114.706 57.2957C114.698 57.2706 114.684 57.2474 114.667 57.2276C114.649 57.2079 114.627 57.192 114.603 57.181C114.578 57.1701 114.552 57.1643 114.525 57.1641H107.089ZM119.001 57.335L118.642 60.0074C118.64 60.0259 118.641 60.0447 118.647 60.0624C118.653 60.0801 118.662 60.0963 118.675 60.11C118.688 60.1237 118.703 60.1346 118.72 60.1418C118.738 60.149 118.756 60.1524 118.775 60.1518C120.695 60.1321 122.566 60.1243 124.388 60.1282C125.009 60.1302 125.444 60.0712 125.694 59.9514C126.127 59.7452 126.422 59.3808 126.579 58.8583C126.737 58.3358 126.832 57.83 126.867 57.3409C126.868 57.321 126.866 57.3009 126.859 57.2821C126.852 57.2632 126.841 57.2459 126.827 57.2312C126.813 57.2165 126.795 57.2048 126.776 57.1968C126.757 57.1888 126.736 57.1847 126.715 57.1847H119.18C119.136 57.185 119.094 57.2003 119.061 57.2279C119.029 57.2555 119.007 57.2935 119.001 57.335Z" fill="white" fill-opacity="0.5"/>
<path d="M140.236 70.7736C140.563 71.2745 140.995 71.5328 141.533 71.5486L144.042 71.6193C144.063 71.6198 144.084 71.6242 144.103 71.6322C144.122 71.6401 144.14 71.6513 144.154 71.6652C144.167 71.6791 144.178 71.6953 144.184 71.7128C144.191 71.7302 144.192 71.7486 144.19 71.7666L143.933 73.7819C143.928 73.8217 143.906 73.8585 143.871 73.886C143.836 73.9134 143.791 73.9298 143.743 73.9322C142.473 74.0029 140.957 73.9941 139.193 73.9057C137.225 73.8075 136.023 73.0414 135.587 71.6075C135.394 70.9769 135.417 69.7591 135.657 67.9539C136.128 64.3907 136.601 60.8353 137.075 57.2878C137.078 57.2625 137.076 57.2367 137.068 57.2123C137.06 57.1879 137.047 57.1654 137.029 57.1463C137.011 57.1273 136.989 57.1122 136.965 57.102C136.94 57.0918 136.914 57.0869 136.887 57.0875L133.861 57.1111C133.819 57.1111 133.776 57.1014 133.738 57.0826C133.699 57.0637 133.664 57.0361 133.636 57.0015C133.608 56.967 133.587 56.9263 133.575 56.8822C133.563 56.8381 133.56 56.7916 133.565 56.7457L133.759 55.1576C133.772 55.0453 133.825 54.9415 133.909 54.8655C133.993 54.7896 134.102 54.7468 134.215 54.7451L137.247 54.7097C137.289 54.7091 137.329 54.693 137.361 54.6643C137.393 54.6356 137.413 54.5963 137.419 54.5536L137.993 50.3343C138.001 50.2733 138.032 50.2173 138.079 50.1767C138.127 50.136 138.187 50.1135 138.25 50.1133H141.835C141.869 50.1131 141.902 50.1198 141.932 50.1329C141.963 50.1461 141.99 50.1655 142.012 50.1897C142.035 50.2139 142.051 50.2425 142.062 50.2735C142.072 50.3045 142.075 50.3373 142.071 50.3696L141.527 54.6007C141.525 54.6201 141.527 54.6397 141.533 54.6583C141.539 54.6769 141.549 54.694 141.562 54.7084C141.575 54.7229 141.591 54.7344 141.609 54.7423C141.627 54.7501 141.646 54.7541 141.666 54.7539H145.348C145.368 54.7539 145.388 54.7579 145.407 54.7656C145.426 54.7734 145.442 54.7847 145.456 54.7989C145.47 54.8131 145.48 54.8298 145.486 54.8479C145.493 54.8661 145.495 54.8852 145.493 54.9042L145.308 56.8547C145.302 56.9247 145.268 56.9897 145.213 57.0371C145.158 57.0845 145.087 57.1108 145.012 57.1111L141.521 57.0904C141.443 57.0897 141.367 57.1165 141.308 57.1659C141.249 57.2153 141.211 57.2838 141.201 57.3586C140.701 61.2911 140.249 65.1145 139.846 68.829C139.762 69.5951 139.892 70.2433 140.236 70.7736Z" fill="white" fill-opacity="0.5"/>
<path d="M155.107 70.3896C155.187 70.6764 155.287 70.6833 155.406 70.4102L162.104 54.9651C162.123 54.9222 162.153 54.8856 162.19 54.8599C162.227 54.8342 162.27 54.8206 162.313 54.8207L166.509 54.7647C166.544 54.7644 166.579 54.773 166.61 54.7898C166.64 54.8066 166.666 54.831 166.685 54.8607C166.704 54.8904 166.715 54.9245 166.717 54.9598C166.718 54.995 166.711 55.0303 166.696 55.0623C164.018 60.523 161.318 66.0377 158.595 71.6065C158.204 72.402 157.712 73.0109 157.12 73.4333C156.665 73.7554 156.007 73.9332 155.146 73.9666C154.314 73.998 153.432 74 152.501 73.9725C152.418 73.9698 152.338 73.9415 152.273 73.8917C152.208 73.8419 152.16 73.7731 152.139 73.6955L146.758 55.0034C146.75 54.975 146.748 54.945 146.753 54.9159C146.758 54.8868 146.77 54.8594 146.787 54.8358C146.805 54.8123 146.828 54.7933 146.855 54.7805C146.881 54.7676 146.91 54.7612 146.939 54.7618L150.618 54.803C150.663 54.804 150.706 54.8192 150.741 54.8462C150.777 54.8733 150.802 54.9108 150.815 54.9533L155.107 70.3896Z" fill="white" fill-opacity="0.5"/>
<path d="M71.0069 60.1864L83.6691 60.2041C83.6954 60.2039 83.7212 60.198 83.7448 60.1866C83.7683 60.1752 83.789 60.1588 83.8052 60.1384C83.8215 60.1181 83.8329 60.0943 83.8386 60.069C83.8444 60.0436 83.8443 60.0173 83.8384 59.9919L83.2732 57.3814C83.2664 57.3488 83.2672 57.3151 83.2755 57.2828C83.2838 57.2505 83.2994 57.2205 83.3211 57.1948C83.3428 57.1691 83.3701 57.1485 83.401 57.1344C83.432 57.1203 83.4657 57.1131 83.4999 57.1133L87.2511 57.1251C87.2933 57.1249 87.3345 57.139 87.368 57.1652C87.4015 57.1914 87.4252 57.2281 87.4355 57.2694L88.1216 60.0096C88.1322 60.0494 88.1562 60.0847 88.19 60.1102C88.2239 60.1358 88.2656 60.1501 88.309 60.1511L99.7289 60.1864C99.7541 60.1863 99.7791 60.1913 99.8021 60.2011C99.8251 60.2109 99.8456 60.2252 99.8623 60.2431C99.8789 60.261 99.8913 60.282 99.8985 60.3048C99.9057 60.3276 99.9077 60.3515 99.9042 60.375L99.6382 62.1929C99.6323 62.2338 99.6104 62.2713 99.5765 62.2983C99.5427 62.3254 99.4991 62.3403 99.4538 62.3403H78.1648C78.1211 62.3405 78.079 62.3558 78.0462 62.3834C78.0135 62.411 77.9922 62.449 77.9864 62.4905C77.666 64.7455 77.3607 66.9789 77.0705 69.1907C76.9436 70.1591 77.2438 70.878 77.9713 71.3475C78.3884 71.6166 79.0393 71.7511 79.924 71.7511C85.9694 71.7629 92.0149 71.7747 98.0603 71.7865C98.0822 71.7867 98.1039 71.7908 98.1239 71.7985C98.1439 71.8063 98.1618 71.8175 98.1763 71.8314C98.1909 71.8454 98.2019 71.8617 98.2084 71.8794C98.215 71.897 98.2171 71.9156 98.2145 71.9338L97.9787 73.6634C97.9669 73.7504 97.9197 73.8304 97.8457 73.8883C97.7718 73.9463 97.6762 73.9784 97.5767 73.9786C91.3882 73.9786 85.2682 73.9786 79.2167 73.9786C77.2358 73.9786 75.9209 73.849 75.272 73.5897C74.1939 73.1576 73.4513 72.3748 73.0443 71.2414C72.8327 70.6462 72.7803 69.8595 72.8871 68.8813C73.1168 66.809 73.407 64.7278 73.7576 62.6378C73.7638 62.6011 73.7616 62.5636 73.7514 62.5278C73.7411 62.4919 73.723 62.4587 73.6983 62.4304C73.6736 62.4021 73.6428 62.3794 73.6082 62.3638C73.5735 62.3482 73.5358 62.3402 73.4977 62.3403H70.6956C70.6698 62.3403 70.6444 62.3346 70.621 62.3236C70.5977 62.3126 70.5768 62.2965 70.56 62.2764C70.5431 62.2564 70.5306 62.2328 70.5232 62.2072C70.5158 62.1816 70.5138 62.1547 70.5173 62.1281L70.7228 60.4516C70.731 60.3788 70.7645 60.3115 70.8169 60.2626C70.8694 60.2137 70.937 60.1866 71.0069 60.1864Z" fill="white" fill-opacity="0.5"/>
</g>
<defs>
<clipPath id="clip0_825_6602">
<rect width="133" height="33" fill="white" transform="translate(34 44)"/>
</clipPath>
</defs>
</svg>
