<svg width="200" height="120" viewBox="0 0 200 120" fill="none" xmlns="http://www.w3.org/2000/svg">
<g clip-path="url(#clip0_825_6386)">
<path d="M87.7195 51.0013V69.0013H84.476V54.8763H84.4328L78.6378 69.0013H76.4755L70.5507 54.8763H70.5074V69.0013H67.5234V51.0013H72.1941L77.5566 64.3346H77.6431L83.3084 51.0013H87.7195ZM90.4008 52.3763C90.4008 51.8763 90.5738 51.4596 90.963 51.1263C91.3522 50.793 91.7847 50.6263 92.3037 50.6263C92.8659 50.6263 93.3416 50.793 93.6875 51.1263C94.0335 51.4596 94.2497 51.8763 94.2497 52.3763C94.2497 52.8763 94.0768 53.293 93.6875 53.6263C93.2983 53.9596 92.8659 54.1263 92.3037 54.1263C91.7414 54.1263 91.309 53.9596 90.963 53.6263C90.617 53.2513 90.4008 52.8346 90.4008 52.3763ZM93.9038 56.0846V69.0013H90.7468V56.0846H93.9038ZM103.461 66.793C103.937 66.793 104.456 66.7096 105.018 66.4596C105.58 66.2513 106.099 65.9596 106.575 65.6263V68.4596C106.056 68.7513 105.494 68.9596 104.845 69.0846C104.196 69.2096 103.504 69.293 102.726 69.293C100.737 69.293 99.1366 68.7096 97.9257 67.5013C96.6715 66.293 96.0661 64.7513 96.0661 62.918C96.0661 60.8346 96.7148 59.1263 97.9689 57.793C99.2231 56.4596 100.996 55.793 103.331 55.793C103.937 55.793 104.542 55.8763 105.105 56.0013C105.71 56.1263 106.186 56.3346 106.532 56.5013V59.418C106.056 59.0846 105.537 58.793 105.061 58.6263C104.542 58.4596 104.023 58.3346 103.504 58.3346C102.25 58.3346 101.256 58.7096 100.477 59.5013C99.6988 60.293 99.3528 61.3346 99.3528 62.668C99.3528 63.9596 99.742 65.0013 100.477 65.7096C101.212 66.418 102.207 66.793 103.461 66.793ZM115.527 55.8763C115.786 55.8763 116.003 55.8763 116.219 55.918C116.435 55.9596 116.608 56.0013 116.738 56.043V59.1263C116.565 59.0013 116.349 58.8763 116.003 58.793C115.657 58.7096 115.311 58.6263 114.835 58.6263C114.057 58.6263 113.408 58.9596 112.889 59.5846C112.37 60.2096 112.067 61.168 112.067 62.5013V69.0013H108.91V56.0846H112.067V58.1263H112.111C112.413 57.418 112.846 56.8763 113.408 56.4596C114.013 56.0846 114.705 55.8763 115.527 55.8763ZM116.911 62.7513C116.911 60.6263 117.56 58.918 118.77 57.668C120.025 56.418 121.754 55.793 123.96 55.793C126.036 55.793 127.679 56.3763 128.847 57.5846C130.015 58.793 130.62 60.418 130.62 62.4596C130.62 64.543 129.971 66.2096 128.76 67.4596C127.506 68.7096 125.82 69.3346 123.657 69.3346C121.581 69.3346 119.938 68.7513 118.727 67.5846C117.516 66.3763 116.911 64.7513 116.911 62.7513ZM120.198 62.6263C120.198 63.9596 120.5 65.0013 121.149 65.7096C121.798 66.418 122.706 66.793 123.874 66.793C124.998 66.793 125.906 66.4596 126.512 65.7096C127.117 65.0013 127.42 63.9596 127.42 62.543C127.42 61.168 127.117 60.1263 126.512 59.3763C125.906 58.668 124.998 58.293 123.917 58.293C122.749 58.293 121.884 58.668 121.236 59.418C120.5 60.2096 120.198 61.2513 120.198 62.6263ZM135.334 59.5013C135.334 59.918 135.464 60.293 135.766 60.543C136.069 60.793 136.674 61.0846 137.669 61.4596C138.923 61.9596 139.831 62.5013 140.307 63.0846C140.826 63.7096 141.086 64.418 141.086 65.293C141.086 66.5013 140.61 67.4596 139.615 68.2096C138.664 68.9596 137.323 69.293 135.68 69.293C135.118 69.293 134.512 69.2096 133.82 69.0846C133.128 68.9596 132.566 68.793 132.09 68.5846V65.5846C132.653 65.9596 133.301 66.293 133.95 66.5013C134.599 66.7096 135.204 66.8346 135.766 66.8346C136.458 66.8346 137.02 66.7513 137.323 66.543C137.669 66.3346 137.842 66.043 137.842 65.5846C137.842 65.168 137.669 64.8346 137.323 64.5013C136.977 64.2096 136.285 63.8763 135.334 63.5013C134.166 63.043 133.345 62.5013 132.869 61.918C132.393 61.3346 132.134 60.5846 132.134 59.668C132.134 58.5013 132.609 57.543 133.561 56.793C134.512 56.043 135.766 55.668 137.28 55.668C137.756 55.668 138.275 55.7096 138.837 55.8346C139.399 55.9596 139.918 56.0846 140.307 56.2096V59.168C139.875 58.918 139.399 58.668 138.837 58.4596C138.275 58.2513 137.712 58.168 137.193 58.168C136.588 58.168 136.112 58.293 135.81 58.5013C135.507 58.793 135.334 59.0846 135.334 59.5013ZM142.426 62.7513C142.426 60.6263 143.075 58.918 144.286 57.668C145.54 56.418 147.27 55.793 149.475 55.793C151.551 55.793 153.195 56.3763 154.362 57.5846C155.53 58.793 156.135 60.418 156.135 62.4596C156.135 64.543 155.487 66.2096 154.276 67.4596C153.022 68.7096 151.335 69.3346 149.173 69.3346C147.097 69.3346 145.454 68.7513 144.243 67.5846C143.075 66.3763 142.426 64.7513 142.426 62.7513ZM145.713 62.6263C145.713 63.9596 146.016 65.0013 146.664 65.7096C147.313 66.418 148.221 66.793 149.389 66.793C150.513 66.793 151.422 66.4596 152.027 65.7096C152.632 65.0013 152.935 63.9596 152.935 62.543C152.935 61.168 152.632 60.1263 152.027 59.3763C151.422 58.668 150.513 58.293 149.432 58.293C148.265 58.293 147.4 58.668 146.751 59.418C146.059 60.2096 145.713 61.2513 145.713 62.6263ZM166.644 58.5846H161.93V69.0013H158.73V58.5846H156.481V56.0846H158.73V54.293C158.73 52.9596 159.206 51.8346 160.114 50.9596C161.022 50.0846 162.19 49.668 163.617 49.668C164.006 49.668 164.352 49.7096 164.655 49.7096C164.958 49.7096 165.217 49.793 165.433 49.8763V52.5013C165.347 52.4596 165.131 52.3763 164.871 52.293C164.612 52.2096 164.309 52.168 163.963 52.168C163.314 52.168 162.795 52.3763 162.449 52.7513C162.103 53.1263 161.93 53.7513 161.93 54.5013V56.043H166.644V53.1263L169.801 52.2096V56.043H173.002V58.543H169.801V64.5846C169.801 65.3763 169.974 65.918 170.234 66.2513C170.536 66.5846 171.012 66.7513 171.661 66.7513C171.834 66.7513 172.05 66.7096 172.31 66.6263C172.569 66.543 172.785 66.4596 172.958 66.3346V68.8346C172.742 68.9596 172.439 69.043 171.964 69.1263C171.488 69.2096 171.055 69.2513 170.58 69.2513C169.239 69.2513 168.244 68.918 167.596 68.2513C166.947 67.5846 166.601 66.543 166.601 65.168L166.644 58.5846Z" fill="white" fill-opacity="0.5"/>
<path d="M41.7903 45H27V59.25H41.7903V45Z" fill="white" fill-opacity="0.5"/>
<path d="M58.134 45H43.3438V59.25H58.134V45Z" fill="white" fill-opacity="0.5"/>
<path d="M41.7903 60.75H27V75H41.7903V60.75Z" fill="white" fill-opacity="0.5"/>
<path d="M58.134 60.75H43.3438V75H58.134V60.75Z" fill="white" fill-opacity="0.5"/>
</g>
<defs>
<clipPath id="clip0_825_6386">
<rect width="146" height="30" fill="white" transform="translate(27 45)"/>
</clipPath>
</defs>
</svg>
