<svg width="200" height="120" viewBox="0 0 200 120" fill="none" xmlns="http://www.w3.org/2000/svg">
<g clip-path="url(#clip0_336_10166)">
<path d="M39.6205 44.0031L40.6659 44.0245L40.8805 44.0274L40.9948 44.028C44.9189 44.0251 48.8427 44.0273 52.7661 44.0347C52.7793 44.0347 52.7918 44.0407 52.7999 44.051C52.8081 44.0613 52.8111 44.0748 52.8081 44.0876L51.5847 48.9692C51.5683 49.0342 51.517 49.0843 51.4522 49.0983C47.6686 49.9121 43.8961 50.7329 40.1346 51.5607C39.5575 51.6872 39.1343 51.8325 38.8649 51.9966C38.2613 52.3636 37.8853 52.8846 37.7369 53.5594L37.7248 53.6182L37.7214 53.639L37.7165 53.6768L37.7103 53.7395L37.7031 53.8379L37.6964 53.9583L37.6904 54.1007L37.6839 54.3008L37.6773 54.5744L37.6706 54.9897L37.6658 55.4765C37.64 59.1348 37.6411 62.7928 37.6691 66.4504C37.6727 66.9492 37.7246 67.3352 37.8248 67.6081C38.1494 68.4904 38.8351 69.0459 39.8818 69.2747C43.7485 70.1201 47.623 70.9655 51.5052 71.811C51.5389 71.8184 51.5658 71.8449 51.5747 71.8794L52.8081 76.8029C52.8111 76.8157 52.8081 76.8292 52.7999 76.8395C52.7918 76.8499 52.7793 76.8559 52.7661 76.8559L50.7289 76.8764L48.9743 76.8911L47.4729 76.9009L46.198 76.907L45.3883 76.9095L44.4842 76.911H43.5831L42.6619 76.9085L41.5896 76.9028L41.1854 76.8996L40.3273 76.8904L39.7092 76.8815L39.1343 76.871L38.75 76.8625C36.4328 76.8073 34.4523 75.991 32.8086 74.4134C31.4542 73.114 30.597 71.563 30.237 69.7603C30.228 69.7152 30.2194 69.6684 30.2111 69.6198L30.195 69.5204C30.1666 69.3339 30.1432 69.1244 30.1249 68.8917L30.1154 68.7625C30.1139 68.7406 30.1124 68.7185 30.111 68.6962L30.103 68.5602C30.1018 68.5371 30.1006 68.5138 30.0994 68.4904L30.093 68.3475C30.092 68.3232 30.091 68.2989 30.0901 68.2743L30.0852 68.1244C30.0844 68.0991 30.0838 68.0736 30.0831 68.0478L30.0797 67.8911L30.0772 67.7299L30.0758 67.564C30.0493 62.7814 30.0423 57.9988 30.0548 53.2162C30.06 51.3127 30.5219 49.62 31.4406 48.1381C31.8255 47.5171 32.2908 46.9491 32.8362 46.4341C34.3643 44.9941 36.2252 44.1921 38.4188 44.028C38.5658 44.0171 38.7252 44.0094 38.8969 44.0049L39.0471 44.0018C39.2259 43.999 39.417 43.9995 39.6205 44.0031ZM74.9993 44.0402C76.9463 44.1793 78.6489 44.8812 80.1071 46.146C81.9495 47.7431 82.9676 49.7511 83.1616 52.1699L83.1686 52.2632L83.1732 52.3519L83.178 52.4956L83.183 52.7444L83.189 53.3186L83.1919 54.1511L83.1915 66.8637L83.1889 67.3912L83.1844 67.8297L83.1793 68.1164L83.1763 68.2384L83.1712 68.3946L83.1644 68.5364L83.1612 68.5838C82.958 71.2878 81.7972 73.4499 79.6787 75.0701C79.0677 75.5373 78.4347 75.9085 77.7795 76.1837C76.6549 76.6555 75.4681 76.8838 74.2191 76.8686L74.107 76.8667L74.0757 76.8669L74.0381 76.868L73.9701 76.8713L73.888 76.8766L73.8256 76.8813L73.7628 76.8851L73.6928 76.8879L73.6154 76.8895L73.5308 76.8901C69.176 76.8974 64.8231 76.8904 60.472 76.8691C60.4638 76.869 60.4562 76.8652 60.4512 76.859C60.4463 76.8527 60.4446 76.8447 60.4466 76.8371L61.6921 71.8838C61.7023 71.8431 61.7347 71.8116 61.776 71.8021L64.2923 71.257C67.2238 70.621 70.1406 69.9845 73.0427 69.3475L73.1678 69.3194C73.2904 69.291 73.4057 69.2621 73.5136 69.2326L73.6191 69.203C73.9626 69.1034 74.2247 68.9974 74.4053 68.8851C75.1988 68.3921 75.5974 67.5931 75.6011 66.4879C75.6143 62.4205 75.6062 58.3534 75.5768 54.2867C75.5738 53.8637 75.5252 53.5241 75.431 53.268C75.1903 52.6198 74.7737 52.1519 74.1811 51.8642L74.1678 51.8578L74.1383 51.8448C74.1331 51.8426 74.1278 51.8404 74.1223 51.8381L74.0686 51.8172L74.0282 51.8027L73.9842 51.7877L73.9113 51.7642L73.8303 51.7395L73.7095 51.7049L73.6093 51.6776L73.5009 51.6492L73.3436 51.6095L73.1717 51.5679L72.9853 51.5242L72.7842 51.4785L72.6239 51.4429L72.4553 51.4061C68.8904 50.6343 65.3214 49.8591 61.7484 49.0807C61.7206 49.0747 61.6984 49.0529 61.691 49.0244L60.4521 44.0865C60.4487 44.0724 60.452 44.0574 60.4611 44.046C60.4701 44.0346 60.4839 44.028 60.4985 44.028C63.7715 44.0298 67.0487 44.029 70.3302 44.0255L72.977 44.0222L73.7831 44.0231L74.4897 44.0276L74.7815 44.0322L74.9413 44.0371L74.9993 44.0402ZM99.8405 47.2828C99.8609 47.2828 99.8802 47.2918 99.893 47.3075C99.9057 47.3233 99.9104 47.3439 99.9056 47.3634L97.5593 57.3837C97.5509 57.4179 97.5582 57.4539 97.5792 57.4819C98.7238 59.0189 99.3668 60.7245 99.5081 62.5985C99.5685 63.3976 99.553 64.1319 99.4617 64.8015C99.2851 66.1038 98.7812 67.2895 97.9501 68.3586C97.4334 69.0223 96.7764 69.569 95.9792 69.9987C95.5508 70.2305 95.1228 70.367 94.6951 70.4082C94.6809 70.4097 94.6667 70.4051 94.656 70.3954C94.6453 70.3858 94.6391 70.372 94.6388 70.3574L94.6211 67.8355C94.6212 67.7673 94.6588 67.7041 94.7194 67.67C95.8685 67.021 96.5549 66.0406 96.7786 64.7286C96.9413 63.7758 96.9259 62.8252 96.7323 61.8767C96.4371 60.4353 95.7466 59.2253 94.6609 58.2467C94.6357 58.2244 94.6251 58.1896 94.6333 58.1562L96.5059 50.0486C96.5089 50.0355 96.5057 50.0218 96.4971 50.0113C96.4885 50.0008 96.4755 49.9946 96.4618 49.9945L93.5214 49.968C93.5054 49.9677 93.49 49.9739 93.4785 49.9851C93.4671 49.9963 93.4607 50.0116 93.4607 50.0276V73.536C93.4607 73.5744 93.43 73.6055 93.3922 73.6055L90.8405 73.5846C90.8086 73.584 90.7831 73.5579 90.7831 73.5261V47.3589C90.7831 47.3218 90.8138 47.2916 90.8516 47.2916L99.8405 47.2828ZM142.974 47.2828C142.991 47.2825 143.007 47.289 143.019 47.3008C143.03 47.3127 143.037 47.3288 143.037 47.3457L143.037 49.4118L143.036 55.5995C143.035 56.2861 143.035 56.9724 143.035 57.6585C143.035 58.3715 142.898 59.0561 142.623 59.7124C142.276 60.5402 141.704 61.1226 140.905 61.4595C140.292 61.7178 139.622 61.8484 138.896 61.8514C136.874 61.8594 134.852 61.862 132.83 61.8591C132.801 61.8591 132.777 61.8836 132.776 61.9143L132.764 64.9306C132.764 64.956 132.774 64.9803 132.791 64.9981C132.809 65.016 132.832 65.0258 132.857 65.0255C135.329 65.016 137.756 65.0185 140.139 65.0333C140.2 65.0336 140.262 65.0337 140.326 65.0335L140.52 65.0324C140.553 65.0321 140.586 65.0317 140.619 65.0313L140.823 65.028L141.033 65.0233C141.072 65.0227 141.107 65.0494 141.116 65.0873L141.729 67.6479C141.732 67.661 141.729 67.6748 141.72 67.6853C141.712 67.6958 141.699 67.702 141.686 67.702L132.829 67.7086C132.799 67.7086 132.775 67.7338 132.775 67.7649L132.768 70.8397C132.768 70.8897 132.809 70.9302 132.859 70.9302H142.424C142.46 70.9302 142.492 70.9545 142.499 70.9887L143.101 73.5459C143.104 73.559 143.101 73.5727 143.093 73.5831C143.085 73.5935 143.072 73.5994 143.059 73.5989C140.071 73.5704 137.083 73.5667 134.096 73.5877L133.1 73.5956C132.357 73.6022 131.62 73.6026 130.89 73.5967C127.205 73.5658 123.526 73.5669 119.853 73.6C119.833 73.5998 119.813 73.5904 119.801 73.5745C119.788 73.5586 119.783 73.538 119.788 73.5183L120.369 70.9898C120.376 70.9586 120.404 70.9366 120.435 70.9368L130.03 70.9236C130.06 70.923 130.084 70.898 130.084 70.8673L130.085 67.8465C130.085 67.7793 130.031 67.7246 129.963 67.724L121.23 67.702C121.212 67.7019 121.196 67.6941 121.185 67.6808C121.174 67.6674 121.17 67.65 121.174 67.6335L121.774 65.0862C121.782 65.0544 121.811 65.032 121.845 65.0322L130.03 65.0255C130.064 65.0255 130.091 64.9984 130.091 64.9648L130.084 61.9132C130.084 61.8833 130.06 61.8591 130.029 61.8591C127.078 61.8547 124.127 61.84 121.175 61.8149C120.797 61.8113 120.39 61.826 119.953 61.8591C119.926 61.8609 119.9 61.8517 119.88 61.8337C119.861 61.8157 119.85 61.7905 119.85 61.7642V47.37C119.85 47.347 119.859 47.3249 119.875 47.3087C119.891 47.2925 119.913 47.2836 119.936 47.2839C121.658 47.3089 123.386 47.3133 125.122 47.2971L125.29 47.2957L125.62 47.2934L125.944 47.2919L126.263 47.2913L126.575 47.2916L126.881 47.2927L127.181 47.2947L127.329 47.296C129.776 47.3189 132.222 47.3215 134.668 47.3037L135.882 47.2936L136.34 47.2915L136.652 47.2911L136.97 47.2915L137.294 47.2927C137.348 47.293 137.403 47.2933 137.458 47.2936L137.791 47.296C139.502 47.3108 141.23 47.3063 142.974 47.2828ZM170.248 57.472C170.281 57.472 170.309 57.4945 170.316 57.526L170.912 60.0678C170.915 60.0809 170.912 60.0946 170.904 60.1051C170.895 60.1157 170.882 60.1218 170.868 60.1219L154.879 60.1418C154.846 60.1419 154.818 60.1642 154.811 60.1958L152.379 70.8254C152.374 70.8508 152.38 70.8775 152.396 70.8979C152.412 70.9183 152.437 70.9302 152.463 70.9302H166.771C166.78 70.9301 166.789 70.9257 166.795 70.9182C166.801 70.9107 166.804 70.901 166.802 70.8916L165.127 63.7762C165.123 63.7627 165.126 63.7484 165.134 63.7374C165.142 63.7264 165.154 63.72 165.168 63.7199L167.745 63.7022C167.796 63.7015 167.842 63.7372 167.854 63.7883C168.385 65.9633 168.897 68.1438 169.39 70.3298L169.415 70.4456L169.439 70.5569L169.461 70.6639L169.481 70.7665L169.499 70.8646L169.515 70.9584L169.53 71.0478L169.542 71.1327L169.553 71.2133L169.562 71.2895L169.569 71.3613C169.57 71.3729 169.57 71.3843 169.571 71.3955L169.575 71.4607C169.579 71.5342 169.579 71.5987 169.575 71.6542C169.54 72.159 169.344 72.5824 168.987 72.9246C168.709 73.1909 168.34 73.3778 167.879 73.4852C167.536 73.5647 167.184 73.5996 166.826 73.5901L166.395 73.579C160.581 73.5695 154.784 73.5765 149.005 73.6C148.98 73.6 148.956 73.5885 148.94 73.5685C148.924 73.5485 148.919 73.5223 148.924 73.4974L152.017 60.2025C152.02 60.1896 152.017 60.176 152.009 60.1656C152 60.1551 151.988 60.1488 151.974 60.1484L147.68 60.1208C147.666 60.1204 147.652 60.1138 147.643 60.1026C147.635 60.0914 147.631 60.077 147.635 60.0634L148.246 57.526C148.254 57.4944 148.283 57.472 148.316 57.472H170.248ZM115.205 47.2905C115.219 47.2905 115.232 47.2969 115.241 47.3074C115.25 47.3179 115.253 47.3316 115.25 47.3446L114.667 49.8985C114.66 49.9309 114.631 49.9542 114.597 49.9548L114.115 49.9658C114.084 49.9664 114.06 49.992 114.06 50.0232C114.013 55.6586 114.012 61.294 114.059 66.9294C114.06 67.1325 114.058 67.3352 114.052 67.5375C114.009 68.9627 113.57 70.2154 112.735 71.2955C112.225 71.9548 111.562 72.4776 110.745 72.8639C109.734 73.3421 108.667 73.5783 107.545 73.5726C107.513 73.5726 107.485 73.5504 107.478 73.5194L106.93 71.1841C106.923 71.155 106.929 71.1244 106.947 71.1004C106.964 71.0764 106.991 71.0614 107.021 71.0593C107.931 70.9887 108.714 70.7702 109.369 70.4038C110.429 69.8115 111.069 68.9344 111.292 67.7726C111.319 67.6319 111.338 67.456 111.35 67.2449L111.355 67.1364C111.356 67.1179 111.356 67.099 111.357 67.08L111.373 66.481L111.376 66.3052L111.376 66.2672C111.339 60.8614 111.336 55.4559 111.368 50.0508C111.368 50.036 111.362 50.0217 111.352 50.0111C111.342 50.0005 111.327 49.9945 111.313 49.9945C109.686 49.9891 108.059 49.9826 106.432 49.9749L103.971 49.963L103.081 49.9879C102.754 49.9967 102.409 49.9842 102.048 49.9504C102.009 49.9463 101.977 49.9185 101.968 49.8809L101.362 47.3601C101.359 47.3466 101.362 47.3326 101.371 47.3219C101.379 47.3111 101.392 47.3049 101.406 47.3049L115.205 47.2905ZM108.999 52.3056C109.031 52.3056 109.057 52.3313 109.057 52.363L109.057 64.3821L109.063 64.7673C109.072 65.3375 109.013 65.8813 108.885 66.3985C108.782 66.812 108.579 67.1895 108.276 67.5309C107.89 67.965 107.435 68.2623 106.909 68.4227C106.843 68.4427 106.765 68.4607 106.675 68.4768L106.605 68.4884C106.593 68.4903 106.58 68.4922 106.568 68.494L106.491 68.5045C106.478 68.5062 106.464 68.5079 106.451 68.5095L106.367 68.519C106.352 68.5205 106.338 68.522 106.323 68.5234L106.232 68.5318L106.136 68.5393L106.036 68.5462L105.931 68.5523L105.822 68.5576L105.649 68.5643L105.528 68.5678L105.403 68.5706C105.381 68.571 105.36 68.5713 105.338 68.5717C104.065 68.5915 102.772 68.5956 101.457 68.5838C101.416 68.5838 101.383 68.5507 101.383 68.5098V52.3608C101.383 52.3303 101.408 52.3056 101.438 52.3056H108.999ZM106.317 54.9821H104.122C104.088 54.9821 104.061 55.0097 104.061 55.0439V65.8467C104.061 65.8808 104.088 65.9085 104.122 65.9085L104.641 65.9078L105.247 65.9052C105.536 65.9037 105.779 65.8187 105.977 65.6502C106.112 65.5354 106.214 65.3839 106.282 65.1955C106.345 65.0189 106.377 64.8335 106.377 64.6392L106.379 58.8868L106.379 55.0439C106.379 55.0097 106.352 54.9821 106.317 54.9821ZM61.681 59.8107C61.7005 59.8107 61.7164 59.8265 61.7164 59.846V61.0446C61.7164 61.0641 61.7005 61.0799 61.681 61.0799H51.5935C51.574 61.0799 51.5582 61.0641 51.5582 61.0446V59.846C51.5582 59.8265 51.574 59.8107 51.5935 59.8107H61.681ZM132.866 49.9592C132.823 49.9592 132.789 49.9926 132.788 50.0343L132.768 53.1455C132.768 53.1642 132.776 53.1821 132.789 53.1954C132.803 53.2087 132.821 53.2162 132.84 53.2162L138.281 53.2228C138.314 53.2229 138.343 53.2453 138.35 53.2769L138.941 55.8198C138.945 55.8373 138.941 55.8559 138.93 55.8702C138.918 55.8844 138.901 55.8927 138.882 55.8926H132.829C132.796 55.8926 132.768 55.9198 132.768 55.9533L132.775 59.0844C132.775 59.134 132.815 59.1743 132.866 59.1749C134.898 59.1882 136.869 59.1812 138.779 59.154C139.099 59.1496 139.338 59.1157 139.496 59.0524C139.743 58.9531 139.938 58.796 140.081 58.5812C140.216 58.3788 140.304 58.0819 140.346 57.6905C140.376 57.405 140.39 57.0908 140.387 56.7479C140.367 54.4972 140.365 52.246 140.38 49.9945C140.38 49.9793 140.368 49.9669 140.353 49.9669L132.866 49.9592ZM122.588 49.9603C122.539 49.9603 122.5 49.9994 122.5 50.0475V59.0911C122.5 59.1343 122.534 59.1694 122.577 59.1694L130.036 59.176C130.066 59.176 130.091 59.1513 130.091 59.1209V55.9544C130.091 55.9203 130.063 55.8926 130.029 55.8926L123.998 55.886C123.984 55.8858 123.971 55.8796 123.962 55.8691C123.953 55.8586 123.95 55.8449 123.953 55.8319L124.536 53.278C124.543 53.2456 124.572 53.2226 124.604 53.2228L130.028 53.2096C130.059 53.2096 130.084 53.1853 130.084 53.1555L130.091 50.0619C130.091 50.021 130.057 49.9879 130.016 49.9879L122.588 49.9603ZM168.356 47.3049C168.39 47.3049 168.419 47.3263 168.427 47.3567L169.045 49.904C169.049 49.9176 169.046 49.9319 169.037 49.9429C169.028 49.9539 169.014 49.9603 169 49.9603H149.513C149.499 49.9603 149.486 49.9541 149.478 49.9433C149.469 49.9326 149.466 49.9185 149.469 49.9051L150.07 47.3446C150.077 47.3131 150.106 47.2909 150.138 47.2916L150.555 47.2955L151.03 47.2979L151.47 47.2988L151.994 47.2986L152.636 47.2969L153.655 47.292L155.107 47.282L156.079 47.2794L156.633 47.2789L161.4 47.285L168.356 47.3049Z" fill="white" fill-opacity="0.5"/>
</g>
<defs>
<clipPath id="clip0_336_10166">
<rect width="141" height="33" fill="white" transform="translate(30 44)"/>
</clipPath>
</defs>
</svg>
