<svg width="200" height="120" viewBox="0 0 200 120" fill="none" xmlns="http://www.w3.org/2000/svg">
<g clip-path="url(#clip0_825_6427)">
<path d="M48.4926 77.7797C47.7051 78.5227 46.9228 79.2709 46.1458 80.0242C45.407 80.7401 44.8038 81.2021 44.3363 81.4101C43.5843 81.7448 42.7658 81.8734 41.8808 81.7959C40.6863 81.6912 39.6715 81.2202 38.8366 80.3828C37.7132 79.256 36.5688 78.1202 35.4032 76.9753C35.2969 76.8721 35.1542 76.8143 35.0062 76.8144C33.6602 76.8144 32.34 76.8144 31.0454 76.8144C29.8825 76.8144 29.0179 76.7233 28.4516 76.5411C27.0424 76.0862 26.0791 75.1765 25.5615 73.8119C25.3455 73.2433 25.2263 72.4202 25.2039 71.3425C25.1776 70.0335 25.173 68.6805 25.1901 67.2836C25.1941 67.0665 25.1164 66.8811 24.957 66.7273C23.9495 65.7556 22.9401 64.7586 21.9286 63.7365C21.1937 62.9935 20.719 62.3764 20.5043 61.8854C20.1856 61.1553 20.0677 60.3651 20.1507 59.5148C20.2574 58.4074 20.7078 57.4608 21.5019 56.6752C22.6424 55.5484 23.8284 54.3802 25.0597 53.1707C25.1456 53.0875 25.1934 52.9735 25.1921 52.8547C25.1736 51.2731 25.1796 49.7599 25.2099 48.3152C25.2283 47.4416 25.3356 46.7484 25.5319 46.2353C26.0639 44.8449 27.0332 43.9223 28.4397 43.4674C29.0245 43.2787 29.9622 43.1844 31.2528 43.1844C32.4091 43.1844 33.5647 43.1844 34.7197 43.1844C34.9858 43.1844 35.2063 43.1314 35.3815 43.0255C35.421 43.0009 35.5771 42.853 35.8497 42.5816C36.7834 41.6499 37.729 40.7305 38.6864 39.8234C39.287 39.2522 39.8302 38.8568 40.3162 38.6371C41.6951 38.0117 43.0516 38.0168 44.3856 38.6526C44.9045 38.8994 45.5571 39.4002 46.3433 40.1548C47.3706 41.1395 48.3985 42.1229 49.427 43.1049C49.4726 43.1485 49.5342 43.1728 49.5989 43.1728C50.7038 43.1818 51.8094 43.1864 52.9157 43.1864C54.5119 43.1876 55.6076 43.2787 56.2029 43.4597C57.6976 43.9132 58.6972 44.8992 59.2016 46.4175C59.3754 46.9422 59.4624 47.6716 59.4624 48.6059C59.4624 49.8193 59.4624 51.0327 59.4624 52.2461C59.4624 52.6609 59.548 53.0027 59.7192 53.2715C59.7547 53.327 59.9931 53.568 60.4343 53.9945C61.2877 54.8241 62.1477 55.6472 63.0142 56.4639C64.1495 57.5338 64.6611 58.8254 64.5492 60.3386C64.4781 61.2923 64.1607 62.1354 63.597 62.8681C63.5786 62.8927 62.9708 63.511 61.7736 64.7231C60.861 65.647 60.2348 66.2492 59.895 66.5296C59.6606 66.7222 59.519 66.9425 59.4703 67.1906C59.465 67.2151 59.4624 67.4613 59.4624 67.9291C59.4624 68.9693 59.4624 70.0096 59.4624 71.0498C59.4624 72.2076 59.3689 73.0682 59.1818 73.6316C58.6946 75.0957 57.6989 76.0675 56.195 76.5469C55.6352 76.7252 54.8075 76.8144 53.7118 76.8144C52.3882 76.8144 51.0232 76.8144 49.6167 76.8144C49.5033 76.8143 49.3944 76.8614 49.3164 76.9442C49.003 77.2802 48.7284 77.5587 48.4926 77.7797ZM37.0804 57.1927C37.0804 56.2239 36.28 55.4385 35.2926 55.4385C34.3052 55.4385 33.5048 56.2239 33.5048 57.1927C33.5048 58.1615 34.3052 58.9469 35.2926 58.9469C36.28 58.9469 37.0804 58.1615 37.0804 57.1927ZM51.1674 57.1908C51.1674 56.223 50.3679 55.4385 49.3816 55.4385C48.3953 55.4385 47.5958 56.223 47.5958 57.1908C47.5958 58.1585 48.3953 58.943 49.3816 58.943C50.3679 58.943 51.1674 58.1585 51.1674 57.1908ZM48.6447 63.1879C48.3563 61.4422 47.5299 60.0601 46.1655 59.0419C45.1238 58.2639 43.9741 57.844 42.7164 57.782C41.5153 57.7212 40.3735 57.9803 39.2909 58.5592C37.5657 59.4819 36.4832 61.0196 36.0433 63.1724C36.0188 63.2902 35.9177 63.3775 35.7963 63.3857C34.6572 63.4632 33.6846 63.8063 32.8786 64.4149C32.095 65.0067 31.5215 65.7892 31.158 66.7622C30.6746 68.0596 30.7793 69.3712 31.4721 70.697C32.0897 71.8781 33.009 72.6728 34.2298 73.0812C34.8159 73.2763 35.8122 73.3738 37.2187 73.3738C40.5849 73.3738 43.951 73.3738 47.3172 73.3738C48.7317 73.3738 49.7385 73.2763 50.3377 73.0812C51.4203 72.731 52.273 72.0946 52.8959 71.1719C53.4952 70.2854 53.7934 69.3156 53.7908 68.2625C53.7895 67.1434 53.4207 66.1374 52.6846 65.2445C51.7337 64.0918 50.4253 63.4406 48.7593 63.2907C48.7011 63.2861 48.6537 63.2437 48.6447 63.1879Z" fill="white" fill-opacity="0.3"/>
<path d="M148.07 71.8533C149.139 71.914 149.52 72.5466 149.213 73.7509C149.194 73.8283 149.145 73.8833 149.099 73.8808L148.496 73.844C148.457 73.8416 148.423 73.8189 148.404 73.7831C148.384 73.7474 148.383 73.7029 148.399 73.6637C148.522 73.3742 148.541 73.1365 148.457 72.9504C148.386 72.7915 148.208 72.6965 147.923 72.6655C147.448 72.6138 147.071 72.6112 146.793 72.6577C146.427 72.721 146.215 72.9368 146.155 73.3051L146.088 73.7277C146.054 73.8944 146.033 74.0792 146.025 74.282C146.024 74.3105 146.034 74.3381 146.054 74.3586C146.074 74.3791 146.101 74.3906 146.13 74.3906H148.125C148.471 74.3906 148.716 74.4416 148.86 74.5437C149.044 74.6755 149.125 74.8648 149.103 75.1116C149.09 75.2602 149.018 75.4386 148.887 75.6466C148.554 76.179 148.181 76.6907 147.767 77.1818C147.674 77.2938 147.648 77.4426 147.7 77.5694L148.36 79.1763C148.382 79.231 148.381 79.2921 148.357 79.3449C148.333 79.3978 148.289 79.4378 148.233 79.4554C147.766 79.6053 147.458 79.4341 147.311 78.9418C147.254 78.7505 147.199 78.5871 147.145 78.4514C147.083 78.2971 147.004 78.2803 146.91 78.4009L146.894 78.4223C146.678 78.7273 146.446 79.018 146.199 79.2945C146.043 79.4677 145.808 79.522 145.492 79.4574C145.458 79.4501 145.429 79.4273 145.416 79.3967C145.403 79.366 145.406 79.3314 145.424 79.3042L146.675 77.4725C146.704 77.4299 146.709 77.3684 146.687 77.3078L146.173 75.9025C146.165 75.8776 146.168 75.8501 146.181 75.8264C146.195 75.8026 146.219 75.7846 146.246 75.7765C146.47 75.7106 146.685 75.7325 146.892 75.8424C146.943 75.8686 146.987 75.9179 147.017 75.9819L147.244 76.4723C147.254 76.4935 147.274 76.5088 147.297 76.5134C147.32 76.5179 147.345 76.5114 147.362 76.4956C147.755 76.1532 148.021 75.7694 148.162 75.3442C148.18 75.2915 148.171 75.2335 148.138 75.1886C148.104 75.1436 148.051 75.1171 147.994 75.1174H145.989C145.915 75.1175 145.852 75.1707 145.839 75.2434L145.164 79.1433C145.14 79.2743 145.034 79.3757 144.901 79.3953C144.466 79.4587 144.271 79.3708 144.316 79.1317C144.635 77.3937 144.949 75.655 145.258 73.9157C145.389 73.1843 145.563 72.6907 145.782 72.4348C146.056 72.1117 146.422 71.9237 146.88 71.8708C147.207 71.832 147.603 71.8262 148.07 71.8533ZM159.636 75.573C159.696 75.5816 159.741 75.6304 159.741 75.6873V76.0265C159.74 76.0804 159.781 76.1243 159.831 76.1254L160.578 76.1355L161.365 76.143L161.718 76.1446L161.983 76.1444L162.243 76.1421L162.4 76.1386L162.486 76.1351C163.232 76.0963 163.748 76.3289 164.035 76.8329C164.279 77.2619 164.286 77.7368 164.057 78.2575C163.698 79.0712 162.985 79.4674 161.918 79.4459L161.653 79.4379L161.448 79.4336C161.413 79.4331 161.377 79.4326 161.341 79.4321L161.116 79.4304C161.078 79.4303 161.039 79.4302 160.999 79.4302C160.965 79.4306 160.934 79.4144 160.914 79.3869C160.895 79.3595 160.89 79.3242 160.902 79.2926C160.967 79.1169 161.058 78.9741 161.175 78.8642C161.219 78.8233 161.282 78.8016 161.351 78.8041C161.74 78.8209 162.086 78.8035 162.388 78.7518C162.677 78.7027 162.914 78.5774 163.099 78.3758C163.274 78.1845 163.366 77.9545 163.375 77.6857C163.391 77.1831 163.078 76.9227 162.435 76.9046C161.482 76.8762 160.492 76.8619 159.466 76.8619C159.335 76.8619 159.214 76.9337 159.154 77.048C158.792 77.7277 158.458 78.3829 158.154 79.0135C158.042 79.2435 157.925 79.3895 157.803 79.4515C157.625 79.5407 157.435 79.5207 157.234 79.3915C157.183 79.3585 157.163 79.2957 157.188 79.2441L158.243 77.0558C158.264 77.0139 158.261 76.9646 158.237 76.9253C158.213 76.886 158.171 76.8621 158.125 76.8619L156.969 76.8542C156.906 76.8531 156.851 76.816 156.831 76.7611C156.764 76.5764 156.783 76.4168 156.888 76.2824C156.964 76.1842 157.095 76.128 157.279 76.1137C157.71 76.0802 158.141 76.0802 158.573 76.1137C158.63 76.1186 158.685 76.087 158.711 76.0343C158.897 75.6621 159.205 75.5083 159.636 75.573ZM144.101 71.9328C144.687 72.0969 144.916 72.5763 144.788 73.371C144.52 75.0354 144.241 76.6991 143.953 78.3622C143.793 79.2771 143.242 79.6215 142.297 79.3953C142.24 79.3807 142.203 79.3277 142.212 79.2732C142.26 79.0037 142.431 78.8356 142.724 78.7688L142.769 78.7596C143 78.7169 143.134 78.5832 143.172 78.3583L144.038 73.247C144.085 72.964 143.97 72.7759 143.692 72.6829C143.555 72.6377 143.375 72.6189 143.151 72.6267L142.901 72.6364L142.82 72.6406L142.72 72.6474L142.645 72.6546L142.609 72.6596C142.237 72.7178 142.014 72.9556 141.942 73.373C141.601 75.3384 141.271 77.28 140.954 79.1976C140.938 79.2899 140.867 79.3636 140.774 79.3837C140.29 79.4871 140.079 79.3753 140.144 79.0484C140.505 77.216 140.833 75.3772 141.128 73.5319C141.291 72.5123 141.829 71.956 142.742 71.863C143.286 71.8074 143.739 71.8307 144.101 71.9328ZM108.548 74.2258C108.608 74.2437 108.654 74.2911 108.667 74.3499L109.11 76.2804C109.171 76.5531 109.139 76.8303 109.013 77.112C108.745 77.7051 108.412 78.3325 108.013 78.9941C107.766 79.405 107.418 79.5446 106.97 79.4128C106.946 79.4053 106.927 79.3878 106.917 79.365C106.908 79.3422 106.909 79.3164 106.921 79.2945L108.102 77.1372C108.232 76.8981 108.267 76.6384 108.205 76.358L107.77 74.377C107.758 74.3214 107.79 74.2653 107.845 74.2452C108.076 74.1625 108.31 74.156 108.548 74.2258ZM126.041 71.8708C126.103 71.884 126.154 71.9254 126.18 71.9821C126.205 72.0389 126.201 72.1041 126.17 72.1576C126.085 72.2985 126.077 72.4309 126.144 72.555C126.171 72.6026 126.232 72.6274 126.296 72.617C126.488 72.5847 126.682 72.5653 126.877 72.5589C127.768 72.5291 128.14 72.9472 127.993 73.813C127.915 74.2652 127.834 74.7162 127.75 75.1659C127.639 75.7526 127.504 76.1887 127.343 76.4743C127.128 76.8594 126.83 77.2322 126.448 77.5927C126.39 77.6493 126.377 77.7384 126.417 77.8117L127.205 79.2597C127.22 79.2884 127.22 79.3228 127.205 79.352C127.19 79.3812 127.161 79.4017 127.128 79.407C126.797 79.4586 126.519 79.4425 126.292 79.3585C126.248 79.3439 126.202 79.2971 126.166 79.2306L125.85 78.6762C125.813 78.6115 125.741 78.5755 125.659 78.581C125.577 78.5865 125.498 78.6328 125.449 78.7034C125.022 79.3094 124.53 79.5407 123.973 79.3973C123.95 79.3915 123.932 79.3751 123.925 79.3538C123.918 79.3325 123.923 79.3093 123.937 79.2926L125.178 77.8776C125.273 77.7682 125.29 77.6177 125.219 77.5055C125.035 77.2134 124.891 76.9149 124.787 76.61C124.692 76.336 124.672 76.0155 124.727 75.6485C124.821 75.036 124.922 74.4255 125.032 73.8168L125.044 73.7712L125.089 73.6133C125.15 73.4091 125.038 73.329 124.753 73.373C124.69 73.3828 124.625 73.3646 124.577 73.3234C124.529 73.2821 124.502 73.2221 124.504 73.1597C124.515 72.7695 124.69 72.5834 125.03 72.6015C125.087 72.6047 125.143 72.5847 125.184 72.5462C125.226 72.5076 125.249 72.454 125.249 72.398C125.252 71.9328 125.516 71.757 126.041 71.8708ZM132.487 72.4619C132.515 72.6816 132.437 72.9846 132.254 73.371C132.075 73.747 131.894 74.1224 131.711 74.4972C131.68 74.5633 131.674 74.6303 131.697 74.6794C131.754 74.8034 131.882 74.8445 132.08 74.8026L132.118 74.7937C132.555 74.6852 132.699 74.8325 132.55 75.2357C132.491 75.3966 132.33 75.5041 132.147 75.5051L131.434 75.5129C131.378 75.5127 131.33 75.5553 131.32 75.6137C131.214 76.2404 131.106 76.8665 130.996 77.4919L130.967 77.6461C130.928 77.8462 130.886 78.0243 130.842 78.1804L130.808 78.2933C130.729 78.5472 130.641 78.7336 130.545 78.8526C130.233 79.2389 129.755 79.4305 129.112 79.4275L129.04 79.4263C128.857 79.4225 128.674 79.4222 128.492 79.4256L128.309 79.4302C127.973 79.4419 127.955 79.2668 128.254 78.9049C128.376 78.7579 128.57 78.688 128.761 78.7227C129.523 78.8597 129.957 78.5767 130.063 77.8737L130.152 77.3097C130.269 76.7579 130.349 76.201 130.391 75.6389C130.393 75.6132 130.385 75.5877 130.367 75.568C130.35 75.5484 130.325 75.5362 130.298 75.5342L130.057 75.5176L129.764 75.4998L129.565 75.4898L129.329 75.4807L129.224 75.478L129.126 75.4765L129.037 75.4763L128.956 75.4773L128.883 75.4796L128.818 75.4831L128.762 75.4878L128.714 75.4938C128.699 75.496 128.686 75.4984 128.674 75.501L128.657 75.5051C128.408 75.571 128.298 75.4224 128.327 75.0593C128.34 74.9053 128.469 74.7867 128.623 74.786L130.488 74.7782C130.594 74.7784 130.689 74.7217 130.731 74.6329L131.523 72.9833C131.557 72.9112 131.553 72.827 131.51 72.7581C131.467 72.6892 131.393 72.6444 131.31 72.6383C130.785 72.5981 130.233 72.5824 129.652 72.5912L129.428 72.5959L129.263 72.6112C128.991 72.6383 128.894 72.4716 128.975 72.1111C129.005 71.9709 129.133 71.8708 129.281 71.8708C130.067 71.8708 130.814 71.8611 131.521 71.8417C132.108 71.8262 132.43 72.0329 132.487 72.4619ZM94.8961 71.7622C94.9601 71.7706 95.0162 71.8082 95.0476 71.8639C95.0791 71.9195 95.0822 71.9867 95.0561 72.0452C94.9362 72.3077 94.9548 72.4344 95.1119 72.4251L95.2667 72.4076L95.2965 72.4047L95.3129 72.4038L99.1631 72.4057C99.2776 72.4535 99.3244 72.608 99.3033 72.869C99.291 73.0165 99.1648 73.1302 99.0129 73.1307H94.8131C94.6509 73.1307 94.5026 73.2262 94.4338 73.3749L94.0427 74.2161C94.0252 74.2545 94.0284 74.2989 94.0512 74.3341C94.0739 74.3693 94.1131 74.3906 94.1553 74.3906H99.1157C99.1938 74.3904 99.2586 74.4498 99.2638 74.5263C99.2888 74.8584 99.2289 75.0632 99.0841 75.1407C99.0805 75.1426 99.0753 75.1443 99.0683 75.146L99.0421 75.1507L99.0055 75.1547L98.9309 75.1596L98.8682 75.1621L98.7115 75.1652L98.5665 75.1659H93.8273C93.7081 75.166 93.607 75.2206 93.5725 75.3035L93.2229 76.1234C93.2137 76.1454 93.2182 76.1704 93.235 76.1907C93.2518 76.2111 93.2789 76.2242 93.3078 76.2262C94.1721 76.2714 95.0368 76.2939 95.9021 76.2936L96.3526 76.2916L96.5057 76.2919L96.6506 76.2939L96.7874 76.2977L96.9161 76.3033L97.0366 76.3106C97.1336 76.3174 97.2221 76.326 97.3022 76.3364L97.3942 76.3498C97.526 76.3712 97.6303 76.3985 97.7072 76.4316C98.122 76.6113 98.3439 76.9427 98.3729 77.426C98.394 77.7904 98.3064 78.1432 98.1101 78.4843C97.748 79.1149 97.1639 79.4302 96.3579 79.4302H91.4766C91.4494 79.4301 91.4237 79.4182 91.4065 79.3979C91.3892 79.3777 91.3823 79.3511 91.3877 79.3256C91.4364 79.0736 91.5365 78.8849 91.6879 78.7596C91.7312 78.7233 91.7942 78.702 91.8657 78.6995L92.7702 78.6682L93.5727 78.6448L94.191 78.6306L94.6587 78.6232L94.9387 78.6207L95.1319 78.6202L95.3671 78.6211L95.6253 78.625L95.8031 78.6303L95.9553 78.6375L96.0219 78.6419L96.0821 78.6467L96.1604 78.6549C96.8347 78.7376 97.2666 78.4992 97.4563 77.9397C97.5682 77.6127 97.503 77.3659 97.2607 77.1992C97.1251 77.1049 96.9064 77.0525 96.6048 77.0422C95.3643 76.9983 94.0914 76.9873 92.7863 77.0093C92.3122 77.017 92.1146 76.7915 92.1936 76.3328C92.2411 76.0562 92.3747 75.7435 92.5947 75.3946C92.6842 75.2512 92.6434 75.1782 92.4722 75.1756L91.1368 75.1562C91.0779 75.155 91.0291 75.1138 91.0222 75.0593C90.9998 74.8616 91.0242 74.6723 91.0953 74.4914C91.1167 74.4375 91.1716 74.4021 91.2336 74.4022L92.9364 74.3789C92.9984 74.3788 93.0543 74.3458 93.0806 74.2937L93.5607 73.3245C93.5818 73.2831 93.5793 73.2338 93.554 73.1943C93.5286 73.1549 93.4841 73.1308 93.4362 73.1307H91.7887C91.7308 73.1309 91.6822 73.0873 91.6761 73.0299C91.6237 72.5319 91.8206 72.3207 92.267 72.3961L92.3082 72.4038C92.3223 72.4066 92.3377 72.4092 92.3546 72.4116L92.4096 72.4181C92.4194 72.419 92.4297 72.4199 92.4402 72.4207L92.508 72.4251L92.5843 72.428L92.6691 72.4296L92.8123 72.4293L92.9185 72.4274L93.0937 72.4218L93.2212 72.4164L93.4284 72.4057L93.7346 72.3864L93.9004 72.3747C93.9583 72.3711 94.0093 72.3324 94.0308 72.2759C94.1836 71.8766 94.472 71.7053 94.8961 71.7622ZM113.728 71.7758C113.918 71.8081 113.959 71.958 113.853 72.2255C113.825 72.2934 113.836 72.37 113.882 72.4305C113.927 72.4909 114.001 72.5273 114.08 72.5278L116.126 72.5298C116.185 72.53 116.238 72.5685 116.261 72.6267C116.443 73.1127 116.26 73.3307 115.712 73.2805L115.668 73.276C115.161 73.2192 114.514 73.2431 113.728 73.3478C113.673 73.3547 113.629 73.3997 113.619 73.4582L113.359 75.133C113.352 75.1749 113.364 75.2175 113.391 75.2496C113.417 75.2816 113.456 75.2999 113.497 75.2997L115.506 75.3093C115.564 75.3102 115.612 75.3542 115.615 75.4101C115.632 75.6427 115.575 75.8301 115.443 75.9722C115.407 76.0093 115.347 76.0318 115.275 76.0343L113.307 76.0905C113.25 76.0919 113.201 76.135 113.191 76.1932L112.78 78.5483C112.776 78.573 112.783 78.5983 112.799 78.6181C112.815 78.6379 112.839 78.6505 112.865 78.653L113.147 78.6787L113.325 78.6935L113.575 78.7122L113.732 78.7223L113.88 78.7305L114.02 78.7368L114.151 78.7413L114.274 78.7439C114.294 78.7442 114.313 78.7443 114.332 78.7445L114.442 78.7442C114.46 78.744 114.477 78.7438 114.494 78.7434L114.592 78.7404C114.608 78.7397 114.623 78.7389 114.638 78.7381L114.723 78.7323C114.79 78.7266 114.849 78.7189 114.898 78.7093L114.927 78.7034C115.31 78.6181 115.451 78.7964 115.348 79.2383C115.323 79.3501 115.224 79.4293 115.111 79.4283L109.297 79.3837C109.236 79.3839 109.182 79.3457 109.167 79.2907C109.105 79.0774 109.156 78.9011 109.319 78.7615C109.358 78.7279 109.42 78.7078 109.493 78.7053L111.755 78.651C111.813 78.649 111.863 78.6056 111.875 78.5463L112.328 76.168C112.333 76.139 112.326 76.1089 112.307 76.086C112.288 76.0631 112.259 76.0498 112.229 76.0498L110.234 76.0382C110.174 76.0381 110.122 75.9987 110.109 75.9432C110.052 75.6925 110.087 75.5025 110.212 75.3733C110.248 75.3351 110.311 75.3125 110.384 75.3113L112.272 75.2997C112.387 75.2987 112.484 75.2144 112.503 75.1L112.772 73.4873C112.781 73.4344 112.766 73.3804 112.731 73.3397C112.697 73.299 112.646 73.2757 112.592 73.276H110.441C110.38 73.2761 110.33 73.2298 110.328 73.1714C110.317 72.953 110.35 72.7727 110.429 72.6306C110.459 72.5758 110.517 72.5416 110.579 72.5414L112.75 72.524C112.855 72.5225 112.941 72.4471 112.946 72.3515C112.967 72.0077 113.105 71.8165 113.361 71.7777C113.495 71.757 113.618 71.7564 113.728 71.7758ZM143.234 74.2297C143.528 74.5251 143.492 74.8315 143.126 75.1487L143.089 75.1795C142.754 75.454 142.701 75.7658 142.931 76.115L142.957 76.1525C143.213 76.513 143.127 76.7967 142.7 77.0034C142.576 77.064 142.426 77.0218 142.355 76.9065C141.733 75.9089 141.938 75.0115 142.969 74.2142C143.049 74.1523 143.163 74.159 143.234 74.2297ZM126.079 73.3846C126.022 73.3821 125.97 73.4264 125.956 73.4893C125.8 74.2142 125.68 74.9184 125.599 75.602C125.547 76.0323 125.635 76.4362 125.861 76.8135C125.884 76.8509 125.922 76.8761 125.966 76.8818C126.009 76.8875 126.053 76.873 126.085 76.8426C126.394 76.5428 126.616 76.1984 126.75 75.8094L126.77 75.7504L126.79 75.6818L126.811 75.6037L126.833 75.5161L126.867 75.3668L126.904 75.1961L126.93 75.0703L126.97 74.8638L126.997 74.7143C127.061 74.3615 127.106 73.99 127.134 73.5997C127.137 73.5539 127.123 73.5089 127.096 73.475C127.07 73.4411 127.032 73.4211 126.991 73.4195L126.079 73.3846ZM159.14 71.8107C159.243 71.8817 159.262 71.967 159.197 72.0665C159.127 72.1712 159.156 72.2235 159.284 72.2235C160.888 72.2093 162.477 72.2041 164.049 72.208C164.327 72.2093 164.529 72.2448 164.655 72.3146C164.891 72.4438 164.981 72.6545 164.924 72.9465C164.862 73.2605 164.698 73.4705 164.432 73.5765L162.633 74.2937C162.402 74.3854 162.404 74.4545 162.639 74.5011L164.796 74.9217C164.869 74.936 164.925 74.9739 164.942 75.0205C164.958 75.0683 164.958 75.12 164.944 75.1756C164.925 75.2424 164.913 75.2961 164.909 75.3369L164.906 75.3597C164.893 75.5813 164.786 75.6733 164.585 75.6358L164.367 75.5865L164.017 75.529L163.795 75.4909L163.581 75.453L163.375 75.4153L163.178 75.3779L162.99 75.3406L162.81 75.3035L162.639 75.2667C162.611 75.2605 162.583 75.2544 162.556 75.2483L162.398 75.2118L162.248 75.1754L162.107 75.1393L161.974 75.1034C161.888 75.0795 161.808 75.0558 161.734 75.0322C161.187 74.859 160.68 74.8338 160.211 74.9566C159.19 75.2228 158.154 75.403 157.103 75.4974C157.043 75.5021 156.988 75.4678 156.969 75.414C156.828 75.016 156.972 74.7879 157.4 74.7298L157.714 74.6862L157.914 74.6575L158.105 74.6292L158.287 74.6013L158.546 74.5601L158.862 74.5064L159.078 74.467L159.211 74.4412L159.336 74.4158L159.453 74.3907L159.561 74.366C159.578 74.3619 159.595 74.3578 159.612 74.3537C159.635 74.3482 159.654 74.3323 159.663 74.3112C159.672 74.2902 159.669 74.2669 159.656 74.2491C159.553 74.1093 159.414 74.0119 159.238 73.9568L159.189 73.9428C158.967 73.8834 158.958 73.8026 159.164 73.7005C159.788 73.3917 160.324 73.4408 160.772 73.8478C160.89 73.9542 161.052 73.9907 161.194 73.9428L163.57 73.1311L163.629 73.1096L163.679 73.0894L163.722 73.0706C163.728 73.0676 163.734 73.0646 163.74 73.0617L163.771 73.0449C163.841 73.0018 163.824 72.9728 163.721 72.9581L163.679 72.9532L163.628 72.9496L163.569 72.9474L163.502 72.9465L158.871 72.9368C158.688 72.9369 158.526 73.0555 158.47 73.2295C158.314 73.7219 157.971 73.8924 157.443 73.7412C157.419 73.7341 157.399 73.7168 157.39 73.6941C157.38 73.6715 157.381 73.646 157.394 73.6249L158.387 71.9192C158.563 71.6181 158.813 71.5819 159.14 71.8107ZM109.204 72.0278C109.306 72.0271 109.39 72.1081 109.391 72.2087L109.397 73.0926C109.398 73.1932 109.315 73.2753 109.213 73.276L108.648 73.2799C108.545 73.2806 108.461 73.1996 108.461 73.099L108.454 72.2151C108.454 72.1145 108.536 72.0323 108.639 72.0316L109.204 72.0278ZM172.006 43.2901C172.061 43.2901 172.108 43.3335 172.115 43.3909L172.216 44.238C172.223 44.293 172.272 44.3335 172.328 44.331L172.618 44.32L173.035 44.3061L173.303 44.2987L173.562 44.2928L173.813 44.2883L174.055 44.2853L174.289 44.2838L174.623 44.2842L174.835 44.2864C174.869 44.2868 174.904 44.2874 174.937 44.288L175.136 44.2923L175.327 44.2981C178.046 44.3937 179.824 45.6032 180.661 47.9266C180.824 48.3828 180.91 48.9475 180.917 49.6207C180.955 52.9081 180.971 56.1955 180.967 59.4829L180.961 61.6706L180.95 62.9058L180.945 63.183L180.934 63.6198L180.925 63.8324L180.918 63.9373L180.911 63.9931L180.91 64.0031C180.724 65.0446 180.192 65.9026 179.315 66.5772C178.23 67.4107 176.937 67.6911 175.436 67.4184C175.41 67.4143 175.388 67.3992 175.376 67.3774C175.363 67.3556 175.361 67.3294 175.37 67.306L176.176 65.3211C176.215 65.2226 176.312 65.1503 176.431 65.1312C177.361 64.9813 177.984 64.602 178.3 63.9934C178.387 63.8254 178.45 63.5572 178.489 63.1888L178.502 63.0546L178.512 62.912L178.521 62.7612L178.528 62.602L178.533 62.4345L178.536 62.2586L178.537 62.0744V50.995L178.536 50.7836C178.536 50.7491 178.535 50.7148 178.535 50.6809L178.53 50.4811L178.524 50.2891C178.522 50.2577 178.521 50.2267 178.519 50.196L178.509 50.0156C178.467 49.3388 178.376 48.8324 178.237 48.4965C177.724 47.265 176.639 46.6667 174.981 46.7016C173.285 46.7378 171.596 46.7281 169.914 46.6725C169.8 46.6694 169.709 46.5792 169.709 46.469L169.707 43.389C169.707 43.3344 169.752 43.2901 169.807 43.2901H172.006ZM86.9686 48.7562C87.03 48.7562 87.0885 48.782 87.1271 48.8267C87.1657 48.8714 87.1801 48.9298 87.1661 48.9849L86.8698 50.177C86.8618 50.2084 86.8682 50.2416 86.8872 50.267C86.9061 50.2924 86.9354 50.3071 86.9666 50.3069C87.8121 50.3069 88.6207 50.3185 89.3924 50.3418C91.0097 50.3896 92.3951 50.9575 93.5488 52.0455C94.3508 52.8028 94.9132 53.677 95.2359 54.6681C95.3418 54.9952 95.4179 55.4276 95.4643 55.9652L95.4786 56.1483C95.483 56.2107 95.4871 56.2743 95.4908 56.3393L95.5007 56.538C95.5022 56.5718 95.5035 56.6058 95.5048 56.6403L95.5114 56.8507L95.5159 57.0689C95.5164 57.1059 95.5169 57.1433 95.5172 57.1809L95.5183 57.4108L95.5193 60.227L95.5381 60.9754C95.5644 61.9833 95.3893 62.8976 95.0126 63.7182C94.1882 65.5143 92.8449 66.6812 90.9827 67.2188C90.39 67.3906 89.619 67.4817 88.6694 67.4921C87.8911 67.4998 87.1101 67.485 86.3265 67.4475C86.3017 67.4465 86.2786 67.4345 86.2637 67.415C86.2487 67.3955 86.2435 67.3704 86.2495 67.3467L86.7275 65.3774C86.7881 65.128 86.9488 65.011 87.2096 65.0265C87.9168 65.0666 88.5911 65.0621 89.2324 65.013C90.0081 64.9522 90.6469 64.7745 91.1486 64.4799C91.9125 64.0354 92.4537 63.4074 92.7725 62.5959C92.9568 62.1307 93.049 61.4206 93.049 60.4656V57.6434C93.049 56.5295 92.9529 55.7206 92.7606 55.2167C92.3839 54.2294 91.6971 53.5264 90.7002 53.1078C90.1813 52.8907 89.4497 52.7769 88.5055 52.7666C87.7851 52.7589 87.064 52.766 86.3423 52.7879C86.2854 52.789 86.236 52.8279 86.2218 52.8829L82.4922 67.3079C82.478 67.3644 82.43 67.4076 82.3697 67.4184C81.6295 67.5412 80.817 67.5457 79.932 67.432C79.8831 67.4259 79.8393 67.3992 79.8117 67.3588C79.7841 67.3184 79.7754 67.2681 79.7878 67.2207L83.4325 52.8848C83.4385 52.8613 83.4335 52.8363 83.4189 52.817C83.4043 52.7977 83.3816 52.7863 83.3574 52.786L77.3599 52.7375C77.221 52.7361 77.1052 52.6374 77.0893 52.5069C77.0116 51.8711 77.0109 51.1856 77.0873 50.4503C77.0934 50.3949 77.1412 50.3531 77.1979 50.3534L83.95 50.2933C84.0165 50.2931 84.0729 50.2576 84.0883 50.2061L84.4143 49.1012C84.4814 48.8712 84.621 48.7562 84.8331 48.7562H86.9686ZM163.373 48.7097C163.458 48.7194 163.522 48.7899 163.524 48.8744L163.528 50.3823L163.536 52.6251L163.544 54.1074L163.553 55.5796L163.563 57.0416C163.565 57.2844 163.567 57.5268 163.569 57.7688L163.581 59.2154C163.583 59.5036 163.653 59.7749 163.79 60.0295L164.727 61.7756L165.678 63.5442L166.644 65.3353L167.296 66.5419C167.405 66.7439 167.515 66.9462 167.625 67.149C167.659 67.2122 167.658 67.2886 167.621 67.351C167.584 67.4134 167.517 67.4528 167.443 67.4552L165.608 67.5115C165.367 67.5179 165.19 67.4197 165.078 67.2168L162.4 62.3342C162.334 62.2153 162.268 62.2153 162.204 62.3342L159.462 67.3506C159.426 67.4187 159.353 67.4613 159.272 67.4611H157.068C157.021 67.4607 156.978 67.4367 156.954 67.3976C156.93 67.3585 156.928 67.3099 156.949 67.2692C158.173 64.9264 159.438 62.5797 160.746 60.2292C160.905 59.941 161.005 59.6561 161.044 59.3744L161.047 59.3327L161.05 59.2057L161.054 58.7718L161.054 48.9462C161.054 48.8191 161.152 48.7129 161.279 48.7C161.981 48.6238 162.679 48.627 163.373 48.7097ZM103.715 52.7298L126.582 52.7414C126.685 52.7415 126.771 52.8158 126.786 52.9159C126.902 53.7093 126.91 54.4103 126.81 55.0189C126.8 55.0781 126.755 55.1243 126.697 55.1333C126.661 55.139 126.624 55.1443 126.584 55.1492L126.461 55.163C126.397 55.1693 126.329 55.1749 126.256 55.1797L126.106 55.1882L125.945 55.1945C125.917 55.1954 125.889 55.1962 125.861 55.1969L125.684 55.2001C125.653 55.2004 125.622 55.2007 125.591 55.2009L120.372 55.2011C120.311 55.2011 120.261 55.2497 120.261 55.3097L120.261 59.3317L120.26 59.567L120.255 59.9076L120.251 60.1265L120.246 60.3387L120.239 60.5444L120.231 60.7435L120.222 60.936L120.211 61.122C120.21 61.1524 120.208 61.1826 120.206 61.2125L120.193 61.3885L120.18 61.558L120.165 61.7208L120.149 61.8771C120.147 61.9026 120.144 61.9279 120.141 61.9528L120.123 62.0992L120.104 62.239L120.084 62.3723C120.077 62.4156 120.07 62.4578 120.062 62.4989L120.04 62.619L120.016 62.7325L119.991 62.8394C119.978 62.8912 119.965 62.9405 119.951 62.9874C119.345 65.042 117.897 66.4648 115.607 67.2556C115.373 67.3358 115.019 67.3912 114.545 67.4219L114.373 67.4317C114.344 67.4332 114.314 67.4346 114.283 67.4359C112.112 67.5263 109.889 67.5328 107.616 67.4552C107.588 67.4541 107.561 67.4409 107.544 67.4191C107.527 67.3973 107.521 67.3693 107.527 67.3428L108.055 65.2223C108.081 65.1145 108.18 65.0384 108.294 65.0382L113.841 65.0401C114.369 65.0401 114.87 64.9277 115.344 64.7028C117.01 63.9094 117.811 62.5791 117.746 60.7118C117.686 58.9117 117.679 57.111 117.726 55.3097C117.728 55.2844 117.718 55.2597 117.7 55.2414C117.682 55.2231 117.657 55.2128 117.632 55.2128L112.466 55.1992L108.85 55.1947L106.331 55.1961L104.605 55.2011C104.234 55.2024 103.916 55.1798 103.651 55.1333C103.593 55.123 103.55 55.0755 103.551 55.0209L103.527 52.912C103.526 52.8638 103.546 52.8175 103.581 52.7833C103.616 52.749 103.664 52.7298 103.715 52.7298ZM147.572 43.5712C148.184 43.5712 148.777 43.6746 149.352 43.8813C151.655 44.7083 152.922 46.2848 153.152 48.6108C153.239 49.487 153.1 50.3418 152.734 51.1752C152.385 51.9648 151.88 52.6432 151.22 53.2105C150.164 54.1176 148.882 54.5712 147.374 54.5712H135.764C135.665 54.5713 135.574 54.6326 135.535 54.7263L134.866 56.3215C134.849 56.3638 134.853 56.4116 134.878 56.4492C134.903 56.4868 134.945 56.5094 134.99 56.5095H146.173L146.413 56.5103L146.645 56.5126L146.87 56.5165L147.088 56.522L147.299 56.529L147.502 56.5376C147.535 56.5392 147.568 56.5408 147.601 56.5425L147.793 56.5534L147.978 56.5659C148.008 56.5681 148.038 56.5703 148.068 56.5727L148.242 56.5875C148.299 56.5927 148.354 56.5982 148.409 56.6039L148.568 56.6218C148.62 56.6281 148.671 56.6346 148.72 56.6413L148.865 56.6624C148.889 56.666 148.912 56.6697 148.935 56.6735L149.069 56.6969L149.195 56.7218C149.318 56.7476 149.43 56.7757 149.531 56.8061C151.361 57.354 152.58 58.5997 153.19 60.5432C153.639 61.9775 153.441 63.4074 152.597 64.8327C151.965 65.8975 151.02 66.6573 149.761 67.1122C149.251 67.2969 148.67 67.4107 148.018 67.4533C147.407 67.4921 146.811 67.4856 146.23 67.4339C146.182 67.429 146.138 67.4023 146.112 67.3619C146.086 67.3214 146.082 67.272 146.1 67.2285L146.902 65.327C146.988 65.1254 147.149 65.0278 147.386 65.0343C148.848 65.0756 149.91 64.5238 150.572 63.3789C150.846 62.9047 150.954 62.3742 150.896 61.7876C150.842 61.2474 150.663 60.7583 150.359 60.3203C150.017 59.8266 149.561 59.4642 148.992 59.2329C148.659 59.0972 148.195 59.0293 147.601 59.0293H146.181C146.115 59.0293 146.056 59.0684 146.031 59.1282L142.661 67.2071C142.597 67.3605 142.445 67.4609 142.276 67.4611H140.31C140.233 67.4607 140.161 67.4229 140.117 67.36C140.074 67.2971 140.066 67.2174 140.095 67.147L143.423 59.1301C143.432 59.1102 143.43 59.0872 143.417 59.0692C143.405 59.0511 143.384 59.0405 143.362 59.041L140.012 59.0293C139.944 59.0295 139.882 59.0708 139.856 59.134L136.41 67.337C136.386 67.3934 136.333 67.4302 136.274 67.43L134.01 67.4572C133.966 67.4572 133.924 67.4355 133.899 67.399C133.874 67.3626 133.869 67.3161 133.886 67.275L137.228 59.1844C137.242 59.1506 137.238 59.1123 137.218 59.0821C137.198 59.0519 137.164 59.0336 137.127 59.0332L133.856 59.039C133.796 59.0391 133.742 59.0758 133.718 59.1321L132.209 62.6811C132.175 62.7587 132.1 62.8091 132.017 62.8091L129.909 62.7994C129.836 62.7997 129.768 62.7636 129.728 62.7031C129.688 62.6427 129.681 62.5661 129.71 62.4989L133.283 53.9393C133.315 53.8609 133.288 53.7719 133.218 53.7261C132.109 53.0011 131.333 52.0675 130.891 50.9252C130.523 49.9754 130.441 49.0095 130.642 48.0274C130.83 47.1035 131.245 46.2642 131.887 45.5095C132.718 44.53 133.771 43.9194 135.045 43.6778L135.09 43.6702L135.14 43.6629L135.228 43.6524L135.294 43.6458L135.367 43.6394L135.532 43.6276L135.672 43.6194L135.881 43.6096L136.115 43.6008L136.443 43.5915L136.89 43.5826L137.306 43.5771L137.857 43.5729L138.359 43.5712H147.572ZM99.6319 52.6591C99.6602 52.6576 99.6845 52.6788 99.6862 52.7066L100.425 64.9159C100.427 64.9437 100.406 64.9675 100.377 64.9692L98.0503 65.1049C98.022 65.1065 97.9976 65.0853 97.996 65.0575L97.2567 52.8482C97.255 52.8204 97.2766 52.7965 97.3049 52.7949L99.6319 52.6591ZM78.2686 54.6816L80.4219 54.7107C80.4842 54.7118 80.5421 54.7425 80.5791 54.7943C80.6161 54.8461 80.628 54.9131 80.6115 54.9763L78.1224 64.6156C78.1069 64.674 78.0575 64.717 77.998 64.7241C77.4628 64.7958 76.9266 64.8173 76.3892 64.7885L76.2184 64.7782L75.9015 64.786L75.7657 64.79C75.4935 64.7987 75.3947 64.6677 75.4695 64.3968L75.5445 64.1581C76.3373 61.0827 77.1163 58.0272 77.8814 54.9918C77.9285 54.8072 78.089 54.6786 78.2686 54.6816ZM176.392 48.7058C176.461 48.7137 176.513 48.7705 176.512 48.8376V60.6982C176.512 61.4568 176.425 62.0441 176.251 62.4602C175.771 63.6141 174.85 64.2919 173.488 64.4935C172.621 64.6201 171.813 64.3882 171.062 63.7976C170.488 63.3466 170.093 62.8007 169.879 62.1597C169.812 61.9594 169.763 61.6747 169.733 61.3056L169.723 61.1632L169.714 61.013L169.707 60.8548L169.702 60.6887L169.699 60.5147L169.697 60.3328L169.697 48.8318C169.697 48.7365 169.775 48.6593 169.871 48.6593L171.811 48.6709C171.95 48.6719 172.064 48.7807 172.071 48.919C172.121 49.8003 172.137 50.6913 172.119 51.592L172.1 52.6032L172.086 53.6001L172.084 53.8878L172.084 54.1716L172.085 54.2572C172.11 56.4165 172.121 58.5751 172.117 60.7331C172.117 61.1544 172.168 61.4626 172.271 61.6577C172.472 62.0389 172.804 62.1824 173.267 62.088C173.564 62.0273 173.776 61.8974 173.901 61.6984C174.027 61.4994 174.091 61.2397 174.092 60.9192L174.142 48.8667C174.143 48.7847 174.206 48.7165 174.288 48.7078C174.996 48.6302 175.698 48.6296 176.392 48.7058ZM164.578 44.0732C165.64 44.5707 166.441 45.2614 166.981 46.1453C167.532 47.0498 167.812 48.114 167.82 49.3377C167.845 52.9081 167.829 56.4539 167.773 59.9752C167.771 60.069 167.693 60.1439 167.597 60.1439H165.487C165.413 60.1439 165.352 60.0867 165.349 60.014C165.294 58.7709 165.278 57.5226 165.301 56.2692L165.309 55.796L165.319 55.0591L165.323 54.5163L165.324 54.1364L165.323 53.6623L165.32 53.2952L165.317 53.067C165.304 52.2655 165.297 51.4641 165.295 50.6626L165.296 49.8611C165.298 48.8984 165.209 48.207 165.029 47.787C164.739 47.1125 164.255 46.6182 163.577 46.3042C162.961 46.0199 162.31 45.9586 161.625 46.1201C160.664 46.3449 159.985 46.9064 159.588 47.8045C159.413 48.1973 159.324 48.7491 159.322 49.4598L159.276 59.9733C159.275 60.0678 159.198 60.1439 159.102 60.1439H156.979C156.884 60.1439 156.807 60.0684 156.807 59.9752V50.2584L156.808 50.028C156.808 49.9903 156.809 49.9529 156.809 49.9158L156.812 49.6974L156.818 49.487L156.825 49.2846L156.833 49.0902L156.844 48.9037L156.856 48.7253L156.869 48.5548C156.884 48.3883 156.901 48.2338 156.921 48.0913L156.942 47.9528C156.978 47.7286 157.021 47.5376 157.072 47.38C157.278 46.73 157.6 46.1369 158.038 45.6006C158.442 45.1044 158.955 44.6799 159.577 44.3271C161.247 43.3774 162.914 43.2927 164.578 44.0732ZM136.414 45.9476C135.768 45.9553 135.261 46.0458 134.895 46.2189C134.2 46.5459 133.68 47.0602 133.335 47.7618C133.316 47.7985 133.319 47.8418 133.341 47.8765C133.364 47.9111 133.403 47.9323 133.445 47.9324L148.158 47.9363C148.272 47.9362 148.365 48.0175 148.366 48.1185L148.395 49.9037C148.398 50.0369 148.289 50.1511 148.143 50.1673C147.744 50.2138 147.29 50.2358 146.782 50.2332C142.341 50.2112 137.9 50.2074 133.459 50.2216C133.437 50.2212 133.417 50.2322 133.405 50.2507C133.393 50.2693 133.392 50.2927 133.402 50.3127C133.98 51.5506 134.966 52.1786 136.361 52.1967L136.943 52.2036L137.346 52.2074L138.185 52.2131L138.844 52.2158L139.528 52.2169L140.512 52.2162L141.608 52.2125L142.758 52.2057L143.717 52.1981L145.48 52.1801L146.535 52.1671L147.076 52.1599C147.837 52.1509 148.417 52.0565 148.814 51.8769C149.407 51.6107 149.865 51.2114 150.187 50.679C150.622 49.9631 150.743 49.171 150.551 48.3026C150.333 47.327 149.738 46.6234 148.765 46.1918C148.396 46.0277 147.915 45.9431 147.323 45.9379C143.687 45.8991 140.05 45.9023 136.414 45.9476ZM116.213 43.3134C116.273 43.3225 116.317 43.3695 116.32 43.4258L116.373 44.6256C116.375 44.6804 116.417 44.7243 116.47 44.7264C118.233 44.7833 119.998 44.8053 121.762 44.7923C122.452 44.7872 123.021 44.8576 123.469 45.0036C125.693 45.7247 126.829 47.3237 126.877 49.8007L126.879 49.9036L126.901 50.2332C126.925 50.6237 126.749 50.8173 126.373 50.8139L125.942 50.7973C125.474 50.8102 125.044 50.7973 124.652 50.7585C124.482 50.7413 124.354 50.5955 124.36 50.4251C124.372 50.1253 124.369 49.8294 124.35 49.5374C124.329 49.2014 124.271 48.9126 124.176 48.6709C123.792 47.6901 123.013 47.2017 121.841 47.2055C117.412 47.2211 112.984 47.2262 108.556 47.2211C107.413 47.2211 106.635 47.674 106.221 48.5798C106.117 48.806 106.06 49.16 106.05 49.642C106.042 49.9754 106.007 50.3069 105.945 50.6364C105.934 50.6926 105.886 50.7353 105.826 50.7411C105.388 50.7852 104.949 50.805 104.51 50.8006L104.298 50.7971L104.003 50.807C103.671 50.8206 103.504 50.6748 103.501 50.3695L103.511 49.9909C103.485 49.2892 103.557 48.6716 103.728 48.1379C104.238 46.5562 105.243 45.5218 106.743 45.0346C107.235 44.8741 107.957 44.7927 108.908 44.7903L109.019 44.7904C110.596 44.7956 112.175 44.7813 113.754 44.7478C113.814 44.7467 113.862 44.7027 113.862 44.6489L113.882 43.4665C113.884 43.3739 113.948 43.297 114.034 43.2863C114.78 43.1932 115.506 43.2023 116.213 43.3134ZM95.3109 43.3308C95.37 43.3365 95.4156 43.3821 95.4176 43.4374L95.4828 44.6256C95.4849 44.6818 95.5276 44.7262 95.5796 44.7264L99.5206 44.7768C99.6235 44.7779 99.7063 44.8557 99.7063 44.9513L99.7142 46.9342C99.7147 47.006 99.6856 47.075 99.6333 47.1259C99.581 47.1769 99.5099 47.2055 99.4357 47.2055H76.7732C76.6856 47.2055 76.6143 47.1364 76.6132 47.0505L76.6053 45.0598C76.6043 44.9064 76.7348 44.7809 76.8977 44.7788L80.5681 44.7497C80.6309 44.7499 80.6825 44.7062 80.6846 44.6508L80.7399 43.4452C80.7444 43.3573 80.8083 43.2886 80.8841 43.2901L83.0255 43.3211C83.0872 43.3221 83.137 43.3684 83.1381 43.4258L83.1539 44.583C83.155 44.6657 83.2184 44.7322 83.2962 44.7322L92.812 44.7458C92.8654 44.7468 92.9105 44.7052 92.9147 44.6508L93.0214 43.4122C93.0263 43.3575 93.0736 43.3135 93.134 43.3076C93.8609 43.2481 94.5866 43.2559 95.3109 43.3308Z" fill="white" fill-opacity="0.5"/>
<path opacity="0.5" d="M35.2878 58.9459C36.2752 58.9459 37.0756 58.1605 37.0756 57.1917C37.0756 56.2229 36.2752 55.4375 35.2878 55.4375C34.3004 55.4375 33.5 56.2229 33.5 57.1917C33.5 58.1605 34.3004 58.9459 35.2878 58.9459Z" fill="black"/>
<path opacity="0.5" d="M49.3796 58.942C50.3658 58.942 51.1654 58.1575 51.1654 57.1897C51.1654 56.222 50.3658 55.4375 49.3796 55.4375C48.3933 55.4375 47.5938 56.222 47.5938 57.1897C47.5938 58.1575 48.3933 58.942 49.3796 58.942Z" fill="black"/>
<path d="M48.7587 63.2908C50.4247 63.4407 51.7331 64.092 52.6839 65.2446C53.4201 66.1376 53.7889 67.1436 53.7902 68.2626C53.7928 69.3158 53.4945 70.2856 52.8953 71.172C52.2724 72.0947 51.4196 72.7311 50.3371 73.0813C49.7378 73.2764 48.731 73.374 47.3166 73.374C43.9504 73.374 40.5842 73.374 37.218 73.374C35.8115 73.374 34.8152 73.2764 34.2292 73.0813C33.0083 72.673 32.0891 71.8782 31.4714 70.6972C30.7787 69.3713 30.674 68.0597 31.1573 66.7624C31.5208 65.7893 32.0944 65.0069 32.878 64.415C33.6839 63.8064 34.6565 63.4633 35.7957 63.3858C35.9171 63.3776 36.0181 63.2904 36.0426 63.1726C36.4825 61.0197 37.5651 59.482 39.2903 58.5594C40.3729 57.9804 41.5147 57.7214 42.7157 57.7821C43.9735 57.8441 45.1232 58.2641 46.1649 59.042C47.5293 60.0603 48.3557 61.4423 48.6441 63.1881C48.6531 63.2438 48.7005 63.2863 48.7587 63.2908ZM38.3124 65.2931C39.2198 65.9909 39.7861 66.438 40.0113 66.6344C40.8779 67.3955 41.8182 67.6818 42.8323 67.4931C43.3486 67.3962 43.9748 67.0802 44.711 66.5453C45.3734 66.0646 46.02 65.5625 46.6509 65.0392C46.8998 64.8324 47.0558 64.6283 47.119 64.4267C47.2231 64.0894 47.1513 63.8148 46.9037 63.6029C46.7101 63.4388 46.3914 63.3548 45.9476 63.3509C43.4888 63.3354 41.03 63.336 38.5712 63.3528C38.2486 63.3554 38.0076 63.4116 37.8482 63.5215C37.5875 63.6985 37.4768 63.9485 37.5163 64.2716C37.5414 64.4732 37.6388 64.6644 37.8087 64.8453C37.9496 64.9952 38.1175 65.1445 38.3124 65.2931Z" fill="white" fill-opacity="0.5"/>
<path opacity="0.5" d="M38.3117 65.2932C38.1168 65.1446 37.9489 64.9954 37.808 64.8455C37.6381 64.6645 37.5406 64.4733 37.5156 64.2717C37.4761 63.9487 37.5867 63.6986 37.8475 63.5216C38.0068 63.4117 38.2478 63.3555 38.5705 63.3529C41.0293 63.3361 43.4881 63.3355 45.9469 63.351C46.3907 63.3549 46.7094 63.4389 46.903 63.603C47.1506 63.8149 47.2224 64.0895 47.1183 64.4268C47.0551 64.6284 46.899 64.8325 46.6501 65.0393C46.0193 65.5626 45.3727 66.0647 44.7102 66.5454C43.974 67.0803 43.3478 67.3963 42.8316 67.4932C41.8175 67.6819 40.8772 67.3956 40.0106 66.6345C39.7854 66.4381 39.2191 65.991 38.3117 65.2932Z" fill="black"/>
</g>
<defs>
<clipPath id="clip0_825_6427">
<rect width="161" height="44" fill="white" transform="translate(20 38)"/>
</clipPath>
</defs>
</svg>
