<svg width="200" height="120" viewBox="0 0 200 120" fill="none" xmlns="http://www.w3.org/2000/svg">
<g clip-path="url(#clip0_336_10473)">
<path fill-rule="evenodd" clip-rule="evenodd" d="M56.0136 42.0343C56.802 42.04 57.6855 42.1557 58.6639 42.3814C61.0623 42.9348 62.6902 44.3186 63.5477 46.5329C63.8418 47.2947 64.0309 48.1255 64.1149 49.0253L64.1272 49.1678L64.1312 49.2331L64.1368 49.3653L64.1419 49.5385L64.1493 49.9185L64.1572 50.5831L64.1645 51.8214L64.1698 53.9018L64.1709 54.9861L64.1704 56.4197L64.1675 57.7085L64.1608 59.157L64.1518 60.3527L64.1412 61.3304L64.1282 62.2146L64.1234 62.4886C64.1054 63.4457 63.9688 64.4281 63.7136 65.4357C63.4555 66.4529 63.1081 67.3338 62.6713 68.0786C61.2874 70.4437 59.1051 71.7223 56.1244 71.9146L56.032 71.9204C55.9973 71.922 55.9634 71.9095 55.9381 71.8854C55.9171 71.8654 55.9037 71.8388 55.8999 71.8102L55.8987 71.7929V69.0429C55.8985 68.997 55.9306 68.9575 55.9753 68.9486C58.1922 68.4791 59.7014 67.2834 60.5031 65.3614C60.7877 64.6795 60.9796 63.8429 61.0788 62.8514C61.162 62.0153 61.1819 61.1514 61.1384 60.26C61.1361 60.2207 61.1138 60.1854 61.0795 60.1665C61.0648 60.1584 61.0488 60.1539 61.0326 60.1528L61.0164 60.1529C61.0002 60.1541 60.9843 60.1589 60.9697 60.1672L56.0221 63.0429C56.0136 63.0478 56.0045 63.0511 55.9952 63.0527L55.981 63.054C55.9669 63.054 55.9527 63.0503 55.94 63.043C55.9182 63.0303 55.9035 63.0085 55.8997 62.9839L55.8987 62.9714V60.2414C55.8988 60.1249 55.9572 60.0162 56.0534 59.9505L56.0746 59.9372L61.059 56.9986C61.0962 56.9762 61.1197 56.9359 61.1214 56.8914C61.1715 55.3314 61.1658 53.7714 61.1044 52.2114C61.1038 52.1961 61.0954 52.1821 61.0821 52.1745L61.0716 52.1702L61.0606 52.1688L61.0496 52.1701C61.046 52.171 61.0425 52.1724 61.0391 52.1743L56.0419 55.0514C56.0293 55.0589 56.0154 55.0632 56.0013 55.0644L55.9872 55.0645C55.9731 55.0635 55.9591 55.0593 55.9464 55.052C55.921 55.0373 55.904 55.0118 55.8998 54.9831L55.8987 54.9686V52.2543C55.8987 52.1395 55.9566 52.0319 56.0521 51.9663L56.0731 51.9529L60.9285 49.1114C61.0215 49.0573 61.0717 48.951 61.0574 48.8431L61.0533 48.82C60.637 46.908 59.5296 45.7112 57.7314 45.2294L57.6317 45.2037L57.5651 45.1879L57.4924 45.1718L57.4136 45.1554L57.2841 45.1303L57.1409 45.1045L57.0379 45.087L56.8719 45.0601L56.6295 45.0231L56.4317 44.9947L56.2202 44.9655L55.9951 44.9357C55.959 44.9304 55.9306 44.9029 55.9232 44.8678L55.9214 44.8543C55.8741 43.9372 55.8798 43.0205 55.9384 42.1043C55.9404 42.0688 55.9669 42.0405 56.0006 42.0352L56.0136 42.0343ZM81.7738 53.0757C82.5575 53.1872 83.277 53.4586 83.9321 53.89C84.3641 54.1748 84.7149 54.5934 84.9843 55.1457C85.3492 55.8943 85.5317 56.6872 85.5317 57.5243L85.5348 64.6136L85.5359 71.7729C85.5359 71.8086 85.5103 71.8384 85.4766 71.8446L85.4636 71.8457H71.9126L71.5538 71.844L71.1631 71.8399L70.9266 71.8358L70.6581 71.829L70.5114 71.8242L70.291 71.8147L70.1006 71.8035L70.0008 71.7959L69.9403 71.7905L69.8585 71.7819L69.7876 71.7727L69.7463 71.7662C69.7399 71.7651 69.7336 71.764 69.7275 71.7629C68.9306 71.6143 68.2059 71.2757 67.5536 70.7472C67.0847 70.3681 66.7241 69.8862 66.4717 69.3014C66.1606 68.5776 66.0047 67.7353 66.0037 66.7743L66.0023 55.4011C66.0023 54.6407 66.0023 53.8799 66.0023 53.1186C66.0023 53.0936 66.0122 53.0696 66.0297 53.0519C66.0473 53.0342 66.0711 53.0243 66.0959 53.0243L79.9362 53.025L80.3192 53.0272L80.7124 53.0314L81.091 53.0387L81.3255 53.0458L81.4883 53.0529L81.5719 53.0575L81.6449 53.0626L81.7256 53.0699L81.7738 53.0757ZM100.736 52.9998L101.134 53.0029C103.28 53.0219 105.45 53.0314 107.644 53.0315L108.376 53.0312C109.354 53.0303 110.336 53.0275 111.323 53.0229C111.355 53.0229 111.385 53.0354 111.408 53.0577C111.426 53.0763 111.438 53.1003 111.441 53.1259L111.442 53.1414L111.441 55.8886C111.441 55.9392 111.403 55.9811 111.354 55.9877L111.34 55.9886L103.802 55.9972C103.761 55.9968 103.726 56.0276 103.721 56.0686C103.716 56.1034 103.712 56.1412 103.709 56.1819L103.702 56.2672C103.701 56.282 103.7 56.2972 103.699 56.3127L103.694 56.4096L103.691 56.5143L103.688 56.6268L103.687 56.747L103.687 71.7657C103.687 71.8055 103.658 71.8385 103.62 71.8447L103.608 71.8457H100.648C100.596 71.8457 100.546 71.825 100.509 71.788C100.476 71.7556 100.456 71.7132 100.452 71.6681L100.451 71.6486L100.425 56.1143C100.425 56.0502 100.378 55.9973 100.318 55.9896L100.302 55.9886H92.7921C92.7396 55.9886 92.6971 55.9457 92.6971 55.8929L92.7056 53.1057C92.7056 53.0655 92.7379 53.0329 92.7779 53.0329C94.2504 53.0336 95.7226 53.028 97.1945 53.016L98.2983 53.0057C99.124 52.9968 99.9366 52.9948 100.736 52.9998ZM24.4492 42.0214C25.5156 42.0586 26.5569 42.0767 27.5732 42.0757L33.2277 42.0689C36.9973 42.0649 40.767 42.0623 44.5366 42.061L50.1911 42.06C50.2302 42.06 50.262 42.092 50.262 42.1314L50.2719 44.8957C50.2719 44.9273 50.2471 44.9529 50.2166 44.9529L38.6269 44.9872C38.5572 44.9872 38.5007 45.0434 38.5007 45.1129L38.4922 52.3372L38.4931 52.3517C38.4995 52.3992 38.5369 52.4369 38.5841 52.4433L38.5985 52.4443L51.3978 52.4529C51.4889 52.4529 51.5638 52.5226 51.5728 52.6119L51.5737 52.63V55.2572C51.5737 55.3205 51.5266 55.3728 51.4658 55.3805L51.4503 55.3814H38.8453C38.8269 55.3815 38.8096 55.3904 38.7987 55.4053C38.7878 55.4202 38.7846 55.4395 38.79 55.4572C39.4563 57.6036 40.4175 59.5775 41.6735 61.3787L41.7225 61.4486C42.9739 63.2287 44.4317 64.7402 46.0957 65.9829C47.6963 67.1781 49.4878 68.1248 51.4701 68.8229C51.511 68.8374 51.5383 68.8764 51.5382 68.92V71.7429C51.5381 71.7731 51.5244 71.8016 51.501 71.8204C51.4893 71.8299 51.4758 71.8364 51.4615 71.8397L51.4471 71.8421H51.4324C51.4275 71.8418 51.4226 71.8411 51.4177 71.84C50.3031 71.5838 49.2627 71.241 48.2966 70.8114C45.8064 69.7051 43.6303 68.2641 41.7682 66.4886C39.8361 64.6464 38.2422 62.444 36.9862 59.8814C36.9649 59.838 36.9451 59.8156 36.9269 59.8143L36.9201 59.8148C36.9048 59.8182 36.8907 59.8371 36.8777 59.8715L36.8713 59.89C36.8382 59.9934 36.8016 60.0972 36.7616 60.2013L36.7205 60.3056C36.6359 60.5142 36.5378 60.7243 36.4261 60.9357C34.4578 64.6576 31.6879 67.6162 28.1163 69.8114C26.5593 70.7695 24.9068 71.4438 23.1588 71.8343C23.1533 71.8355 23.1477 71.8364 23.1422 71.8369L23.1255 71.8373C23.0979 71.8362 23.0709 71.8261 23.0489 71.808C23.018 71.7827 23 71.7446 23 71.7043V69.03C23 68.9632 23.0416 68.9038 23.1035 68.8814C24.389 68.4242 25.5883 67.855 26.7013 67.1738C29.0195 65.755 30.9636 63.8504 32.5335 61.46C33.7219 59.6514 34.5873 57.6891 35.13 55.5729C35.1396 55.5355 35.1316 55.4958 35.1083 55.4651C35.0884 55.4389 35.0592 55.4217 35.0271 55.417L35.0109 55.4157L23.1092 55.3829C23.0537 55.3822 23.0082 55.3409 23.001 55.2877L23 55.2729V52.6057C23 52.5269 23.0592 52.4621 23.1352 52.4538L23.1517 52.4529H35.4349C35.4787 52.4529 35.5143 52.4171 35.5143 52.3729V45.0772C35.5143 45.033 35.4787 44.9972 35.4349 44.9972L24.4209 44.98C24.3606 44.98 24.3117 44.9308 24.3117 44.87V42.1557C24.3117 42.1194 24.3263 42.0845 24.3522 42.0592C24.3738 42.0381 24.4017 42.0252 24.4313 42.022L24.4492 42.0214ZM171.101 53.0243C171.133 53.0243 171.164 53.0371 171.186 53.0599C171.209 53.0826 171.221 53.1135 171.221 53.1457L171.221 58.7182L171.217 65.6314C171.216 66.3619 171.339 66.99 171.584 67.5157C171.709 67.782 171.885 68.0011 172.11 68.1728C172.316 68.3291 172.563 68.4463 172.852 68.5243C173.302 68.6454 173.809 68.7067 174.373 68.7083L174.479 68.7079L174.587 68.7061L174.811 68.6998L174.959 68.6977L175.191 68.6965L175.421 68.6967L176.05 68.7008L176.762 68.7089C176.791 68.7092 176.82 68.7096 176.85 68.71C176.885 68.7107 176.913 68.7369 176.919 68.7711L176.921 68.7843L176.938 71.7129C176.938 71.752 176.906 71.7842 176.867 71.7857C176.129 71.8026 175.392 71.8125 174.654 71.8154L174.101 71.8162C173.732 71.8159 173.363 71.8138 172.994 71.81C171.689 71.7967 170.576 71.4186 169.653 70.6757C168.573 69.8062 168.029 68.6129 168.024 67.0957L168.015 64.788L168.008 62.4724L168.002 60.1489C168.002 59.761 168.001 59.3728 168 58.9843L167.997 56.649C167.996 55.4795 167.995 54.3069 167.995 53.1314C167.995 53.082 168.031 53.041 168.078 53.0339L168.092 53.0329L171.101 53.0243ZM151.929 71.81C151.853 71.81 151.784 71.7661 151.75 71.6976L151.742 71.68L149.012 64.7786C148.998 64.7429 148.966 64.7184 148.928 64.7147L148.914 64.7143L148.747 64.7234C147.745 64.7831 146.758 64.9408 145.787 65.1965L145.626 65.24C143.835 65.7334 142.289 66.5354 140.987 67.6462C139.726 68.7224 138.694 70.0884 137.892 71.7443L137.884 71.7578C137.865 71.7856 137.836 71.8041 137.803 71.8088L137.787 71.81L134.707 71.8029C134.668 71.8025 134.631 71.7851 134.606 71.7556L134.596 71.7422C134.571 71.7048 134.566 71.6574 134.583 71.6157L136.894 65.942L140.332 57.4937C140.522 57.0264 140.712 56.5595 140.902 56.0929C141.193 55.3786 141.602 54.7638 142.129 54.2486C142.67 53.7181 143.286 53.3562 143.979 53.1629C145.097 52.8514 146.163 53.0343 147.177 53.7114C147.477 53.9119 147.751 54.1464 147.997 54.415L148.054 54.4776C148.255 54.7051 148.439 54.956 148.603 55.2305L148.665 55.3364L148.7 55.4018L148.753 55.5087L148.802 55.6143L148.873 55.7714L148.955 55.9564L149.086 56.2623L149.284 56.736L149.515 57.3L150.496 59.7045L152.455 64.5057L154.412 69.2968L155.389 71.6886C155.4 71.7154 155.397 71.7462 155.381 71.7706C155.368 71.7909 155.346 71.8046 155.323 71.8087L155.308 71.81H151.929ZM160.083 53.0329C160.141 53.0329 160.188 53.077 160.195 53.1341L160.196 53.1486V65.31C160.196 65.9291 160.262 66.4919 160.395 66.9986C160.501 67.4053 160.66 67.7243 160.873 67.9557C161.129 68.2348 161.447 68.4243 161.827 68.5243C162.262 68.6386 162.746 68.6989 163.279 68.7052L163.387 68.7057L163.877 68.7047L165.361 68.703C165.527 68.7029 165.693 68.7029 165.86 68.7029C165.899 68.7029 165.932 68.7319 165.938 68.7699L165.939 68.7829V71.7386C165.939 71.7737 165.914 71.8028 165.881 71.8089L165.868 71.81H161.756C160.605 71.81 159.563 71.4319 158.628 70.6757C157.532 69.79 156.983 68.5729 156.98 67.0243C156.973 62.3929 156.97 57.7614 156.97 53.13C156.97 53.0764 157.013 53.0329 157.065 53.0329H160.083ZM115.635 53.0062L115.695 53.0075C115.857 53.0135 116.02 53.0395 116.186 53.0857C116.539 53.1829 116.837 53.3319 117.079 53.5329C117.613 53.977 118.169 54.3505 118.745 54.6536C119.538 55.0707 120.37 55.3543 121.242 55.5043C121.838 55.6071 122.445 55.6591 123.063 55.6605L123.206 55.6599C123.492 55.6569 123.781 55.6432 124.071 55.6186C125.633 55.4862 127.036 54.9519 128.282 54.0157L128.358 53.9586L128.506 53.8491C128.579 53.7959 128.65 53.7452 128.72 53.6968L128.856 53.6034C128.99 53.5131 129.116 53.4325 129.234 53.3614C129.593 53.1472 129.952 53.0319 130.312 53.0157C130.939 52.9865 131.42 53.1869 131.754 53.6168C131.835 53.7199 131.906 53.8362 131.97 53.9657C132.115 54.2638 132.195 54.6962 132.208 55.2629C132.226 56.0676 132.229 56.8724 132.218 57.6772L132.202 58.9302L132.195 59.6693L132.194 59.973L132.194 60.0872C132.206 63.9614 132.208 67.8362 132.198 71.7114C132.198 71.7525 132.166 71.7857 132.127 71.7857L129.043 71.8029C129.008 71.8029 128.979 71.7776 128.973 71.7443L128.972 71.7314L128.964 57.8714C128.963 57.8429 128.949 57.8164 128.926 57.8006C128.914 57.7927 128.9 57.788 128.887 57.7867L128.873 57.7865L128.859 57.7886L128.846 57.7929C126.888 58.6219 124.93 59.0362 122.97 59.0357C121.011 59.0353 119.051 58.62 117.09 57.79L117.077 57.7857L117.062 57.7842L117.048 57.7855C117.039 57.7873 117.03 57.7909 117.022 57.7963C117.002 57.8098 116.99 57.8327 116.99 57.8572L116.981 71.7C116.981 71.756 116.937 71.8014 116.882 71.8014L113.826 71.81C113.791 71.81 113.762 71.7847 113.756 71.7514L113.755 71.7386V55.5918L113.757 55.4487C113.757 55.4253 113.758 55.4022 113.758 55.3794L113.762 55.2454C113.762 55.2236 113.763 55.2021 113.764 55.1808L113.77 55.0561L113.777 54.9375L113.786 54.8252C113.813 54.5155 113.858 54.28 113.921 54.1186C113.96 54.0178 114.006 53.9238 114.058 53.8364C114.303 53.4253 114.689 53.1631 115.217 53.05C115.355 53.02 115.494 53.0054 115.635 53.0062ZM74.2794 63.7743H69.0199C68.9482 63.7742 68.889 63.8314 68.8852 63.9043C68.8162 65.1357 68.88 66.2934 69.0766 67.3772C69.1645 67.8657 69.3895 68.251 69.7516 68.5329C70.1638 68.8548 70.6507 69.0348 71.2122 69.0729C71.8576 69.1167 72.5248 69.1393 73.2139 69.1408L73.4212 69.1406C73.6986 69.1395 73.9795 69.135 74.2638 69.1272C74.3418 69.1256 74.4042 69.0615 74.4042 68.9829V63.9C74.4042 63.8306 74.3484 63.7743 74.2794 63.7743ZM82.575 63.7743H77.2602C77.2108 63.7743 77.1708 63.8146 77.1708 63.8643V69.0443C77.1708 69.094 77.2108 69.1343 77.2602 69.1343H82.575C82.6244 69.1343 82.6644 69.094 82.6644 69.0443V63.8643C82.6644 63.8146 82.6244 63.7743 82.575 63.7743ZM144.966 56.7583L144.922 56.7593C144.744 56.7664 144.566 56.8114 144.388 56.8943C144.107 57.0243 143.885 57.2222 143.719 57.488L143.687 57.5418L143.664 57.5907L143.533 57.902L143.331 58.3886C142.651 60.0377 141.948 61.6988 141.22 63.372L140.946 64C140.933 64.0299 140.934 64.0443 140.948 64.0432L140.954 64.0421C140.961 64.0402 140.97 64.0362 140.98 64.03C143.132 62.7738 145.41 62.0795 147.815 61.9472C147.832 61.9463 147.847 61.9377 147.856 61.9239C147.865 61.9101 147.867 61.8928 147.862 61.8772L147.804 61.7163L147.633 61.2425L147.465 60.7821L147.3 60.3349L147.137 59.9011L147.031 59.6193L146.925 59.3434L146.821 59.0734L146.719 58.8094L146.617 58.5512L146.517 58.299L146.418 58.0527L146.321 57.8123C146.304 57.7727 146.288 57.7334 146.272 57.6943C146.102 57.2791 145.829 56.9981 145.453 56.8514C145.309 56.7956 145.165 56.7648 145.021 56.7592L144.966 56.7583ZM74.3659 55.8443H68.9121C68.891 55.8443 68.8738 55.8616 68.8738 55.8829V60.9857C68.8738 61.007 68.891 61.0243 68.9121 61.0243H74.3659C74.3871 61.0243 74.4042 61.007 74.4042 60.9857V55.8829C74.4042 55.8616 74.3871 55.8443 74.3659 55.8443ZM77.2417 55.8457C77.2018 55.8457 77.1694 55.879 77.1694 55.92V60.8686C77.1694 60.9099 77.1857 60.9495 77.2147 60.9787C77.2437 61.0079 77.283 61.0243 77.324 61.0243H82.5169C82.5944 61.0244 82.6578 60.963 82.6601 60.8857C82.6904 59.8695 82.6681 58.9038 82.5935 57.9886C82.5547 57.5153 82.4403 57.11 82.2503 56.7729C82.0745 56.4586 81.8112 56.2234 81.4604 56.0672C81.1277 55.9195 80.7699 55.8453 80.387 55.8443C79.8741 55.8424 79.3556 55.8416 78.8314 55.8418L78.0408 55.843C77.7759 55.8436 77.5095 55.8445 77.2417 55.8457ZM69.312 42L71.8787 42.0329C71.9137 42.0336 71.9425 42.0587 71.9485 42.0916L71.9496 42.1043L71.9581 45.1572C71.9581 45.2219 72.0095 45.2743 72.073 45.2743H79.5404C79.6025 45.2743 79.6531 45.2227 79.6538 45.1586L79.6751 42.1229C79.6759 42.0816 79.7087 42.0486 79.7489 42.0486L82.3964 42.0314L82.4147 42.0324C82.4511 42.0364 82.4853 42.0532 82.5116 42.0803C82.5378 42.1074 82.5542 42.143 82.5584 42.1809L82.5594 42.2L82.5665 45.1929C82.5665 45.2275 82.5919 45.2564 82.6258 45.2629L82.6388 45.2643L85.492 45.3157C85.5321 45.3165 85.5649 45.3496 85.5671 45.3914C85.6267 46.2953 85.6323 47.2 85.5841 48.1057C85.5821 48.1421 85.5553 48.1714 85.5208 48.1775L85.5075 48.1786L82.6488 48.2014C82.6169 48.2018 82.5866 48.215 82.5649 48.238C82.5432 48.2609 82.532 48.2916 82.5339 48.3229C82.5783 49.1391 82.5741 49.9743 82.5211 50.8286C82.5184 50.8734 82.4849 50.9094 82.4421 50.916L82.4275 50.9172H79.7446C79.6976 50.9172 79.6587 50.8823 79.652 50.8368L79.651 50.8229V48.3186C79.651 48.2879 79.6389 48.2585 79.6174 48.2368C79.5958 48.2151 79.5666 48.2029 79.5361 48.2029L79.5489 48.2036L79.5426 48.2031L72.0744 48.2114C72.0326 48.2114 71.9986 48.2432 71.9978 48.2829L71.9609 50.8357L71.9597 50.849C71.9538 50.8835 71.9274 50.9105 71.8943 50.9161L71.8815 50.9172H69.2113C69.1521 50.9172 69.1031 50.873 69.096 50.816L69.0951 50.8014L69.0866 48.3272C69.0858 48.2636 69.0389 48.2115 68.9785 48.2038L68.9632 48.2029L66.1186 48.1943C66.0786 48.1943 66.0463 48.1617 66.0463 48.1214L66.0377 45.4157C66.0371 45.3763 66.0688 45.3431 66.1101 45.34C67.0309 45.2657 67.9899 45.2453 68.9873 45.2786L69.0028 45.2778C69.0232 45.2751 69.0424 45.2658 69.0573 45.2512C69.0723 45.2365 69.082 45.2175 69.0853 45.197L69.0866 45.1814V42.2214C69.0865 42.1622 69.1104 42.1055 69.1527 42.0639C69.1898 42.0274 69.2384 42.0053 69.2898 42.0008L69.312 42Z" fill="white" fill-opacity="0.5"/>
</g>
<defs>
<clipPath id="clip0_336_10473">
<rect width="154" height="30" fill="white" transform="translate(23 42)"/>
</clipPath>
</defs>
</svg>
