<svg width="200" height="120" viewBox="0 0 200 120" fill="none" xmlns="http://www.w3.org/2000/svg">
<g clip-path="url(#clip0_336_10369)">
<path d="M145.464 35.2003C145.424 35.2395 145.37 35.2659 145.302 35.2795C144.288 35.4875 143.276 35.7039 142.265 35.9285C142.005 35.9858 141.93 36.0627 142.04 36.1592C142.087 36.2007 142.162 36.2197 142.244 36.2112C143.297 36.0921 144.329 35.8697 145.34 35.5441C145.589 35.4626 145.792 35.5403 145.948 35.777L146.607 36.7698C146.644 36.8236 146.706 36.8647 146.783 36.8851L146.852 36.9052C147.121 36.9885 147.139 37.07 146.906 37.1496L146.845 37.1687L146.774 37.1877L146.691 37.208L146.607 37.23L146.532 37.2524C146.164 37.3695 146.132 37.5057 146.435 37.6609L146.498 37.6911L146.569 37.7219C146.639 37.7512 146.696 37.7997 146.731 37.8598C146.936 38.2051 147.138 38.5518 147.336 38.9001C147.495 39.1801 147.712 39.3925 147.987 39.5373L148.052 39.5695C148.197 39.6389 148.251 39.7059 148.214 39.7708C148.175 39.8386 148.067 39.908 147.89 39.9788C147.865 39.9886 147.846 40.0098 147.84 40.0358C147.833 40.0617 147.839 40.0893 147.856 40.11C148.165 40.4733 148.277 40.8126 148.193 41.1277L148.177 41.1821L148.156 41.2456L148.129 41.318L148.097 41.3994L148.039 41.5384L147.97 41.6977L147.859 41.9415L147.763 42.148L147.692 42.2969C147.524 42.6451 147.313 42.9127 147.059 43.0997C146.791 43.2972 146.492 43.4743 146.162 43.6311C146.003 43.7063 145.815 43.6758 145.687 43.5542C145.486 43.3613 145.267 43.2678 145.03 43.2738C144.91 43.2768 144.818 43.2663 144.753 43.2422C144.396 43.1019 144.418 42.983 144.82 42.8854L144.902 42.8668C144.917 42.8638 144.931 42.8607 144.947 42.8577C145.035 42.8397 145.099 42.7851 145.095 42.7311C145.089 42.6692 145.02 42.6293 144.888 42.6112C144.446 42.5524 144.056 42.6021 143.72 42.7605L142.944 43.1268C142.04 43.4374 141.178 43.8437 140.359 44.3458C140.286 44.3909 140.239 44.4555 140.235 44.5176C140.228 44.682 140.399 44.7227 140.748 44.6397C140.858 44.6135 140.973 44.6574 141.038 44.7506L141.114 44.8608C141.127 44.8803 141.14 44.9004 141.154 44.921L141.239 45.0517L141.331 45.1961C141.403 45.3111 141.463 45.4471 141.511 45.6042L141.533 45.6846C141.676 46.2183 141.905 46.7135 142.222 47.1703C142.261 47.2274 142.28 47.2992 142.276 47.3739C142.249 47.8503 142.417 48.3614 142.78 48.9072C142.836 48.9934 142.938 49.0379 143.041 49.0202C144.776 48.6991 146.387 48.9253 147.874 49.6987C147.94 49.7334 147.995 49.7763 148.038 49.8276L148.078 49.8766C148.213 50.0537 148.172 50.108 147.953 50.0396L147.891 50.0189C147.87 50.0111 147.847 50.0023 147.822 49.9927C147.788 49.9782 147.75 49.9602 147.707 49.9387L147.617 49.8909C146.562 49.3065 145.437 49.0546 144.243 49.1351L144.113 49.1449L143.633 49.1559C143.315 49.1635 143.025 49.2667 142.764 49.4658C142.58 49.6075 142.598 49.6738 142.82 49.6648C143.097 49.6537 143.374 49.6406 143.649 49.6256L144.082 49.5996L144.197 49.5847L144.867 49.4849L145.138 49.4431C145.586 49.3723 145.953 49.413 146.238 49.5653C148.314 50.6719 150.081 51.9112 151.539 53.2831C151.934 53.6525 152.249 54.1719 152.486 54.8413C152.508 54.9036 152.566 54.9477 152.635 54.9544C152.852 54.974 152.996 55.0735 153.067 55.2529L153.241 55.6891L153.242 55.6916C153.451 56.0459 153.621 56.416 153.753 56.802C153.852 57.09 153.854 57.3915 153.76 57.7066C153.469 58.6775 153.095 59.6153 152.639 60.5199L152.036 61.7207C151.357 63.1274 150.644 64.5159 149.897 65.8864C148.979 67.572 148.064 68.8829 147.152 69.8191C146.283 70.7116 145.468 71.2868 144.706 71.5446C144.067 71.7602 143.416 71.8168 142.753 71.7142C142.118 71.6177 141.429 71.565 140.685 71.5559C140.549 71.5544 140.424 71.6352 140.368 71.7617C140.188 72.1733 140.093 72.6332 140.084 73.1412C140.039 75.5791 140.164 78.0064 140.458 80.4232L140.834 83.5056C140.954 84.6168 141.077 85.7279 141.205 86.839C141.214 86.9167 141.194 86.9898 141.151 87.0403C140.998 87.2167 140.885 87.1466 140.811 86.83C140.808 86.8149 140.806 86.7944 140.804 86.7684L140.801 86.7091C140.801 86.698 140.8 86.6863 140.8 86.674C140.798 86.5714 140.765 86.5292 140.701 86.5473C140.676 86.5545 140.657 86.5737 140.646 86.6005C140.635 86.6274 140.635 86.6596 140.645 86.6898C140.801 87.1572 140.884 87.5974 140.894 88.0105C140.917 88.891 141.072 89.7043 141.36 90.4506C141.385 90.5163 141.385 90.5908 141.36 90.661C141.246 90.9788 141.201 91.3081 141.224 91.6488L141.232 91.7419C141.235 91.7716 141.234 91.8143 141.229 91.8699L141.221 91.9428L141.209 92.0282L141.193 92.126L141.173 92.2362L141.149 92.3589C141.144 92.3804 141.14 92.4024 141.135 92.4249C141.098 92.6072 141.094 92.8049 141.123 93.0182L141.135 93.0988C141.255 93.7954 141.196 94.4768 140.957 95.1432C140.896 95.3151 140.816 95.4304 140.717 95.4892C140.597 95.5564 140.458 95.5712 140.301 95.5337L140.253 95.5209C140.017 95.4516 139.808 95.495 139.626 95.651L139.589 95.6837C139.36 95.9038 139.088 96.0101 138.773 96.0026C138.689 96.0011 138.615 96.0221 138.566 96.0614C138.327 96.249 138.421 96.3765 138.848 96.444L138.941 96.4571C139.057 96.4722 139.077 96.525 139.002 96.6154C138.846 96.8084 138.672 96.8152 138.48 96.6358C138.322 96.4878 138.08 96.4764 137.909 96.6087C137.451 96.9599 137.128 96.8996 136.939 96.4277C136.912 96.362 136.853 96.3185 136.788 96.3169C136.59 96.3139 136.396 96.3373 136.205 96.387L136.039 96.4286L135.943 96.4511L135.821 96.4772L135.754 96.4896L135.7 96.4978L135.658 96.5019C135.651 96.5022 135.646 96.5024 135.641 96.5024C135.154 96.498 134.935 96.2113 134.983 95.6424L134.988 95.5865C135.051 95.0196 134.998 94.5499 134.828 94.1776C134.8 94.1142 134.811 94.0406 134.855 93.9899L135.074 93.7366C135.117 93.6856 135.142 93.6151 135.143 93.5376C135.154 93.1169 135.281 92.7491 135.526 92.434L135.994 91.8256C136.433 91.0372 136.545 90.1874 136.33 89.2764L136.307 89.1819C136.154 88.5924 136.118 87.9954 136.201 87.3908C136.208 87.3396 136.227 87.2959 136.257 87.2597C136.386 87.1064 136.439 87.1255 136.416 87.317L136.407 87.3764L136.394 87.4451C136.328 87.7738 136.347 88.0376 136.451 88.2366C136.568 88.4605 136.668 88.4352 136.751 88.1607L136.77 88.093C136.773 88.081 136.776 88.0686 136.779 88.0558L136.797 87.9748L136.815 87.8849L136.832 87.7862C136.834 87.769 136.837 87.7514 136.84 87.7335L136.856 87.6215C136.877 87.4678 136.834 87.3129 136.739 87.1922L136.712 87.1602C136.565 86.999 136.504 86.7584 136.526 86.4383L136.532 86.3732C136.604 85.654 136.518 84.959 136.275 84.2881L136.265 84.2654L136.235 84.2114L136.168 84.1019L136.097 83.9918C136.009 83.8531 136.037 83.7393 136.183 83.6504C136.236 83.618 136.311 83.618 136.381 83.6504C136.636 83.7667 136.73 83.7268 136.664 83.5307L136.644 83.4785L136.617 83.4197C136.582 83.3481 136.572 83.2734 136.588 83.2094C136.61 83.1144 136.637 83.0209 136.669 82.9289C136.702 82.834 136.715 82.7405 136.707 82.6485C136.623 81.4388 136.528 80.23 136.421 79.0222L136.327 77.9959L136.306 77.749L136.286 77.4944L136.267 77.2322L136.25 76.9623L136.234 76.6848L136.219 76.3997L136.206 76.107L136.188 75.6535L136.173 75.1829L136.161 74.6951L136.154 74.3604L136.149 74.018L136.145 73.668L136.142 73.3103L136.141 72.7596L136.142 72.3828L136.145 71.8034L136.151 71.2068C136.152 71.1396 136.153 71.072 136.154 71.0041C136.155 70.9333 136.138 70.8632 136.102 70.7938C135.646 69.9239 135.545 69.0087 135.8 68.0484C135.821 67.9774 135.814 67.903 135.782 67.8403L135.268 66.8275L135.092 66.487L134.975 66.2644L134.871 66.0708L134.833 66.004C134.071 64.6703 133.548 63.2537 133.264 61.7541L133.222 61.5261L133.201 61.4366L133.183 61.3648L133.136 61.1921L133.091 61.0372L133.019 60.7968L132.932 60.5176C132.819 60.1618 132.778 59.7902 132.808 59.4027C132.853 58.8193 132.867 58.2343 132.851 57.6478C132.846 57.4609 132.785 57.4405 132.668 57.5867C132.227 58.1355 131.977 58.774 131.917 59.5022C131.911 59.5699 131.928 59.6425 131.966 59.7103L132.74 61.0559C132.776 61.1164 132.793 61.1903 132.79 61.2684C132.761 61.9808 132.749 62.6932 132.754 63.4055L132.76 63.9323L132.794 65.886L132.805 66.3255L132.808 66.3952C132.865 67.4204 133.033 68.4306 133.312 69.4256C133.334 69.5079 133.382 69.5704 133.438 69.593C133.542 69.6352 133.608 69.5887 133.637 69.4537L133.643 69.4234C133.655 69.3451 133.701 69.2855 133.757 69.2764C133.883 69.2553 133.941 69.3374 133.931 69.5229C133.928 69.6058 133.937 69.6782 133.96 69.74C134.222 70.4817 134.141 71.1745 133.717 71.8183C133.687 71.8634 133.639 71.9021 133.578 71.9297L133.546 71.9426C133.375 72.0075 133.247 72.1228 133.163 72.2887C133.125 72.3622 133.07 72.4145 133.013 72.4334C132.822 72.4907 132.755 72.4108 132.81 72.1937C132.824 72.1407 132.853 72.0744 132.897 71.9948L132.958 71.8883L132.989 71.8281C133.009 71.7897 133.024 71.7549 133.036 71.7237L133.05 71.6797C133.095 71.5211 133.015 71.4815 132.809 71.5608L132.753 71.5842C132.743 71.5885 132.733 71.5931 132.722 71.5979L132.657 71.6294L132.587 71.6663L132.51 71.7085L132.428 71.7562C132.414 71.7646 132.4 71.7732 132.385 71.7821C132.331 71.8147 132.309 71.8844 132.335 71.9449C132.399 72.0932 132.447 72.2456 132.478 72.4022L132.498 72.5136L132.554 72.7636C132.603 72.9792 132.493 73.0274 132.223 72.9083C132.165 72.8824 132.096 72.9014 132.061 72.9535C131.884 73.2199 131.758 73.182 131.682 72.8398L131.674 72.802C131.498 71.923 131.249 71.2114 130.925 70.6672C130.824 70.4983 130.733 70.4795 130.65 70.6106C130.619 70.6595 130.61 70.735 130.625 70.8187C130.729 71.3418 130.452 71.6298 129.795 71.6826C129.767 71.6849 129.742 71.6997 129.726 71.7229C129.71 71.746 129.705 71.7752 129.712 71.8024C129.944 72.5879 129.945 73.2875 129.714 73.9011C129.622 74.1467 129.516 74.1632 129.395 73.9505L129.379 73.9214C129.136 73.4586 128.849 73.0259 128.519 72.6234C128.244 72.286 128.044 71.9076 127.921 71.4883L127.894 71.3908C127.844 71.1933 127.758 71.0147 127.635 70.8549C127.592 70.799 127.583 70.7251 127.61 70.6626C127.789 70.2495 127.881 69.8176 127.887 69.3668C127.887 69.3231 127.866 69.2537 127.824 69.1588C127.775 69.0491 127.773 68.9021 127.816 68.7177L127.831 68.6612C127.959 68.199 127.998 67.6679 127.948 67.0679L127.934 66.9186L127.927 66.8707C127.908 66.7655 127.88 66.7706 127.842 66.886L127.826 66.938C127.684 67.4581 127.561 68.0107 127.457 68.5956C127.439 68.6947 127.438 68.8453 127.453 69.0475L127.465 69.175L127.48 69.3148C127.511 69.5786 127.467 69.8282 127.347 70.0634L127.031 70.6853L126.996 70.7554C126.89 71.0509 126.779 71.3388 126.665 71.6193C126.628 71.7115 126.551 71.7819 126.456 71.8116C126.36 71.8413 126.257 71.8272 126.173 71.773C125.882 71.5816 125.611 71.5755 125.36 71.7549C125.337 71.7717 125.308 71.7788 125.28 71.7745C125.252 71.7703 125.228 71.7551 125.212 71.7323C125.047 71.491 124.877 71.4754 124.704 71.6856L124.681 71.7142C124.381 72.1092 124.014 72.26 123.581 72.1665C123.554 72.161 123.527 72.1675 123.506 72.1843C123.486 72.2011 123.474 72.2262 123.475 72.2525C123.489 73.0747 123.193 73.252 122.589 72.7844L122.514 72.7239C122.475 72.6921 122.436 72.6578 122.395 72.6211C122.2 72.4447 121.973 72.3535 121.715 72.3474L121.655 72.3475C121.406 72.355 121.181 72.3181 120.982 72.2366L120.953 72.2253L120.901 72.2071C120.757 72.1616 120.724 72.1977 120.802 72.3156L120.831 72.3579L120.869 72.4063C121.049 72.6264 121.01 72.7673 120.75 72.8292C120.605 72.8653 120.456 72.891 120.305 72.906C120.249 72.911 120.192 72.9358 120.142 72.9769L120.118 72.9988C119.924 73.1872 119.729 73.1925 119.533 73.0146C119.162 72.6769 118.78 72.3535 118.385 72.0444C118.13 71.8454 117.839 71.6977 117.51 71.6012L116.871 71.4112L116.784 71.387L116.682 71.362L116.568 71.3363L116.44 71.3098L116.299 71.2826C116.274 71.278 116.249 71.2734 116.223 71.2687C115.677 71.1692 115.159 70.983 114.668 70.7101C114.642 70.6952 114.61 70.6916 114.582 70.7003C114.554 70.7089 114.532 70.729 114.522 70.7554C114.384 71.0946 114.494 71.3954 114.853 71.6577C114.917 71.7049 114.958 71.7828 114.963 71.8703L115.089 73.8378C115.104 74.0805 115.203 74.2984 115.386 74.4913C115.754 74.8788 116.012 75.2602 116.162 75.6357C116.185 75.6962 116.179 75.771 116.144 75.8414C116.044 76.0435 116.027 76.2515 116.095 76.4656C116.129 76.5727 116.144 76.6586 116.14 76.7234C116.117 77.0219 116.02 77.0664 115.847 76.8569C115.81 76.8116 115.768 76.7317 115.721 76.6171C115.661 76.4739 115.579 76.3661 115.474 76.2937C115.325 76.1897 115.267 76.2236 115.298 76.3955L115.535 77.6552C115.543 77.7043 115.527 77.7718 115.49 77.8429L115.125 78.5236C115.113 78.5464 115.092 78.5631 115.068 78.5689C115.044 78.5746 115.021 78.5687 115.004 78.553C114.855 78.4031 114.728 78.2626 114.624 78.1315L114.574 78.0667C114.511 77.9823 114.449 77.9228 114.387 77.8881C114.18 77.772 114.112 77.8519 114.182 78.1278C114.195 78.173 114.218 78.2319 114.251 78.3043L114.288 78.3825L114.314 78.4432C114.411 78.6903 114.326 78.7318 114.058 78.5674L113.891 78.4598C113.644 78.305 113.477 78.2282 113.388 78.2296C112.932 78.2371 112.51 78.0245 112.121 77.5918C111.994 77.4516 111.848 77.3333 111.685 77.2368C111.559 77.1629 111.486 77.2511 111.467 77.5014C111.453 77.6642 111.384 77.6936 111.26 77.5896C110.173 76.6874 109.593 75.5223 109.52 74.0942L109.516 73.9893C109.496 73.4405 109.446 72.8955 109.365 72.3542C108.334 65.487 108.56 58.6687 110.043 51.8994L110.119 51.5551L110.137 51.4843L110.169 51.361L110.225 51.1643L110.315 50.8669L110.402 50.5875L110.561 50.0996L110.717 49.6299C110.728 49.5967 110.74 49.5631 110.751 49.5291C110.856 49.22 110.888 48.8974 110.846 48.5612C110.507 45.9273 110.591 43.3077 111.1 40.7025C111.176 40.3045 111.313 40.0331 111.509 39.8884C111.752 39.7075 112.073 39.6162 112.472 39.6147C112.608 39.6135 112.731 39.5358 112.792 39.4135C112.919 39.1572 113.095 39.1534 113.318 39.4022C113.457 39.5567 113.571 39.8979 113.661 40.4258L113.686 40.5817C113.69 40.6085 113.694 40.6357 113.698 40.6634L113.71 40.7477C113.899 42.1468 114.122 43.5407 114.38 44.9292C114.385 44.9548 114.401 44.9765 114.425 44.987C114.449 44.9975 114.476 44.9953 114.497 44.9812L114.92 44.7171L115.454 44.3865L115.953 44.0808L116.417 43.7998L116.743 43.6053L117.049 43.4247L117.335 43.2581L117.664 43.0706L117.834 42.9757L117.994 42.8874L118.145 42.8058L118.287 42.7308L118.42 42.6624L118.543 42.6007L118.657 42.5455L118.762 42.497C118.796 42.482 118.828 42.468 118.858 42.4552C120.376 41.8159 121.905 41.7511 123.446 42.2607C123.633 42.3227 123.841 42.3587 124.067 42.3688L124.166 42.3715C124.377 42.3745 124.587 42.3956 124.796 42.4348C124.861 42.446 124.916 42.4954 124.94 42.5637C125.082 42.9793 125.314 43.312 125.637 43.5619L125.702 43.6108C125.831 43.7019 125.826 43.7392 125.686 43.7228L125.614 43.713L125.53 43.7029L125.455 43.6964C125.443 43.6956 125.432 43.695 125.42 43.6944L125.358 43.6932C125.147 43.695 125.113 43.7678 125.257 43.9115C125.437 44.091 125.868 44.2229 126.551 44.3073C126.9 44.351 127.359 44.6269 127.928 45.135C127.976 45.1782 127.987 45.2513 127.952 45.3091C127.672 45.7826 127.768 46.1361 128.24 46.3698C128.317 46.4075 128.369 46.4504 128.396 46.4987C128.472 46.6404 128.402 46.7052 128.184 46.6932C128.107 46.6895 128.041 46.7289 128.029 46.7859C128.008 46.8868 128.049 46.9756 128.15 47.0525L128.18 47.0731C128.525 47.3008 128.552 47.5216 128.263 47.7357C128.197 47.7841 128.156 47.8497 128.155 47.9121C128.151 48.0833 128.22 48.2326 128.361 48.3601L128.398 48.3915C128.638 48.5855 128.638 48.7496 128.396 48.8838L128.364 48.9004C128.055 49.0586 128.022 49.1826 128.265 49.2724L128.294 49.2826C128.539 49.364 128.592 49.468 128.454 49.5947C128.436 49.6119 128.411 49.6175 128.386 49.6098C128.361 49.602 128.341 49.5818 128.333 49.5562C128.234 49.2758 128.038 49.1167 127.745 49.079C127.683 49.0703 127.613 49.098 127.556 49.1537C127.369 49.3361 127.202 49.3331 127.055 49.1446L126.842 48.8725L126.83 48.8574L126.658 48.6835C126.628 48.6537 126.599 48.6235 126.569 48.5928C126.525 48.5494 126.462 48.5307 126.402 48.543C126.342 48.5552 126.292 48.5969 126.269 48.6539C126.008 49.287 126.207 49.6983 126.867 49.8877L126.993 49.9223C127.005 49.9257 127.016 49.929 127.026 49.9323L127.085 49.952C127.301 50.0301 127.285 50.1009 127.037 50.1646C126.995 50.1766 126.946 50.1805 126.892 50.1761L126.85 50.1713C126.269 50.0869 125.898 50.3198 125.736 50.8701C125.717 50.9324 125.726 51.007 125.761 51.0782C125.947 51.4566 125.84 51.7483 125.439 51.9534C125.285 52.0318 125.128 52.1064 124.969 52.1773C124.944 52.1885 124.925 52.2105 124.917 52.2372C124.91 52.2639 124.915 52.2925 124.931 52.3152C125.234 52.754 125.365 53.2085 125.324 53.6789C125.317 53.7599 125.275 53.8336 125.208 53.8799C125.142 53.9263 125.058 53.9404 124.98 53.9186C124.662 53.8282 124.545 53.9269 124.629 54.2149C124.724 54.5405 124.504 54.8353 123.97 55.0991C123.859 55.1549 123.753 55.2325 123.653 55.332L120.037 58.9662C119.842 59.1634 119.871 59.2435 120.123 59.2064L120.154 59.2014C121.451 58.9828 122.801 58.8765 124.204 58.8826C124.691 58.8841 125.153 58.9753 125.588 59.1562C126.266 59.4397 126.788 59.7148 127.156 59.9817C127.607 60.3103 127.928 60.743 128.117 61.2797L128.148 61.3664L128.178 61.4455C128.183 61.458 128.188 61.4702 128.193 61.4821L128.222 61.5498L128.249 61.6098L128.276 61.6623C128.388 61.8731 128.47 61.8697 128.521 61.6522L128.532 61.5982L128.542 61.5366C128.543 61.5257 128.545 61.5145 128.547 61.5029L128.555 61.4299L128.562 61.3493L128.571 61.2142L128.632 60.0947C128.635 60.0433 128.638 59.9913 128.641 59.9387C128.656 59.6643 128.595 59.408 128.459 59.1698C128.31 58.912 128.23 58.6489 128.218 58.3805L128.186 57.7134C128.126 57.1525 128.219 56.6218 128.463 56.1213L128.789 55.4542C128.939 55.1044 129.099 54.7599 129.269 54.4207C129.441 54.0784 129.548 53.7226 129.588 53.3532C129.884 50.6395 130.526 48.1564 131.514 45.9039C131.925 44.9692 132.634 44.2025 133.64 43.604C133.687 43.5768 133.725 43.5663 133.755 43.5723C133.802 43.5799 133.819 43.6145 133.807 43.6764C133.802 43.705 133.787 43.7352 133.76 43.7668C133.121 44.5206 132.563 45.3295 132.088 46.1934C131.864 46.5986 131.731 47.0302 131.69 47.488L131.683 47.5865C131.657 47.9905 131.573 48.3818 131.431 48.7602C131.264 49.1989 131.164 49.6512 131.129 50.1171C131.125 50.1713 131.14 50.2414 131.174 50.3274C131.221 50.4465 131.236 50.607 131.219 50.8091L131.195 51.0929L131.169 51.3542L131.151 51.5159L131.133 51.6676L131.115 51.8092L131.096 51.9408L131.076 52.0624L131.057 52.174L131.036 52.2756L131.016 52.3671C131.012 52.3815 131.009 52.3956 131.005 52.4091L130.994 52.4487C130.891 52.8195 131.038 52.8851 131.435 52.6454C131.576 52.5618 131.675 52.4222 131.708 52.2609C131.85 51.5524 132.005 50.8792 132.171 50.2414C132.223 50.0369 132.213 49.8425 132.139 49.6582L132.117 49.6082C132.082 49.5333 132.068 49.4589 132.077 49.3956C132.116 49.1228 132.201 48.8687 132.333 48.6335C132.491 48.3516 132.595 48.1141 132.646 47.9212C133.126 46.0863 134.215 44.734 135.913 43.8641C135.989 43.8248 136.068 43.8188 136.12 43.8482C136.205 43.8972 136.205 43.98 136.121 44.0966L136.08 44.1494L136.046 44.1957C135.94 44.3479 135.975 44.3953 136.152 44.3379L136.206 44.3187L136.268 44.2937C136.48 44.2048 136.671 43.9824 136.842 43.6266C136.869 43.5718 136.922 43.5344 136.982 43.5271C137.042 43.5198 137.102 43.5436 137.141 43.5904C137.357 43.8528 137.669 43.8377 138.075 43.5452C138.183 43.4668 138.17 43.4231 138.037 43.414C138.005 43.4117 137.974 43.4093 137.944 43.4066L137.861 43.3981L137.788 43.3884C137.776 43.3867 137.765 43.3849 137.754 43.3831L137.695 43.3717C137.495 43.328 137.486 43.2614 137.67 43.1721L137.724 43.1472C137.85 43.0929 137.936 43.0115 137.981 42.9029C138.011 42.8306 137.985 42.8027 137.904 42.8193L137.868 42.8262L137.801 42.837L137.744 42.8439C137.565 42.8601 137.53 42.8102 137.638 42.6941L137.675 42.6573C137.682 42.6508 137.689 42.6442 137.697 42.6374L137.746 42.5946L137.804 42.5479C137.815 42.5397 137.826 42.5315 137.837 42.523C137.897 42.4766 137.937 42.4116 137.947 42.3421C138.008 41.8859 137.805 41.7615 137.339 41.9689L137.199 42.0329L136.988 42.1238L136.638 42.2686L136.102 42.4853L135.605 42.6836C135.579 42.6933 135.552 42.6961 135.53 42.6914C135.508 42.6867 135.493 42.6749 135.488 42.6587C135.483 42.6406 135.486 42.6195 135.497 42.5954C135.503 42.5788 135.515 42.5645 135.535 42.5524C136.276 42.0923 137.037 41.6345 137.818 41.1789L138.21 40.9513C138.486 40.793 138.473 40.6648 138.17 40.5668C137.226 40.2638 136.302 39.9185 135.398 39.5311C135.329 39.5015 135.24 39.4711 135.132 39.4399L135.017 39.4084C134.997 39.4031 134.976 39.3977 134.955 39.3924L134.821 39.36L134.674 39.3271L134.513 39.2936C134.24 39.2373 133.98 39.1387 133.734 38.9979L133.643 38.9431C133.586 38.9069 133.532 38.8805 133.481 38.8639L133.416 38.8444C133.406 38.8415 133.397 38.8389 133.387 38.8365L133.335 38.8243C133.159 38.789 133.148 38.8533 133.301 39.0174L133.347 39.0646C133.355 39.0729 133.364 39.0814 133.373 39.0901C133.499 39.2107 133.628 39.3283 133.762 39.4429C133.826 39.4977 133.858 39.5697 133.843 39.626C133.822 39.7044 133.76 39.7127 133.656 39.6509C133.178 39.372 132.698 39.0953 132.216 38.8209C132.159 38.7892 132.086 38.7954 132.029 38.8368C131.51 39.2152 131.174 39.0968 131.019 38.4817C131.002 38.4123 131.015 38.3371 131.055 38.2737C131.47 37.6291 131.925 37.0164 132.423 36.4354L132.593 36.2388L132.689 36.1138L132.783 35.9896C132.978 35.7329 133.201 35.6852 133.451 35.8464L133.485 35.8697C133.597 35.9496 133.742 35.9651 133.868 35.9104C134.544 35.6149 135.143 35.5305 135.663 35.6571C135.677 35.6606 135.693 35.6641 135.711 35.6675L135.768 35.6779L135.873 35.6932L135.955 35.7033L136.096 35.7183L136.202 35.7282L136.38 35.7428L136.651 35.7621L137.045 35.7856L137.5 35.8086C137.532 35.8102 137.565 35.8117 137.598 35.8132C137.768 35.8212 137.944 35.7911 138.128 35.7229L138.197 35.6956C138.447 35.5915 138.653 35.541 138.813 35.5441C139.899 35.5652 140.982 35.5177 142.062 35.4016C142.113 35.3958 142.166 35.4224 142.201 35.4703L142.215 35.492C142.28 35.6036 142.382 35.6375 142.523 35.5938L142.756 35.5228L142.762 35.5214C143.57 35.3692 144.379 35.2199 145.187 35.0737L145.263 35.0612L145.33 35.0526C145.547 35.0295 145.591 35.0787 145.464 35.2003ZM140.008 95.9325C140.06 95.9415 140.091 95.9732 140.1 96.0275C140.11 96.0889 140.066 96.1545 139.994 96.188C139.814 96.2694 139.765 96.2204 139.846 96.041C139.878 95.9678 139.944 95.9233 140.008 95.9325ZM140.685 91.5836C140.628 91.6289 140.59 91.6967 140.57 91.7872C140.506 92.0721 140.561 92.152 140.735 92.0269C140.793 91.9856 140.829 91.9173 140.834 91.8414C140.85 91.5791 140.801 91.4932 140.685 91.5836ZM140.375 89.58C140.219 89.8197 140.218 90.0036 140.372 90.1318C140.401 90.1559 140.426 90.1921 140.447 90.2403C140.459 90.2659 140.474 90.2848 140.494 90.2969C140.56 90.34 140.589 90.317 140.58 90.2278L140.577 90.2041C140.552 90.0473 140.557 89.8898 140.593 89.7315C140.606 89.6667 140.608 89.6116 140.597 89.5664C140.555 89.4096 140.481 89.4141 140.375 89.58ZM140.366 88.4072C140.34 88.4198 140.323 88.4453 140.321 88.4741C140.316 88.5314 140.324 88.5849 140.345 88.6347C140.378 88.7176 140.423 88.7236 140.478 88.6528C140.552 88.5563 140.541 88.4764 140.447 88.413C140.423 88.3969 140.392 88.3947 140.366 88.4072ZM137.213 82.8283L137.204 82.829C137.146 82.8341 137.103 82.8855 137.108 82.944L137.369 86.0084C137.372 86.0365 137.385 86.0625 137.407 86.0806C137.428 86.0988 137.456 86.1076 137.484 86.1052L137.493 86.1044C137.551 86.0994 137.594 86.048 137.589 85.9895L137.328 82.9251C137.325 82.897 137.312 82.871 137.29 82.8529C137.269 82.8347 137.241 82.8259 137.213 82.8283ZM139.201 76.4906L139.202 76.5176C139.368 79.1251 139.628 81.722 139.984 84.3084L140.072 84.9295L140.134 85.3452L140.179 85.6273L140.211 85.81L140.233 85.922L140.247 85.986L140.259 86.0329L140.266 86.0547C140.276 86.0786 140.283 86.0822 140.287 86.0656L140.29 86.0493L140.294 86.0106L140.295 85.9547L140.294 85.8803L140.289 85.7156L140.282 85.5593L140.263 85.2363L140.235 84.8354C140.171 83.9293 140.119 83.0232 140.08 82.1171L140.148 81.4557C140.15 81.4361 140.152 81.4161 140.154 81.3957C140.179 81.1579 140.137 80.9126 140.028 80.6597L139.997 80.5906C139.937 80.4654 139.904 80.3335 139.898 80.1948C139.841 78.8078 139.647 77.5685 139.317 76.4769C139.308 76.4438 139.294 76.4181 139.274 76.4C139.222 76.3496 139.197 76.3798 139.201 76.4906ZM135.933 78.7429C135.941 78.7761 135.943 78.8123 135.94 78.8515C135.914 79.2564 135.948 79.6499 136.043 80.0321L136.07 80.136C136.174 80.5069 136.225 80.8378 136.223 81.1288C136.22 81.6067 136.254 82.0831 136.325 82.5581C136.334 82.6184 136.337 82.6726 136.336 82.7209L136.332 82.7845L136.326 82.8387C136.305 82.9954 136.257 83.0103 136.182 82.8833L136.158 82.8385C136.149 82.8219 136.14 82.8039 136.131 82.7842C136.11 82.7375 136.097 82.687 136.091 82.6327C135.962 81.3949 135.858 80.1549 135.78 78.9125C135.777 78.8703 135.778 78.8296 135.782 78.7904L135.79 78.7237L135.799 78.6664L135.807 78.6184L135.816 78.5799C135.838 78.501 135.862 78.4988 135.89 78.5734L135.902 78.6101L135.914 78.6562L135.927 78.7117C135.929 78.7217 135.931 78.7321 135.933 78.7429ZM136.726 73.3821L136.723 73.4669C136.645 75.6168 136.646 77.7667 136.727 79.9166C136.73 80.0041 136.754 80.0795 136.799 80.1428C136.947 80.3533 137.032 80.3146 137.054 80.0266L137.059 79.9526C137.06 79.9264 137.06 79.8986 137.06 79.8692C137.076 77.8532 137.007 75.8411 136.854 73.833L136.811 73.2949L136.799 73.1712L136.79 73.101L136.784 73.0651L136.776 73.0273C136.769 73.0023 136.763 73.0003 136.756 73.0213L136.752 73.0414L136.747 73.0701L136.741 73.1293L136.735 73.208L136.726 73.3821ZM116.014 78.3472C116.03 78.3849 116.013 78.4218 115.962 78.458C115.907 78.4987 115.829 78.4978 115.766 78.4557C115.642 78.3713 115.66 78.3148 115.82 78.2861C115.91 78.2705 115.99 78.2957 116.014 78.3472ZM67.3845 35.7244L67.3892 35.7566C67.4297 36.0582 67.5977 36.172 67.8932 36.0981C68.2097 36.0197 68.5262 35.9391 68.8427 35.8561C68.9144 35.8374 68.9877 35.8472 69.0452 35.8833C69.4802 36.1516 69.7307 36.5429 69.7967 37.057C69.8069 37.1362 69.8378 37.2055 69.8845 37.2537C70.1635 37.5492 70.5085 37.7128 70.9195 37.7445C70.9482 37.7461 70.975 37.7597 70.9934 37.7821C71.0118 37.8044 71.02 37.8334 71.0162 37.8621C70.9125 38.5862 70.6856 39.2015 70.3355 39.7078L70.276 39.7911C70.1042 40.0257 70.1278 40.2266 70.3469 40.3939L70.3795 40.4176C70.5985 40.5668 70.726 40.7507 70.762 40.9694L70.8481 41.4664L70.8542 41.4963C71.0717 42.0722 71.3605 42.5712 71.7205 42.9934L71.8839 43.1818L72.0955 43.4213L72.6086 43.9933L73.2156 44.6624L76.378 48.1134C77.8045 49.5668 79.3645 50.7812 81.058 51.7566L81.2539 51.8703L81.4259 51.9727L81.5273 52.0345L81.6593 52.1178L81.7341 52.1671L81.7982 52.2112C81.8576 52.2533 81.9317 52.2569 81.9827 52.2202C82.1745 52.0809 82.2932 51.8727 82.3386 51.5955L82.3472 51.535C82.3877 51.1928 82.5715 51.0722 82.8985 51.1732C83.6035 51.3903 84.1037 51.7189 84.3992 52.1592C84.4589 52.2465 84.4755 52.3565 84.4442 52.4577C84.3632 52.7306 84.334 52.9643 84.3565 53.1588C84.379 53.3517 84.514 53.5131 84.7615 53.6427C85.3045 53.9262 85.867 54.1696 86.449 54.3732C86.4789 54.3836 86.512 54.3782 86.5376 54.3588C86.5632 54.3394 86.578 54.3085 86.5772 54.2759C86.5702 54.0945 86.5646 53.9184 86.5602 53.7477L86.5533 53.4135C86.5499 53.1954 86.5489 52.9869 86.5502 52.7879C86.5577 51.7808 86.944 50.9523 87.709 50.3025C87.759 50.2599 87.7845 50.1949 87.7768 50.1294C87.7691 50.0639 87.7293 50.0066 87.6707 49.9769C86.5622 49.4175 85.906 48.4745 85.702 47.1477C85.5595 46.2266 85.9022 45.873 86.7302 46.0871C86.8125 46.1074 86.8888 46.1042 86.944 46.0781L87.5852 45.7795C87.6677 45.7403 87.7375 45.7207 87.7945 45.7207C89.5075 45.7388 90.781 46.4422 91.615 47.8307C91.666 47.9159 91.7222 48.0259 91.7837 48.1609L91.8377 48.2826L91.8943 48.4166L91.9534 48.5627L91.984 48.6403C92.092 48.9192 92.2105 49.1944 92.3395 49.4658C92.6605 50.1442 92.6575 50.8181 92.3305 51.4875C92.3006 51.5503 92.2426 51.5961 92.173 51.6119C91.7354 51.7121 91.2998 51.7307 90.8661 51.6678L90.7577 51.6503C90.4307 51.5916 90.142 51.5878 89.8915 51.639C89.6855 51.6823 89.4791 51.7225 89.2725 51.7597L88.9622 51.8132C88.5692 51.8765 88.405 52.1072 88.4695 52.5052C88.513 52.7781 88.555 53.0517 88.5955 53.3261C88.6375 53.6231 88.7447 53.8651 88.9172 54.052C89.2622 54.432 89.6657 54.7426 90.1277 54.9838C90.1898 55.0177 90.2311 55.0795 90.238 55.1489L90.3811 56.5411L90.4919 57.5653L90.5604 58.1587L90.598 58.4648L90.6377 58.7663L90.6497 58.8509C90.6947 59.1705 90.6062 59.3989 90.3842 59.5361C90.3314 59.5677 90.3037 59.6315 90.3145 59.6967L90.364 60.0111C90.3682 60.0381 90.3584 60.0654 90.3375 60.0846C90.3167 60.1038 90.2872 60.1126 90.2582 60.1083C89.8232 60.045 89.4025 59.9349 88.996 59.7781C88.6 59.6243 88.2722 59.558 88.0127 59.5791C87.7832 59.5987 87.5567 59.6379 87.3332 59.6967C87.0572 59.7706 86.8337 59.797 86.6627 59.7759C85.8092 59.6718 85.1545 59.2293 84.6985 58.4484C84.4855 58.0835 84.1457 57.8506 83.6792 57.7496C83.6495 57.7431 83.6184 57.7511 83.5954 57.7711C83.5724 57.7911 83.5601 57.8208 83.5622 57.8513L83.8502 62.2884C83.8539 62.3422 83.8755 62.3981 83.912 62.45L83.9357 62.4806C84.0834 62.6544 84.121 62.8575 84.0484 63.0896L84.0325 63.1364C84.007 63.2058 84.0092 63.2518 84.0392 63.2744C84.0563 63.2866 84.08 63.2867 84.1044 63.2746C84.1289 63.2626 84.1518 63.2395 84.1675 63.2111L84.2329 63.0905L84.2941 62.9795L84.4042 62.7863L84.4529 62.7041L84.4975 62.6315L84.5379 62.5686L84.5742 62.5152L84.6063 62.4714C84.6263 62.4455 84.6435 62.4259 84.658 62.4128C84.7615 62.3193 84.8245 62.3238 84.847 62.4263C84.856 62.4655 84.8515 62.5115 84.8335 62.5643C84.748 62.8266 84.664 63.0889 84.5815 63.3513C84.5629 63.4074 84.5897 63.4726 84.6467 63.5096C84.7322 63.5639 84.7847 63.6392 84.8042 63.7357C84.816 63.7898 84.8049 63.8612 84.7708 63.9499L84.7547 63.989C84.6572 64.2167 84.6227 64.4519 84.6512 64.6946L84.7075 65.1989C84.712 65.6331 84.6782 66.0417 84.6062 66.4246C84.5552 66.702 84.5897 66.9531 84.7097 67.1777L85.8797 69.3668C85.9133 69.4315 85.9141 69.5048 85.882 69.5613C85.5385 70.1598 85.369 70.8066 85.3735 71.5017C85.3735 71.571 85.3937 71.6411 85.4342 71.712C85.7327 72.2351 85.582 72.5985 84.982 72.802C84.7073 72.8958 84.2789 72.9378 83.6966 72.9281L83.5076 72.9233C83.4752 72.9222 83.4424 72.921 83.4092 72.9196C83.3531 72.9171 83.2982 72.8898 83.256 72.8443L83.236 72.8201C83.083 72.6151 82.8347 72.5156 82.4912 72.5216C82.404 72.5246 82.3242 72.4699 82.2932 72.3859C82.1462 71.9743 82.0862 71.5476 82.1132 71.1059C82.1897 69.8545 82.1365 68.61 81.9535 67.3722C81.799 66.3274 81.682 65.2788 81.6025 64.2265C81.5695 63.7802 81.6032 63.2442 81.7037 62.6185C81.8597 61.6386 81.904 60.6488 81.8365 59.6492C81.8335 59.5949 81.8395 59.5437 81.8545 59.4954L81.8733 59.4359L81.8914 59.3857C81.9502 59.234 81.9959 59.2387 82.0284 59.3997L82.0377 59.4526L82.0462 59.515C82.0476 59.5262 82.0489 59.5378 82.0502 59.5497C82.0547 59.598 82.0562 59.6522 82.0547 59.7125L82.0288 60.4899L82.0052 61.2803C82.0014 61.4131 81.9977 61.5464 81.9942 61.6803L81.9738 62.4901L81.9557 63.3128C81.9528 63.4949 82.0161 63.6705 82.1335 63.8058C82.2801 63.9754 82.3541 63.9592 82.3554 63.7574L82.3539 63.6977C82.3528 63.6763 82.3511 63.6534 82.3489 63.6289L82.345 63.591C82.2475 62.712 82.2332 61.8195 82.3022 60.9134C82.5527 61.3883 82.6165 61.8806 82.4935 62.3901C82.4747 62.4701 82.4811 62.5467 82.5115 62.605C82.597 62.7708 82.6757 62.7331 82.7477 62.4919C82.7657 62.4286 82.7702 62.3562 82.7612 62.2748C82.7217 61.9296 82.7081 61.4878 82.7205 60.9494L82.7273 60.7128C82.7288 60.6723 82.7303 60.6314 82.732 60.59C82.7425 60.3397 82.63 60.1294 82.3945 59.959L82.507 57.4217C82.5175 57.1789 82.4425 57.1427 82.282 57.3131C82.102 57.5065 81.9725 57.7514 81.8934 58.0476L81.8604 58.1807L81.8466 58.2288C81.8081 58.351 81.7754 58.3536 81.7485 58.2366L81.7392 58.1903L81.7304 58.1342C81.729 58.124 81.7276 58.1134 81.7262 58.1024C81.7232 58.0792 81.7222 58.0545 81.7232 58.028L81.7262 57.987C81.7577 57.6523 81.7555 57.3184 81.7195 56.9852C81.7108 56.9144 81.6679 56.8526 81.6047 56.8201C80.8892 56.4477 80.1782 56.067 79.4717 55.6781C78.7307 55.2725 78.0602 54.83 77.4602 54.3506C75.8042 53.0283 74.2495 51.5923 72.796 50.0424C72.736 49.9791 72.6737 49.9414 72.6092 49.9294C72.4772 49.9083 72.4315 49.9731 72.472 50.1238C72.483 50.1643 72.5223 50.211 72.5807 50.2541L72.6115 50.2754C72.7664 50.3734 72.7347 50.5632 72.5164 50.8447L72.4855 50.8837C72.3462 51.0541 72.2835 51.2744 72.3122 51.492C72.4082 52.2353 72.439 53.0344 72.4045 53.8892C72.3895 54.2541 72.3137 54.5179 72.1772 54.6807C72.0167 54.8692 71.7775 55.0365 71.4595 55.1828C71.3148 55.2497 71.1467 55.2447 71.005 55.1692C70.654 54.9808 70.3637 55.0426 70.1342 55.3547C70.0644 55.4466 69.9383 55.4727 69.8395 55.4157C68.4745 54.6197 67.2167 53.7694 66.0662 52.8648C66.0081 52.8184 65.9313 52.8032 65.8596 52.8238C65.788 52.8444 65.7301 52.8983 65.704 52.9688C65.242 54.2277 65.0072 55.5288 64.9997 56.8721C64.9992 56.8996 65.0111 56.9258 65.0321 56.9434C65.0531 56.961 65.0809 56.9681 65.1077 56.9626C65.8517 56.8073 66.5897 56.6241 67.3217 56.413C68.3132 56.1281 69.325 55.9954 70.357 56.015C70.7095 56.021 71.0342 56.1123 71.3312 56.2887C71.3506 56.3005 71.3618 56.322 71.3609 56.3454C71.36 56.3689 71.3471 56.3911 71.3267 56.404C71.0912 56.5517 71.047 56.7477 71.194 56.992C71.2228 57.039 71.2439 57.0923 71.2573 57.1519L71.266 57.1978C71.3005 57.4087 71.428 57.4092 71.6484 57.1992L71.6777 57.1706C71.8188 57.0303 71.9003 57.0511 71.9223 57.2333L71.9252 57.2634C71.9432 57.5197 72.0287 57.7006 72.1817 57.8061L72.2548 57.8582C72.266 57.8664 72.2768 57.8744 72.2871 57.8822L72.3435 57.926C72.3519 57.9328 72.3599 57.9394 72.3675 57.9458L72.4072 57.9812C72.447 58.0194 72.4641 58.0462 72.4585 58.0617C72.4285 58.1536 72.229 58.2147 71.86 58.2448C71.8081 58.2488 71.7623 58.2802 71.7396 58.3272C71.7169 58.3743 71.7208 58.4298 71.7497 58.4732C72.0257 58.8833 72.0347 59.1502 71.7767 59.2738L71.7491 59.2857L71.7062 59.3019L71.6132 59.3344L71.4464 59.3894L71.2052 59.466C70.9727 59.5399 70.7387 59.5437 70.5032 59.4773L70.3772 59.4426L70.2631 59.413C70.245 59.4085 70.2275 59.4043 70.2105 59.4002L70.1142 59.3785C70.0992 59.3753 70.0846 59.3723 70.0706 59.3696L69.9922 59.3557C69.9319 59.3463 69.884 59.3424 69.8485 59.3439C69.4795 59.356 69.1187 59.4246 68.7662 59.5497C68.503 59.6429 68.2349 59.6782 67.9618 59.6555L67.8797 59.647C67.7975 59.6366 67.7224 59.6445 67.6637 59.6696L65.92 60.4204C65.8834 60.4358 65.8559 60.4675 65.8443 60.5076C65.8327 60.5478 65.8382 60.5925 65.8592 60.6307L67.0292 62.7067C67.0712 62.7806 67.12 62.8349 67.1755 62.8696C67.4455 63.031 67.7331 63.1455 68.0383 63.2129L68.1463 63.2351L68.4782 63.3332C68.6361 63.3805 68.7799 63.3546 68.9096 63.2555L68.9417 63.2291C69.0062 63.173 69.0764 63.1427 69.1352 63.1455C69.2687 63.1515 69.3895 63.1945 69.4975 63.2744C69.5591 63.3192 69.6307 63.338 69.6955 63.3264C70.8025 63.1515 71.8 63.4033 72.688 64.0817C72.7101 64.0983 72.7229 64.1247 72.7219 64.1518C72.721 64.1788 72.7065 64.2027 72.6835 64.2152C72.589 64.2634 72.4862 64.2732 72.3752 64.2446C72.3443 64.2366 72.3112 64.2407 72.2866 64.2555C72.262 64.2704 72.2489 64.2941 72.2515 64.3192C72.256 64.3855 72.2965 64.436 72.373 64.4707C72.3976 64.4819 72.4166 64.5024 72.4256 64.5273C72.4346 64.5522 72.4326 64.5792 72.4202 64.6019C72.2941 64.834 72.3172 65.0439 72.4895 65.2316L72.5215 65.2645C72.5623 65.3043 72.5973 65.3504 72.6266 65.4027L72.6475 65.4431C72.7045 65.5638 72.7915 65.6663 72.9085 65.7507C72.9377 65.772 72.9546 65.8064 72.9537 65.8422C72.9528 65.8781 72.9342 65.9108 72.904 65.9294C72.718 66.0439 72.6152 66.2196 72.5957 66.4563C72.5897 66.5302 72.5665 66.5973 72.526 66.6576C72.4117 66.8272 72.4651 66.883 72.6859 66.8249L72.7503 66.8063L72.823 66.7819C73.1236 66.6745 73.3641 66.7297 73.5443 66.9475L73.5722 66.9832C73.6188 67.0475 73.6777 67.0923 73.7387 67.1099C74.3897 67.3089 74.8892 67.3737 75.2372 67.3043L75.2644 67.2985L75.3108 67.2864C75.4141 67.2554 75.4201 67.2187 75.3288 67.1765L75.2871 67.1593C75.2792 67.1564 75.271 67.1535 75.2623 67.1505L75.235 67.1415C74.716 66.9772 74.1947 66.8204 73.6712 66.6711C73.5887 66.647 73.5212 66.6169 73.4687 66.5807C73.3103 66.4745 73.3346 66.4219 73.5417 66.4228L73.6026 66.4244L73.6727 66.4286L73.7518 66.4355L73.84 66.445C74.5135 66.5249 75.1727 66.4691 75.8177 66.2776C75.8837 66.258 75.9565 66.2558 76.036 66.2708L78.9092 66.8498C78.9315 66.8538 78.9501 66.8692 78.9584 66.8904C78.9666 66.9116 78.9634 66.9356 78.9497 66.9538C78.6962 67.3036 78.79 67.5184 79.231 67.5983C79.2924 67.6099 79.3353 67.6647 79.33 67.725C79.303 67.9994 79.3397 68.261 79.4402 68.5097C79.443 68.5168 79.4473 68.5253 79.453 68.5352L79.4748 68.569L79.5054 68.6111L79.5449 68.6615L79.5934 68.7202L79.6827 68.8238C79.6938 68.8364 79.7052 68.8493 79.717 68.8625C79.8402 69.0004 79.8595 69.1574 79.7749 69.3333L79.7552 69.3713C79.7264 69.4232 79.7067 69.4784 79.6962 69.5371L79.69 69.5817C79.6641 69.8538 79.5089 69.9161 79.2244 69.7685L79.1882 69.749C79.0817 69.6902 79.0127 69.7 78.9812 69.7784C78.9675 69.8123 78.9688 69.8557 78.9853 69.9084L78.997 69.9412C79.1185 70.2567 79.0377 70.3682 78.7547 70.2757L78.7225 70.2646C78.6085 70.2239 78.5027 70.2028 78.4052 70.2013C77.9342 70.1923 77.581 70.1124 77.3455 69.9616C76.9945 69.7369 76.6637 69.6216 76.3532 69.6156L75.838 69.6043C75.5905 69.5737 75.343 69.5483 75.0955 69.528L74.848 69.5093C74.6669 69.498 74.4144 69.4545 74.0907 69.3787L73.9229 69.3381L73.7432 69.2922C73.4162 69.2078 73.0375 69.1527 72.607 69.1271C71.7445 69.0743 70.8827 69.0238 70.0217 68.9756C67.9682 68.8595 65.9417 69.0419 63.9422 69.5229C63.7276 69.575 63.5423 69.7108 63.427 69.9005C62.8795 70.8051 62.269 71.6637 61.5955 72.4764C61.3705 72.7477 61.225 73.1721 61.159 73.7496C61.1518 73.8134 61.1941 73.8716 61.2557 73.883C61.8812 73.9946 62.5007 73.9591 63.1142 73.7767C63.1394 73.7692 63.1632 73.7624 63.1855 73.7565L63.2482 73.7412C63.4816 73.6897 63.5082 73.7549 63.3279 73.9368L63.2785 73.9848C63.2584 74.0035 63.2457 74.0296 63.2448 74.0539C63.2439 74.0782 63.2549 74.0973 63.274 74.1046C63.304 74.1152 63.34 74.1137 63.382 74.1001C63.925 73.9162 64.4657 73.6825 65.0042 73.399C65.0513 73.3738 65.107 73.3704 65.157 73.3899C65.2071 73.4095 65.2465 73.4499 65.2652 73.5008C65.3468 73.7268 65.4961 73.7652 65.713 73.6161L65.7573 73.5845L65.79 73.5643L65.8323 73.5413L65.884 73.5153L65.9795 73.4711L66.0963 73.4205L66.2853 73.3429L66.5123 73.2539L66.7075 73.1797C66.7968 73.1464 66.8794 73.1464 66.919 73.1797L67.0337 73.2747C67.0996 73.3282 67.165 73.3564 67.207 73.3493C67.543 73.289 67.8653 73.1864 68.1741 73.0415L68.2892 72.9852C68.5187 72.8691 68.6897 72.9015 68.8022 73.0824C68.8438 73.1485 68.9086 73.1844 68.962 73.1706L70.294 72.8292C70.3574 72.8133 70.4188 72.7645 70.465 72.6935C70.621 72.4492 70.69 72.1907 70.672 71.9178L70.6641 71.7858L70.6586 71.6657L70.6553 71.5573C70.6543 71.506 70.6541 71.4592 70.6548 71.4168L70.6573 71.3378C70.661 71.2647 70.6681 71.2093 70.6787 71.1715C70.9772 70.0905 71.728 69.4987 72.931 69.3962C73.132 69.3781 73.3877 69.4294 73.6982 69.55C73.9112 69.6314 74.1167 69.7807 74.3147 69.9978C74.8007 70.533 75.3265 71.026 75.892 71.4768C76.126 71.6622 76.3075 71.8831 76.4365 72.1394C76.5265 72.3203 76.5947 72.5909 76.6412 72.9513C76.7342 73.693 76.8145 74.4356 76.882 75.1788C76.9053 75.4414 76.8733 75.7306 76.7857 76.0464L76.7605 76.1332C76.6555 76.4772 76.6019 76.7901 76.5998 77.0718L76.6007 77.1554C76.6172 77.6921 76.441 77.8278 76.072 77.5624C76.0191 77.5263 75.9485 77.5228 75.8875 77.5534L75.3002 77.8496C75.2515 77.8738 75.1769 77.8644 75.1022 77.8248L74.4565 77.4788C74.4045 77.4498 74.3318 77.4706 74.2832 77.5285C74.0507 77.8044 73.8062 77.7788 73.5497 77.4516L73.5227 77.4213L73.4854 77.3844C73.4784 77.3778 73.4709 77.3708 73.4629 77.3636L73.4102 77.3171L73.3472 77.2641L73.2739 77.2046L73.1447 77.1034C73.0329 77.0181 72.9293 76.9117 72.834 76.7843L72.787 76.7189C72.4645 76.25 72.0047 75.8015 71.4077 75.3733C71.312 75.3041 71.1878 75.288 71.077 75.3303L70.8084 75.4296L70.2796 75.6263C70.1924 75.6589 70.1057 75.6914 70.0195 75.7239C69.7689 75.8171 69.4524 75.8763 69.0702 75.9015L68.9732 75.907C68.5882 75.9264 68.2385 75.9964 67.9241 76.1171L67.8392 76.1513C66.9902 76.5116 66.1652 76.6827 65.3642 76.6646C65.3596 76.6646 65.3524 76.6654 65.3429 76.6669L65.2834 76.6786L65.2254 76.692L64.8017 76.7981C64.7565 76.8091 64.6818 76.7844 64.6037 76.7325C64.4427 76.6283 64.253 76.6253 64.0345 76.7235L63.9872 76.746C63.6287 76.9255 63.0505 77.0634 62.2525 77.1599C62.0077 77.1889 61.7075 77.1856 61.3518 77.15L61.2535 77.1395C60.9565 77.1049 60.658 77.0868 60.358 77.0853C60.2802 77.0853 60.208 77.0648 60.151 77.0265C59.8615 76.8425 59.6402 76.6043 59.4872 76.3118L59.4701 76.2773L59.4379 76.206L59.3981 76.1113L59.2952 75.8515L59.1859 75.5634L59.1362 75.4299C58.7597 74.4182 58.6757 73.3689 58.8842 72.2819C59.0402 71.4689 59.4668 70.695 60.1638 69.9603L60.2455 69.8757C60.2643 69.8565 60.2818 69.8381 60.298 69.8206L60.3423 69.7703C60.349 69.7623 60.3554 69.7545 60.3614 69.7469L60.3934 69.7039C60.505 69.5411 60.4197 69.4936 60.1375 69.5613C60.0685 69.5794 59.9935 69.6088 59.9125 69.6495L59.5558 69.8314L59.3673 69.9253L59.2523 69.9815L59.0479 70.0786L58.9585 70.1195L58.8403 70.1713L58.7413 70.2116L58.6859 70.2321L58.6391 70.2475C58.6249 70.2518 58.6121 70.2553 58.6007 70.2578C57.9002 70.4177 56.962 70.4222 55.786 70.2714C55.7154 70.2625 55.6422 70.2742 55.5745 70.3053C55.0495 70.542 54.4967 70.6461 53.9162 70.6174C53.8366 70.6145 53.7666 70.5831 53.725 70.5315L53.2615 69.9571C53.2224 69.909 53.2139 69.8327 53.239 69.7558C53.29 69.602 53.3155 69.4445 53.3155 69.2831C53.3158 69.267 53.3142 69.2468 53.3108 69.2226L53.3013 69.1689C53.2993 69.1591 53.2971 69.1488 53.2947 69.138L53.2776 69.0683L53.2556 68.9878L53.2284 68.8966L53.1962 68.7947C53.1602 68.6846 53.1407 68.5708 53.1377 68.4532C53.1347 68.3461 53.167 68.2391 53.2345 68.132C53.5435 67.6436 53.917 67.2101 54.355 66.8317C54.3745 66.8166 54.394 66.8053 54.4135 66.7978C54.4971 66.7722 54.5157 66.7839 54.4693 66.8327L54.4407 66.8602L54.4013 66.8939C54.3938 66.9001 54.3859 66.9065 54.3775 66.9131C54.1915 67.0639 54.0805 67.2561 54.0445 67.4898C54.0235 67.6255 54.061 67.6436 54.157 67.5441L55.0727 66.5942C55.1248 66.5405 55.2084 66.5176 55.2955 66.5332L55.9435 66.6463C56.0134 66.658 56.0762 66.6923 56.1212 66.7435C56.253 66.893 56.4101 66.902 56.5927 66.7704L56.6252 66.7458C56.8352 66.5784 57.1067 66.5294 57.4397 66.5988C57.481 66.6079 57.5148 66.6375 57.5293 66.6773C57.5439 66.7172 57.5373 66.7617 57.5117 66.7955L56.6365 67.9082C56.4235 68.181 56.4887 68.3243 56.8322 68.3378C57.4787 68.362 58.1252 68.2881 58.7717 68.1162C58.9213 68.0773 59.0337 68.1038 59.1091 68.1959L59.1272 68.2202C59.1691 68.2819 59.2307 68.318 59.2892 68.3152L61.681 68.1592C61.7504 68.1535 61.8085 68.1077 61.8272 68.0438C61.9697 67.5659 62.0027 67.0789 61.9262 66.5829C61.6187 64.5642 61.3022 62.5469 60.9767 60.5312C60.8627 59.8196 61.1815 59.1916 61.933 58.6474C62.227 58.4348 62.3845 58.1468 62.4055 57.7835C62.5345 55.4542 62.8232 53.0133 63.2717 50.4608C63.3977 49.7432 63.7232 49.2087 64.2482 48.8574C64.2934 48.8267 64.3494 48.8168 64.4022 48.8302C64.4551 48.8436 64.4997 48.879 64.525 48.9275C64.6589 49.1837 64.7576 49.1974 64.821 48.9687L64.8287 48.9388C64.8852 48.7033 65.0227 48.5826 65.2413 48.5767L65.2832 48.577C65.3492 48.58 65.4197 48.5687 65.4947 48.5431L66.1832 48.3056C66.2409 48.2858 66.3149 48.3019 66.3812 48.3486C66.5942 48.5009 66.829 48.5453 67.0855 48.482C67.1532 48.4642 67.2237 48.4843 67.2677 48.534C67.7574 49.0799 68.3632 49.3825 69.0852 49.4419L69.1719 49.4478L69.2528 49.4447L69.7405 49.4183C70.33 49.3866 70.8107 49.6082 71.1827 50.0831C71.3041 50.2381 71.5003 50.292 71.644 50.2098L72.3505 49.8072C72.3746 49.7931 72.3896 49.7674 72.3909 49.738C72.3922 49.7085 72.3797 49.6789 72.3572 49.658C72.2634 49.5697 72.1655 49.4747 72.0633 49.3728L71.9069 49.2149L71.7442 49.0468L71.5753 48.8684C71.5466 48.8378 71.5176 48.8068 71.4884 48.7754L71.3101 48.5817L71.1254 48.3778L70.9345 48.1636L70.7372 47.9393C70.0127 47.11 69.127 46.4082 68.08 45.8338C67.9045 45.7388 67.78 45.6175 67.7065 45.4697C67.63 45.3189 67.561 45.1493 67.4995 44.9609C67.4651 44.8592 67.369 44.7945 67.2677 44.8048L66.46 44.893C66.394 44.9002 66.3287 44.9413 66.28 45.0061C65.839 45.5956 65.4025 46.1889 64.9705 46.7859C64.528 47.3965 64.1447 48.0252 63.8207 48.672C62.9777 50.356 62.1977 52.0687 61.4807 53.8101C61.3937 54.0211 61.3472 54.2413 61.3412 54.4704C61.3397 54.5397 61.3035 54.6041 61.2445 54.6423C60.964 54.8187 60.7622 55.0343 60.6392 55.2891L60.0104 56.5889L59.3792 57.8875C59.332 57.9834 59.2821 58.1233 59.2296 58.3074L59.1943 58.4366L59.1581 58.579C59.152 58.6038 59.1459 58.6291 59.1398 58.655L59.1025 58.817C59.0185 59.1879 58.8512 59.5158 58.6007 59.8007L58.4506 59.9731L58.2792 60.1737L58.1405 60.3409L58.0834 60.4119L58.0346 60.4745L57.9939 60.5288L57.9614 60.5747L57.9482 60.5945C57.5297 61.2383 57.0587 61.8414 56.5352 62.4037L56.1805 62.7799L56.0101 62.9562L55.8792 63.0872L55.803 63.1593L55.7624 63.1945L55.7432 63.2088C55.3577 63.4636 54.9287 63.395 54.4562 63.003C53.8007 62.4557 53.4512 61.7728 53.4077 60.9541L53.3921 60.6355C53.3897 60.5812 53.3874 60.5262 53.3851 60.4707L53.3728 60.1305L53.3627 59.7759C53.3537 59.3733 53.4137 58.9783 53.5427 58.5908C53.5527 58.5609 53.574 58.5362 53.6017 58.5226C53.6293 58.5089 53.6609 58.5074 53.689 58.5185C53.9125 58.6119 54.0565 58.7966 54.121 59.0725C54.172 59.2957 54.2717 59.3206 54.4202 59.1472C55.6997 57.6486 56.8517 55.9268 57.8762 53.9819C57.9108 53.9176 57.9163 53.8415 57.8914 53.7725C57.8665 53.7035 57.8136 53.6481 57.7457 53.6201C57.4277 53.4904 57.1315 53.4264 56.857 53.4279C56.7901 53.4283 56.7249 53.4282 56.6612 53.4277L56.4747 53.4246C56.3535 53.4215 56.2385 53.4165 56.1297 53.4096L55.9712 53.3978C55.4841 53.3558 55.1374 53.2701 54.931 53.1407C54.2305 52.705 53.668 52.46 53.2435 52.4057C52.798 52.3484 52.4612 52.267 52.2332 52.1614C52.1715 52.1325 52.1226 52.0752 52.0982 52.0031C51.9107 51.4363 51.6272 50.9312 51.2477 50.4879C51.2163 50.452 51.1692 50.434 51.1219 50.4398C51.0746 50.4457 51.0333 50.4747 51.0115 50.5173C50.872 50.7932 50.7437 51.0722 50.6267 51.3541C50.5187 51.6164 50.4265 51.9097 50.35 52.2338C49.987 53.7912 49.759 55.1858 49.666 56.4176C49.6225 56.9694 49.6757 57.5114 49.8257 58.0436C49.9562 58.5109 49.927 58.9399 49.738 59.3303L49.6441 59.5282L49.5658 59.702L49.5222 59.8045C49.5155 59.8207 49.5091 59.8364 49.503 59.8517L49.4698 59.9381C49.4401 60.0192 49.4207 60.0842 49.4117 60.1332C49.2317 61.08 49.1762 62.0373 49.2452 63.0053C49.2587 63.1847 49.2947 63.2231 49.3532 63.1206C49.3682 63.095 49.3765 63.0648 49.378 63.0301C49.4155 62.2929 49.4867 61.5587 49.5917 60.8275C49.5977 60.7807 49.6105 60.737 49.63 60.6963L49.6561 60.6474C49.739 60.5 49.7809 60.5095 49.7819 60.676L49.781 60.7306L49.775 60.8302L49.7717 60.8682C49.5917 62.8899 49.627 64.8966 49.8775 66.8882C49.906 67.1099 49.987 67.1264 50.1205 66.938L51.2342 65.3685C51.2672 65.3203 51.2957 65.324 51.3197 65.3798C51.4277 65.6286 51.5192 65.704 51.5942 65.606L51.6669 65.5131L51.7049 65.4675L51.7734 65.4094L51.8328 65.361L51.9126 65.2989L51.9596 65.2645C51.967 65.2593 51.9742 65.2543 51.9812 65.2495L52.0208 65.2235L52.0554 65.2032L52.085 65.1885C52.1529 65.1588 52.1743 65.1817 52.1491 65.2574L52.1365 65.2905C52.134 65.2965 52.1313 65.3027 52.1284 65.3091L52.1084 65.3507L52.0835 65.3978L52.0535 65.4505L51.9993 65.5402L51.934 65.6425L51.8575 65.7575C51.8212 65.8113 51.806 65.8829 51.8147 65.9588C51.8477 66.2075 51.7802 66.4676 51.6122 66.739C51.2342 67.3451 50.8922 68.0936 50.5862 68.9846C50.5652 69.0464 50.5615 69.1045 50.575 69.1588C50.618 69.341 50.6866 69.3551 50.7807 69.201L50.8097 69.1497C50.8146 69.1404 50.8196 69.1305 50.8247 69.1203C51.1382 68.4826 51.4802 67.8614 51.8507 67.2569C51.8732 67.2192 51.8965 67.2116 51.9205 67.2342C51.941 67.2546 51.9463 67.2892 51.934 67.3224L50.962 69.9186C50.9299 70.0037 50.9428 70.0955 50.9957 70.1583C51.2117 70.4086 51.361 70.683 51.4435 70.9815C51.4582 71.032 51.4882 71.0834 51.531 71.1316L51.5582 71.1602C51.7067 71.3019 51.7367 71.5069 51.6482 71.7753C51.621 71.8564 51.6629 71.9446 51.7427 71.9743C51.9452 72.0512 52.0345 72.1786 52.0105 72.3565L51.9993 72.443L51.9912 72.5171C51.9901 72.5284 51.9892 72.5392 51.9884 72.5494L51.985 72.6048C51.9835 72.6458 51.9852 72.6739 51.9902 72.6889C52.023 72.7905 52.084 72.8736 52.1731 72.9383L52.213 72.9648C52.2848 73.0073 52.3319 73.0665 52.339 73.1231C52.3605 73.2973 52.2569 73.3251 52.0282 73.2066L51.9947 73.1887C51.9708 73.1757 51.9481 73.1637 51.9266 73.1528L51.8657 73.1233L51.812 73.1003C51.6285 73.0278 51.5906 73.086 51.6984 73.2749L51.7314 73.3297L51.7717 73.3909C51.779 73.4016 51.7866 73.4126 51.7945 73.4239C51.9533 73.6507 52.0215 73.8632 51.9992 74.0614L51.9925 74.1069C51.9817 74.1684 51.9781 74.227 51.9817 74.2827L51.9857 74.324C52.0172 74.5486 51.9295 74.6798 51.7225 74.7175C51.67 74.7267 51.6257 74.7621 51.6048 74.8114C51.5839 74.8607 51.5892 74.9173 51.619 74.9617C51.7836 75.2064 51.7631 75.4016 51.5574 75.5473L51.5267 75.5678C51.3327 75.6894 51.2197 75.8904 51.1878 76.171L51.1825 76.2282C51.1726 76.38 51.1209 76.4056 51.0273 76.305L51.0092 76.2847C50.9192 76.1792 50.8225 76.0962 50.719 76.0359C50.4576 75.8834 50.3691 75.9177 50.4536 76.1388L50.4762 76.1932L50.5049 76.2542L50.5397 76.3218L50.5807 76.3961C50.5881 76.409 50.5957 76.4222 50.6035 76.4357L50.6537 76.5199C50.6954 76.5892 50.7107 76.6709 50.6955 76.7435C50.6804 76.816 50.6364 76.8723 50.575 76.8976L49.8797 77.187C49.8183 77.2113 49.7429 77.1908 49.6885 77.135C49.5591 76.9983 49.4624 76.8396 49.3983 76.6588L49.3757 76.59C49.2827 76.2855 49.189 76.3043 49.0945 76.6465C49.024 76.8998 48.877 77.0717 48.6535 77.1622C48.5929 77.1875 48.5208 77.1639 48.4802 77.1056L46.6285 74.4778C46.5844 74.4159 46.5774 74.3395 46.6105 74.2833L47.1842 73.2724C47.2492 73.1568 47.2313 73.0175 47.1415 72.94C46.8015 72.6523 46.6013 72.3311 46.5409 71.9762L46.5317 71.9132C46.4957 71.6147 46.3855 71.3509 46.201 71.1217C46.1551 71.064 46.134 70.993 46.1425 70.925C46.3405 69.5214 46.4785 68.1124 46.5565 66.6983L46.5645 66.5018L46.5686 66.3314L46.5716 66.0737L46.5717 65.781L46.5689 65.4533L46.5592 64.8962L46.543 64.2604L46.516 63.4191C46.484 62.5118 46.4935 61.6046 46.5444 60.6973L46.5719 60.2616L46.7342 57.8785L46.9478 53.3903L47.082 50.793L47.1236 50.1047L47.1257 50.0741C47.2247 48.6448 47.4467 47.1605 47.7917 45.6212C47.8059 45.5587 47.8461 45.5052 47.9023 45.4742C47.9586 45.4431 48.0255 45.4374 48.0865 45.4584C48.652 45.6574 48.9452 45.5044 48.9662 44.9993C48.9689 44.9427 48.9414 44.8719 48.8897 44.8026C48.7652 44.6428 48.7442 44.4257 48.8267 44.1513L48.857 44.0547C48.8621 44.0392 48.8672 44.0241 48.8724 44.0092L48.9034 43.9236C49.1329 43.3228 49.4021 43.3112 49.7112 43.8887L49.7536 43.9711C49.7678 43.9998 49.7821 44.0297 49.7965 44.0608C49.8325 44.1377 49.8775 44.1784 49.9315 44.1829C50.009 44.1899 50.0284 44.1538 49.9896 44.0747L49.9787 44.054C49.6997 43.5618 49.7881 43.2026 50.244 42.9764L50.303 42.9481L50.4679 42.8532L50.575 42.7899C50.7745 42.6723 50.9252 42.7891 51.0272 43.1404C51.0613 43.2555 51.1701 43.3322 51.2905 43.3258C51.5996 43.3099 51.7272 43.4924 51.6733 43.8735L51.6662 43.9183C51.5612 44.538 51.5777 45.2164 51.7157 45.9537C51.7382 46.0773 51.7787 46.0833 51.8372 45.9718C51.9422 45.7743 51.9887 45.5775 51.9767 45.3815C51.9731 45.3327 51.9516 45.2753 51.915 45.216L51.8912 45.1802C51.7607 44.9978 51.715 44.795 51.754 44.5719C51.7682 44.4973 51.8283 44.4447 51.8935 44.4498C51.9955 44.4588 52.0682 44.5297 52.1117 44.6624C52.1717 44.8388 52.3127 45.0046 52.5347 45.1599C52.5946 45.2013 52.6333 45.2684 52.6405 45.3431C52.696 45.9069 52.4935 46.2062 52.033 46.2409C52.0047 46.2431 51.9786 46.2571 51.9621 46.279C51.9455 46.301 51.9401 46.3285 51.9475 46.354C52.0231 46.6241 52.1764 46.8385 52.4075 46.997L52.4582 47.0301C52.5797 47.104 52.6457 47.2103 52.6562 47.349C52.6621 47.434 52.6826 47.5055 52.7147 47.5525C53.1842 48.2295 53.8127 48.6961 54.6002 48.9524C54.6232 48.9607 54.6488 48.9558 54.6677 48.9396C54.6866 48.9235 54.696 48.8983 54.6925 48.8732C54.6697 48.7068 54.6392 48.5423 54.601 48.3797L54.57 48.2535L54.5224 47.9095L54.4945 47.6973C54.457 47.4229 54.3152 47.1703 54.0692 46.9397C53.8442 46.7271 53.785 46.4746 53.8915 46.1821C54.265 45.1599 54.4097 44.1008 54.3257 43.0047C54.3206 42.9317 54.27 42.87 54.1997 42.8509C53.6703 42.7076 53.2073 42.4488 52.8108 42.0744L52.7372 42.0029C52.7264 41.992 52.7122 41.9796 52.6946 41.9658L52.6551 41.9361L52.5789 41.8842L52.5169 41.8446L52.4071 41.7779L52.2771 41.7024L52.1792 41.647L52.0724 41.5878L51.8954 41.4915L51.6982 41.3863C51.6752 41.3741 51.6518 41.3618 51.628 41.3493C51.568 41.3176 51.5237 41.2591 51.5065 41.1887C51.4285 40.8676 51.22 40.5548 50.881 40.2502C50.3095 39.7406 49.8122 39.1654 49.3892 38.5247C49.1942 38.2292 49.1972 37.9141 49.3982 37.5794L49.8865 36.7743C49.9158 36.7248 49.9141 36.6501 49.882 36.5753L49.7065 36.1728C49.6735 36.0989 49.696 36.0785 49.774 36.1117L50.1752 36.2856L50.5177 36.4378L50.6951 36.5188L50.8988 36.6147L51.027 36.6776L51.134 36.7326L51.1937 36.765L51.2439 36.7939L51.2848 36.8194L51.3017 36.8308C51.6722 37.0887 52.0802 37.2439 52.5257 37.2967L52.6054 37.3046C52.9835 37.335 53.0593 37.2267 52.8329 36.9795L52.7836 36.9283L52.7262 36.8733L52.6945 36.8444C52.6742 36.8262 52.655 36.8085 52.6371 36.7913L52.5869 36.7412C52.3383 36.4827 52.3955 36.3565 52.7586 36.3627L52.8302 36.3654C52.8428 36.3661 52.8556 36.3669 52.8688 36.3679L52.9512 36.3753C52.9655 36.3767 52.9801 36.3784 52.9951 36.3801L53.0882 36.3921C53.9548 36.5145 55.0958 36.48 56.5112 36.2885L56.8187 36.2451C56.9477 36.2255 57.0497 36.2233 57.1247 36.2383C57.3722 36.2836 57.3542 36.4298 57.0707 36.6771C57.0179 36.7226 56.989 36.7902 56.9925 36.8602C56.996 36.9301 57.0315 36.9944 57.0887 37.0344C57.4337 37.2786 57.9272 37.4799 58.5692 37.6382C58.715 37.673 58.8416 37.763 58.9225 37.8892C59.2585 38.4063 59.6155 38.9295 59.9935 39.4587C60.19 39.7361 60.301 40.217 60.3265 40.9015C60.3295 40.9633 60.2937 41.0275 60.232 41.0711C60.0505 41.1993 60.013 41.3923 60.1195 41.6501C60.2002 41.8443 60.03 42.026 59.6087 42.1952L59.557 42.2154C59.14 42.3737 58.8557 42.664 58.7042 43.0861C58.4972 43.6617 58.2864 44.2355 58.0718 44.8077L57.8539 45.3846L57.8477 45.4072L57.8269 45.5C57.8247 45.5103 57.8224 45.5213 57.82 45.533C57.805 45.6009 57.7682 45.6491 57.7097 45.6778C57.6437 45.7109 57.6181 45.6915 57.6327 45.6196L57.6377 45.5986C57.6904 45.4127 57.6932 45.2274 57.6462 45.0428L57.6287 44.9812C57.6024 44.8989 57.5961 44.8221 57.6107 44.7619L57.7502 44.1784L57.7643 44.1153C57.7664 44.1055 57.7682 44.0961 57.7699 44.0871L57.7781 44.0372L57.7824 43.9962C57.7879 43.9108 57.7612 43.8977 57.7026 43.9566L57.6754 43.9863L57.6444 44.0249L57.6094 44.0723C57.6033 44.0809 57.597 44.0899 57.5905 44.0993C57.2095 44.6526 56.965 45.2496 56.857 45.8903C56.8255 46.0788 56.8592 46.1972 56.9582 46.2454C56.982 46.2579 57.0107 46.2555 57.0359 46.2391C57.061 46.2227 57.0797 46.1941 57.0865 46.1617C57.1225 45.9944 57.2005 45.8707 57.3205 45.7908C57.3925 45.7441 57.4397 45.7464 57.4622 45.7976C57.4777 45.8375 57.4668 45.9025 57.433 45.9718C57.1705 46.4934 57.2777 46.9367 57.7547 47.3015C58.4912 47.8609 59.131 48.4707 59.674 49.1311C59.7147 49.1801 59.7769 49.2059 59.8403 49.2001C59.9036 49.1942 59.9601 49.1574 59.9912 49.1017C61.1537 46.9909 62.1482 44.8041 62.9747 42.5411C63.0782 42.2546 63.1097 41.9953 63.0692 41.7631C63.0557 41.6787 63.058 41.6048 63.076 41.5415C63.154 41.2713 63.2397 41.0041 63.333 40.7397L63.4045 40.5419C63.4222 40.4934 63.4403 40.4427 63.4588 40.3899L63.5153 40.2248L63.5741 40.0467C63.584 40.016 63.5941 39.9847 63.6043 39.9528L63.6664 39.7552L63.7307 39.5446C64.0037 38.637 64.417 37.7603 64.9705 36.9145C65.296 36.4185 65.737 36.1969 66.2935 36.2496C66.3754 36.2581 66.4489 36.2372 66.4915 36.1931L66.9955 35.6707C67.2118 35.4475 67.3415 35.4653 67.3845 35.7244ZM116.027 77.3566C116.183 77.3943 116.203 77.4546 116.086 77.5376C116.023 77.5819 115.942 77.5759 115.901 77.524C115.876 77.4908 115.869 77.4561 115.881 77.42C115.898 77.3687 115.962 77.3413 116.027 77.3566ZM135.857 72.8156C135.776 73.3489 135.747 73.7909 135.77 74.1417L135.776 74.2154C135.86 75.1427 135.863 76.0782 135.787 77.0219L135.774 77.1715L135.763 77.2606L135.753 77.3299L135.745 77.3652C135.744 77.3703 135.743 77.3751 135.742 77.3795L135.734 77.4016C135.725 77.4252 135.714 77.4253 135.704 77.4021L135.696 77.3802L135.688 77.3496C135.687 77.3438 135.686 77.3376 135.684 77.331L135.672 77.262L135.66 77.1733L135.643 77.0242C135.58 76.4166 135.57 75.7314 135.614 74.9685L135.615 74.935L135.613 74.8365L135.608 74.6961L135.597 74.5139L135.573 74.1621L135.557 73.9508C135.532 73.6267 135.567 73.2814 135.663 72.9151C135.686 72.8307 135.72 72.7711 135.767 72.7364C135.843 72.6822 135.873 72.7085 135.857 72.8156ZM100.552 46.3766C101.026 46.4082 101.454 46.5515 101.837 46.8062C102.353 47.15 102.639 47.637 102.696 48.2672C102.752 48.8898 102.597 49.4899 102.233 50.0673C102.159 50.1841 102.12 50.3221 102.12 50.4653L102.136 54.5858C102.136 54.7133 102.21 54.8955 102.343 55.0925L102.993 56.0195C103.024 56.0635 103.017 56.1413 102.975 56.2163L102.424 57.2091C102.374 57.2977 102.37 57.4102 102.413 57.5144C102.65 58.0888 102.675 58.6866 102.489 59.3077C102.463 59.3933 102.477 59.4862 102.527 59.5604C102.576 59.6347 102.657 59.6823 102.746 59.6899C103.977 59.7955 105.004 60.2613 105.826 61.0875C106.253 61.5172 106.568 62.0841 106.771 62.7882C107.515 65.3813 107.204 67.8855 105.837 70.3008C105.62 70.6838 105.248 71.0923 104.721 71.5265L104.399 71.7898L104.112 72.0205L103.92 72.172L103.747 72.3052L103.593 72.4201L103.502 72.4865L103.423 72.5419C102.907 72.8993 102.366 73.1367 101.801 73.2543C99.8882 73.6522 98.1074 73.7359 96.4583 73.5054L96.2882 73.4805C95.7092 73.3915 95.2007 73.3817 94.7627 73.4511C94.5182 73.4903 94.2617 73.6184 93.9932 73.8355C93.7637 74.0225 93.5282 74.2026 93.2867 74.376C93.2278 74.418 93.1548 74.4343 93.0842 74.4212L92.686 74.3489C92.6332 74.3392 92.5761 74.3411 92.5146 74.3547L92.4677 74.367C92.1977 74.4469 92.035 74.376 91.9795 74.1544C91.9579 74.0716 91.9624 73.9437 91.993 73.7705L92.0042 73.7111C92.0477 73.4865 92.0807 73.2596 92.1032 73.0304C92.1242 72.7998 92.0912 72.5789 92.0042 72.3678C91.7057 71.6532 91.2737 71.029 90.7082 70.4953C90.5252 70.3219 90.5372 70.1712 90.7442 70.043C90.8025 70.0075 90.8337 69.9421 90.823 69.8779L90.3437 67.1754C90.3309 67.1013 90.2868 67.0364 90.2233 66.9984C90.1598 66.9604 90.0836 66.9532 90.0152 66.9787C89.6235 67.1243 89.3457 67.1045 89.1819 66.9191L89.1602 66.8928C89.1133 66.8309 89.0553 66.7859 88.9937 66.7639C88.6907 66.6598 88.5722 66.4487 88.6382 66.1306L88.6581 66.0431C88.6619 66.0278 88.6659 66.012 88.6701 65.996L88.6983 65.895L88.7318 65.785C88.7379 65.7659 88.7442 65.7465 88.7507 65.7266L88.7925 65.6032L88.8397 65.4708L88.8924 65.3294L88.9506 65.1791L89.0143 65.0198L89.0834 64.8515L89.158 64.6742C89.3875 64.1374 89.4785 63.6497 89.431 63.2111L89.4212 63.1342C89.3291 62.5046 89.4477 61.9882 89.7772 61.5851L89.8195 61.5353C89.959 61.377 90.0595 61.1968 90.121 60.9948C90.3595 60.1973 90.844 59.7676 91.5745 59.7058C91.6494 59.6999 91.7173 59.6666 91.7635 59.613L92.3118 58.9837L92.5296 58.736L92.8695 58.3528L93.1208 58.0728L93.3538 57.8164L93.5683 57.5835L93.8107 57.3256L93.9839 57.1459L94.1388 56.9897L94.2428 56.8881L94.3366 56.7997L94.42 56.7246L94.4455 56.7025C94.7854 56.4117 94.8331 56.0957 94.5886 55.7545L94.5602 55.7165C94.1192 55.1481 93.8417 54.5579 93.7277 53.9458C93.6752 53.6683 93.5125 53.4942 93.2395 53.4234C92.725 53.2922 92.689 52.9959 93.1315 52.5346C93.2421 52.4192 93.4179 52.3775 93.5882 52.426L95.0957 52.8535C95.1419 52.8669 95.1918 52.8586 95.2334 52.8307C95.2749 52.8027 95.3041 52.7576 95.314 52.7065L95.9597 49.2871C96.0057 49.0491 95.9656 48.8261 95.8396 48.618L95.809 48.5702C95.5495 48.1842 95.6717 47.9875 96.1757 47.98C96.2475 47.9799 96.3154 47.9495 96.3625 47.8963C97.141 47.0203 98.0957 46.5281 99.2267 46.4195C99.7697 46.3668 100.211 46.3524 100.552 46.3766ZM71.9162 72.3565C71.9162 72.4032 71.9275 72.4417 71.95 72.4718C71.9995 72.5367 72.0475 72.5457 72.094 72.499C72.1398 72.4558 72.1426 72.376 72.1007 72.309L72.0693 72.2609C71.9795 72.1315 71.9292 72.1364 71.9183 72.2757L71.9162 72.3271C71.9161 72.3365 71.9161 72.3463 71.9162 72.3565ZM130.736 71.8635C130.806 71.9494 130.793 72.012 130.695 72.0512C130.622 72.0814 130.542 72.0699 130.493 72.0218C130.433 71.9645 130.454 71.9035 130.558 71.8386C130.617 71.8002 130.694 71.811 130.736 71.8635ZM104.237 60.6406C104.212 60.6496 104.193 60.6705 104.188 60.6963C104.166 60.7979 104.17 60.8983 104.2 60.9976L104.215 61.04C104.239 61.1034 104.22 61.1214 104.159 61.0943C103.346 60.7415 102.529 60.6111 101.708 60.7031C101.552 60.7212 101.521 60.7935 101.614 60.9202C102.313 61.8625 102.304 62.7565 101.587 63.6023C100.651 64.7059 99.7615 65.8457 98.9185 67.0217L98.7797 67.2176C98.7562 67.2512 98.7325 67.2852 98.7086 67.3197L98.5629 67.5321L98.4126 67.7554L98.2576 67.9898L98.098 68.2351L97.9338 68.4914L97.7649 68.7586L97.5914 69.0369L97.4132 69.3261C96.9332 70.1101 96.4517 70.8933 95.9687 71.6758C95.9554 71.6967 95.9537 71.7231 95.9642 71.7455C95.9747 71.768 95.9959 71.7835 96.0205 71.7866C97.651 72.0308 99.274 72.0316 100.889 71.7889C101.632 71.6773 102.257 71.4934 102.764 71.2371C103.353 70.9385 103.893 70.5549 104.384 70.086C104.702 69.7814 104.989 69.3156 105.245 68.6884C106.184 66.3952 106.222 64.1624 105.358 61.9899C105.122 61.3973 104.775 60.9511 104.316 60.6511C104.293 60.6354 104.263 60.6315 104.237 60.6406ZM100.128 61.0513L98.14 61.481C97.914 61.5298 97.7658 61.7362 97.807 61.9446C97.888 62.3517 97.9045 62.755 97.8565 63.1545C97.816 63.4832 97.6862 63.8571 97.4672 64.2762C96.7592 65.6346 95.914 66.8995 94.9315 68.071C94.486 68.6017 94.0967 68.9394 93.7637 69.0841C93.2567 69.3058 92.7077 69.3125 92.1167 69.1045C92.0372 69.0773 92.0072 69.1045 92.0267 69.1859C92.1182 69.5854 92.2982 69.8696 92.5667 70.0385C93.1097 70.3807 93.5657 70.4154 93.9347 70.1425L93.9446 70.1346L93.9683 70.1127L93.9975 70.0827L94.032 70.0444L94.072 69.998L94.1421 69.9131L94.2243 69.8098L94.3884 69.5969L94.5863 69.3329L94.675 69.213C96.5725 66.6334 98.4107 63.9528 100.19 61.1712C100.251 61.0741 100.231 61.0341 100.128 61.0513ZM130.796 69.5025C130.749 69.5449 130.733 69.6236 130.756 69.7038L130.764 69.7315L130.78 69.7794C130.825 69.9011 130.866 69.9029 130.905 69.7848L130.918 69.7382L130.932 69.6815C130.934 69.6713 130.936 69.6606 130.938 69.6495C130.951 69.5841 130.937 69.5246 130.902 69.4957C130.868 69.4671 130.832 69.4693 130.796 69.5025ZM131.896 60.6032L131.908 60.633C132.131 61.1712 132.228 61.6084 132.198 61.9446C132.026 63.8397 132.059 65.7311 132.297 67.6187C132.342 67.9715 132.426 68.2496 132.549 68.4532L132.58 68.5028L132.608 68.5431C132.676 68.6381 132.707 68.6337 132.701 68.5299L132.697 68.4863L132.689 68.4334L132.684 68.4034C132.636 68.1366 132.595 67.8712 132.56 67.6074C132.529 67.3631 132.515 67.0948 132.52 66.8023C132.547 64.8921 132.55 63.0181 132.529 61.1802C132.528 61.0779 132.491 60.9796 132.425 60.9021L132.355 60.8197L132.258 60.7086L132.171 60.6126L132.119 60.5569L132.071 60.508L132.027 60.4657L131.988 60.43L131.954 60.4011C131.862 60.3286 131.824 60.3365 131.839 60.4249L131.846 60.4595C131.85 60.4721 131.854 60.4858 131.858 60.5007L131.875 60.5486L131.896 60.6032ZM96.7324 62.039L96.7112 62.06C95.6477 63.1394 94.549 64.1556 93.415 65.1084C93.1995 65.2894 92.9277 65.4803 92.5994 65.6811L92.4992 65.7417C92.4379 65.7782 92.3746 65.8165 92.3092 65.8566L92.1072 65.9822L91.8932 66.1186C91.8566 66.1422 91.8194 66.1663 91.7817 66.1908L91.5497 66.3432C91.3718 66.4596 91.3242 66.5973 91.4067 66.7564L91.4237 66.7865C91.4659 66.8568 91.4865 66.9285 91.4822 66.99C91.4462 67.4272 91.4905 67.8577 91.615 68.2813C91.6669 68.4576 91.7348 68.4688 91.8187 68.315L91.8443 68.2639L91.8709 68.2029C91.8799 68.181 91.8891 68.1573 91.8985 68.132C91.9444 68.0107 91.9645 67.8853 91.9588 67.7558L91.9547 67.7001C91.9158 67.3116 92.0488 67.1224 92.3538 67.1326L92.3912 67.1347C92.6492 67.1558 92.8045 67.0119 92.857 66.7028L93.0277 65.7139L93.0357 65.6763C93.0474 65.6288 93.0577 65.6215 93.0664 65.6543L93.0721 65.6821L93.0773 65.7219L93.2507 67.6029C93.2747 67.8682 93.3775 67.9051 93.559 67.7137C94.7455 66.4623 95.764 65.0783 96.6145 63.5616C96.8755 63.0957 96.9932 62.6276 96.9677 62.1572C96.9563 61.9399 96.8778 61.9005 96.7324 62.039ZM65.3507 60.7031C64.8908 60.9342 64.6826 61.293 64.7261 61.7793L64.732 61.8338C64.7369 61.873 64.7411 61.9174 64.7446 61.967L64.7508 62.0731L64.7552 62.193C64.7558 62.2142 64.7563 62.2359 64.7568 62.2582L64.7585 62.3988L64.7586 62.5266L64.7572 62.683L64.7521 62.9408L64.7435 63.2263L64.7313 63.5395L64.7212 63.7637L64.7095 64.0003C64.6945 64.2973 64.7335 64.5318 64.8265 64.7036C64.9495 64.9268 65.1242 65.1062 65.3507 65.2419C65.4156 65.2812 65.4459 65.3519 65.4205 65.4047L65.3057 65.6444C65.2698 65.7179 65.2592 65.7903 65.2765 65.8434C65.4265 66.2927 65.4227 66.7782 65.2652 67.2998C65.2419 67.377 65.258 67.461 65.3081 67.5228C65.3581 67.5845 65.4352 67.6155 65.5127 67.6051L67.0967 67.3948C67.1732 67.3858 67.1815 67.3549 67.1215 67.3021C66.3505 66.6402 65.7745 65.8487 65.3935 64.9275C65.215 64.4978 65.1257 63.9664 65.1257 63.3332V61.5511C65.1257 61.3808 65.2525 61.1765 65.506 60.9383C65.56 60.887 65.5915 60.835 65.6005 60.7822C65.6305 60.6299 65.5472 60.6036 65.3507 60.7031ZM67.6862 67.284C67.6725 67.3366 67.7165 67.4033 67.792 67.4446C67.9315 67.5214 67.9787 67.5011 67.9337 67.3835C67.9122 67.33 67.87 67.2875 67.8167 67.2659C67.7417 67.2342 67.6982 67.2403 67.6862 67.284ZM130.572 62.0483C130.547 62.0612 130.529 62.0871 130.524 62.1165L130.515 62.1743L130.498 62.2992C130.495 62.3211 130.493 62.3434 130.49 62.3663L130.475 62.5097L130.462 62.6655C130.46 62.6925 130.458 62.72 130.456 62.748L130.445 62.9223L130.436 63.1089L130.428 63.3079L130.421 63.5192L130.416 63.7433L130.413 63.9629L130.412 64.1717L130.413 64.3697C130.414 64.4018 130.414 64.4334 130.415 64.4646L130.42 64.6463L130.427 64.8172C130.428 64.8448 130.43 64.8719 130.431 64.8986L130.442 65.0532C130.444 65.0781 130.446 65.1025 130.448 65.1265L130.463 65.2649C130.47 65.3314 130.479 65.3938 130.488 65.4522C130.527 65.6951 130.495 66.0708 130.393 66.5793L130.358 66.7443C130.352 66.7726 130.345 66.8012 130.339 66.8301L130.297 67.0084C130.29 67.0388 130.282 67.0696 130.274 67.1008C130.265 67.1385 130.265 67.1717 130.272 67.2003C130.287 67.2651 130.317 67.2855 130.362 67.2614C130.397 67.2447 130.423 67.1988 130.432 67.1402L130.434 67.1144C130.446 66.8837 130.526 66.69 130.673 66.5332C130.726 66.4765 130.757 66.4078 130.758 66.341C130.791 65.0414 130.799 63.7418 130.783 62.4422C130.781 62.2522 130.736 62.1225 130.646 62.0532C130.625 62.0372 130.597 62.0353 130.572 62.0483ZM119.373 63.3581L119.206 63.4455L119.05 63.5289L118.906 63.6083C118.883 63.6212 118.86 63.634 118.838 63.6465L118.711 63.7199L118.596 63.7892L118.492 63.8546L118.399 63.9159L118.318 63.9732C118.306 63.9824 118.294 63.9914 118.282 64.0003C117.943 64.2551 117.674 64.5973 117.476 65.027C117.35 65.3025 117.427 65.426 117.709 65.3975L117.744 65.3934C118.01 65.3566 118.24 65.4358 118.433 65.631L118.471 65.6716C118.586 65.7997 118.655 65.7741 118.676 65.5947L118.712 65.2916C118.721 65.2132 118.754 65.208 118.813 65.2758L119.564 66.1487C119.608 66.1998 119.676 66.2366 119.756 66.2528C120.734 66.4397 121.712 66.4224 122.69 66.2007C122.767 66.1832 122.824 66.1213 122.831 66.047L123.135 63.1477C123.144 63.0622 123.084 62.983 122.996 62.9646C121.634 62.6796 120.426 62.8108 119.373 63.3581ZM144.672 51.9149L144.651 51.916L144.542 51.9273L144.214 51.9672L143.615 52.0438C143.027 52.1207 142.443 52.221 141.864 52.3446C141.729 52.3733 141.66 52.4283 141.657 52.5097C141.656 52.5377 141.67 52.5641 141.697 52.5814C141.723 52.5986 141.758 52.6047 141.792 52.5979L143.22 52.3348L143.753 52.2418L143.876 52.2225C144.107 52.1893 144.347 52.2029 144.598 52.2632C144.673 52.2822 144.727 52.338 144.735 52.4034C144.75 52.5165 144.689 52.5715 144.551 52.5685C144.048 52.5546 143.558 52.6171 143.079 52.7561L142.96 52.7924C142.649 52.89 142.332 52.9611 142.01 53.0056L141.871 53.0231C141.536 53.0608 141.422 53.2296 141.527 53.5296C141.554 53.6095 141.563 53.6819 141.554 53.7467L141.53 53.9208L141.51 54.0852L141.492 54.2399L141.478 54.3848L141.466 54.5201L141.457 54.6456C141.455 54.6657 141.454 54.6854 141.453 54.7048L141.448 54.8157L141.446 54.917C141.446 54.9973 141.448 55.0675 141.453 55.1276L141.457 55.1624C141.646 56.7661 141.633 58.3662 141.418 59.963L141.373 60.2814L141.35 60.4551L141.319 60.7288L141.278 61.1386L141.243 61.5205C141.24 61.5543 141.237 61.5887 141.234 61.6235L141.223 61.747L141.208 61.8824L141.189 62.0295L141.168 62.1885L141.143 62.3594L141.099 62.6378L141.066 62.8382L141.029 63.0505C140.917 63.6897 140.858 64.335 140.854 64.9863C140.852 65.0582 140.886 65.126 140.944 65.1672C141.52 65.5788 142.146 65.759 142.823 65.7077C143.208 65.6791 143.555 65.514 143.864 65.2125C144.442 64.6486 144.919 63.9415 145.295 63.0912C145.856 61.8263 146.425 60.5644 147.001 59.3055C147.529 58.1521 147.84 56.903 147.935 55.5582C147.94 55.4728 147.885 55.3801 147.791 55.3162L147.404 55.0561C147.354 55.0227 147.324 54.9503 147.327 54.8662C147.335 54.5812 147.29 54.3596 147.194 54.2013C147.059 53.9793 146.981 53.7765 146.959 53.5931L146.954 53.5387C146.95 53.4572 146.916 53.3888 146.864 53.3578L145.79 52.711C145.723 52.6696 145.67 52.6164 145.637 52.5572C145.414 52.1456 145.092 51.9315 144.672 51.9149ZM135.672 63.1886L135.665 63.1935C135.645 63.206 135.631 63.2259 135.626 63.2487C135.621 63.2715 135.625 63.2955 135.637 63.3152L136.568 64.7893C136.581 64.8091 136.6 64.823 136.623 64.8281C136.646 64.8332 136.67 64.829 136.689 64.8165L136.697 64.8117C136.717 64.7991 136.73 64.7793 136.736 64.7564C136.741 64.7336 136.736 64.7097 136.724 64.6899L135.793 63.2159C135.781 63.1961 135.761 63.1821 135.738 63.177C135.716 63.1719 135.692 63.1761 135.672 63.1886ZM131.642 62.0616L131.645 62.1595C131.67 62.9133 131.666 63.6679 131.633 64.4232C131.629 64.5001 131.669 64.5665 131.728 64.5815C131.822 64.6041 131.878 64.5363 131.894 64.378C131.96 63.7161 131.981 62.9321 131.955 62.026C131.952 61.9311 131.933 61.8436 131.897 61.7637L131.869 61.7044L131.844 61.6532C131.835 61.6375 131.827 61.6231 131.819 61.61L131.797 61.5749C131.745 61.5024 131.707 61.4957 131.681 61.5549L131.671 61.5843C131.666 61.601 131.662 61.6207 131.658 61.6434L131.651 61.693L131.646 61.7506L131.643 61.8162L131.641 61.8899L131.641 61.9717L131.642 62.0616ZM90.9895 60.4181C90.787 60.4905 90.6377 60.6669 90.5417 60.9473C90.3737 61.4433 90.3152 61.9567 90.3662 62.4874C90.3707 62.5317 90.3744 62.5831 90.3773 62.6415L90.382 62.7678C90.391 63.1462 90.5057 63.1802 90.7262 62.8696L90.7338 62.8568L90.752 62.8208L90.7742 62.7708L90.8005 62.7067C90.832 62.6238 90.8815 62.5846 90.949 62.5891C90.9764 62.5916 91.0004 62.6092 91.014 62.637C91.0275 62.6647 91.0293 62.6996 91.0187 62.7316C90.9527 62.9412 91.0067 63.0098 91.1807 62.9374C91.2302 62.9163 91.2835 62.8794 91.3405 62.8266C91.933 62.2884 92.5705 61.812 93.253 61.3973C93.334 61.3476 93.352 61.3627 93.307 61.4426C93.268 61.5119 93.2072 61.5813 93.1247 61.6506C92.3957 62.2642 91.804 62.9909 91.3495 63.8307C91.3358 63.8559 91.3233 63.8798 91.3118 63.9026L91.2804 63.9674C91.1534 64.2428 91.2188 64.3015 91.4765 64.1436L91.5369 64.1049C91.5475 64.0979 91.5584 64.0905 91.5695 64.0829L91.6037 64.0591C92.6897 63.2947 93.7915 62.3864 94.909 61.334C94.9268 61.3168 94.9345 61.2916 94.9295 61.2672C94.9245 61.2429 94.9074 61.2229 94.8842 61.2142C94.2212 60.9775 93.5657 60.945 92.9177 61.1169C92.4032 61.2511 92.0372 61.0958 91.8197 60.6511C91.7832 60.5777 91.7334 60.5214 91.678 60.4905C91.438 60.3638 91.2085 60.3397 90.9895 60.4181ZM134.732 60.2689C134.99 61.4855 135.513 62.5643 136.302 63.5051C136.439 63.6664 136.53 63.6965 136.577 63.5955C136.602 63.5414 136.588 63.4644 136.541 63.3942C135.878 62.4022 135.335 61.3499 134.912 60.2372C134.897 60.1965 134.877 60.1611 134.853 60.1309C134.738 59.9814 134.691 59.9884 134.711 60.152L134.72 60.2057C134.723 60.2252 134.727 60.2463 134.732 60.2689ZM133.96 58.8487C134.072 59.9116 134.366 60.9202 134.84 61.8745C134.856 61.9077 134.877 61.9288 134.903 61.9378C134.92 61.9421 134.937 61.9348 134.948 61.9187C134.96 61.9026 134.964 61.8799 134.959 61.8587C134.732 60.8255 134.47 59.8768 134.173 59.0127L134.091 58.779L134.067 58.7147L134.045 58.6599L134.026 58.6146C134.019 58.6011 134.013 58.5891 134.008 58.5788L133.993 58.5524C133.966 58.5128 133.951 58.5211 133.946 58.5771L133.945 58.6125C133.944 58.6191 133.944 58.6262 133.945 58.6337L133.946 58.6832L133.95 58.7423L133.96 58.8487ZM136.79 54.8209L134.808 55.9268C134.738 55.9657 134.696 56.043 134.7 56.1258C134.79 58.1989 135.479 60.0359 136.766 61.6371C136.935 61.8481 137.018 61.818 137.015 61.5466C137.008 60.9596 137.015 60.4008 137.038 59.8703L137.049 59.6447C137.129 58.0752 137.136 56.5216 137.072 54.9838C137.068 54.9168 137.031 54.856 136.974 54.8229C136.917 54.7898 136.848 54.789 136.79 54.8209ZM115.919 58.7265C115.27 59.1155 114.703 59.6002 114.218 60.1807C113.878 60.5862 113.711 61.0054 113.719 61.4381C113.72 61.5165 113.746 61.5255 113.795 61.4652C114.402 60.7227 115.021 59.9922 115.653 59.2738L116.057 58.8182L116.097 58.7709L116.13 58.7297L116.156 58.6945C116.16 58.6892 116.163 58.6841 116.166 58.6792L116.18 58.6532C116.2 58.611 116.183 58.5994 116.128 58.6184L116.095 58.6318C116.089 58.6345 116.082 58.6375 116.075 58.6408L116.031 58.6633L115.979 58.6919L115.919 58.7265ZM102.471 60.1288C102.333 60.1307 102.252 60.1495 102.247 60.1809C102.244 60.2066 102.291 60.2391 102.38 60.2734L102.446 60.2965C102.578 60.339 102.76 60.379 102.951 60.4078C103.142 60.4365 103.327 60.4515 103.466 60.4496C103.604 60.4477 103.685 60.429 103.689 60.3975C103.693 60.3718 103.646 60.3393 103.557 60.305L103.491 60.282C103.359 60.2394 103.177 60.1994 102.986 60.1707C102.795 60.1419 102.61 60.1269 102.471 60.1288ZM96.0227 59.8098C95.7902 59.8731 95.7662 59.9598 95.9507 60.0699C96.0139 60.1087 96.0914 60.1095 96.151 60.0721C96.244 60.0133 96.2642 59.9447 96.2117 59.8663C96.1739 59.8122 96.0984 59.7896 96.0227 59.8098ZM94.1575 57.5998L94.1012 57.6614L93.9944 57.7818C93.9774 57.8012 93.9608 57.8203 93.9446 57.8391L93.8522 57.9481C93.823 57.9831 93.7954 58.0169 93.7694 58.0494L93.6962 58.1431C93.6278 58.2329 93.5738 58.3113 93.5342 58.3783C93.3947 58.615 93.4607 58.7175 93.7322 58.6858C94.2992 58.6225 94.528 58.4242 94.4185 58.0911C94.3938 58.0181 94.3922 57.9452 94.414 57.8853L94.4543 57.765L94.4761 57.6933C94.4794 57.6819 94.4826 57.6708 94.4855 57.66L94.5014 57.5986L94.5132 57.5441L94.521 57.4963C94.5395 57.3559 94.4976 57.3183 94.3955 57.3834L94.3612 57.4074C94.3552 57.4119 94.349 57.4168 94.3426 57.4219L94.3023 57.4562C94.2953 57.4624 94.2881 57.469 94.2807 57.4758L94.2344 57.5203C94.2264 57.5283 94.2182 57.5366 94.2098 57.5451L94.1575 57.5998ZM67.6997 58.3285C67.5806 58.387 67.5724 58.4221 67.6752 58.4337L67.7222 58.4371C68.0582 58.4521 68.329 58.4197 68.5345 58.3398L68.5825 58.3197L68.6195 58.301C68.6878 58.262 68.6784 58.2329 68.5914 58.2136L68.5457 58.2054C68.5372 58.2042 68.5282 58.203 68.5187 58.2019C68.2202 58.1672 67.9472 58.2094 67.6997 58.3285ZM70.762 58.1091C70.705 58.1242 70.6645 58.1627 70.6405 58.2245C70.5955 58.3361 70.6532 58.3654 70.8137 58.3127C70.8469 58.3014 70.8746 58.2782 70.8897 58.2492C70.9048 58.2201 70.9058 58.1881 70.8925 58.1612C70.867 58.1084 70.8235 58.0911 70.762 58.1091ZM58.306 54.3754C57.868 55.7293 57.2957 57.0206 56.5892 58.2494C56.5793 58.2663 56.576 58.2839 56.5802 58.2969C56.5817 58.3059 56.5862 58.3127 56.5937 58.3172C56.609 58.3298 56.6382 58.3219 56.6612 58.2991C57.0992 57.8589 57.4427 57.3606 57.6917 56.8043L57.7393 56.6999L57.8323 56.5003C57.8476 56.4681 57.8627 56.4363 57.8778 56.4051L57.9667 56.2241L58.0528 56.0555C58.1235 55.9201 58.1912 55.7976 58.2561 55.688L58.2947 55.6238C58.5242 55.2544 58.732 54.8624 58.918 54.4478C58.9377 54.404 58.9394 54.3541 58.9225 54.3092C58.9056 54.2642 58.8716 54.2278 58.828 54.2081C58.5565 54.0845 58.3825 54.1402 58.306 54.3754ZM64.2122 51.587L64.1951 51.6332L64.1777 51.6869C64.1747 51.6964 64.1718 51.7063 64.1688 51.7165L64.1508 51.7816L64.123 51.8934L64.0945 52.0223L64.0551 52.2206L64.0349 52.3311L63.9934 52.5749L63.9612 52.7776L63.9171 53.0744L63.8945 53.2342L63.8364 53.6668L63.7759 54.1468L63.7259 54.5648L63.6875 54.8982C63.6832 54.9362 63.6788 54.9745 63.6745 55.0132C63.6191 55.5071 63.5158 55.99 63.3644 56.4619L63.3122 56.6188C63.1472 57.0952 63.166 57.4247 63.3685 57.6071C63.5485 57.7714 63.6452 57.7239 63.6587 57.4646C63.6947 56.7396 63.7704 56.0194 63.8858 55.3039L63.9573 54.8763L63.994 54.6317L64.0226 54.4243L64.0623 54.1159L64.1037 53.7711L64.1468 53.3897L64.2031 52.8618L64.2742 52.1531L64.3112 51.7679L64.3179 51.692L64.3239 51.5963L64.3253 51.5446C64.3253 51.5368 64.3253 51.5294 64.3252 51.5224L64.3234 51.4853C64.3182 51.426 64.3023 51.4157 64.2758 51.4542L64.2603 51.48L64.2426 51.5155L64.2229 51.5608C64.2194 51.5691 64.2159 51.5779 64.2122 51.587ZM133.679 56.7432C133.642 56.805 133.626 56.8801 133.631 56.9581L133.643 57.0945L133.655 57.215L133.667 57.3194L133.676 57.3801L133.686 57.4337L133.695 57.4801C133.697 57.4873 133.699 57.4942 133.7 57.5007L133.711 57.5365C133.712 57.5419 133.714 57.5469 133.716 57.5517L133.727 57.5768C133.752 57.6271 133.781 57.6191 133.813 57.553L133.826 57.5212L133.84 57.4822L133.855 57.436L133.877 57.3535L133.9 57.2549L133.924 57.1403L133.949 57.0097C133.952 56.9943 133.955 56.9786 133.958 56.9626C133.971 56.8857 133.97 56.8171 133.955 56.7568C133.901 56.5276 133.809 56.5231 133.679 56.7432ZM83.568 57.1159C83.5562 57.1408 83.5812 57.1821 83.6376 57.2308C83.694 57.2794 83.7771 57.3314 83.8687 57.3753C84.0593 57.4667 84.2338 57.4988 84.2585 57.447C84.2703 57.4221 84.2452 57.3807 84.1889 57.3321C84.1325 57.2834 84.0493 57.2314 83.9578 57.1875C83.7671 57.0961 83.5926 57.0641 83.568 57.1159ZM99.679 54.5835C98.905 54.6845 98.182 54.9333 97.51 55.3298C97.4447 55.3689 97.4058 55.4342 97.4087 55.4994L97.456 56.7432C97.4569 56.7702 97.4713 56.7949 97.4949 56.8103C97.5186 56.8257 97.549 56.8302 97.5775 56.8224L99.409 56.2706C99.7285 56.1741 99.8882 55.9653 99.8882 55.6441V54.7667C99.8881 54.7133 99.865 54.6625 99.8249 54.6274C99.7848 54.5923 99.7316 54.5763 99.679 54.5835ZM57.8524 54.5173L56.8151 56.4782C56.8 56.5069 56.8108 56.5425 56.8393 56.5577L56.9029 56.5917C56.9314 56.6069 56.9668 56.5961 56.982 56.5674L58.0193 54.6065C58.0345 54.5779 58.0236 54.5423 57.9951 54.527L57.9316 54.493C57.903 54.4778 57.8676 54.4887 57.8524 54.5173ZM86.4422 55.3592C86.4767 55.3939 86.5112 55.415 86.5457 55.4225C86.6162 55.4361 86.6552 55.4104 86.6627 55.3456C86.6703 55.2829 86.6218 55.2207 86.548 55.1986L86.5172 55.19L86.4627 55.1769C86.2876 55.1401 86.2808 55.2009 86.4422 55.3592ZM85.3403 54.8665L85.3937 54.9182C85.4747 54.9966 85.5325 55.0162 85.567 54.977C85.5843 54.9582 85.588 54.9302 85.5771 54.9005C85.5663 54.8708 85.5419 54.8425 85.5107 54.8232L85.4436 54.7827L85.3569 54.7328L85.3086 54.7067L85.2678 54.6864L85.2345 54.6718C85.1756 54.6484 85.1618 54.6596 85.1932 54.7053L85.2127 54.7311L85.2398 54.7626L85.2743 54.7998L85.3403 54.8665ZM94.1057 54.0498C94.2782 54.288 94.4627 54.5254 94.6592 54.7622C94.8887 55.0381 95.0357 54.9845 95.1002 54.6016C95.1205 54.4816 95.074 54.3688 94.9855 54.3234L94.2025 53.9164C94.019 53.8214 93.9761 53.8502 94.0739 54.0028L94.1057 54.0498ZM77.8896 52.3323C77.884 52.3411 77.8938 52.3593 77.9172 52.3855L77.9451 52.4144L77.9816 52.4483L78.0264 52.487L78.0791 52.5302L78.1721 52.6028L78.2807 52.6839L78.4035 52.7725L78.5392 52.8676L78.6866 52.9684L78.899 53.1096L79.1265 53.2567L79.2754 53.3507L79.4531 53.4608L79.6263 53.5656L79.7928 53.6639L79.9503 53.7544L80.0969 53.8359L80.2113 53.8971L80.3354 53.9602L80.4062 53.994C80.4171 53.999 80.4277 54.0038 80.4378 54.0082L80.4936 54.0316C80.561 54.0581 80.6005 54.0658 80.6084 54.0531C80.6139 54.0443 80.6041 54.0261 80.5807 53.9998L80.5529 53.971L80.5163 53.9371L80.4715 53.8984L80.4188 53.8551L80.3259 53.7825L80.2173 53.7015L80.0945 53.6129L79.9587 53.5177L79.8113 53.417L79.599 53.2758L79.3714 53.1287L79.2226 53.0346L79.0448 52.9246L78.8716 52.8197L78.7052 52.7214L78.5476 52.6309L78.4011 52.5495L78.2867 52.4882L78.1626 52.4251L78.0918 52.3914C78.0808 52.3864 78.0703 52.3816 78.0601 52.3771L78.0044 52.3537C77.937 52.3272 77.8975 52.3196 77.8896 52.3323ZM121.623 47.2269C120.675 47.6053 119.753 48.1013 118.858 48.7149C118.511 48.9521 118.163 49.1883 117.815 49.4235L117.292 49.7756C116.834 50.0801 116.453 50.3696 116.149 50.644L116.081 50.7056L115.952 50.825C115.931 50.8445 115.911 50.8637 115.891 50.8828L115.775 50.9944L115.668 51.1008C115.43 51.343 115.265 51.5428 115.175 51.7001C114.872 52.2263 114.705 52.8482 114.675 53.5658C114.672 53.6382 114.702 53.6563 114.765 53.6201C116.063 52.8844 117.435 52.2376 118.883 51.6797C119.068 51.6079 119.231 51.4707 119.346 51.2885L121.785 47.4282C121.935 47.1899 121.881 47.1229 121.623 47.2269ZM145.561 53.057C145.598 53.0645 145.637 53.0796 145.676 53.1022L145.777 53.1612L145.861 53.2128L145.907 53.243L145.946 53.2699L145.977 53.2934C145.986 53.3007 145.994 53.3074 146 53.3136L146.016 53.3305C146.034 53.3534 146.027 53.365 145.993 53.3655L145.967 53.3641C145.962 53.3636 145.957 53.3629 145.951 53.3622L145.913 53.3558L145.868 53.3461L145.786 53.3253L145.686 53.2971L145.61 53.2741C145.568 53.2605 145.531 53.2402 145.498 53.213L145.455 53.1755C145.328 53.0581 145.363 53.0186 145.561 53.057ZM135.58 52.4396C135.546 52.4563 135.519 52.4836 135.505 52.5141C135.492 52.5446 135.494 52.5753 135.51 52.5979C135.546 52.6462 135.613 52.6311 135.71 52.5527L135.798 52.4806L135.847 52.4386L135.906 52.3845L135.936 52.3545L135.959 52.3293L135.974 52.309C135.992 52.282 135.984 52.2713 135.952 52.2768L135.926 52.2828L135.894 52.2937L135.853 52.3094L135.779 52.342L135.72 52.3697L135.618 52.4203C135.605 52.4266 135.593 52.433 135.58 52.4396ZM97.9892 49.027C97.8794 49.1454 97.8681 49.3254 97.9622 49.4567C98.3342 49.9663 98.5937 50.5498 98.7407 51.2071C98.7554 51.2763 98.7475 51.3513 98.7182 51.4219C98.7041 51.4555 98.6909 51.4883 98.6785 51.5203L98.644 51.6137C98.628 51.6592 98.614 51.7029 98.6019 51.7447L98.5803 51.8258C98.4311 52.4423 98.7568 52.607 99.5575 52.3197C99.6179 52.2975 99.6602 52.2364 99.6655 52.1637L99.9715 48.5024C99.9768 48.4359 99.937 48.3759 99.877 48.3599C99.193 48.182 98.5637 48.4044 97.9892 49.027ZM77.1629 51.0816C77.143 51.1086 77.2 51.1913 77.3214 51.3115C77.4428 51.4317 77.6187 51.5796 77.8103 51.7226C78.002 51.8657 78.1937 51.9922 78.3433 52.0742L78.3768 52.0923L78.4379 52.1228C78.5328 52.1675 78.5927 52.181 78.608 52.1603C78.6279 52.1333 78.5709 52.0506 78.4495 51.9304C78.3281 51.8102 78.1522 51.6623 77.9606 51.5193C77.769 51.3762 77.5773 51.2497 77.4277 51.1677L77.3941 51.1496L77.333 51.1191C77.2381 51.0744 77.1782 51.0609 77.1629 51.0816ZM78.9047 51.6662C78.8747 51.6963 78.865 51.7272 78.8755 51.7589C78.8936 51.8144 78.9721 51.8452 79.06 51.8313C79.192 51.8102 79.189 51.7529 79.051 51.6594C79.0027 51.6275 78.942 51.6303 78.9047 51.6662ZM79.3705 51.3925C79.3413 51.3904 79.3127 51.4019 79.2942 51.4232C79.2757 51.4446 79.2697 51.4729 79.2782 51.4988C79.3022 51.5757 79.3465 51.636 79.411 51.6797C79.4373 51.6969 79.4697 51.7018 79.5002 51.6932C79.5307 51.6846 79.5563 51.6632 79.5707 51.6345C79.6412 51.4913 79.5745 51.4106 79.3705 51.3925ZM135.508 47.0912C135.499 47.1017 135.489 47.1141 135.478 47.1286L135.444 47.178L135.405 47.2395L135.361 47.3129L135.313 47.3984L135.26 47.4959L135.202 47.6054L135.14 47.727C135.13 47.7482 135.119 47.77 135.107 47.7923C135.019 47.9678 134.894 48.1612 134.73 48.3725L134.666 48.4526C134.288 48.9237 134.045 49.4302 133.938 49.9721L133.919 50.0741C133.856 50.451 133.767 50.7525 133.652 50.9787C133.614 51.0526 133.598 51.0488 133.604 50.9674C133.659 50.3358 133.782 49.7182 133.972 49.1144L134.025 48.9501C134.076 48.8009 134.061 48.733 133.98 48.7466C133.914 48.7573 133.858 48.8138 133.836 48.8913L133.222 51.0805C133.215 51.1031 133.222 51.1273 133.24 51.145C133.258 51.1627 133.285 51.1716 133.312 51.1687C133.435 51.1566 133.55 51.1837 133.658 51.2501C133.713 51.2842 133.782 51.2732 133.814 51.2252C134.146 50.7178 134.424 50.113 134.649 49.4107L134.693 49.269C134.888 48.6283 135.211 47.9475 135.661 47.2269C135.707 47.1528 135.721 47.0763 135.699 47.0256C135.669 46.9593 135.605 46.9811 135.508 47.0912ZM136.696 49.0723C136.651 49.1356 136.599 49.1929 136.541 49.2441C136.182 49.5565 135.925 49.8748 135.769 50.199L135.737 50.2686C135.673 50.4163 135.601 50.5377 135.521 50.6327C135.428 50.7397 135.34 50.8505 135.256 50.9651C135.093 51.1848 135.114 51.2611 135.32 51.1939L135.375 51.1741C135.385 51.1703 135.395 51.1662 135.406 51.1619L137.231 50.3817C137.305 50.3511 137.363 50.3029 137.393 50.246C137.52 50.0035 137.454 49.9222 137.196 50.0022L137.13 50.0245C137.095 50.0372 137.058 50.0522 137.018 50.0696C136.99 50.0817 136.958 50.0808 136.934 50.0674C136.909 50.0539 136.896 50.0298 136.898 50.004C136.901 49.9512 136.927 49.9158 136.977 49.8976L137 49.8909C137.386 49.7921 137.505 49.5944 137.357 49.2978L137.339 49.2645C137.296 49.1873 137.258 49.1019 137.226 49.0083L137.202 48.9366C137.121 48.6652 136.952 48.7104 136.696 49.0723ZM66.3722 50.8023C66.2657 50.8716 66.2987 50.947 66.4712 51.0284L66.5825 51.0802L66.6788 51.1225L66.7601 51.1555L66.806 51.1724L66.8452 51.185L66.8777 51.1935L66.9036 51.1979C66.9449 51.2021 66.9526 51.1853 66.9267 51.1476L66.9092 51.1249L66.8851 51.0981L66.8543 51.0672L66.8168 51.0321L66.7481 50.9716L66.6644 50.9018L66.5657 50.8226C66.5049 50.7751 66.4273 50.7669 66.3722 50.8023ZM64.453 42.471C64.4245 42.4966 64.399 42.5283 64.3765 42.566C63.088 44.7702 61.9307 47.0422 60.9047 49.3821C60.8657 49.474 60.8342 49.5607 60.8102 49.6421L60.788 49.7219C60.7846 49.7347 60.7813 49.7471 60.7782 49.7593L60.7613 49.8288L60.7478 49.8915L60.738 49.9473C60.7352 49.9647 60.7331 49.9811 60.7316 49.9962L60.7288 50.0383C60.7252 50.1673 60.7805 50.182 60.8946 50.0825L60.9306 50.0492L60.9701 50.0091C60.977 50.0019 60.984 49.9943 60.9912 49.9865L61.036 49.9361L61.0843 49.8788L61.1635 49.7801C61.2085 49.7213 61.2257 49.7296 61.2152 49.805C61.1657 50.1502 61.0847 50.4895 60.9722 50.8226C60.9452 50.9056 60.943 50.9809 60.9655 51.0488C60.994 51.1332 61.0285 51.1325 61.069 51.0465C61.2685 50.6395 61.4297 50.2188 61.5527 49.7846C61.6952 49.2796 61.8535 48.8619 62.0275 48.5318L62.0912 48.4103L62.213 48.1742L62.3276 47.9475L62.435 47.7299L62.535 47.5217C62.5511 47.4878 62.5668 47.4542 62.5823 47.4211L62.6714 47.2267C62.6998 47.1635 62.7271 47.1018 62.7532 47.0416L62.8277 46.8658C62.8395 46.8373 62.851 46.8091 62.8622 46.7814C63.4247 45.3808 63.9947 43.9839 64.5722 42.5908L64.5948 42.5337L64.6114 42.4851C64.6525 42.3523 64.6138 42.3352 64.4954 42.4338L64.453 42.471ZM115.312 50.8046C115.313 50.828 115.324 50.8499 115.341 50.8656C115.358 50.8813 115.381 50.8895 115.404 50.8882C115.619 50.8747 115.734 50.8144 115.751 50.7073C115.759 50.6453 115.71 50.5801 115.631 50.5513C115.405 50.4683 115.298 50.5528 115.312 50.8046ZM135.767 47.7606C135.711 47.7968 135.661 47.8495 135.616 47.9189C135.29 48.424 134.99 48.9441 134.716 49.4793C134.674 49.5592 134.694 49.5932 134.777 49.5811C134.87 49.5675 134.944 49.5106 135 49.4103L135.017 49.3753C135.109 49.1838 135.246 49.0549 135.429 48.9886C135.498 48.9637 135.517 48.9794 135.486 49.0356L135.476 49.0519C135.226 49.4499 135.005 49.863 134.813 50.2912C134.787 50.3485 134.774 50.405 134.774 50.4608C134.776 50.66 134.841 50.6838 134.971 50.532L135.01 50.4839C135.017 50.4751 135.024 50.4659 135.031 50.4563C135.069 50.4038 135.109 50.3376 135.152 50.2578L135.195 50.1734C135.209 50.1438 135.224 50.1126 135.239 50.0799L135.284 49.9774L135.331 49.8657L135.379 49.7449L135.429 49.615L135.479 49.476L135.532 49.3279L135.585 49.1708L135.64 49.0045L135.696 48.8291L135.782 48.5489L135.842 48.3508L135.933 48.0365L135.952 47.9638C136.015 47.7021 135.953 47.6344 135.767 47.7606ZM143.315 50.1148C143.278 50.1254 143.237 50.1306 143.194 50.1306L143.134 50.1317L143.085 50.1347C142.966 50.1456 142.955 50.1783 143.053 50.2327L143.095 50.2541L143.147 50.2776C143.181 50.2927 143.219 50.2987 143.259 50.2957C143.798 50.255 144.336 50.2332 144.875 50.2301C144.952 50.2301 145.023 50.206 145.075 50.1623C145.22 50.0402 145.2 49.9889 145.014 50.0085C144.963 50.013 144.917 50.013 144.875 50.0085C144.35 49.9392 143.83 49.9746 143.315 50.1148ZM126.796 49.2351C126.873 49.2566 126.935 49.3027 126.965 49.3617C127.013 49.4552 126.982 49.5087 126.872 49.5223C126.807 49.5293 126.736 49.5 126.681 49.4431L126.638 49.3957L126.604 49.3534C126.493 49.2082 126.557 49.1687 126.796 49.2351ZM121.119 49.0028C121.081 49.0594 121.055 49.1208 121.047 49.1734C121.038 49.2261 121.048 49.2657 121.074 49.2835C121.129 49.3206 121.238 49.2551 121.317 49.1372C121.355 49.0806 121.381 49.0192 121.39 48.9665C121.398 48.9139 121.388 48.8743 121.362 48.8565C121.307 48.8194 121.199 48.8849 121.119 49.0028ZM139.639 43.2263L139.25 43.3651L139.126 43.4068L139.108 43.4118C137.554 43.7193 136.214 44.5063 135.089 45.7728L135.071 45.7939L135.042 45.8317C134.978 45.9183 134.997 45.9468 135.099 45.9173L135.145 45.9024L135.468 45.7774C135.516 45.7584 135.564 45.7395 135.612 45.7208L135.889 45.6094C135.935 45.591 135.979 45.5728 136.024 45.5547L136.285 45.4459L136.384 45.42L136.867 45.3046C137.095 45.2503 137.272 45.1049 137.398 44.8682C137.473 44.7249 137.443 44.6465 137.308 44.633C137.279 44.6295 137.252 44.6149 137.235 44.5933C137.219 44.5717 137.214 44.5455 137.222 44.5222C137.278 44.3499 137.392 44.3087 137.565 44.3986L137.596 44.4159C137.663 44.4552 137.735 44.4704 137.801 44.4588C138.68 44.3081 139.497 43.9409 140.253 43.3575C140.319 43.3062 140.313 43.2663 140.235 43.2376C140.031 43.1607 139.832 43.157 139.639 43.2263ZM138.384 44.5633C138.315 44.5898 138.23 44.6388 138.148 44.6995C138.067 44.7601 137.995 44.8275 137.95 44.8867C137.904 44.946 137.888 44.9923 137.905 45.0154C137.922 45.0386 137.971 45.0367 138.04 45.0102C138.11 44.9836 138.195 44.9347 138.277 44.874C138.358 44.8134 138.43 44.746 138.475 44.6867C138.521 44.6275 138.537 44.5812 138.52 44.5581C138.503 44.5349 138.454 44.5368 138.384 44.5633ZM143.412 42.281C143.36 42.2825 143.305 42.2953 143.248 42.3195C142.075 42.8079 140.933 43.3628 139.823 43.9839C139.795 44.0001 139.773 44.0259 139.763 44.0556C139.752 44.0854 139.755 44.1165 139.769 44.1422C139.847 44.2854 139.982 44.3043 140.172 44.1988C141.222 43.6183 142.288 43.068 143.369 42.5479C143.423 42.5207 143.468 42.4936 143.502 42.4665C143.667 42.3353 143.637 42.2735 143.412 42.281ZM120.741 42.1838C119.697 42.2757 118.739 42.6285 117.866 43.2422C117.833 43.2648 117.803 43.2904 117.778 43.319L117.74 43.3615C117.734 43.3681 117.728 43.3744 117.723 43.3805L117.697 43.4145C117.647 43.482 117.653 43.5098 117.713 43.4979L117.745 43.4897C117.751 43.4878 117.757 43.4857 117.764 43.4834L117.807 43.4667C117.815 43.4634 117.823 43.4599 117.832 43.4562L117.887 43.431C117.897 43.4263 117.907 43.4214 117.917 43.4163C118.535 43.1132 119.182 42.9014 119.857 42.7808C120.572 42.6527 121.291 42.5524 122.012 42.48C122.136 42.4671 122.275 42.4697 122.429 42.4878L122.507 42.4981C122.68 42.5238 122.846 42.5373 123.007 42.5388C123.101 42.5403 123.108 42.5162 123.027 42.4665C122.648 42.2328 122.27 42.1091 121.893 42.0956L121.86 42.0957L121.728 42.1027L121.369 42.1299L120.741 42.1838ZM125.653 42.8215C125.867 42.8879 125.883 42.9564 125.7 43.0273C125.623 43.0585 125.542 43.0466 125.502 42.9979C125.472 42.9632 125.468 42.924 125.489 42.8803C125.514 42.8257 125.584 42.8006 125.653 42.8215ZM146.864 41.9214C146.636 41.9652 146.453 42.0541 146.315 42.1883C146.256 42.2443 146.229 42.3182 146.243 42.3828C146.264 42.4702 146.327 42.4846 146.434 42.4258C146.626 42.3202 146.788 42.183 146.92 42.0142C146.983 41.9312 146.964 41.9003 146.864 41.9214ZM139.333 41.1842C138.989 41.2309 138.803 41.4194 138.775 41.7496C138.772 41.7765 138.783 41.8029 138.804 41.8201C138.826 41.8373 138.854 41.8431 138.881 41.8355C139.097 41.7722 139.28 41.6538 139.432 41.4805C139.637 41.2453 139.604 41.1465 139.333 41.1842ZM120.661 33.1406L120.732 33.1672C121.286 33.3874 121.931 33.4311 122.669 33.2984C122.797 33.2763 122.929 33.292 123.047 33.3436C124.025 33.7748 124.945 34.249 125.806 34.7661C125.957 34.8581 126.043 35.0103 126.062 35.2229C126.071 35.3122 126.08 35.3917 126.091 35.4614L126.107 35.5586C126.115 35.6036 126.124 35.643 126.134 35.677L126.143 35.7091C126.2 35.8825 126.246 36.0589 126.281 36.2383C126.315 36.4117 126.299 36.5866 126.231 36.763C126.111 37.0781 125.991 37.3427 125.871 37.5568C125.778 37.7225 125.734 37.9108 125.743 38.0995L125.747 38.1561C125.785 38.5254 125.69 38.7817 125.464 38.925C125.408 38.9599 125.37 39.0177 125.359 39.0833C125.349 39.1489 125.367 39.2157 125.41 39.2665C125.66 39.5695 125.514 39.8115 124.971 39.9924C124.889 40.019 124.801 40.0221 124.719 40.0014L124.112 39.8537C124.01 39.8291 123.907 39.8044 123.803 39.7798C123.493 39.7059 123.199 39.5989 122.921 39.4587C122.48 39.2386 122.04 39.0158 121.601 38.7903L120.937 38.4461L120.176 37.9887C119.732 37.7219 119.246 37.5545 118.716 37.4867C118.371 37.4424 118.035 37.4635 117.709 37.5497L117.62 37.5749C117.23 37.6945 117.103 37.5727 117.239 37.2095L117.254 37.1723C117.362 36.9085 117.387 36.6469 117.33 36.3876L117.184 35.7001C117.131 35.3036 117.01 34.9267 116.819 34.5694C116.789 34.5124 116.806 34.443 116.858 34.4111C117.683 33.9135 118.547 33.4944 119.45 33.1537C119.853 33.0027 120.257 32.9984 120.661 33.1406ZM65.4857 36.9439C65.4781 36.9667 65.4831 36.9919 65.4989 37.01C65.5146 37.0282 65.5387 37.0366 65.5622 37.0321C65.7452 37.002 65.878 36.9205 65.9605 36.7879C65.9765 36.7625 65.9797 36.7311 65.9691 36.703C65.9585 36.6749 65.9352 36.6536 65.9065 36.6454C65.7145 36.5896 65.5742 36.6891 65.4857 36.9439ZM56.3273 36.6737L56.299 36.6748C55.522 36.7095 54.7495 36.7826 53.9815 36.8942C53.9625 36.8972 53.9415 36.8985 53.9185 36.8982L53.8825 36.8964C53.7895 36.8889 53.7572 36.907 53.7857 36.9507C53.8069 36.9815 53.8522 36.9996 53.905 36.9982C54.2845 36.9922 54.6625 37.0012 55.039 37.0253C55.5115 37.057 55.942 36.9831 56.3305 36.8037L56.3792 36.7797C56.3865 36.776 56.3934 36.7723 56.3999 36.7687L56.4339 36.7484C56.4969 36.707 56.491 36.6827 56.4161 36.6755L56.3766 36.6734L56.3273 36.6737ZM118.343 36.0212L117.839 36.0913C117.82 36.094 117.787 36.0839 117.751 36.0642C117.734 36.0552 117.718 36.0499 117.701 36.0484C117.681 36.0473 117.662 36.0582 117.648 36.0784C117.634 36.0986 117.626 36.1262 117.627 36.1547L117.661 36.8444C117.665 36.9168 117.695 36.9311 117.749 36.8874C117.912 36.7517 118.078 36.6183 118.246 36.4871C118.295 36.4494 118.357 36.4159 118.433 36.3866L118.48 36.3695C118.727 36.2851 118.751 36.1795 118.55 36.0529C118.499 36.021 118.425 36.0097 118.343 36.0212ZM118.439 34.5942C118.374 34.5957 118.321 34.631 118.313 34.6779C118.304 34.7292 118.345 34.7556 118.435 34.7571C118.481 34.7571 118.527 34.7442 118.572 34.7186L118.609 34.6961C118.679 34.6496 118.674 34.6191 118.595 34.6044L118.554 34.5987L118.502 34.5954L118.439 34.5942Z" fill="white" fill-opacity="0.5"/>
</g>
<defs>
<clipPath id="clip0_336_10369">
<rect width="108" height="64" fill="white" transform="translate(46 33)"/>
</clipPath>
</defs>
</svg>
