<svg width="200" height="120" viewBox="0 0 200 120" fill="none" xmlns="http://www.w3.org/2000/svg">
<path fill-rule="evenodd" clip-rule="evenodd" d="M48.4692 50.342C65.6574 65.082 62.9403 69.883 62.9403 69.883C65.1548 68.0176 67.151 65.9072 68.8907 63.5923C72.7598 58.1552 70.0917 54.3492 70.0917 54.3492C65.9617 48.9175 56.9845 43.899 56.9845 43.899C49.3821 39.3156 45.5185 41.5393 45.5185 41.5393C40.7147 44.6004 45.3826 48.1128 45.3826 48.1128C46.4523 48.7976 47.4828 49.5418 48.4692 50.342ZM43.3842 50.6903C39.5803 46.9115 41.2106 42.7412 41.2106 42.7412C28.549 48.3469 25.6037 54.8714 25.6146 54.8714C22.9084 61.8146 30.0162 64.4788 30.0162 64.4788C39.0858 66.9255 43.9276 59.232 43.9276 59.232C44.6747 57.9089 45.0211 56.3969 44.9247 54.8803C44.8282 53.3637 44.293 51.9079 43.3842 50.6903ZM33.5391 70.6717C33.5391 70.6717 40.7176 70.302 44.6736 66.0828C44.6736 66.0828 48.5373 62.3366 47.2929 55.8447C47.2929 55.8447 58.7046 64.1255 55.9875 72.7922C55.9875 72.7922 53.4987 79.9529 45.7604 78.8872C45.7608 78.8872 45.7598 78.8872 45.7576 78.887C45.6046 78.8761 39.4319 78.4384 33.5391 70.6717ZM83.9732 52.8469C82.9311 51.9522 82.1712 50.7716 81.6934 49.3048C81.6878 49.2879 81.6861 49.2699 81.6886 49.2523C81.6911 49.2347 81.6977 49.218 81.7078 49.2035C81.7179 49.1891 81.7312 49.1774 81.7467 49.1693C81.7621 49.1613 81.7793 49.1572 81.7966 49.1573L83.8493 49.1396C83.9424 49.1397 84.0344 49.1638 84.1168 49.2097C84.1993 49.2555 84.2696 49.3217 84.3212 49.4021C84.8815 50.2849 85.6139 50.8974 86.5184 51.2395C86.542 51.2474 86.7789 51.2788 87.2291 51.3339C87.5221 51.3693 87.6588 51.562 87.6391 51.9119C87.6214 52.2364 87.6125 52.4064 87.6125 52.4222C87.6243 52.9353 87.6076 53.4475 87.5624 53.9587C87.5587 53.9981 87.5399 54.0347 87.5098 54.0609C87.4797 54.0872 87.4405 54.1013 87.4002 54.1003C86.0455 54.0649 84.9032 53.6471 83.9732 52.8469ZM109.119 53.1917L107.151 53.1504C106.756 53.1426 106.559 52.9666 106.559 52.6225V50.6907C106.558 50.656 106.566 50.6216 106.58 50.5898C106.594 50.5579 106.615 50.5293 106.641 50.5058C106.667 50.4822 106.698 50.4642 106.731 50.4529C106.765 50.4416 106.8 50.4372 106.836 50.4401C107.394 50.4853 107.869 50.4853 108.26 50.4401C108.29 50.4361 108.479 50.4342 108.827 50.4342C109.22 50.4322 109.392 50.156 109.343 49.6054C109.339 49.5557 109.345 49.5057 109.361 49.4586C109.377 49.4115 109.403 49.3682 109.436 49.3316C109.47 49.295 109.51 49.2659 109.556 49.246C109.601 49.2261 109.65 49.2159 109.7 49.2161C110.28 49.2161 110.753 49.2024 111.121 49.1748C111.65 49.1355 111.878 49.3911 111.805 49.9416C111.798 49.9962 111.803 50.0516 111.819 50.1042C111.835 50.1568 111.862 50.2054 111.898 50.2467C111.934 50.2881 111.979 50.3212 112.029 50.3438C112.079 50.3665 112.134 50.3782 112.189 50.3781L122.104 50.3958C122.158 50.3961 122.21 50.3746 122.253 50.3352C122.295 50.2958 122.324 50.241 122.334 50.1805L122.476 49.4078C122.483 49.3687 122.508 49.3327 122.545 49.305C122.582 49.2774 122.63 49.2596 122.682 49.2545C123.05 49.2132 123.42 49.1974 123.794 49.2073C123.814 49.2073 123.968 49.1984 124.257 49.1807C124.642 49.1552 124.811 49.3685 124.761 49.8207C124.724 50.1727 124.901 50.3585 125.292 50.3781L127.103 50.4666C127.146 50.469 127.187 50.486 127.221 50.5151C127.255 50.5442 127.28 50.584 127.292 50.6288C127.488 51.3818 127.488 52.1349 127.292 52.8879C127.28 52.9312 127.256 52.9698 127.223 52.9983C127.19 53.0269 127.149 53.044 127.106 53.0472L125.154 53.2065C125.104 53.2108 125.058 53.2266 125.019 53.2521C124.981 53.2776 124.952 53.3118 124.935 53.351L124.714 53.9202C124.697 53.9631 124.67 54.0001 124.637 54.0263C124.603 54.0526 124.564 54.067 124.525 54.0676C124.089 54.0834 123.653 54.0893 123.219 54.0853C123.193 54.0853 123.047 54.1011 122.779 54.1325C122.445 54.1738 122.32 53.9595 122.405 53.4896C122.411 53.4545 122.41 53.4185 122.401 53.384C122.392 53.3494 122.376 53.3172 122.354 53.2895C122.331 53.2618 122.303 53.2392 122.271 53.2234C122.24 53.2075 122.205 53.1987 122.169 53.1976C118.781 53.0855 115.453 53.0777 112.183 53.174C112.127 53.1755 112.072 53.1882 112.021 53.2115C111.971 53.2348 111.925 53.2681 111.888 53.3094C111.85 53.3508 111.821 53.3993 111.803 53.4521C111.785 53.5048 111.778 53.5607 111.782 53.6164C111.803 53.9624 111.701 54.1266 111.475 54.1089C111.326 54.0971 111.237 54.0922 111.21 54.0942C110.683 54.1355 110.156 54.1404 109.629 54.1089C109.59 54.107 109.553 54.0911 109.522 54.0635C109.491 54.0359 109.469 53.9981 109.458 53.9556L109.31 53.3569C109.298 53.3103 109.273 53.269 109.238 53.2392C109.204 53.2094 109.162 53.1927 109.119 53.1917ZM155.384 53.3686L159.136 53.4069C159.194 53.4074 159.251 53.4228 159.301 53.4518C159.352 53.4808 159.395 53.5225 159.426 53.5734C159.458 53.6242 159.477 53.6826 159.481 53.7436C159.486 53.8045 159.477 53.8661 159.454 53.923C158.776 55.6179 158.082 57.1711 157.372 58.5828C157.083 59.157 156.801 59.5374 156.526 59.7242C156.134 59.9916 155.651 60.1263 155.075 60.1282C155.015 60.1282 154.958 60.1515 154.916 60.193C154.874 60.2345 154.85 60.2908 154.85 60.3494L154.862 62.2311C154.862 62.269 154.871 62.3065 154.888 62.3409C154.905 62.3753 154.929 62.4059 154.959 62.4307C154.99 62.4555 155.025 62.474 155.064 62.4848C155.103 62.4956 155.144 62.4986 155.184 62.4935L156.611 62.3048C156.668 62.2973 156.726 62.303 156.781 62.3216C156.837 62.3401 156.888 62.371 156.931 62.4123C156.975 62.4535 157.01 62.5042 157.034 62.5609C157.058 62.6176 157.071 62.6791 157.071 62.7413L157.145 70.8016C157.146 70.8437 157.161 70.8845 157.188 70.9175C157.216 70.9506 157.253 70.9741 157.295 70.9844C157.915 71.1279 158.681 71.1564 159.596 71.0699C159.669 71.0626 159.736 71.0286 159.785 70.9747C159.834 70.9207 159.861 70.8506 159.861 70.778V62.9772C159.861 62.928 159.874 62.8796 159.898 62.8367C159.922 62.7938 159.957 62.7578 159.999 62.7323C160.041 62.7068 160.089 62.6926 160.138 62.6911C160.188 62.6895 160.236 62.7007 160.28 62.7236C160.819 63.0047 161.387 63.1846 161.985 63.2633C162.023 63.2682 162.063 63.2575 162.095 63.2334C162.126 63.2093 162.148 63.1735 162.156 63.1335C162.272 62.4572 162.272 61.7798 162.156 61.1015C162.147 61.0579 162.128 61.0168 162.1 60.9819C162.072 60.9469 162.035 60.9191 161.993 60.9009C160.318 60.1833 159.847 59.0311 160.581 57.4444C160.842 56.8742 160.976 56.5813 160.982 56.5655C161.377 55.5923 161.765 54.6171 162.147 53.6399C162.241 53.4 162.269 52.7463 162.229 51.6786C162.229 51.6531 162.237 51.4879 162.253 51.1832C162.277 50.7663 162.083 50.5658 161.672 50.5815C161.348 50.5953 161.172 50.6022 161.144 50.6022C160.904 50.5943 160.665 50.6041 160.427 50.6317C159.944 50.6887 159.766 50.4105 159.894 49.797C159.908 49.7281 159.907 49.6569 159.891 49.5885C159.876 49.5201 159.845 49.4561 159.802 49.4014C159.758 49.3466 159.704 49.3024 159.642 49.2718C159.58 49.2413 159.511 49.2253 159.442 49.2249L157.396 49.219C157.342 49.2185 157.29 49.2302 157.241 49.2532C157.193 49.2761 157.151 49.3098 157.117 49.3516C157.083 49.3935 157.06 49.4425 157.047 49.4951C157.034 49.5476 157.034 49.6024 157.045 49.6555C157.208 50.4439 156.764 50.7339 155.715 50.5255C155.154 50.4134 154.871 50.6238 154.865 51.1566L154.847 52.8819C154.847 53.0097 154.903 53.1325 155.004 53.2237C155.104 53.3148 155.241 53.3669 155.384 53.3686ZM172.305 52.2545C171.055 52.2368 169.804 52.2309 168.554 52.2368C168.54 52.2368 168.299 52.225 167.831 52.2014C166.748 52.1483 166.204 52.7018 166.2 53.8619C166.188 58.6101 166.165 61.6823 166.129 63.0783C166.129 63.1218 166.113 63.1633 166.085 63.1941C166.057 63.2249 166.019 63.2426 165.979 63.2434L163.749 63.2818C163.693 63.2832 163.639 63.2604 163.598 63.2184C163.557 63.1764 163.533 63.1185 163.531 63.0576C163.47 60.5547 163.449 58.1029 163.466 55.7022C163.466 55.6865 163.457 55.247 163.44 54.3839C163.416 53.2258 163.58 52.2712 163.932 51.5202C164.286 50.7651 164.889 50.2372 165.74 49.9364C166.462 49.6808 167.107 49.5501 167.675 49.5442C170.034 49.5225 172.386 49.5117 174.729 49.5117C174.752 49.5117 174.774 49.5161 174.795 49.5247C174.816 49.5333 174.835 49.5459 174.85 49.5618C174.866 49.5777 174.879 49.5966 174.887 49.6173C174.896 49.6381 174.9 49.6603 174.9 49.6828L174.883 63.0606C174.883 63.1019 174.868 63.1419 174.842 63.1737C174.816 63.2054 174.779 63.227 174.738 63.2346C174.06 63.3525 173.382 63.3525 172.703 63.2346C172.664 63.2282 172.628 63.2072 172.602 63.1753C172.576 63.1434 172.562 63.1027 172.562 63.0606L172.453 52.4079C172.452 52.3675 172.436 52.3289 172.409 52.3003C172.381 52.2717 172.344 52.2553 172.305 52.2545ZM132.299 52.3165L138.684 52.3312C138.723 52.3312 138.76 52.3466 138.787 52.3742C138.815 52.4018 138.831 52.4393 138.831 52.4787L138.902 68.44C138.903 68.4597 138.899 68.4794 138.892 68.4978C138.885 68.5162 138.874 68.533 138.86 68.5472C138.847 68.5615 138.83 68.5729 138.812 68.5808C138.794 68.5887 138.774 68.593 138.755 68.5933L131.564 68.6995C131.522 68.7003 131.482 68.7156 131.451 68.7427C131.419 68.7697 131.399 68.8067 131.393 68.847C131.281 69.5273 131.275 70.2095 131.376 70.8938C131.381 70.9347 131.401 70.9723 131.432 70.9999C131.463 71.0275 131.503 71.0432 131.544 71.0442C138.545 71.172 145.546 71.1661 152.545 71.0265C152.59 71.0258 152.632 71.0101 152.663 70.9826C152.695 70.9551 152.713 70.9179 152.714 70.879L152.758 68.8647C152.758 68.8408 152.753 68.8171 152.743 68.795C152.733 68.7728 152.719 68.7527 152.7 68.7356C152.681 68.7186 152.659 68.7051 152.635 68.6959C152.61 68.6866 152.584 68.6819 152.557 68.6818C149.488 68.6818 146.491 68.6838 143.565 68.6877C143.087 68.6897 142.613 68.6523 142.143 68.5757C142.101 68.5689 142.062 68.5486 142.032 68.5177C142.002 68.4869 141.983 68.4472 141.978 68.4046C141.915 67.8482 141.879 66.9329 141.869 65.6588C141.834 61.2841 141.857 56.9537 141.94 52.6674C141.941 52.6022 141.967 52.5399 142.012 52.4924C142.058 52.445 142.119 52.4159 142.185 52.4108C144.2 52.2693 146.104 52.2634 147.897 52.3931C147.938 52.3967 147.976 52.4151 148.004 52.4449C148.032 52.4748 148.049 52.514 148.051 52.5553C148.179 55.2175 148.187 57.8797 148.077 60.5419C148.075 60.5596 148.082 60.7759 148.098 61.1907C148.114 61.6449 147.97 61.989 147.667 62.223C147.439 62.3999 147.042 62.5041 146.476 62.5356C145.796 62.5749 145.042 62.5789 144.214 62.5474C144.18 62.5462 144.147 62.5515 144.115 62.5628C144.084 62.5742 144.056 62.5914 144.032 62.6135C144.008 62.6356 143.989 62.662 143.976 62.6912C143.963 62.7204 143.957 62.7517 143.957 62.7833L143.972 64.718C143.973 64.7585 143.99 64.7974 144.021 64.8273C144.051 64.8572 144.093 64.876 144.137 64.8802C145.773 65.0415 146.86 65.0552 147.399 64.9215C148.899 64.548 150.006 63.7251 150.72 62.453C150.962 62.0224 151.088 61.4778 151.1 60.8191C151.165 57.166 151.192 53.5129 151.18 49.8597C151.179 49.8204 151.163 49.7829 151.136 49.7553C151.108 49.7277 151.071 49.7123 151.032 49.7123L132.213 49.6592C132.173 49.6592 132.135 49.6753 132.107 49.7041C132.079 49.7329 132.063 49.7719 132.063 49.8125V52.0805C132.063 52.1426 132.088 52.2021 132.132 52.2463C132.176 52.2905 132.236 52.3157 132.299 52.3165ZM94.2275 68.4424C94.3671 63.1889 94.373 57.9874 94.2452 52.838C94.2436 52.7621 94.2126 52.6897 94.1587 52.6363C94.1047 52.5829 94.0321 52.5527 93.9561 52.5519L89.4232 52.5342C89.3324 52.5342 89.2454 52.4985 89.1812 52.4349C89.1171 52.3713 89.081 52.285 89.081 52.195V50.104C89.081 50.0446 89.1047 49.9876 89.1467 49.9455C89.1887 49.9035 89.2457 49.8799 89.3052 49.8799H102.052C102.091 49.8797 102.13 49.8938 102.158 49.9191C102.187 49.9444 102.204 49.979 102.205 50.0156L102.282 52.2481C102.283 52.2854 102.276 52.3224 102.261 52.3572C102.246 52.392 102.224 52.4237 102.195 52.4506C102.167 52.4776 102.133 52.4991 102.095 52.5139C102.057 52.5288 102.016 52.5367 101.975 52.5372L97.4687 52.5843C97.4288 52.5843 97.3906 52.6002 97.3624 52.6284C97.3341 52.6566 97.3183 52.6949 97.3183 52.7348V68.4041C97.3182 68.4446 97.3336 68.4834 97.3611 68.5126C97.3886 68.5417 97.4261 68.5589 97.4658 68.5604L102.482 68.699C102.523 68.6998 102.561 68.7157 102.589 68.7433C102.617 68.7708 102.633 68.8079 102.633 68.8465L102.642 70.8166C102.642 70.8556 102.635 70.8942 102.62 70.9303C102.605 70.9665 102.583 70.9993 102.555 71.027C102.527 71.0547 102.493 71.0767 102.457 71.0917C102.42 71.1067 102.381 71.1145 102.341 71.1145H88.618C88.5093 71.1145 88.405 71.0728 88.3281 70.9987C88.2513 70.9246 88.2081 70.8241 88.2081 70.7193L88.1992 68.8819C88.1993 68.8276 88.2222 68.7756 88.263 68.7369C88.3039 68.6983 88.3593 68.6762 88.4175 68.6754L94.08 68.5958C94.1186 68.5958 94.1557 68.5797 94.1833 68.551C94.2108 68.5223 94.2267 68.4834 94.2275 68.4424ZM114.101 65.9003C114.431 63.358 114.813 60.8246 115.248 58.3C115.255 58.2588 115.275 58.2209 115.307 58.1926C115.338 58.1642 115.379 58.147 115.422 58.1437C116.956 58.0081 118.49 58.0081 120.026 58.1437C120.067 58.1473 120.106 58.1658 120.135 58.1957C120.164 58.2256 120.181 58.2648 120.182 58.306C120.282 61.0999 120.319 63.8948 120.291 66.6907C120.277 68.1476 119.508 68.8112 117.982 68.6814C117.722 68.6598 117.04 68.6647 115.935 68.6961C115.893 68.697 115.853 68.7133 115.823 68.7415C115.794 68.7697 115.778 68.8075 115.779 68.8466L115.811 70.8403C115.812 70.8799 115.829 70.918 115.859 70.9474C115.889 70.9767 115.93 70.9953 115.973 70.9995C116.373 71.0369 116.774 71.0546 117.177 71.0526C117.216 71.0526 117.556 71.0575 118.197 71.0673C118.988 71.0791 119.746 70.9533 120.471 70.6898C121.269 70.4008 121.858 69.9535 122.238 69.3479C122.68 68.644 122.908 67.7829 122.922 66.7644C122.973 63.127 122.973 59.4906 122.922 55.8551C122.921 55.816 122.906 55.7786 122.879 55.7506C122.852 55.7226 122.816 55.7062 122.777 55.7047C120.737 55.6241 118.697 55.5985 116.658 55.628C116.624 55.628 116.478 55.6418 116.218 55.6693C115.674 55.7244 115.484 55.4029 115.649 54.7049C115.656 54.6746 115.656 54.6431 115.65 54.6127C115.643 54.5823 115.63 54.5538 115.611 54.5294C115.592 54.505 115.568 54.4853 115.54 54.4718C115.512 54.4582 115.482 54.4512 115.451 54.4513H113.614C113.569 54.4513 113.525 54.4602 113.484 54.4775C113.443 54.4949 113.405 54.5203 113.374 54.5522C113.343 54.5841 113.319 54.6219 113.303 54.6634C113.287 54.7048 113.279 54.749 113.281 54.7934C113.291 55.0628 113.218 55.3036 113.063 55.516C113.035 55.5527 112.999 55.5827 112.957 55.6036C112.915 55.6246 112.868 55.636 112.821 55.6369L106.846 55.6959C106.77 55.6966 106.698 55.7259 106.645 55.7772C106.592 55.8286 106.562 55.8979 106.562 55.9702L106.571 57.7928C106.571 57.8642 106.6 57.9328 106.651 57.9836C106.701 58.0344 106.77 58.0633 106.843 58.0641L112.47 58.1349C112.501 58.1352 112.531 58.1418 112.559 58.1543C112.587 58.1668 112.613 58.1849 112.633 58.2074C112.654 58.2299 112.669 58.2563 112.679 58.285C112.688 58.3137 112.691 58.3439 112.688 58.3738C112.393 61.093 112.019 63.763 111.564 66.3839C111.44 67.0996 111.242 67.6069 110.969 67.9057C110.569 68.3422 110.033 68.5841 109.358 68.6313C108.448 68.6922 107.495 68.7079 106.501 68.6784C106.471 68.6773 106.441 68.6819 106.413 68.6918C106.385 68.7017 106.359 68.7169 106.338 68.7362C106.317 68.7556 106.3 68.7788 106.289 68.8044C106.278 68.83 106.272 68.8574 106.273 68.8849L106.359 70.8373C106.361 70.8896 106.385 70.9394 106.426 70.9774C106.467 71.0154 106.522 71.039 106.58 71.0437C107.372 71.1047 108.174 71.1126 108.984 71.0673C111.021 70.9513 112.485 70.1147 113.375 68.5575C113.704 67.9834 113.945 67.0977 114.101 65.9003ZM170.569 64.6054L172.601 64.6998C172.642 64.7025 172.682 64.7202 172.713 64.7502C172.744 64.7802 172.765 64.8206 172.772 64.865C172.871 65.4352 172.892 65.9454 172.837 66.3956C172.637 68.0354 173.35 68.8052 174.978 68.7049C175.248 68.6892 175.495 68.6813 175.722 68.6813C175.758 68.6814 175.793 68.6881 175.826 68.7009C175.86 68.7138 175.89 68.7327 175.915 68.7564C175.94 68.78 175.959 68.808 175.972 68.8387C175.985 68.8694 175.991 68.9021 175.99 68.9349L175.94 70.8048C175.938 70.8453 175.92 70.8844 175.89 70.916C175.859 70.9476 175.818 70.9697 175.772 70.9787C174.789 71.1714 173.849 71.1056 172.952 70.7812C172.292 70.5432 171.741 70.1805 171.301 69.6929C170.782 69.1188 170.507 68.4866 170.478 67.7965C170.444 67.0297 170.371 66.2659 170.257 65.5049C170.2 65.1255 170.077 65.1039 169.888 65.4401C169.725 65.7291 169.6 66.0329 169.513 66.3514C169.376 66.8586 169.305 67.1172 169.301 67.127C168.32 69.8915 166.247 71.194 163.081 71.0348C163.041 71.0333 163.003 71.0157 162.975 70.9859C162.948 70.9561 162.933 70.9165 162.934 70.8755L162.954 68.8317C162.955 68.791 162.971 68.7524 163 68.7241C163.028 68.6959 163.066 68.6805 163.105 68.6813C164.054 68.6872 164.917 68.5132 165.691 68.1593C166.218 67.9194 166.569 67.5232 166.744 66.9707C166.996 66.1705 167.325 65.2602 167.732 64.2397C168.037 63.4749 168.182 62.6452 168.169 61.7506C168.135 59.3912 168.118 57.0229 168.118 54.6458C168.118 54.6203 168.123 54.5949 168.133 54.5713C168.143 54.5477 168.157 54.5263 168.175 54.5082C168.193 54.4901 168.215 54.4758 168.239 54.466C168.262 54.4562 168.287 54.4512 168.313 54.4512H170.286C170.321 54.4512 170.355 54.4578 170.387 54.4708C170.419 54.4837 170.448 54.5027 170.473 54.5265C170.497 54.5504 170.516 54.5787 170.529 54.6098C170.542 54.6409 170.549 54.6742 170.549 54.7078L170.428 64.4609C170.428 64.4978 170.442 64.5332 170.469 64.5601C170.495 64.5869 170.531 64.6032 170.569 64.6054ZM81.7117 55.7783C82.0872 57.0288 82.7056 58.0325 83.5668 58.7895C84.6521 59.7431 85.8996 60.2376 87.3094 60.273C87.3477 60.2742 87.3858 60.2676 87.4216 60.2538C87.4573 60.2399 87.4899 60.2191 87.5174 60.1924C87.5449 60.1657 87.5668 60.1338 87.5817 60.0985C87.5966 60.0632 87.6043 60.0252 87.6043 59.9869V58.2704C87.6045 58.1955 87.5787 58.1229 87.5314 58.0649C87.4841 58.0068 87.4181 57.9669 87.3448 57.9519C86.0294 57.6884 85.0335 57.0131 84.3572 55.9258C84.3014 55.8356 84.2236 55.7611 84.1312 55.7095C84.0388 55.6579 83.9349 55.6308 83.8293 55.6309H81.8208C81.8031 55.631 81.7856 55.6354 81.7697 55.6434C81.7539 55.6515 81.7402 55.6632 81.7296 55.6774C81.719 55.6917 81.7119 55.7083 81.7088 55.7258C81.7057 55.7433 81.7067 55.7613 81.7117 55.7783ZM127.073 69.6073C125.905 68.7108 125.179 67.8427 124.896 67.0031C124.77 66.6335 124.632 66.026 124.48 65.1805C124.376 64.6005 124.304 63.9821 124.265 63.3254C124.143 61.2629 124.07 59.2053 124.047 57.1526C124.047 57.1272 124.051 57.102 124.061 57.0784C124.07 57.0548 124.085 57.0333 124.103 57.0152C124.121 56.9971 124.143 56.9827 124.166 56.9729C124.19 56.9631 124.216 56.958 124.242 56.958H126.079C126.13 56.958 126.18 56.968 126.226 56.9873C126.273 57.0066 126.315 57.0349 126.351 57.0705C126.387 57.1061 126.415 57.1484 126.434 57.1949C126.453 57.2414 126.463 57.2912 126.462 57.3414C126.454 59.7834 126.608 62.1418 126.922 64.4166C126.975 64.8099 127.146 65.4607 127.433 66.369C127.763 67.4111 127.849 68.4099 127.692 69.3655C127.621 69.7902 127.415 69.8708 127.073 69.6073ZM111.145 60.0258C110.754 59.9983 110.362 59.9963 109.968 60.0199C109.88 60.0258 109.733 60.0111 109.526 59.9757C109.369 59.9501 109.215 59.9629 109.066 60.014C109.025 60.0284 108.988 60.0546 108.957 60.0901C108.927 60.1256 108.905 60.1693 108.892 60.2175C108.711 60.884 108.571 61.5584 108.473 62.2407C108.308 63.383 107.646 64.1105 106.488 64.4231C106.443 64.4349 106.404 64.4613 106.375 64.4981C106.347 64.535 106.332 64.5802 106.332 64.6266V66.5672C106.332 66.9742 106.526 67.1148 106.913 66.989C107.916 66.6626 108.796 66.1376 109.553 65.4141C110.262 64.7358 110.693 63.9277 110.844 62.9898C110.966 62.2466 111.028 61.8681 111.03 61.8543C111.144 61.3018 111.227 60.7444 111.278 60.1821C111.28 60.1631 111.278 60.1438 111.272 60.1255C111.267 60.1071 111.257 60.0901 111.245 60.0755C111.233 60.0609 111.217 60.049 111.2 60.0404C111.183 60.0319 111.164 60.0269 111.145 60.0258ZM87.926 62.0188C87.9606 62.0191 87.9944 62.0285 88.0245 62.0461C88.0546 62.0638 88.0802 62.0892 88.0992 62.1202C88.1182 62.1513 88.1301 62.1872 88.1338 62.225C88.1375 62.2627 88.133 62.3012 88.1207 62.3373C87.6409 63.7431 87.2035 65.1598 86.8083 66.5872C86.1004 69.1452 84.4331 70.6286 81.8063 71.0376C81.7757 71.0423 81.7444 71.0403 81.7147 71.0317C81.6849 71.0232 81.6573 71.0084 81.6338 70.9882C81.6103 70.9681 81.5914 70.9431 81.5784 70.9149C81.5654 70.8868 81.5587 70.8562 81.5586 70.8253V68.9849C81.5585 68.8974 81.5877 68.8122 81.6416 68.7428C81.6956 68.6734 81.7711 68.6237 81.8565 68.6015C82.8101 68.3616 83.5061 67.8799 83.9445 67.1564C84.0468 66.9873 84.3161 66.2392 84.7526 64.912C85.0141 64.1118 85.2776 63.3007 85.543 62.4789C85.589 62.3372 85.6745 62.2138 85.787 62.1267C85.8995 62.0397 86.0331 61.9936 86.1683 61.9952L87.926 62.0188Z" fill="white" fill-opacity="0.5"/>
</svg>
