<svg width="200" height="120" viewBox="0 0 200 120" fill="none" xmlns="http://www.w3.org/2000/svg">
<path d="M172.781 60.6414C173.087 60.4355 173.307 60.2679 173.442 60.1385C173.643 59.9474 173.615 59.904 173.358 60.0084C173.072 60.1261 172.861 60.3209 172.726 60.5928C172.682 60.6811 172.701 60.6972 172.781 60.6414Z" stroke="white" stroke-opacity="0.5" stroke-width="2"/>
<path d="M171.708 61.1612C171.13 61.8066 171.15 61.9271 171.768 61.5228C171.9 61.4361 172.015 61.3302 172.114 61.2053C172.19 61.1053 172.166 61.0479 172.043 61.0332C171.981 61.027 171.918 61.0354 171.86 61.0576C171.802 61.0798 171.75 61.1153 171.708 61.1612Z" stroke="white" stroke-opacity="0.5" stroke-width="2"/>
<path d="M65.7735 54.0337C65.0674 54.3792 64.8171 54.5586 65.0226 54.5718C65.0476 54.5733 65.0718 54.5689 65.0953 54.5586C65.7177 54.2822 66.023 54.133 66.0113 54.1109C65.9893 54.0698 65.9522 54.0388 65.9079 54.0244C65.8636 54.01 65.8154 54.0134 65.7735 54.0337Z" stroke="white" stroke-opacity="0.5" stroke-width="2"/>
<path d="M55.2571 63.0602C55.1265 63.3087 55.0927 63.5513 55.1558 63.788C55.1661 63.8261 55.183 63.8607 55.2052 63.8887C55.2274 63.9166 55.2543 63.9373 55.2836 63.949C55.3775 63.9857 55.4282 63.9306 55.4355 63.7836C55.4502 63.5219 55.4238 63.2837 55.3562 63.069C55.3298 62.9852 55.2968 62.9823 55.2571 63.0602Z" stroke="white" stroke-opacity="0.5" stroke-width="2"/>
<path d="M45.4883 67.0032C45.3724 67.2046 45.3922 67.3061 45.5478 67.3076C45.5784 67.3074 45.6083 67.2952 45.6324 67.2731C45.6565 67.2509 45.6733 67.2203 45.6799 67.1863C45.8252 66.4262 45.8612 65.6602 45.7878 64.8883C45.7851 64.8647 45.779 64.843 45.7702 64.8253C45.7613 64.8076 45.75 64.7943 45.7372 64.7869C45.7107 64.7707 45.6851 64.7751 45.6601 64.8001C45.6395 64.8207 45.6285 64.8523 45.6271 64.8949C45.6095 65.5301 45.5845 66.1652 45.5522 66.8003C45.5493 66.8665 45.528 66.9341 45.4883 67.0032Z" stroke="white" stroke-opacity="0.5" stroke-width="2"/>
<path d="M55.1548 65.6921C55.2326 65.9038 55.3082 65.8898 55.3816 65.6502C55.3922 65.6159 55.3915 65.5797 55.3797 65.5487C55.3679 65.5177 55.3457 65.4941 55.3177 65.4826C55.2693 65.4649 55.226 65.4708 55.1878 65.5002C55.1648 65.5179 55.1492 65.546 55.1433 65.5806C55.1374 65.6151 55.1414 65.6542 55.1548 65.6921Z" stroke="white" stroke-opacity="0.5" stroke-width="2"/>
<path d="M55.2212 66.5824C55.1875 66.6353 55.1663 66.6954 55.159 66.758C55.1518 66.8206 55.1587 66.8842 55.1793 66.944C55.3408 67.4042 55.3746 67.8218 55.2806 68.1967C55.2615 68.2731 55.2601 68.3437 55.2762 68.4084C55.3951 68.8627 55.4685 68.7914 55.4964 68.1945C55.5111 67.8989 55.5206 67.6042 55.525 67.3101C55.5294 67.0572 55.5111 66.8 55.47 66.5383C55.4406 66.3486 55.3577 66.3633 55.2212 66.5824Z" stroke="white" stroke-opacity="0.5" stroke-width="2"/>
<path d="M55.3572 69.7247C55.2824 70.0688 55.2875 70.4099 55.3726 70.748C55.3811 70.784 55.3995 70.8161 55.4245 70.8383C55.4496 70.8606 55.4796 70.8716 55.5092 70.8693C55.609 70.862 55.6325 70.7598 55.5796 70.5628C55.54 70.4128 55.5371 70.1812 55.5708 69.8681C55.5767 69.8137 55.5723 69.763 55.5576 69.7159C55.4798 69.4616 55.413 69.4645 55.3572 69.7247Z" stroke="white" stroke-opacity="0.5" stroke-width="2"/>
<path d="M55.2878 71.5681C55.2584 72.4031 55.3281 72.4281 55.497 71.643C55.5072 71.5945 55.5087 71.5453 55.5014 71.4953C55.4426 71.0836 55.3773 71.0557 55.3054 71.4115C55.2966 71.46 55.2907 71.5122 55.2878 71.5681Z" stroke="white" stroke-opacity="0.5" stroke-width="2"/>
<path d="M55.1147 74.0437C55.0091 74.6362 54.9327 75.2324 54.8857 75.8322C54.8813 75.8925 54.8681 75.9535 54.8461 76.0153C54.7022 76.4064 54.772 76.449 55.0553 76.1432C55.1027 76.0914 55.1341 76.0263 55.1456 75.9557C55.219 75.4632 55.3093 74.4561 55.4164 72.9344C55.434 72.6933 55.3834 72.5537 55.2645 72.5154C55.2516 72.5111 55.2379 72.5106 55.2245 72.5137C55.211 72.5169 55.1981 72.5238 55.1868 72.5338C55.1756 72.5438 55.1662 72.5567 55.1594 72.5715C55.1526 72.5863 55.1487 72.6026 55.1478 72.6191C55.1316 72.8587 55.1316 73.0976 55.1478 73.3358C55.1654 73.5946 55.1544 73.8305 55.1147 74.0437Z" stroke="white" stroke-opacity="0.5" stroke-width="2"/>
<path d="M76.9085 60.0826C77.0024 60.284 77.0487 60.2679 77.0472 60.0341C77.0472 59.9959 77.0428 59.9584 77.034 59.9216C76.8916 59.3953 76.6244 58.9461 76.2325 58.5742C76.2051 58.5482 76.1729 58.5297 76.14 58.5211C76.1071 58.5125 76.075 58.5141 76.0475 58.5256C75.9536 58.5653 75.9793 58.6403 76.1246 58.7506C76.2905 58.877 76.5518 59.321 76.9085 60.0826Z" stroke="white" stroke-opacity="0.5" stroke-width="2"/>
<path d="M94.0695 59.6646C94.1033 59.2309 93.9836 59.0905 93.7106 59.2434C93.6619 59.2706 93.6258 59.3157 93.6101 59.369C93.5944 59.4223 93.6005 59.4794 93.6269 59.5279C93.8897 60.0174 94.0372 60.063 94.0695 59.6646Z" stroke="white" stroke-opacity="0.5" stroke-width="2"/>
<path d="M64.3947 61.6939C64.3037 61.5998 64.2024 61.591 64.0909 61.6674C64.0327 61.7072 63.9638 61.7244 63.8971 61.7159C63.7958 61.7027 63.7165 61.7196 63.6593 61.7667C63.605 61.8137 63.5844 61.9056 63.5976 62.0423C63.6285 62.3437 63.638 62.6466 63.6263 62.9509C63.6251 62.9871 63.6338 63.0221 63.6509 63.0504C63.668 63.0787 63.6926 63.0988 63.7209 63.1075C63.9074 63.1663 64.0703 63.0825 64.2098 62.8561C64.3434 62.6385 64.5364 62.5481 64.7889 62.5848C65.4524 62.6804 66.0051 62.8576 66.447 63.1163C66.4745 63.1326 66.5064 63.1393 66.5377 63.1353C66.5689 63.1313 66.5974 63.1168 66.6187 63.0943C66.7626 62.9384 66.8712 62.7613 66.9446 62.5628C66.9544 62.5358 66.9548 62.505 66.9459 62.4741C66.9369 62.4432 66.9189 62.4135 66.894 62.3886C66.803 62.2974 66.7582 62.1769 66.7596 62.0269C66.7599 62.0104 66.7563 61.9941 66.7492 61.9792C66.742 61.9643 66.7315 61.9514 66.7185 61.9413C66.7054 61.9312 66.6902 61.9243 66.674 61.9212C66.6579 61.9181 66.6412 61.9188 66.6253 61.9232C66.342 62.0026 66.1086 62.0115 65.9251 61.9497C65.8517 61.9247 65.782 61.9144 65.7159 61.9188C65.528 61.9291 65.4495 61.8652 65.4803 61.727C65.4851 61.7064 65.4983 61.6864 65.5185 61.6692C65.5387 61.6521 65.5651 61.6385 65.5948 61.6299C65.655 61.6138 65.6741 61.5858 65.6521 61.5461C65.6415 61.5261 65.6216 61.5085 65.5944 61.4953C65.5673 61.4821 65.534 61.4738 65.4979 61.4712C65.332 61.4579 65.1662 61.444 65.0003 61.4293C64.7493 61.4072 64.5812 61.4903 64.496 61.6785C64.4918 61.6874 64.4855 61.6951 64.4775 61.701C64.4695 61.7069 64.4602 61.7108 64.4503 61.7123C64.4404 61.7138 64.4301 61.7129 64.4205 61.7097C64.4108 61.7065 64.402 61.7011 64.3947 61.6939Z" stroke="white" stroke-opacity="0.5" stroke-width="2"/>
<path d="M73.6185 66.9045C73.8784 66.6089 73.8314 66.5325 73.4776 66.6751C73.4451 66.6881 73.4164 66.7085 73.3941 66.7347C73.3719 66.7609 73.3566 66.792 73.3499 66.8251C73.2824 67.1603 73.3719 67.1867 73.6185 66.9045Z" stroke="white" stroke-opacity="0.5" stroke-width="2"/>
<path d="M106.622 67.363C106.534 67.4924 106.544 67.5387 106.652 67.5019C106.674 67.4943 106.693 67.4814 106.71 67.4642C106.726 67.4471 106.739 67.426 106.747 67.4027C106.853 67.0984 106.811 67.0851 106.622 67.363Z" stroke="white" stroke-opacity="0.5" stroke-width="2"/>
<path d="M106.357 67.9865C106.307 68.1924 106.345 68.249 106.472 68.1564C106.5 68.1356 106.523 68.1085 106.54 68.0768C106.557 68.0452 106.566 68.0098 106.569 67.9733C106.576 67.8116 106.533 67.769 106.439 67.8454C106.399 67.8792 106.372 67.9263 106.357 67.9865Z" stroke="white" stroke-opacity="0.5" stroke-width="2"/>
<path d="M87.802 68.0751C87.8827 68.1148 87.9378 68.0839 87.9671 67.9825C87.9715 67.9674 87.9727 67.9516 87.9706 67.9361C87.9685 67.9206 87.9631 67.9059 87.955 67.8929C87.9468 67.8799 87.936 67.8689 87.9232 67.8608C87.9105 67.8526 87.8962 67.8475 87.8812 67.8457C87.8152 67.8369 87.7682 67.8575 87.7403 67.9075C87.7325 67.9214 87.7279 67.9369 87.7268 67.9531C87.7257 67.9692 87.7281 67.9856 87.7339 68.0013C87.7397 68.017 87.7487 68.0317 87.7604 68.0444C87.7721 68.057 87.7863 68.0675 87.802 68.0751Z" stroke="white" stroke-opacity="0.5" stroke-width="2"/>
<path d="M106.26 68.4192C106.142 68.6912 106.01 68.9566 105.863 69.2154C105.708 69.4874 105.754 69.5778 106.002 69.4866C106.034 69.4757 106.062 69.4567 106.086 69.431C106.11 69.4054 106.128 69.3738 106.139 69.3389C106.222 69.0713 106.283 68.7986 106.319 68.5207C106.352 68.2825 106.332 68.2487 106.26 68.4192Z" stroke="white" stroke-opacity="0.5" stroke-width="2"/>
<path d="M114.835 60.0519C114.48 60.5547 114.257 61.0627 114.168 61.5758C114.161 61.6134 114.164 61.6509 114.175 61.6841C114.186 61.7173 114.206 61.7447 114.232 61.7633C114.318 61.825 114.396 61.8169 114.465 61.739C114.509 61.6905 114.534 61.6111 114.54 61.5008C114.568 60.9833 114.726 60.5106 115.015 60.0828C115.266 59.7079 115.245 59.6535 114.952 59.9196C114.908 59.9593 114.869 60.0034 114.835 60.0519Z" stroke="white" stroke-opacity="0.5" stroke-width="2"/>
<path d="M145.023 60.6849C144.366 60.5541 143.673 60.557 142.945 60.6937C142.023 60.8672 141.387 60.6033 141.038 59.902C141.03 59.8844 140.888 59.5058 140.611 58.7663C140.515 58.5134 140.429 58.2568 140.353 57.9966C140.29 57.779 140.271 57.5144 140.296 57.2027C140.344 56.5735 140.275 55.9538 140.089 55.3436C139.985 54.9996 139.791 54.7621 139.507 54.6313C139.302 54.5357 139.027 54.5475 138.684 54.6666C137.904 54.9356 137.265 55.0841 136.766 55.1121C136.108 55.1473 135.839 55.4826 135.958 56.1177C136.027 56.4823 136.031 56.8403 135.969 57.1917C135.917 57.4798 135.754 57.7827 135.478 58.1003C134.621 59.0883 133.834 60.1284 133.12 61.2208C132.628 61.975 132.296 62.6947 132.124 63.3798C131.929 64.1605 131.834 64.9574 131.84 65.7704C131.846 66.654 131.867 67.2024 131.902 67.4156C131.994 67.9919 132.259 68.4962 132.695 68.9284C132.747 68.9811 132.815 69.0139 132.886 69.021C133.221 69.0563 133.426 68.938 133.5 68.666C133.537 68.5322 133.517 68.3308 133.439 68.0617C133.23 67.3295 133.16 66.593 133.227 65.852C133.289 65.1698 133.519 64.4847 133.917 63.7966C134.417 62.9307 135.041 62.1588 135.788 61.481C136.082 61.2149 136.406 60.9892 136.762 60.804C137.214 60.5673 137.587 60.4203 137.88 60.3629C138.078 60.3247 138.172 60.3938 138.16 60.5702C138.156 60.6309 138.12 60.6982 138.061 60.7577C137.835 60.9782 137.657 61.2311 137.528 61.5163C137.333 61.9456 137.229 62.1713 137.217 62.1934C136.241 64.0708 136.121 66.0277 136.856 68.0639C136.943 68.3006 136.976 68.5395 136.955 68.7807C136.926 69.1335 136.914 69.3673 136.92 69.4819C137.01 71.1742 136.247 72.3246 134.632 72.9333C134.221 73.0876 133.601 73.1773 132.772 73.2023C132.226 73.22 131.76 73.1259 131.376 72.92C130.935 72.6833 130.551 72.3761 130.222 71.9982C130.003 71.7483 129.789 71.3359 129.579 70.761C129.472 70.4655 129.353 70.1737 129.222 69.8855C129.075 69.5635 128.981 69.2666 128.94 68.9946C128.717 67.5097 128.721 66.0336 128.951 64.5663C129.139 63.3636 129.334 62.4374 129.535 61.7876C129.818 60.8716 130.265 60.0248 130.876 59.247C131.103 58.9559 131.47 58.52 131.975 57.9393C132.411 57.4379 132.654 57.0101 132.706 56.6558C132.798 56.0177 132.518 55.5068 131.864 55.1231C131.805 55.0885 131.734 55.0717 131.66 55.0746C130.205 55.1451 128.879 55.1209 127.683 55.0018C127.14 54.9474 126.64 54.9937 126.183 55.1407C126.125 55.1584 125.94 55.2495 125.628 55.4142C125.413 55.5289 125.209 55.5825 125.019 55.5752C124.647 55.559 124.293 55.6296 123.955 55.7869C123.167 56.153 122.775 56.0126 122.781 55.3657C122.784 55.0746 122.881 54.7776 123.072 54.4747C123.6 53.6338 124.354 53.0464 125.333 52.7127C126.183 52.4245 127.049 52.2613 127.93 52.2231C128.147 52.2143 129.017 52.2767 130.541 52.4105C133.079 52.6325 135.489 52.4164 137.77 51.7622C138.599 51.524 139.187 51.3917 139.532 51.3652C140.487 51.2888 141.246 50.905 141.806 50.214C142.16 49.7759 142.417 49.4922 142.577 49.3628C143.682 48.4704 144.89 47.7448 146.201 47.1861C146.747 46.9538 147.255 46.6568 147.725 46.2952C148.243 45.8953 148.245 45.4785 147.73 45.0448C146.953 44.3905 146.43 43.5907 146.16 42.6454C145.982 42.022 145.89 41.5662 145.884 41.2781C145.873 40.7679 146.071 40.3158 146.481 39.9218C146.758 39.6557 146.933 39.7476 147.005 40.1975C147.042 40.4356 147.028 40.6701 146.963 40.901C146.877 41.2097 146.95 41.3751 147.183 41.3972C147.219 41.4006 147.253 41.4109 147.282 41.4274C147.312 41.4438 147.336 41.4659 147.353 41.492C147.663 41.9904 148.04 42.4219 148.485 42.7865C148.621 42.8982 149.035 43.132 149.727 43.4878C151.002 44.1435 151.813 45.2418 152.158 46.7826C152.172 46.8437 152.205 46.8988 152.252 46.9397C152.3 46.9806 152.359 47.0051 152.422 47.0097C153.629 47.0979 154.694 47.4412 155.619 48.0396C156.889 48.8585 157.882 49.9046 158.598 51.1778C158.98 51.8541 159.266 52.72 159.455 53.7756C159.628 54.7298 159.749 55.6406 159.818 56.508C159.852 56.9226 159.715 57.2696 159.407 57.5489C159.178 57.7562 159.076 57.99 159.101 58.2502C159.105 58.284 159.196 58.498 159.374 58.892C159.594 59.3742 159.346 59.5749 158.631 59.494C158.614 59.4923 158.597 59.4936 158.58 59.4978C158.564 59.502 158.549 59.509 158.537 59.5181C158.525 59.5272 158.517 59.5381 158.513 59.5497C158.509 59.5614 158.51 59.5733 158.515 59.5845C158.531 59.6241 158.571 59.6631 158.634 59.7013C159.123 60.0013 159.088 60.1497 158.53 60.1468C158.407 60.1468 158.293 60.1578 158.189 60.1799C157.249 60.3857 156.302 60.5033 155.346 60.5327C154.876 60.546 154.176 60.4776 153.245 60.3276C152.128 60.1483 151.002 60.0784 149.865 60.1181C149.293 60.1387 148.974 60.1549 148.908 60.1667C148.561 60.224 148.268 60.3747 148.027 60.6187C147.995 60.6508 147.971 60.6898 147.957 60.7327C147.943 60.7756 147.938 60.8213 147.944 60.8663C147.951 60.9112 147.967 60.9542 147.992 60.992C148.018 61.0297 148.051 61.0612 148.091 61.0841C148.471 61.3046 148.867 61.4751 149.28 61.5957C150.281 61.8883 151.024 62.4661 151.508 63.3291C151.787 63.8246 151.958 64.1914 152.021 64.4295C152.124 64.8089 152.103 65.2316 151.96 65.6976C151.83 66.1166 151.695 66.4665 151.554 66.7473C151.369 67.1208 151.17 67.4244 150.955 67.6581C150.699 67.9419 150.378 68.1367 149.993 68.2426C149.636 68.3411 149.454 68.3918 149.445 68.3947C149.125 68.5109 148.814 68.6454 148.511 68.7983C148.228 68.9424 148.017 69.1423 147.879 69.3981C147.768 69.6054 147.718 69.8767 147.73 70.2119C147.75 70.8309 147.899 71.4234 148.177 71.9894C148.561 72.773 149.077 73.4331 149.725 73.9698C150.185 74.3506 150.881 74.788 151.812 75.2819C153.236 76.0376 154.741 76.5118 156.326 76.7044C157.973 76.9043 159.422 76.7808 160.673 76.3339C162.547 75.6649 163.94 74.3314 164.852 72.3334C165.394 71.144 165.743 70.0575 165.9 69.074C166.1 67.8169 166.299 66.8422 166.499 66.1497C167.168 63.8165 168.506 61.7912 170.511 60.074C170.818 59.8109 171.109 59.6249 171.385 59.5161C171.881 59.3205 172.131 59.222 172.134 59.2206C173.486 58.5075 174.9 57.9503 176.377 57.5489C176.534 57.5063 176.671 57.4813 176.789 57.474C177.289 57.4372 177.367 57.5923 177.022 57.9393C176.34 58.6303 175.518 59.0346 174.556 59.1522C174.481 59.1607 174.414 59.1919 174.367 59.2404C174.12 59.4962 173.968 59.8028 173.911 60.16C173.899 60.2306 173.869 60.2956 173.823 60.3475C172.977 61.3061 172.483 62.4506 172.341 63.7812C172.168 65.394 172.043 66.7738 171.967 67.9206C171.953 68.0999 171.909 68.3396 171.832 68.6395C171.771 68.8806 171.735 69.1262 171.727 69.3761C171.716 69.6628 171.676 69.9318 171.605 70.1832C171.556 70.3626 171.517 70.5442 171.491 70.728C171.462 70.9353 171.415 71.1124 171.352 71.2594C170.582 73.0663 169.677 74.7042 168.639 76.1729C167.856 77.2814 166.829 78.1305 165.559 78.72C165.544 78.7274 165.281 78.8744 164.771 79.1611C164.415 79.3596 164.021 79.4522 163.588 79.439C163.386 79.4331 162.905 79.5441 162.146 79.772C161.651 79.9205 161.171 80.0182 160.706 80.0653C160.016 80.1373 159.326 80.2101 158.636 80.2836C157.646 80.3909 156.673 80.3116 155.716 80.0454C155.135 79.8837 153.946 79.4566 152.151 78.7642C151.263 78.4216 150.473 78.0379 149.782 77.613C149.058 77.169 148.354 76.6522 147.67 76.0626C146.667 75.1967 145.847 74.1785 145.208 73.0083C144.725 72.1232 144.438 71.4873 144.345 71.1007C144.187 70.4346 144.238 69.7084 144.499 68.9218C144.788 68.0514 145.174 67.445 145.655 67.1024C146.243 66.6849 146.811 66.2431 147.36 65.777C147.941 65.2815 147.942 64.778 147.362 64.2664C147.049 63.99 146.716 63.865 146.362 63.8914C146.11 63.9091 145.813 64.0517 145.473 64.3193C143.025 66.2394 141.704 68.799 141.509 71.9982C141.428 73.3038 141.357 74.6101 141.295 75.9171C141.241 77.0609 141.1 77.8828 140.873 78.3826C140.466 79.2765 139.793 79.9653 138.853 80.449C138.735 80.5093 138.622 80.5321 138.514 80.5174C138.279 80.4821 138.224 80.3696 138.349 80.18C138.387 80.1212 138.462 80.0506 138.572 79.9683C138.814 79.783 139.022 79.5639 139.195 79.3111C139.212 79.2874 139.22 79.2579 139.218 79.2266C139.217 79.1954 139.205 79.164 139.186 79.1369C139.096 79.0119 139.082 78.8818 139.144 78.7465C139.226 78.5716 139.271 78.4628 139.278 78.4201C139.305 78.2555 139.319 78.0893 139.32 77.9217C139.32 77.7571 139.346 77.5968 139.397 77.441C139.543 77.0043 139.593 76.5485 139.547 76.0737C139.465 75.2195 139.313 74.0256 139.091 72.4922C138.984 71.7468 139.008 70.9389 139.164 70.0686C139.371 68.9144 139.65 67.7772 140.001 66.6569C140.462 65.1838 141.168 63.9679 142.119 63.0093C142.352 62.7741 142.68 62.5447 143.101 62.3213C143.11 62.3168 143.381 62.2117 143.916 62.0059C144.475 61.7898 144.868 61.3913 145.094 60.8106C145.099 60.798 145.101 60.7844 145.1 60.7708C145.099 60.7572 145.095 60.7439 145.088 60.7319C145.082 60.7199 145.072 60.7095 145.061 60.7014C145.05 60.6932 145.037 60.6876 145.023 60.6849ZM150.216 49.9207C150 50.5441 150.042 51.1204 150.343 51.6497C150.53 51.9761 150.696 52.2003 150.843 52.3223C151.075 52.5149 151.378 52.5671 151.753 52.4789C152.801 52.2304 153.968 52.0702 155.256 51.9981C155.502 51.9834 155.687 51.9312 155.809 51.8416C156.076 51.6401 156.041 51.3976 155.703 51.1138C154.244 49.8921 152.504 49.3341 150.484 49.44C150.445 49.4421 150.407 49.4512 150.376 49.4665C150.344 49.4818 150.318 49.503 150.301 49.5282C150.265 49.5811 150.246 49.6407 150.244 49.7068C150.24 49.8068 150.23 49.8781 150.216 49.9207ZM144.81 51.2594C144.673 51.4255 144.56 51.6078 144.471 51.8063C144.463 51.8246 144.458 51.8444 144.458 51.8644C144.458 51.8844 144.462 51.9043 144.47 51.9227C144.478 51.9411 144.489 51.9577 144.504 51.9715C144.518 51.9852 144.536 51.9958 144.554 52.0026C145.153 52.2231 145.746 52.4172 146.331 52.5848C146.67 52.6818 146.946 52.6943 147.159 52.6222C147.481 52.5135 147.689 52.2951 147.785 51.9673C147.873 51.6644 147.9 51.3439 147.866 51.0057C147.832 50.6573 147.683 50.3544 147.417 50.0972C147.092 49.7811 146.765 49.6958 146.435 49.8413C146.322 49.8899 146.08 50.0641 145.71 50.364C145.382 50.6301 145.081 50.9286 144.81 51.2594ZM151.323 55.7494C151.256 55.9464 151.34 56.3029 151.576 56.819C151.614 56.9008 151.676 56.969 151.754 57.014C151.832 57.0591 151.922 57.0788 152.012 57.0704C152.607 57.0175 153.126 57.0674 153.569 57.2203C153.772 57.2909 154.363 57.3115 155.344 57.2821C155.356 57.2821 155.494 57.288 155.758 57.2997C156.203 57.3189 156.505 57.113 156.665 56.6822C156.874 56.1177 156.814 55.6803 156.487 55.3701C156.277 55.1716 155.919 55.0577 155.412 55.0283C154.374 54.968 153.293 54.9878 152.169 55.0878C151.743 55.1246 151.461 55.3451 151.323 55.7494ZM143.361 56.3382C143.358 56.6631 143.572 56.8425 144.004 56.8763C145.212 56.9689 146.383 56.9586 147.518 56.8454C147.599 56.8374 147.674 56.8009 147.731 56.7424C147.788 56.684 147.822 56.6072 147.829 56.5257C147.918 55.3936 147.463 54.8783 146.463 54.9797C146.274 54.9988 145.872 55.029 145.257 55.0702C144.598 55.1143 144.065 55.3341 143.66 55.7295C143.464 55.9207 143.364 56.1236 143.361 56.3382ZM172.784 60.643C173.089 60.4372 173.309 60.2696 173.444 60.1402C173.645 59.9491 173.617 59.9057 173.36 60.0101C173.074 60.1277 172.864 60.3225 172.728 60.5945C172.684 60.6827 172.703 60.6989 172.784 60.643ZM171.711 61.1613C171.133 61.8067 171.153 61.9272 171.771 61.5229C171.903 61.4362 172.018 61.3303 172.116 61.2054C172.193 61.1054 172.169 61.0481 172.046 61.0334C171.984 61.0271 171.921 61.0355 171.863 61.0577C171.805 61.0799 171.753 61.1154 171.711 61.1613Z" fill="white" fill-opacity="0.5"/>
<path d="M42.0924 51.0781C43.6514 50.0416 45.4798 49.5968 47.5775 49.7438C47.9695 49.7703 48.2388 49.6012 48.3856 49.2366C48.5236 48.8955 48.5207 48.525 48.3768 48.1251C48.3425 48.0296 48.2718 47.9516 48.1802 47.9082C48.0885 47.8648 47.9835 47.8596 47.888 47.8936C46.9969 48.2067 46.2079 48.4905 45.5209 48.7448C45.0966 48.9021 44.6555 48.9529 44.1975 48.897C43.738 48.8426 43.2851 48.861 42.8389 48.9521C42.491 49.0242 42.2407 49.0308 42.088 48.972C41.7372 48.8352 41.6616 48.5294 41.8612 48.0546C42.0653 47.5679 42.3794 47.1673 42.8037 46.8527C43.0561 46.6645 43.4275 46.5329 43.9178 46.4579C44.6533 46.3432 45.377 46.1771 46.089 45.9595C46.1037 45.9551 46.5316 45.8514 47.3727 45.6486C47.9717 45.5045 48.5104 45.2273 48.989 44.8171C49.043 44.7715 49.0796 44.7076 49.0925 44.6363C49.182 44.11 49.1857 43.58 49.1035 43.0463C49.0935 42.9795 49.11 42.9095 49.1497 42.85L50.6272 40.6733C50.6674 40.6142 50.7231 40.5676 50.7879 40.5391C50.8526 40.5105 50.9237 40.5013 50.9928 40.5124C52.242 40.7138 52.9275 41.4496 53.0494 42.7199C53.0993 43.2345 53.0274 43.6594 52.8336 43.9946C52.6046 44.393 52.4886 44.5973 52.4857 44.6076C52.3947 44.934 52.4989 45.1479 52.7984 45.2494C52.9364 45.2979 53.1411 45.3001 53.4127 45.256C54.477 45.084 55.5207 45.1244 56.5439 45.3773C57.7476 45.6758 58.3539 45.8257 58.3627 45.8272C59.0806 45.9345 59.8182 45.9874 60.5757 45.986C60.9119 45.986 61.0043 46.1367 60.8531 46.4381C60.6785 46.7865 60.3518 47.032 59.8733 47.1746C59.405 47.3143 58.9308 47.4202 58.4508 47.4922C58.097 47.5437 57.6221 47.6282 57.0261 47.7458C56.232 47.9017 55.4312 47.9237 54.6238 47.812C54.615 47.8105 54.3654 47.759 53.8751 47.6576C53.0663 47.4915 52.2618 47.5415 51.4618 47.8076C51.1638 47.9075 50.992 48.1134 50.9465 48.4251C50.8746 48.9058 51.1183 49.1087 51.6776 49.0337C52.7727 48.8867 53.867 48.8838 54.9607 49.0249C56.4874 49.2204 58.0133 49.2249 59.5386 49.0381C59.6722 49.022 59.7735 49.0381 59.8424 49.0867C59.976 49.1778 59.9643 49.3116 59.8072 49.488C59.449 49.8879 58.9316 50.1886 58.2548 50.39C56.9645 50.7723 55.6705 51.1413 54.3728 51.4971C53.467 51.7455 52.7874 51.8154 52.3338 51.7066C51.9829 51.6213 51.5645 51.6301 51.0786 51.733C50.9982 51.7506 50.9252 51.7927 50.8696 51.8535C50.814 51.9143 50.7785 51.9909 50.7682 52.0727C50.7094 52.5402 50.7579 52.9158 50.9135 53.1996C50.9295 53.2278 50.9536 53.2513 50.9833 53.2679C51.013 53.2846 51.0474 53.2937 51.083 53.2944C53.169 53.3562 55.2469 53.2687 57.3168 53.032C58.0302 52.9511 58.6372 52.8967 59.1378 52.8688C59.543 52.8467 59.9481 52.8239 60.3533 52.8004C60.6616 52.7842 61.0682 52.7732 61.5732 52.7673C63.5594 52.7453 65.5213 52.5145 67.459 52.0749C67.4678 52.0734 67.7313 52.0043 68.2495 51.8676C68.7545 51.7323 69.1817 51.6831 69.5311 51.7198C70.2372 51.7918 70.2629 51.9661 69.6082 52.2425C68.5556 52.6879 67.4311 53.2452 66.2347 53.9141C66.1276 53.9759 66.1357 54.0075 66.259 54.0089C66.6186 54.0163 66.6414 54.1302 66.3272 54.3508C65.8707 54.6698 65.4391 55.0197 65.0325 55.4005C65.0281 55.4034 64.8035 55.6453 64.3587 56.126C63.8405 56.6862 63.2144 57.103 62.4804 57.3765C61.949 57.5735 61.411 57.5955 60.8664 57.4426C60.5449 57.3529 60.219 57.2875 59.8887 57.2463C59.5452 57.2052 59.2274 57.128 58.9352 57.0148C57.7917 56.5708 56.6004 56.3635 55.3615 56.3929C54.8697 56.4047 54.6678 56.6252 54.7559 57.0545C55.0657 58.5629 55.3776 60.0699 55.6917 61.5754C55.8385 62.2796 55.9244 62.756 55.9494 63.0044C56.2988 66.5094 56.5388 68.7942 56.6694 69.8586C56.6914 70.0438 56.6709 70.2041 56.6078 70.3394C56.5446 70.4761 56.516 70.5687 56.5219 70.6172C56.5292 70.6893 56.5571 70.7554 56.6056 70.8157C56.6569 70.8799 56.6879 70.9459 56.6936 71.0032C56.8272 72.3352 56.9153 73.1254 56.9579 73.3739C57.0342 73.8194 56.9792 74.3707 56.7927 75.0279C56.4066 76.3849 56.0543 77.4096 55.7358 78.1021C54.6642 80.4265 52.9107 82.1628 50.4753 83.3111C50.2375 83.4243 49.4947 83.8381 48.2469 84.5527C47.6979 84.8658 47.005 85.054 46.1683 85.1172C45.6882 85.1525 45.1634 85.2944 44.5938 85.5428C44.2753 85.6825 43.8085 85.9508 43.1934 86.3478C42.2157 86.98 41.2168 87.5762 40.1965 88.1363C40.1608 88.1562 40.1234 88.1684 40.0885 88.1715C40.0535 88.1746 40.0223 88.1685 39.9984 88.154C39.9059 88.0981 39.9154 87.9952 40.027 87.8452C40.7786 86.8381 41.8047 86.0471 43.1053 85.4723C43.1694 85.444 43.2255 85.4079 43.2697 85.3668C43.3138 85.3256 43.3449 85.2803 43.3608 85.2341L43.4092 85.0974C43.4532 84.9753 43.4048 84.9621 43.2639 85.0577L42.6605 85.4701C42.623 85.4965 42.5866 85.518 42.5536 85.5332C42.5207 85.5484 42.4918 85.5569 42.469 85.5583C42.2311 85.5745 42.2348 85.4451 42.48 85.1702C43.5854 83.9337 44.9073 83.0104 46.4457 82.4003C47.4953 81.9827 48.4899 81.2755 49.4294 80.2787C49.971 79.7054 50.4261 79.1753 50.7946 78.6887C51.1836 78.1741 51.4933 77.5566 51.7238 76.8362C51.9719 76.0585 52.1803 75.2705 52.3492 74.4721C52.5327 73.6121 52.6229 72.652 52.62 71.592C52.6171 70.6231 52.5951 69.6535 52.5539 68.6832C52.5532 68.6686 52.549 68.6544 52.5417 68.6417C52.5344 68.629 52.5242 68.6183 52.5119 68.6103C52.4997 68.6024 52.4858 68.5974 52.4712 68.5959C52.4567 68.5944 52.4421 68.5963 52.4284 68.6016C51.7987 68.853 51.1484 69.0404 50.4775 69.1639C50.0885 69.2345 49.4521 69.2646 48.5684 69.2543C47.9269 69.247 47.2869 69.2771 46.6483 69.3447C46.0229 69.4109 45.4695 69.569 44.988 69.8189C44.4962 70.0747 44.0045 70.3915 43.5127 70.7694C43.316 70.9208 43.0701 71.0708 42.775 71.2193C42.5563 71.3295 42.3082 71.4729 42.0308 71.6493C41.5419 71.961 41.0113 72.1793 40.4387 72.3043C40.3753 72.3188 40.3121 72.3539 40.256 72.4057C40.0696 72.5778 39.9426 72.5542 39.875 72.3352C39.8467 72.2431 39.8546 72.1437 39.8971 72.0573C40.104 71.6412 40.3081 71.2744 40.5092 70.9568C40.8468 70.4246 41.059 70.0629 41.1456 69.8718C41.5522 68.9618 41.8502 67.9422 42.0396 66.813C42.226 65.7045 42.5409 64.4842 42.9842 63.1522C43.3277 62.1231 43.5545 61.4864 43.6646 61.2424C43.9435 60.6176 44.3135 60.0427 44.7744 59.5178C45.2779 58.9459 45.7066 58.3233 46.0604 57.6499C46.0786 57.6153 46.103 57.5859 46.1315 57.5643C46.1599 57.5428 46.1915 57.5297 46.2233 57.5264C46.4171 57.5058 46.5272 57.6205 46.5536 57.8705C46.6006 58.3027 46.8443 58.524 47.2846 58.5343C49.1989 58.574 51.0984 58.4313 52.9833 58.1064C53.0173 58.1004 53.0492 58.0866 53.0764 58.0663C53.1035 58.046 53.1252 58.0197 53.1397 57.9895C53.3745 57.5 53.3672 57.0141 53.1176 56.5318C53.1021 56.5023 53.0789 56.4773 53.0503 56.4595C53.0217 56.4417 52.9887 56.4317 52.9547 56.4304C50.9098 56.3495 48.8679 56.3899 46.8288 56.5517C46.2916 56.5943 45.8211 56.673 45.4174 56.7876C44.8258 56.9552 44.3832 57.1405 44.0896 57.3434C43.7505 57.5801 43.1119 57.8543 42.1739 58.166C42.102 58.191 42.033 58.2211 41.9669 58.2564C41.6263 58.4358 41.321 58.4512 41.0509 58.3027C40.7999 58.1645 40.5951 57.977 40.4365 57.7403C40.2677 57.4875 40.2472 57.1809 40.3749 56.8207C40.7067 55.8783 41.2527 55.1925 42.0131 54.7632C42.4433 54.5206 43.2367 54.2795 44.3935 54.0398C45.3506 53.8413 46.456 53.6884 47.7096 53.5811C48.1441 53.5443 48.3754 53.3451 48.4032 52.9835C48.4267 52.6938 48.3372 52.4564 48.1346 52.2711C47.9291 52.0844 47.6671 52.0256 47.3485 52.0947C47.1092 52.1462 46.9815 52.1734 46.9654 52.1763C46.4677 52.2498 46.0552 52.3322 45.7279 52.4233C44.7428 52.6997 43.7784 52.8467 42.8345 52.8644C42.5042 52.8703 42.2539 52.796 42.0836 52.6416C41.8531 52.4285 41.757 52.1521 41.7952 51.8124C41.8025 51.7419 41.7746 51.7235 41.7115 51.7573L39.1286 53.1268C38.8614 53.2679 38.7564 53.4723 38.8137 53.7399C38.981 54.522 39.1902 55.3174 39.4413 56.126C39.5778 56.5627 39.6438 56.9332 39.6394 57.2375C39.6336 57.6051 39.5895 57.9851 39.5073 58.3777C39.4031 58.8805 39.3759 59.4311 39.4258 60.0295C39.5036 60.9616 39.5257 61.9077 39.4919 62.8677C39.4875 62.9824 39.4559 63.0905 39.3972 63.1919L37.9505 65.6442C37.9164 65.7021 37.8711 65.7525 37.8173 65.7922C37.7636 65.832 37.7026 65.8604 37.6378 65.8758C37.1608 65.9846 36.7072 66.1507 36.277 66.3742C36.2712 66.3771 36.128 66.4683 35.8477 66.6476C35.513 66.8608 35.0784 67.002 34.5441 67.0711C34.4269 67.0854 34.3173 67.1372 34.2314 67.2188C33.2919 68.1157 32.3752 69.1419 31.4812 70.2975C31.4402 70.3504 31.386 70.3917 31.3238 70.4173C31.2616 70.4428 31.1936 70.4517 31.1266 70.443C31.0298 70.4312 30.9931 70.3621 31.0165 70.2357C31.0268 70.1798 31.0591 70.1196 31.1134 70.0549C31.3468 69.7785 31.5105 69.4719 31.6045 69.1352C31.7498 68.6074 31.8526 68.2869 31.9127 68.1737C32.29 67.4518 32.77 66.7998 33.3528 66.2176C33.7022 65.8677 34.0017 65.4825 34.2512 65.062C34.5155 64.6195 34.7694 64.246 35.0131 63.9417C36.4018 62.2083 36.8767 60.239 36.4378 58.0336C36.2014 56.8428 36.073 56.0342 36.0524 55.6078C36.0495 55.5225 36.0187 55.3593 35.96 55.1182C35.8954 54.8565 35.8058 54.822 35.6913 55.0146C35.6529 55.0786 35.5983 55.1255 35.5372 55.1469C33.9752 55.6938 32.5689 56.6097 31.3182 57.8947C30.6562 58.5754 30.1805 59.0768 29.8913 59.3987C29.867 59.4258 29.8367 59.4452 29.8046 59.4544C29.7725 59.4635 29.7404 59.4618 29.713 59.4495C29.6044 59.3995 29.5845 59.3098 29.6535 59.1804C29.6703 59.1495 29.6793 59.1163 29.6793 59.0852C29.6793 59.0541 29.6703 59.0265 29.6535 59.0062C29.6021 58.9444 29.5655 58.9694 29.5434 59.0812C29.5292 59.1596 29.4966 59.2257 29.4509 59.2686L26.8592 61.7077C26.8297 61.7352 26.7956 61.7546 26.7616 61.7633C26.7277 61.772 26.6956 61.7695 26.6699 61.7562C26.5965 61.7151 26.5899 61.6291 26.6501 61.4982C27.3899 59.9016 28.2714 58.3887 29.2946 56.9597C31.2294 54.2603 33.427 51.7985 35.8873 49.574C36.9369 48.6243 37.8089 47.5422 38.5032 46.3278C38.6104 46.1396 38.6698 45.9367 38.6816 45.7191C38.6948 45.453 38.8159 45.2435 39.0449 45.0906C39.2901 44.9289 39.464 44.9862 39.5668 45.2626C39.6358 45.4508 39.7407 45.6228 39.8816 45.7787C40.0857 46.0066 40.2112 46.1595 40.2582 46.2374C40.5577 46.7299 40.8167 47.2893 41.0355 47.9156C41.4362 49.0639 41.7489 50.1033 41.9735 51.034C41.9761 51.0458 41.9816 51.0568 41.9896 51.066C41.9976 51.0752 42.008 51.0822 42.0196 51.0865C42.0313 51.0909 42.0441 51.0924 42.0567 51.0909C42.0694 51.0894 42.0817 51.085 42.0924 51.0781ZM65.7745 54.0332C65.0684 54.3787 64.8182 54.5581 65.0237 54.5713C65.0486 54.5728 65.0728 54.5684 65.0963 54.5581C65.7188 54.2817 66.0241 54.1324 66.0123 54.1104C65.9903 54.0693 65.9533 54.0383 65.9089 54.0239C65.8646 54.0095 65.8165 54.0128 65.7745 54.0332ZM52.2479 60.7462C51.8956 61.0711 51.4926 61.2747 51.039 61.3571C50.7836 61.4026 50.4988 61.3438 50.1846 61.1806C49.6767 60.9204 49.1556 60.6903 48.6212 60.4904C48.5038 60.4463 48.2836 60.4117 47.9607 60.3867C47.7214 60.3676 47.5019 60.2897 47.3023 60.153C47.2756 60.1344 47.2441 60.1244 47.2125 60.1244C47.1809 60.1244 47.1506 60.1344 47.1261 60.153C46.6461 60.5279 46.329 61.016 46.1749 61.6173C46.0912 61.9393 46.0104 62.2627 45.9326 62.5876C45.9243 62.6204 45.9229 62.6549 45.9286 62.689C45.9343 62.7232 45.9469 62.7562 45.9657 62.7861L46.4435 63.5756C46.4581 63.6009 46.4821 63.6194 46.5104 63.6272C46.5388 63.635 46.5692 63.6315 46.5954 63.6175C48.0076 62.8574 49.6268 62.5075 51.453 62.5678C52.7418 62.6104 53.1397 62.0334 52.6464 60.8366C52.6229 60.7807 52.609 60.719 52.6046 60.6514C52.587 60.3529 52.5077 60.3323 52.3668 60.5896C52.3301 60.6558 52.2904 60.708 52.2479 60.7462ZM55.2624 63.0596C55.1317 63.308 55.0979 63.5506 55.1611 63.7873C55.1713 63.8255 55.1882 63.86 55.2104 63.888C55.2326 63.916 55.2595 63.9367 55.2888 63.9483C55.3827 63.9851 55.4334 63.9299 55.4407 63.7829C55.4554 63.5212 55.429 63.2831 55.3615 63.0684C55.335 62.9846 55.302 62.9817 55.2624 63.0596ZM50.5303 65.0356C49.2664 64.9032 47.9665 64.9723 46.6307 65.2429C46.5409 65.2607 46.459 65.3065 46.3966 65.3738C46.3341 65.4411 46.2943 65.5264 46.2828 65.6178C46.1888 66.3602 46.1727 66.974 46.2343 67.4592C46.2872 67.8709 46.5096 68.0098 46.9015 67.876C47.8968 67.5364 48.7893 67.2526 49.5791 67.0248C50.4041 66.788 51.2452 66.6925 52.1025 66.7381C52.3404 66.7498 52.5172 66.7079 52.6332 66.6124C52.8064 66.4697 52.8879 66.2816 52.8776 66.0478C52.863 65.6964 52.8564 65.506 52.8578 65.4766C52.8666 65.1899 52.8167 64.915 52.7081 64.6518C52.7027 64.639 52.6948 64.6274 52.6847 64.6178C52.6745 64.6082 52.6625 64.6008 52.6493 64.596C52.6361 64.5913 52.622 64.5893 52.6078 64.5901C52.5937 64.591 52.5799 64.5947 52.5672 64.6011C51.8479 64.9569 51.1689 65.1017 50.5303 65.0356ZM45.49 67.0027C45.3741 67.2041 45.3939 67.3056 45.5495 67.307C45.5801 67.3068 45.61 67.2946 45.6341 67.2725C45.6582 67.2504 45.675 67.2197 45.6816 67.1857C45.8269 66.4256 45.8629 65.6597 45.7895 64.8878C45.7868 64.8642 45.7807 64.8425 45.7719 64.8248C45.763 64.807 45.7517 64.7938 45.7389 64.7863C45.7124 64.7702 45.6868 64.7746 45.6618 64.7996C45.6412 64.8202 45.6302 64.8518 45.6288 64.8944C45.6112 65.5295 45.5862 66.1647 45.5539 66.7998C45.551 66.866 45.5297 66.9336 45.49 67.0027ZM55.1611 65.6927C55.2389 65.9044 55.3145 65.8905 55.3879 65.6508C55.3985 65.6166 55.3978 65.5804 55.386 65.5494C55.3742 65.5183 55.3521 65.4947 55.324 65.4832C55.2756 65.4656 55.2323 65.4715 55.1941 65.5009C55.1711 65.5185 55.1556 65.5467 55.1496 65.5812C55.1437 65.6157 55.1477 65.6548 55.1611 65.6927ZM55.2227 66.5815C55.1891 66.6344 55.1678 66.6945 55.1606 66.7571C55.1533 66.8197 55.1603 66.8833 55.1809 66.9432C55.3424 67.4033 55.3761 67.8209 55.2822 68.1958C55.2631 68.2722 55.2616 68.3428 55.2778 68.4075C55.3967 68.8618 55.4701 68.7905 55.498 68.1936C55.5127 67.8981 55.5222 67.6033 55.5266 67.3092C55.531 67.0564 55.5127 66.7991 55.4715 66.5374C55.4422 66.3477 55.3592 66.3624 55.2227 66.5815ZM55.3592 69.7241C55.2844 70.0681 55.2895 70.4092 55.3747 70.7473C55.3831 70.7833 55.4015 70.8154 55.4266 70.8377C55.4516 70.8599 55.4817 70.8709 55.5112 70.8686C55.611 70.8613 55.6345 70.7591 55.5816 70.5621C55.542 70.4121 55.5391 70.1806 55.5728 69.8674C55.5787 69.813 55.5743 69.7623 55.5596 69.7152C55.4818 69.4609 55.415 69.4638 55.3592 69.7241ZM55.2888 71.5655C55.2594 72.4006 55.3292 72.4256 55.498 71.6405C55.5082 71.592 55.5097 71.5427 55.5024 71.4927C55.4437 71.0811 55.3783 71.0531 55.3064 71.4089C55.2976 71.4574 55.2917 71.5096 55.2888 71.5655ZM55.1148 74.0421C55.0091 74.6346 54.9328 75.2308 54.8858 75.8306C54.8814 75.8909 54.8682 75.9519 54.8462 76.0136C54.7023 76.4047 54.7721 76.4474 55.0554 76.1416C55.1028 76.0898 55.1342 76.0246 55.1457 75.9541C55.2191 75.4616 55.3093 74.4545 55.4165 72.9328C55.4341 72.6917 55.3835 72.552 55.2646 72.5138C55.2517 72.5095 55.238 72.5089 55.2245 72.5121C55.2111 72.5153 55.1982 72.5222 55.1869 72.5322C55.1756 72.5422 55.1663 72.5551 55.1595 72.5699C55.1527 72.5847 55.1487 72.601 55.1479 72.6175C55.1317 72.8571 55.1317 73.096 55.1479 73.3342C55.1655 73.5929 55.1545 73.8289 55.1148 74.0421Z" fill="white" fill-opacity="0.5"/>
<path d="M146.752 45.1306C147.532 45.2526 147.564 45.4776 146.849 45.8054C146.533 45.9495 146.26 45.9929 146.03 45.9356C146.004 45.9296 145.981 45.9119 145.966 45.8857C145.95 45.8595 145.942 45.8264 145.944 45.7922C145.951 45.6334 145.868 45.5643 145.693 45.5849C145.141 45.6496 144.811 45.6312 144.702 45.5298L144.552 45.393C144.534 45.3757 144.508 45.3613 144.474 45.3506C144.441 45.34 144.401 45.3334 144.359 45.3313C144.25 45.3254 144.192 45.2681 144.185 45.1593C144.18 45.0913 144.151 45.0288 144.103 44.9851C144.039 44.9292 143.997 44.8579 143.98 44.7711C143.974 44.7371 143.96 44.7059 143.94 44.6816C143.92 44.6573 143.895 44.6409 143.868 44.6344C143.082 44.433 142.282 44.3565 141.467 44.4051C141.453 44.4063 141.438 44.4046 141.424 44.4001C141.41 44.3957 141.397 44.3885 141.386 44.379C141.375 44.3696 141.366 44.358 141.359 44.3451C141.353 44.3321 141.349 44.318 141.348 44.3036C141.293 43.3759 141.732 42.954 142.667 43.0378C142.723 43.0421 142.787 43.076 142.848 43.1326C142.983 43.2576 143.179 43.3031 143.436 43.2693C143.568 43.2517 143.985 43.2546 144.687 43.2781C144.717 43.2794 144.747 43.2899 144.774 43.3085C144.801 43.3271 144.823 43.3532 144.839 43.384C144.894 43.5016 144.981 43.5839 145.098 43.631C145.264 43.6971 145.353 43.7339 145.365 43.7413C145.707 43.9397 146.042 44.1478 146.371 44.3654C146.397 44.3829 146.417 44.4083 146.429 44.4386C146.441 44.4688 146.444 44.5024 146.437 44.5352C146.367 44.888 146.472 45.0865 146.752 45.1306Z" fill="white" fill-opacity="0.5"/>
<path d="M137.806 47.4946C137.871 47.5402 137.95 47.5637 138.044 47.5652C138.63 47.5813 139.164 47.7504 139.647 48.0724C139.679 48.0938 139.704 48.1219 139.719 48.1531C139.734 48.1842 139.738 48.2169 139.731 48.2466L139.561 48.9413C139.554 48.9696 139.538 48.9981 139.513 49.0248C139.489 49.0515 139.457 49.0757 139.42 49.0957C138.44 49.6161 137.632 49.8977 136.998 49.9403C134.478 50.1109 132.881 50.2395 132.209 50.3262C131.834 50.3748 131.489 50.3755 131.172 50.3284C131.169 50.3284 130.984 50.2733 130.617 50.163C130.223 50.0454 129.815 50.0925 129.392 50.3042C129.303 50.3484 129.203 50.3682 129.103 50.3617C129.003 50.3551 128.906 50.3223 128.822 50.2667C128.223 49.8624 127.761 49.35 127.435 48.7296C127.279 48.4326 127.242 48.1621 127.323 47.918C127.405 47.6725 127.561 47.4233 127.792 47.1704C128.307 46.6014 128.898 46.3669 129.566 46.4669C129.919 46.5199 130.711 46.5184 131.942 46.4625C131.995 46.4596 132.645 46.3883 133.891 46.2486C135.441 46.0722 136.932 46.3339 138.363 47.0337C138.542 47.1204 138.528 47.191 138.321 47.2454L137.83 47.3711C137.735 47.3961 137.727 47.4373 137.806 47.4946Z" fill="white" fill-opacity="0.5"/>
<path d="M88.5677 67.6366C88.7086 67.6454 88.8495 67.6366 88.9905 67.6101C89.0932 67.5895 89.1688 67.5902 89.2173 67.6123C89.2628 67.6329 89.3002 67.6638 89.3296 67.7049C89.3475 67.7293 89.3546 67.7608 89.3498 67.7939C89.3449 67.827 89.3284 67.8596 89.3031 67.8858C89.0521 68.1416 88.771 68.3592 88.4598 68.5385C86.7393 69.5353 85.3536 70.5542 84.3025 71.5951C83.6874 72.2023 83.0026 72.5772 82.2481 72.7198C81.8414 72.7963 81.0913 72.8227 79.9977 72.7992C78.6706 72.7713 77.392 72.4964 76.1618 71.9744C75.5306 71.7068 75.2113 71.5716 75.204 71.5686C74.3614 71.232 73.5231 70.8762 72.6893 70.5013C72.6269 70.4731 72.5583 70.4617 72.4903 70.4683C72.4223 70.4748 72.3573 70.4992 72.3018 70.5388C71.8908 70.8284 71.4592 71.093 71.007 71.3327C70.7193 71.4856 70.3508 71.5922 69.9016 71.6524C69.2073 71.7465 68.532 71.9252 67.8758 72.1883C67.1536 72.4765 66.413 72.6294 65.6541 72.6471C65.3884 72.6529 64.7703 72.5772 63.8 72.4199C63.2833 72.3346 62.6638 72.2567 61.9415 72.1861C61.9088 72.1826 61.8771 72.1726 61.8483 72.1567C61.8196 72.1408 61.7944 72.1193 61.7742 72.0935C61.5041 71.7524 61.6413 71.5966 62.186 71.626C62.6161 71.6495 63.0345 71.6025 63.4411 71.4848C63.8668 71.3613 64.0877 71.2974 64.1039 71.293C65.2474 71.0107 66.3572 70.6277 67.4332 70.144C68.2201 69.7897 68.8051 69.3883 69.1882 68.9399C69.5523 68.5135 69.531 68.1078 69.1243 67.7226C68.085 66.736 67.3503 65.5283 66.9202 64.0992C66.9061 64.0525 66.8774 64.0115 66.8382 63.9821C66.799 63.9528 66.7514 63.9366 66.7022 63.936C65.8919 63.9228 65.1894 64.0603 64.5949 64.3484C64.3938 64.4455 64.1244 64.6763 63.7868 65.0409C62.8634 66.0377 61.8674 65.9509 60.7987 64.7807C60.2159 64.1426 60.111 63.5596 60.4838 63.0318C60.6952 62.7319 61.1063 62.4526 61.7169 62.1938C63.0176 61.6425 64.4584 61.3073 66.0394 61.1882C66.4842 61.1544 66.7697 60.9375 66.896 60.5376C67.0369 60.0892 67.1088 59.8606 67.1118 59.8518C67.9705 58.0346 69.161 56.4659 70.6833 55.1456C71.6331 54.3193 72.2122 53.2872 72.4207 52.0493C72.4336 51.9722 72.4669 51.9054 72.5154 51.8597C72.8148 51.5686 73.0783 51.609 73.3059 51.981C73.8505 52.8719 74.2358 53.829 74.4619 54.8523C74.4844 54.9528 74.4679 55.0578 74.4157 55.1456C74.1382 55.6131 73.7962 56.0255 73.3896 56.3828C73.0593 56.6724 72.8897 56.8216 72.8809 56.8305C72.5286 57.1598 72.1726 57.4862 71.8129 57.8096C71.0936 58.458 70.7259 58.7917 70.7098 58.8109C70.3809 59.2078 70.1864 59.6842 70.1262 60.2399C70.0837 60.6369 70.2562 60.817 70.6437 60.7802L74.5059 60.4141C74.5392 60.4115 74.5713 60.3997 74.5988 60.3799C74.6263 60.3601 74.6482 60.3331 74.6623 60.3016C74.8179 59.9414 74.815 59.5695 74.6535 59.1858C74.3628 58.4948 74.1338 57.7832 73.9665 57.051C73.8314 56.46 74.0142 56.3343 74.5148 56.6739C74.9552 56.9709 75.342 57.4391 75.6752 58.0787C75.7794 58.2816 75.8653 58.3132 75.9328 58.1735C75.9455 58.1474 75.9635 58.1243 75.9859 58.1057C76.0082 58.0872 76.0343 58.0736 76.0624 58.0659C76.0905 58.0582 76.12 58.0565 76.1489 58.061C76.1778 58.0655 76.2055 58.076 76.2301 58.0919C77.0742 58.6432 77.6188 59.3967 77.8639 60.3524C77.8716 60.3833 77.8885 60.411 77.9122 60.4316C77.9359 60.4521 77.9652 60.4645 77.9961 60.467C78.8034 60.5273 79.7173 60.5104 80.7375 60.4163C81.0942 60.384 81.4987 60.3832 81.9508 60.4141C82.4587 60.4494 82.8609 60.4597 83.1575 60.445C86.3547 60.2936 89.4382 59.9165 92.4079 59.3137C92.6017 59.274 92.7742 59.2526 92.9254 59.2497C93.1089 59.2468 93.238 59.2262 93.3129 59.188C93.4362 59.1233 93.5383 59.0314 93.619 58.9123C93.6378 58.8831 93.6639 58.8603 93.693 58.8475C93.7221 58.8347 93.7527 58.8327 93.7797 58.8417L94.0682 58.9388C94.0987 58.9487 94.131 58.9502 94.1614 58.9432C94.1917 58.9361 94.219 58.9209 94.2399 58.8991C94.4073 58.7256 94.5446 58.7579 94.6517 58.9961C94.8249 59.3901 94.9526 59.9841 95.0349 60.778C95.1127 61.5249 95.2088 62.1218 95.3233 62.5687C95.476 63.1597 95.6389 63.7478 95.8121 64.333C96.0734 65.2122 96.21 66.1119 96.2217 67.0323C96.2276 67.5189 96.3047 68.0276 96.4529 68.5584C96.5219 68.8083 96.6849 68.948 96.9418 68.9774C97.6156 69.0538 98.3246 69.1788 99.0689 69.3523C100.139 69.6008 101.222 69.6552 102.317 69.5155C102.685 69.4684 102.98 69.3089 103.2 69.0369C103.364 68.8355 103.453 68.7282 103.466 68.715C104.058 68.0842 104.514 67.4454 104.836 66.7985C105.151 66.1605 105.523 65.6319 105.95 65.2129C106.128 65.0379 106.454 64.6109 106.928 63.9316C107.427 63.2141 107.698 62.5011 107.742 61.7924C107.825 60.4722 107.839 59.1519 107.786 57.8317C107.738 56.5908 107.75 55.7058 107.824 55.1765C107.938 54.3443 108.139 53.4754 108.427 52.5698C108.499 52.3463 108.628 52.1625 108.813 52.0185C109.403 51.5583 109.771 51.6641 109.918 52.336C109.974 52.5933 110.005 52.7315 110.01 52.7506C110.347 54.0268 110.504 55.3206 110.484 56.632C110.459 58.1022 110.45 58.9351 110.457 59.1306C110.506 60.4817 110.526 61.4984 110.519 62.1806C110.513 62.7128 110.578 63.2141 110.713 63.6846C110.827 64.0786 111.078 64.4903 111.466 64.9196C112.126 65.6532 112.791 66.3832 113.459 67.1095C113.685 67.355 113.854 67.6454 113.965 67.9806C114.138 68.4966 114.279 68.8377 114.386 69.0039C114.632 69.3817 115.049 69.5434 115.636 69.489C117.241 69.342 118.953 68.8032 120.771 67.8725C121.639 67.4285 122.155 66.8154 122.319 66.0333C122.666 64.3705 122.824 63.0679 122.795 62.1255C122.77 61.3389 122.916 60.6721 123.233 60.1252C123.248 60.0998 123.253 60.0697 123.249 60.0396C123.245 60.0094 123.231 59.9807 123.209 59.9576C123.014 59.7518 123.042 59.4791 123.293 59.1394C123.308 59.1187 123.315 59.0932 123.312 59.068C123.31 59.0427 123.298 59.0195 123.279 59.0027C123.084 58.8204 123.061 58.6183 123.209 58.3962C123.24 58.3492 123.262 58.2823 123.275 58.1956L123.368 57.5979C123.381 57.5082 123.379 57.4391 123.363 57.3906C123.265 57.0833 123.254 56.7724 123.33 56.4578C123.338 56.4259 123.356 56.3978 123.381 56.3788C123.407 56.3597 123.438 56.3509 123.469 56.3541C123.682 56.3732 123.827 56.4784 123.905 56.6695C123.933 56.7371 123.939 56.8474 123.922 57.0003C123.896 57.2679 124.002 57.3399 124.242 57.2164C124.254 57.2104 124.267 57.2071 124.28 57.2066C124.293 57.2061 124.306 57.2086 124.318 57.2137C124.33 57.2188 124.34 57.2265 124.348 57.2362C124.355 57.2458 124.361 57.2572 124.363 57.2693C124.429 57.5957 124.299 57.8118 123.973 57.9177C123.872 57.95 123.803 57.9897 123.766 58.0368C123.691 58.1309 123.701 58.2095 123.797 58.2728C123.808 58.2799 123.82 58.2842 123.834 58.2854C123.847 58.2865 123.861 58.2845 123.874 58.2795C123.888 58.2745 123.9 58.2666 123.911 58.2563C123.922 58.246 123.931 58.2336 123.938 58.2198C124.061 57.964 124.246 57.8795 124.493 57.9662C124.525 57.978 124.555 57.9972 124.579 58.0221C124.603 58.0471 124.621 58.0772 124.631 58.1101C124.641 58.1429 124.644 58.1777 124.639 58.2117C124.634 58.2456 124.621 58.2779 124.601 58.3058C124.398 58.5896 124.444 58.83 124.737 59.027C124.766 59.0463 124.791 59.0716 124.809 59.1013C124.828 59.131 124.84 59.1643 124.845 59.199C124.849 59.2337 124.846 59.2689 124.836 59.3024C124.826 59.3359 124.809 59.3668 124.786 59.3931C124.667 59.5254 124.644 59.6717 124.717 59.8319C124.814 60.0422 124.865 60.1539 124.869 60.1671C125.324 61.78 125.539 63.4251 125.512 65.1026C125.498 66.0965 125.527 67.0889 125.6 68.0798C125.621 68.3577 125.601 68.629 125.541 68.8936C125.491 69.1171 125.374 69.3552 125.191 69.6081C124.69 70.3006 124.281 70.7696 123.964 71.0151C123.763 71.171 123.355 71.2922 122.74 71.379C119.835 71.7906 116.917 71.9237 113.987 71.7782C111.562 71.6576 109.137 71.637 106.712 71.7164C106.066 71.737 105.123 71.8333 103.882 72.0053C102.938 72.1347 101.991 72.217 101.04 72.2523C101.006 72.2537 100.973 72.2624 100.942 72.278C100.912 72.2936 100.884 72.3156 100.861 72.3427C100.665 72.5853 100.416 72.6948 100.115 72.6713C100.058 72.6656 99.9929 72.631 99.932 72.5743C99.7838 72.4361 99.6421 72.4765 99.507 72.6956C99.4812 72.7382 99.4443 72.773 99.4001 72.7963C99.3559 72.8196 99.3061 72.8305 99.256 72.8279C98.7584 72.8029 98.3143 72.7331 97.9238 72.6184C97.391 72.4625 96.8588 72.4692 96.3274 72.6382C95.5699 72.8779 94.9688 72.7404 94.524 72.2258C94.4663 72.1593 94.3924 72.1088 94.3094 72.0794C94.2264 72.0501 94.1372 72.0428 94.0506 72.0582C93.0773 72.2302 92.4791 72.7022 92.256 73.474C92.2449 73.5125 92.2263 73.5465 92.2027 73.5717C92.1792 73.5969 92.1517 73.612 92.1239 73.6152C92.0372 73.6255 91.9991 73.5608 92.0094 73.4211C92.0182 73.2917 92.0226 73.2226 92.0226 73.2138C92.0299 71.7715 92.1261 70.3373 92.311 68.9112C92.4916 67.516 92.5819 66.8147 92.5819 66.8074C92.7522 65.3166 92.921 63.8258 93.0883 62.335C93.0883 62.3305 93.103 62.1159 93.1324 61.691C93.1603 61.2896 93.2491 60.9008 93.3988 60.5244C93.5926 60.0377 93.4605 59.9209 93.0024 60.1737C92.4681 60.4693 91.8604 60.7023 91.1792 60.8728C91.1432 60.8815 91.1105 60.8981 91.0845 60.921C91.0586 60.9439 91.0403 60.9722 91.0317 61.0029L90.9832 61.175C90.9728 61.212 90.9573 61.2457 90.9376 61.2741C90.918 61.3025 90.8946 61.325 90.8687 61.3404C88.9721 62.4915 87.5357 63.245 86.5595 63.6008C85.7932 63.8787 84.9271 63.9551 83.9612 63.8302C82.8808 63.6905 82.3339 63.6199 82.3207 63.6185C81.4223 63.5391 80.5283 63.4244 79.6387 63.2744C79.1543 63.1936 78.6757 63.2061 78.203 63.3119C78.1661 63.3203 78.1319 63.3348 78.1024 63.3545C78.0729 63.3742 78.0487 63.3987 78.0313 63.4266L76.7365 65.4709C76.6764 65.5665 76.6176 65.6393 76.5604 65.6893C76.2947 65.9186 76.0723 66.1546 75.8932 66.3972C75.7053 66.653 75.6231 66.8845 75.6466 67.0918C75.6803 67.3888 75.8954 67.5851 76.2917 67.6807C77.1828 67.8938 77.9498 68.0195 78.5928 68.0578C80.2751 68.1563 81.9581 68.2599 83.6419 68.3687C83.9472 68.3893 84.3429 68.3636 84.8288 68.2915C85.1605 68.2415 85.5429 68.1408 85.976 67.9894C86.7555 67.7159 87.4315 67.5072 88.004 67.3631C88.186 67.3175 88.3218 67.3712 88.4114 67.5241C88.4302 67.5565 88.4544 67.5839 88.4817 67.6035C88.509 67.6231 88.5385 67.6345 88.5677 67.6366ZM76.9105 60.0811C77.0044 60.2825 77.0507 60.2664 77.0492 60.0326C77.0492 59.9944 77.0448 59.9569 77.036 59.9201C76.8936 59.3938 76.6264 58.9446 76.2345 58.5727C76.2071 58.5467 76.1749 58.5282 76.142 58.5196C76.1091 58.511 76.077 58.5126 76.0495 58.5242C75.9556 58.5639 75.9813 58.6388 76.1266 58.7491C76.2925 58.8755 76.5538 59.3195 76.9105 60.0811ZM94.0704 59.6621C94.1042 59.2284 93.9845 59.088 93.7115 59.2409C93.6628 59.2681 93.6267 59.3132 93.611 59.3665C93.5953 59.4198 93.6014 59.4769 93.6278 59.5254C93.8906 60.015 94.0381 60.0605 94.0704 59.6621ZM64.3901 61.6932C64.2991 61.5991 64.1978 61.5903 64.0863 61.6667C64.0281 61.7065 63.9591 61.7238 63.8925 61.7153C63.7912 61.702 63.7119 61.7189 63.6547 61.766C63.6004 61.813 63.5798 61.9049 63.593 62.0416C63.6238 62.343 63.6334 62.6459 63.6216 62.9502C63.6205 62.9864 63.6292 63.0214 63.6463 63.0497C63.6634 63.078 63.688 63.0981 63.7163 63.1068C63.9028 63.1656 64.0657 63.0818 64.2052 62.8554C64.3387 62.6378 64.5318 62.5474 64.7843 62.5842C65.4478 62.6797 66.0005 62.8569 66.4424 63.1156C66.4699 63.1319 66.5018 63.1386 66.533 63.1346C66.5643 63.1306 66.5928 63.1161 66.6141 63.0936C66.758 62.9377 66.8666 62.7606 66.94 62.5621C66.9498 62.5351 66.9502 62.5043 66.9412 62.4734C66.9323 62.4425 66.9143 62.4128 66.8894 62.3879C66.7983 62.2967 66.7536 62.1762 66.755 62.0262C66.7553 62.0097 66.7517 61.9934 66.7446 61.9785C66.7374 61.9637 66.7269 61.9507 66.7139 61.9406C66.7008 61.9305 66.6856 61.9237 66.6694 61.9205C66.6533 61.9174 66.6366 61.9181 66.6207 61.9226C66.3374 62.002 66.104 62.0108 65.9205 61.949C65.8471 61.924 65.7774 61.9137 65.7113 61.9181C65.5234 61.9284 65.4449 61.8645 65.4757 61.7263C65.4805 61.7057 65.4937 61.6857 65.5139 61.6686C65.5341 61.6514 65.5605 61.6378 65.5902 61.6293C65.6504 61.6131 65.6695 61.5851 65.6475 61.5455C65.6369 61.5254 65.617 61.5078 65.5898 61.4946C65.5627 61.4814 65.5293 61.4731 65.4933 61.4705C65.3274 61.4572 65.1615 61.4433 64.9957 61.4286C64.7446 61.4065 64.5766 61.4896 64.4914 61.6778C64.4872 61.6867 64.4809 61.6944 64.4729 61.7003C64.4649 61.7062 64.4556 61.7101 64.4457 61.7116C64.4358 61.7131 64.4255 61.7122 64.4159 61.709C64.4062 61.7058 64.3974 61.7004 64.3901 61.6932ZM74.7812 64.2448C74.5272 64.1801 74.4032 63.9485 74.4091 63.5501C74.4101 63.487 74.3878 63.4256 74.3465 63.3777C74.3051 63.3297 74.2474 63.2985 74.1845 63.2899C73.2758 63.1708 72.3943 63.2163 71.5399 63.4266C71.0525 63.5471 70.8089 63.7927 70.8089 64.1632C70.8089 64.3999 70.938 64.6527 71.1964 64.9218C71.6427 65.3908 72.1146 65.7723 72.6123 66.0664C72.6952 66.1154 72.7906 66.1366 72.8833 66.1266C72.976 66.1166 73.0604 66.0759 73.1231 66.0112L74.169 64.935C74.3306 64.7675 74.5085 64.6568 74.6755 64.6197C74.9603 64.5565 75.1203 64.4102 75.1555 64.1808C75.1609 64.1465 75.1545 64.1116 75.1375 64.0825C75.1205 64.0534 75.0941 64.0319 75.063 64.022C74.9618 63.9912 74.9045 64.0345 74.8913 64.1521C74.8892 64.167 74.8846 64.1813 74.8778 64.1942C74.8709 64.2071 74.862 64.2184 74.8516 64.2271C74.8412 64.2359 74.8295 64.242 74.8174 64.245C74.8053 64.248 74.7929 64.248 74.7812 64.2448ZM73.6186 66.9022C73.8784 66.6067 73.8314 66.5302 73.4776 66.6728C73.4451 66.6858 73.4165 66.7063 73.3942 66.7325C73.3719 66.7586 73.3567 66.7897 73.3499 66.8228C73.2824 67.158 73.3719 67.1845 73.6186 66.9022ZM107.601 69.6941C108.572 69.8103 109.475 69.6118 110.31 69.0987C110.377 69.0571 110.427 68.9935 110.452 68.9189C110.477 68.8444 110.475 68.7637 110.446 68.6907C110.188 68.0276 109.69 67.3793 108.953 66.7456C108.732 66.5545 108.5 66.5427 108.258 66.7103C107.851 66.9941 107.559 67.38 107.381 67.8681C107.255 68.2136 107.162 68.4577 107.102 68.6003C106.997 68.8414 106.915 69.0906 106.855 69.3479C106.837 69.4261 106.843 69.502 106.873 69.5618C106.975 69.7632 107.149 69.8169 107.392 69.7228C107.464 69.6949 107.534 69.6853 107.601 69.6941ZM106.619 67.3631C106.531 67.4925 106.542 67.5388 106.65 67.502C106.672 67.4944 106.691 67.4815 106.708 67.4643C106.724 67.4472 106.737 67.4261 106.745 67.4028C106.851 67.0985 106.809 67.0852 106.619 67.3631ZM106.355 67.9828C106.305 68.1886 106.343 68.2452 106.47 68.1526C106.498 68.1319 106.521 68.1047 106.538 68.0731C106.555 68.0414 106.564 68.0061 106.567 67.9696C106.574 67.8078 106.531 67.7652 106.437 67.8416C106.397 67.8755 106.37 67.9225 106.355 67.9828ZM87.8058 68.0732C87.8865 68.1129 87.9416 68.082 87.971 67.9806C87.9753 67.9655 87.9765 67.9497 87.9744 67.9342C87.9723 67.9188 87.967 67.904 87.9588 67.891C87.9506 67.878 87.9398 67.867 87.9271 67.8589C87.9143 67.8507 87.9 67.8456 87.8851 67.8439C87.819 67.835 87.772 67.8556 87.7442 67.9056C87.7364 67.9195 87.7318 67.935 87.7307 67.9512C87.7296 67.9673 87.732 67.9837 87.7378 67.9994C87.7435 68.0151 87.7526 68.0298 87.7643 68.0425C87.776 68.0552 87.7901 68.0656 87.8058 68.0732ZM106.258 68.4172C106.141 68.6892 106.009 68.9546 105.862 69.2134C105.706 69.4854 105.753 69.5758 106.001 69.4846C106.032 69.4737 106.061 69.4547 106.084 69.429C106.108 69.4033 106.126 69.3718 106.137 69.3369C106.221 69.0693 106.281 68.7966 106.318 68.5187C106.35 68.2805 106.33 68.2467 106.258 68.4172Z" fill="white" fill-opacity="0.5"/>
<path d="M101.452 57.4223C101.915 57.4061 102.319 57.2687 102.663 57.0099C103.121 56.6674 103.319 56.2182 103.257 55.6625C103.201 55.1655 103.189 54.8671 103.22 54.7671C103.324 54.4334 103.561 54.2849 103.931 54.3216C104.138 54.3422 104.373 54.4319 104.636 54.5907C105.494 55.1111 106.121 55.8418 106.516 56.7828C106.529 56.8143 106.533 56.8486 106.528 56.8822C106.524 56.9159 106.51 56.9478 106.49 56.9746C106.057 57.5274 105.419 58.2331 104.576 59.0918C104.124 59.5519 104.045 60.1033 104.34 60.7457C104.6 61.3088 104.855 61.8734 105.105 62.4394C105.745 63.8905 105.367 64.9432 103.971 65.5975C103.769 65.6915 103.367 65.7459 102.764 65.7606C102.721 65.7621 102.317 65.7415 101.551 65.6989C100.812 65.6577 100.094 65.7577 99.3971 65.9988C99.2385 66.0532 98.9684 66.1848 98.5868 66.3936C98.3225 66.5391 98.0473 66.6648 97.761 66.7707C97.7038 66.7912 97.642 66.7957 97.5823 66.7837C97.5226 66.7716 97.4671 66.7435 97.4219 66.7023C97.0461 66.3539 96.7158 65.9679 96.431 65.5445C96.1242 65.0917 96.1382 64.647 96.4729 64.2103C96.9676 63.5619 97.5761 62.9937 98.2983 62.5056C98.5053 62.3659 98.6638 62.1843 98.7739 61.9609C98.9427 61.6168 99.1967 61.2927 99.5358 60.9883C100.003 60.5708 100.033 60.0283 99.6261 59.3608C99.6077 59.3301 99.5824 59.3045 99.5524 59.286C99.5225 59.2676 99.4888 59.2569 99.4543 59.2549C99.1343 59.2358 98.8503 59.191 98.6022 59.1204C98.3379 59.044 98.1148 58.8837 97.9328 58.6397C97.1004 57.5223 97.2737 56.4924 98.4524 55.55C99.7633 54.5003 100.999 53.4094 102.158 52.2773C102.181 52.2557 102.208 52.2394 102.237 52.2295C102.266 52.2197 102.298 52.2165 102.328 52.2203C102.359 52.2241 102.388 52.2348 102.414 52.2515C102.44 52.2683 102.462 52.2906 102.478 52.317C102.735 52.7375 102.81 53.1763 102.704 53.6336C102.652 53.8629 102.518 54.1864 102.304 54.6039C102.296 54.6172 102.229 54.7965 102.101 55.142C102.013 55.3802 101.843 55.6265 101.59 55.8808C101.217 56.2542 101.123 56.7343 101.306 57.3209C101.316 57.3513 101.336 57.3776 101.362 57.3959C101.388 57.4142 101.42 57.4234 101.452 57.4223ZM101.108 62.5629C100.98 62.7335 100.865 62.915 100.762 63.1076C100.754 63.1234 100.749 63.1409 100.748 63.1589C100.747 63.1769 100.749 63.1948 100.756 63.2115C100.763 63.2282 100.773 63.2432 100.787 63.2553C100.8 63.2675 100.816 63.2766 100.833 63.2819C101.615 63.5303 102.285 63.4083 102.843 62.9158C102.868 62.8941 102.887 62.8654 102.896 62.8329C102.905 62.8005 102.905 62.7658 102.896 62.7327C102.548 61.4889 101.952 61.4323 101.108 62.5629Z" fill="white" fill-opacity="0.5"/>
<path d="M114.947 61.5459C114.538 61.84 114.583 62.0171 115.084 62.0774C115.862 62.17 116.372 62.1597 116.614 62.0465C117.019 61.8554 117.125 61.557 116.931 61.1512C116.663 60.594 116.765 60.1522 117.237 59.8258C117.502 59.6435 117.697 59.7001 117.823 59.9956C118.021 60.4631 118.344 60.8924 118.79 61.2835C119.082 61.5378 119.317 61.9495 119.494 62.5185C119.654 63.0345 119.566 63.4249 119.23 63.6895C119.055 63.8277 118.727 63.9424 118.244 64.0335C117.105 64.2467 115.955 64.3768 114.795 64.4239C114.465 64.4371 114.124 64.5128 113.771 64.651C113.299 64.8377 112.949 64.9142 112.721 64.8804C111.964 64.7701 111.536 64.3298 111.44 63.5594C111.294 62.3994 111.437 61.2879 111.867 60.2249C111.873 60.2102 112.007 60 112.27 59.5942C112.44 59.3296 112.474 59.0311 112.371 58.6989C112.363 58.6715 112.344 58.6483 112.317 58.6337C112.291 58.6191 112.259 58.614 112.228 58.6195C112.006 58.6592 111.81 58.6312 111.638 58.5357C111.495 58.4577 111.39 58.31 111.321 58.0924C111.164 57.6013 111.078 57.0978 111.063 56.5817C111.054 56.2436 111.146 55.9606 111.338 55.7327C111.475 55.571 111.63 55.4284 111.805 55.3049C112.027 55.1475 112.186 55.0116 112.283 54.8969C112.894 54.1853 113.429 53.4193 113.89 52.5989C114.074 52.2725 114.23 52.2909 114.359 52.6541L114.996 54.4536C115.112 54.7815 115.043 55.0755 114.791 55.3357C114.403 55.7371 114.26 56.1951 114.362 56.7097C114.365 56.724 114.37 56.7376 114.378 56.7496C114.387 56.7617 114.397 56.7719 114.409 56.7798C114.421 56.7876 114.435 56.7929 114.449 56.7952C114.463 56.7976 114.478 56.797 114.492 56.7935C115.201 56.6273 115.788 56.2767 116.255 55.7415C116.467 55.4989 116.57 55.2409 116.566 54.9674C116.56 54.6646 116.473 54.3794 116.306 54.1118C116.262 54.0409 116.242 53.9689 116.251 53.9111C116.282 53.7082 116.421 53.6237 116.669 53.6575C117.823 53.8192 118.778 54.3852 119.534 55.3556C119.792 55.6893 119.937 56.0304 119.968 56.3789C119.973 56.4468 119.951 56.5163 119.906 56.5729C119.693 56.8317 119.447 57.0485 119.169 57.2235C118.703 57.5161 118.432 57.694 118.356 57.7572C117.368 58.5731 116.462 59.4722 115.639 60.4543C115.526 60.5896 115.419 60.7733 115.317 61.0056C115.203 61.2717 115.079 61.4518 114.947 61.5459ZM114.837 60.0485C114.482 60.5513 114.26 61.0593 114.17 61.5724C114.163 61.6099 114.166 61.6475 114.177 61.6807C114.189 61.7139 114.208 61.7413 114.234 61.7598C114.321 61.8216 114.398 61.8135 114.467 61.7356C114.511 61.6871 114.536 61.6077 114.542 61.4974C114.57 60.9799 114.729 60.5072 115.018 60.0794C115.269 59.7045 115.248 59.6501 114.954 59.9162C114.91 59.9559 114.871 60 114.837 60.0485Z" fill="white" fill-opacity="0.5"/>
<path d="M65.7735 54.0337C65.8154 54.0134 65.8636 54.01 65.9079 54.0244C65.9522 54.0388 65.9893 54.0698 66.0113 54.1109C66.023 54.133 65.7177 54.2822 65.0953 54.5586C65.0718 54.5689 65.0476 54.5733 65.0226 54.5718C64.8171 54.5586 65.0674 54.3792 65.7735 54.0337Z" fill="white" fill-opacity="0.5"/>
<path d="M160.203 64.6209C160.38 64.4166 160.543 64.2012 160.691 63.9748C160.856 63.7219 161.014 63.5028 161.167 63.3176C162.046 62.2502 162.657 61.0446 162.999 59.7008C163.008 59.6641 163.038 59.4016 163.089 58.9135C163.114 58.6783 163.183 58.4534 163.296 58.2387C163.332 58.1711 163.349 58.102 163.349 58.0314C163.349 57.3948 163.547 57.3022 163.941 57.7535C163.985 57.8045 164.009 57.8737 164.008 57.9476C164.006 58.2387 164.041 58.5232 164.113 58.8011C164.217 59.2039 164.271 59.4788 164.274 59.6259C164.29 60.558 163.991 61.4688 163.378 62.3582C162.823 63.1639 162.457 64.1894 162.281 65.4347C162.112 66.6358 162.059 67.8407 162.12 69.0492C162.138 69.4094 162.123 69.7527 162.076 70.0791C162.041 70.3084 162.008 70.5378 161.977 70.7671C161.942 71.0391 161.898 71.2656 161.845 71.4464C161.447 72.8122 160.683 73.8539 159.553 74.5713C158.15 75.4608 156.647 75.6137 155.046 75.03C154.903 74.9786 154.651 74.8543 154.288 74.6573C154.039 74.5221 153.779 74.4059 153.511 74.3089C153.269 74.2207 152.991 73.9663 152.678 73.5459C152.096 72.7622 151.699 71.9073 151.487 70.9811C151.307 70.1857 151.344 69.4248 151.599 68.6986C151.956 67.6841 152.577 66.8748 153.462 66.2705C153.938 65.9441 154.64 65.6751 155.57 65.4633C156.697 65.2046 157.828 64.9627 158.963 64.7378C159.033 64.7235 159.096 64.6871 159.143 64.6341C159.55 64.1754 159.824 63.913 159.965 63.8468C160.203 63.7366 160.312 63.791 160.293 64.01C160.287 64.0644 160.253 64.1504 160.192 64.2681C160.137 64.3724 160.112 64.4805 160.117 64.5922C160.12 64.6731 160.148 64.6827 160.203 64.6209ZM159.912 65.1678C160.029 64.8561 159.983 64.8289 159.773 65.0862C158.756 66.3374 157.443 67.3026 155.836 67.9818C154.629 68.492 154.13 69.4065 154.337 70.7252C154.404 71.159 154.496 71.453 154.612 71.6074C155.195 72.3881 155.961 72.6593 156.911 72.4211C157.488 72.2756 158.05 71.9271 158.6 71.3758C158.9 71.073 159.114 70.7414 159.24 70.3812C159.389 69.9563 159.442 69.5564 159.401 69.1815C159.251 67.801 159.422 66.4631 159.912 65.1678Z" fill="white" fill-opacity="0.5"/>
<path d="M76.9085 60.0826C76.5518 59.321 76.2905 58.877 76.1246 58.7506C75.9793 58.6403 75.9536 58.5653 76.0475 58.5256C76.075 58.5141 76.1071 58.5125 76.14 58.5211C76.1729 58.5297 76.2051 58.5482 76.2325 58.5742C76.6244 58.9461 76.8916 59.3953 77.034 59.9216C77.0428 59.9584 77.0472 59.9959 77.0472 60.0341C77.0487 60.2679 77.0024 60.284 76.9085 60.0826Z" fill="white" fill-opacity="0.5"/>
<path d="M94.0695 59.6607C94.0372 60.0591 93.8897 60.0135 93.6269 59.524C93.6005 59.4755 93.5944 59.4184 93.6101 59.3651C93.6258 59.3118 93.6619 59.2666 93.7106 59.2395C93.9836 59.0866 94.1033 59.227 94.0695 59.6607Z" fill="white" fill-opacity="0.5"/>
<path d="M114.835 60.048C114.869 59.9995 114.908 59.9554 114.952 59.9157C115.245 59.6496 115.266 59.704 115.015 60.0789C114.726 60.5067 114.568 60.9794 114.54 61.4969C114.534 61.6072 114.509 61.6866 114.465 61.7351C114.396 61.813 114.318 61.8211 114.232 61.7594C114.206 61.7408 114.186 61.7134 114.175 61.6802C114.164 61.647 114.161 61.6094 114.168 61.5719C114.257 61.0588 114.48 60.5508 114.835 60.048Z" fill="white" fill-opacity="0.5"/>
<path d="M172.781 60.6414C172.701 60.6972 172.682 60.6811 172.726 60.5928C172.861 60.3209 173.072 60.1261 173.358 60.0084C173.615 59.904 173.643 59.9474 173.442 60.1385C173.307 60.2679 173.087 60.4355 172.781 60.6414Z" fill="white" fill-opacity="0.5"/>
<path d="M171.708 61.1612C171.75 61.1153 171.802 61.0798 171.86 61.0576C171.918 61.0354 171.981 61.027 172.043 61.0332C172.166 61.0479 172.19 61.1053 172.114 61.2053C172.015 61.3302 171.9 61.4361 171.768 61.5228C171.15 61.9271 171.13 61.8066 171.708 61.1612Z" fill="white" fill-opacity="0.5"/>
<path d="M64.496 61.6785C64.5812 61.4903 64.7493 61.4072 65.0003 61.4293C65.1662 61.444 65.332 61.4579 65.4979 61.4712C65.534 61.4738 65.5673 61.4821 65.5944 61.4953C65.6216 61.5085 65.6415 61.5261 65.6521 61.5461C65.6741 61.5858 65.655 61.6138 65.5948 61.6299C65.5651 61.6385 65.5387 61.6521 65.5185 61.6692C65.4983 61.6864 65.4851 61.7064 65.4803 61.727C65.4495 61.8652 65.528 61.9291 65.7159 61.9188C65.782 61.9144 65.8517 61.9247 65.9251 61.9497C66.1086 62.0115 66.342 62.0026 66.6253 61.9232C66.6412 61.9188 66.6579 61.9181 66.674 61.9212C66.6902 61.9243 66.7054 61.9312 66.7185 61.9413C66.7315 61.9514 66.742 61.9643 66.7492 61.9792C66.7563 61.9941 66.7599 62.0104 66.7596 62.0269C66.7582 62.1769 66.803 62.2974 66.894 62.3886C66.9189 62.4135 66.9369 62.4432 66.9459 62.4741C66.9548 62.505 66.9544 62.5358 66.9446 62.5628C66.8712 62.7613 66.7626 62.9384 66.6187 63.0943C66.5974 63.1168 66.5689 63.1313 66.5377 63.1353C66.5064 63.1393 66.4745 63.1326 66.447 63.1163C66.0051 62.8576 65.4524 62.6804 64.7889 62.5848C64.5364 62.5481 64.3434 62.6385 64.2098 62.8561C64.0703 63.0825 63.9074 63.1663 63.7209 63.1075C63.6926 63.0988 63.668 63.0787 63.6509 63.0504C63.6338 63.0221 63.6251 62.9871 63.6263 62.9509C63.638 62.6466 63.6285 62.3437 63.5976 62.0423C63.5844 61.9056 63.605 61.8137 63.6593 61.7667C63.7165 61.7196 63.7958 61.7027 63.8971 61.7159C63.9638 61.7244 64.0327 61.7072 64.0909 61.6674C64.2024 61.591 64.3037 61.5998 64.3947 61.6939C64.402 61.7011 64.4108 61.7065 64.4205 61.7097C64.4301 61.7129 64.4404 61.7138 64.4503 61.7123C64.4602 61.7108 64.4695 61.7069 64.4775 61.701C64.4855 61.6951 64.4918 61.6874 64.496 61.6785Z" fill="white" fill-opacity="0.5"/>
<path d="M55.2571 63.0563C55.2968 62.9784 55.3298 62.9813 55.3562 63.0651C55.4238 63.2798 55.4502 63.518 55.4355 63.7797C55.4282 63.9267 55.3775 63.9818 55.2836 63.9451C55.2543 63.9334 55.2274 63.9127 55.2052 63.8847C55.183 63.8567 55.1661 63.8222 55.1558 63.7841C55.0927 63.5474 55.1265 63.3048 55.2571 63.0563Z" fill="white" fill-opacity="0.5"/>
<path d="M45.5522 66.8003C45.5845 66.1652 45.6095 65.5301 45.6271 64.8949C45.6285 64.8523 45.6395 64.8207 45.6601 64.8001C45.6851 64.7751 45.7107 64.7707 45.7372 64.7869C45.75 64.7943 45.7613 64.8076 45.7702 64.8253C45.779 64.843 45.7851 64.8647 45.7878 64.8883C45.8612 65.6602 45.8252 66.4262 45.6799 67.1863C45.6733 67.2203 45.6565 67.2509 45.6324 67.2731C45.6083 67.2952 45.5784 67.3074 45.5478 67.3076C45.3922 67.3061 45.3724 67.2046 45.4883 67.0032C45.528 66.9341 45.5493 66.8665 45.5522 66.8003Z" fill="white" fill-opacity="0.5"/>
<path d="M55.1878 65.5002C55.226 65.4708 55.2693 65.4649 55.3177 65.4826C55.3457 65.4941 55.3679 65.5177 55.3797 65.5487C55.3915 65.5797 55.3922 65.6159 55.3816 65.6502C55.3082 65.8898 55.2326 65.9038 55.1548 65.6921C55.1414 65.6542 55.1374 65.6151 55.1433 65.5806C55.1492 65.546 55.1648 65.5179 55.1878 65.5002Z" fill="white" fill-opacity="0.5"/>
<path d="M55.2212 66.5785C55.3577 66.3594 55.4406 66.3447 55.47 66.5344C55.5111 66.7961 55.5294 67.0533 55.525 67.3062C55.5206 67.6003 55.5111 67.895 55.4964 68.1906C55.4685 68.7875 55.3951 68.8588 55.2762 68.4045C55.2601 68.3398 55.2615 68.2692 55.2806 68.1928C55.3746 67.8179 55.3408 67.4003 55.1793 66.9401C55.1587 66.8803 55.1518 66.8167 55.159 66.7541C55.1663 66.6915 55.1875 66.6314 55.2212 66.5785Z" fill="white" fill-opacity="0.5"/>
<path d="M73.6185 66.9005C73.3719 67.1828 73.2824 67.1564 73.3499 66.8212C73.3566 66.788 73.3719 66.757 73.3941 66.7308C73.4164 66.7046 73.4451 66.6841 73.4776 66.6712C73.8314 66.5286 73.8784 66.605 73.6185 66.9005Z" fill="white" fill-opacity="0.5"/>
<path d="M106.622 67.363C106.811 67.0851 106.853 67.0984 106.747 67.4027C106.739 67.426 106.726 67.4471 106.71 67.4642C106.693 67.4814 106.674 67.4943 106.652 67.5019C106.544 67.5387 106.534 67.4924 106.622 67.363Z" fill="white" fill-opacity="0.5"/>
<path d="M106.439 67.8415C106.533 67.765 106.576 67.8077 106.569 67.9694C106.566 68.0059 106.557 68.0413 106.54 68.0729C106.523 68.1045 106.5 68.1317 106.472 68.1524C106.345 68.2451 106.307 68.1885 106.357 67.9826C106.372 67.9224 106.399 67.8753 106.439 67.8415Z" fill="white" fill-opacity="0.5"/>
<path d="M87.7403 67.9075C87.7682 67.8575 87.8152 67.8369 87.8812 67.8457C87.8962 67.8475 87.9105 67.8526 87.9232 67.8608C87.936 67.8689 87.9468 67.8799 87.955 67.8929C87.9631 67.9059 87.9685 67.9206 87.9706 67.9361C87.9727 67.9516 87.9715 67.9674 87.9671 67.9825C87.9378 68.0839 87.8827 68.1148 87.802 68.0751C87.7863 68.0675 87.7721 68.057 87.7604 68.0444C87.7487 68.0317 87.7397 68.017 87.7339 68.0013C87.7281 67.9856 87.7257 67.9692 87.7268 67.9531C87.7279 67.9369 87.7325 67.9214 87.7403 67.9075Z" fill="white" fill-opacity="0.5"/>
<path d="M106.26 68.4192C106.332 68.2487 106.352 68.2825 106.319 68.5207C106.283 68.7986 106.222 69.0713 106.139 69.3389C106.128 69.3738 106.11 69.4054 106.086 69.431C106.062 69.4567 106.034 69.4757 106.002 69.4866C105.754 69.5778 105.708 69.4874 105.863 69.2154C106.01 68.9566 106.142 68.6912 106.26 68.4192Z" fill="white" fill-opacity="0.5"/>
<path d="M55.3572 69.7208C55.413 69.4606 55.4798 69.4577 55.5576 69.712C55.5723 69.7591 55.5767 69.8098 55.5708 69.8642C55.5371 70.1773 55.54 70.4089 55.5796 70.5589C55.6325 70.7559 55.609 70.8581 55.5092 70.8654C55.4796 70.8677 55.4496 70.8567 55.4245 70.8344C55.3995 70.8122 55.3811 70.7801 55.3726 70.7441C55.2875 70.406 55.2824 70.0649 55.3572 69.7208Z" fill="white" fill-opacity="0.5"/>
<path d="M55.3054 71.4076C55.3773 71.0518 55.4426 71.0797 55.5014 71.4914C55.5087 71.5414 55.5072 71.5906 55.497 71.6391C55.3281 72.4242 55.2584 72.3992 55.2878 71.5642C55.2907 71.5083 55.2966 71.4561 55.3054 71.4076Z" fill="white" fill-opacity="0.5"/>
<path d="M55.1478 73.3319C55.1316 73.0937 55.1316 72.8548 55.1478 72.6152C55.1487 72.5987 55.1526 72.5824 55.1594 72.5676C55.1662 72.5528 55.1756 72.5399 55.1868 72.5299C55.1981 72.5199 55.211 72.513 55.2245 72.5098C55.2379 72.5067 55.2516 72.5072 55.2645 72.5115C55.3834 72.5498 55.434 72.6894 55.4164 72.9305C55.3093 74.4522 55.219 75.4593 55.1456 75.9518C55.1341 76.0224 55.1027 76.0875 55.0553 76.1393C54.772 76.4451 54.7022 76.4024 54.8461 76.0114C54.8681 75.9496 54.8813 75.8886 54.8857 75.8283C54.9327 75.2285 55.0091 74.6323 55.1147 74.0398C55.1544 73.8266 55.1654 73.5907 55.1478 73.3319Z" fill="white" fill-opacity="0.5"/>
</svg>
