<svg width="200" height="120" viewBox="0 0 200 120" fill="none" xmlns="http://www.w3.org/2000/svg">
<g clip-path="url(#clip0_825_6563)">
<path fill-rule="evenodd" clip-rule="evenodd" d="M69.4408 38H32.4021C31.2468 37.9968 30.1367 38.4482 29.3126 39.2565C28.4886 40.0647 28.0169 41.1647 28 42.3178V78.6823C28.0169 79.8354 28.4886 80.9354 29.3126 81.7436C30.1367 82.5519 31.2468 83.0033 32.4021 83H69.4408C70.5975 83.0055 71.7096 82.555 72.5354 81.7465C73.3612 80.938 73.834 79.8368 73.8509 78.6823V66.7187C67.4438 66.8652 59.804 70.0087 52.9023 73.3027C49.2583 75.0451 46.0649 77.0162 43.4144 78.6823C42.0489 79.5154 40.7578 80.1216 40.5989 79.3648C40.3717 78.3029 41.8055 76.3338 42.1937 75.7275C44.0036 73.3027 45.912 70.8799 47.6576 68.3788C49.7068 65.5003 44.8422 66.789 43.2555 67.0901C39.5371 68.2282 36.2733 69.9706 33.2286 71.7892C32.394 72.3191 33.6087 67.1724 34.0632 66.8632C39.6035 62.6981 46.9658 59.0608 54.1732 59.5907C55.6895 59.7433 57.057 60.1207 57.8152 60.8794C58.1067 61.1757 58.2882 61.5624 58.3295 61.9756C58.3708 62.3889 58.2695 62.8038 58.0424 63.1517C56.146 66.1065 53.4171 68.5313 51.3639 71.4098C51.1366 71.9397 51.3639 72.012 52.124 71.6366C59.3496 68.1098 66.1206 64.884 73.8509 62.9088V42.3178C73.834 41.1633 73.3612 40.0621 72.5354 39.2536C71.7096 38.4451 70.5975 37.9946 69.4408 38Z" fill="white" fill-opacity="0.5"/>
<path fill-rule="evenodd" clip-rule="evenodd" d="M85.0273 54.831C85.8458 54.8993 88.1605 54.831 88.1605 54.831L88.2972 52.5868H87.1389C86.8674 52.5868 86.7367 52.6551 86.6623 52.3861C86.4612 51.7839 86.8634 50.2804 86.8634 49.8047H84.2792L84.0781 53.8193C84.1037 54.0684 84.2103 54.3022 84.3818 54.485C84.5532 54.6677 84.78 54.7893 85.0273 54.831Z" fill="white" fill-opacity="0.5"/>
<path fill-rule="evenodd" clip-rule="evenodd" d="M84.143 60.8173H87.0711L87.4129 58.6414H86.1158C85.0942 58.6414 85.9147 56.331 86.0475 55.787L83.4593 55.7188L82.9827 59.2536C82.9163 59.7976 83.3949 60.6848 84.143 60.8173Z" fill="white" fill-opacity="0.5"/>
<path fill-rule="evenodd" clip-rule="evenodd" d="M98.3867 53.0649H102.61C103.971 52.2499 104.38 51.2302 104.38 49.9375H101.514C101.582 50.339 101.313 50.618 100.969 50.9572H95.8609L95.6598 52.7939H94.5658L94.9057 50.2105H92.1828L91.7806 52.7257H89.5263L89.3252 54.7651L91.1632 54.8333L91.0265 56.4673L87.5514 62.2464L83.6702 62.1781C83.6702 62.1781 83.0568 65.9177 82.717 65.992H81.0137L80.7422 68.1659C83.807 68.1659 85.1 68.5674 85.7818 64.4966C87.2116 64.4966 88.6414 64.898 89.5263 63.3403C89.7998 62.8646 89.2548 66.1265 88.7098 66.1265C88.2332 66.1265 86.8717 66.1947 86.8717 66.1947L86.4695 68.3024H89.8762C89.8762 68.3024 91.6459 68.2342 91.9877 65.9238C92.3879 63.5351 94.1636 54.9016 94.1636 54.9016H95.2536L93.2788 65.9137H92.6654L92.3256 68.0897C92.2572 68.2241 95.5955 69.3121 96.1465 65.3697C96.6251 62.1741 97.5099 57.6195 97.5099 57.6195L99.0081 57.6877L97.1017 68.3606H99.1911C99.8729 68.1599 100.146 67.8167 100.213 67.1362L101.848 57.6877H102.811L103.356 55.5118H97.9725L98.3867 53.0649Z" fill="white" fill-opacity="0.5"/>
<path fill-rule="evenodd" clip-rule="evenodd" d="M106.96 55.2394H111.457L111.73 53.2H108.935C108.119 52.7985 108.935 51.0923 109.136 50.3456L106.277 50.2773C106.075 51.7045 105.325 54.5589 106.96 55.2394Z" fill="white" fill-opacity="0.5"/>
<path fill-rule="evenodd" clip-rule="evenodd" d="M107.915 59.1825C107.235 58.7068 107.846 57.2796 107.983 56.3281H105.327L105.055 58.9115C104.918 60.0657 105.192 61.1537 106.282 61.1537L108.051 61.222C107.85 62.5127 107.712 65.5718 106.485 65.9813H103.694L103.414 68.2917H107.774C108.727 67.8903 109.338 67.2038 109.544 66.2523L111.056 59.1825H107.915Z" fill="white" fill-opacity="0.5"/>
<path fill-rule="evenodd" clip-rule="evenodd" d="M121.804 52.9276L126.367 52.9959C127.525 52.8614 127.525 51.7734 127.728 50.7537L114.456 50.6172L113.903 52.8533L118.399 52.9196L116.151 65.9671L110.295 65.8989L109.953 68.2093L123.507 68.2775C124.461 68.0768 124.869 67.8761 124.937 66.0354H119.353L121.804 52.9276Z" fill="white" fill-opacity="0.5"/>
<path fill-rule="evenodd" clip-rule="evenodd" d="M148.643 50.5487L130.186 50.4805L129.914 52.8531H135.77L133.593 65.9007L126.578 65.8324L126.305 68.1428H145.647C146.736 68.1428 146.463 66.7839 146.531 65.9007H136.86L139.177 52.9153H145.578L145.043 56.8677H148.176L149.13 51.0887C149.051 50.7535 148.848 50.4805 148.643 50.5487Z" fill="white" fill-opacity="0.5"/>
<path fill-rule="evenodd" clip-rule="evenodd" d="M144.01 60.9506H140.332L139.93 63.4658H145.846C147.821 62.5805 147.616 59.6519 147.684 58.3672H144.688C144.692 59.1822 144.555 60.5411 144.01 60.9506Z" fill="white" fill-opacity="0.5"/>
<path fill-rule="evenodd" clip-rule="evenodd" d="M158.044 61.0882H154.911L155.591 57.6898L159.609 53.2717L159.745 51.3668H157.499L157.431 50.0078H154.774L154.092 51.3005H150.824L150.483 53.5427H156.272L150.959 58.9143L149.395 58.9825L148.984 61.2929H151.096L152.118 60.6807L150.688 68.5675L153.276 68.431L154.366 63.4006H157.702L158.044 61.0882Z" fill="white" fill-opacity="0.5"/>
<path fill-rule="evenodd" clip-rule="evenodd" d="M160.899 63.4689L163.079 52.4548H168.526C168.798 52.5913 168.458 53.5428 168.458 53.882L166.823 62.9249H169.616L171.999 50.0781H161.444C160.899 50.1464 160.762 50.3511 160.559 50.7586L158.242 63.4047L160.899 63.4689Z" fill="white" fill-opacity="0.5"/>
<path fill-rule="evenodd" clip-rule="evenodd" d="M167.095 64.1445L164.71 64.0763C165.147 63.4424 165.448 62.7257 165.597 61.9706L167.026 54.0839L164.301 54.0156L162.6 62.8478L159.262 66.3144L157.559 66.3827L157.016 68.4221L159.535 68.4904C160.489 68.3539 161.168 68.0889 161.645 67.5389L164.233 64.6142L163.893 67.4707C163.893 68.0146 164.165 68.2856 164.778 68.4221H169.546L169.747 66.2462H167.708C166.355 66.3887 166.958 65.2325 167.095 64.1445Z" fill="white" fill-opacity="0.5"/>
</g>
<defs>
<clipPath id="clip0_825_6563">
<rect width="144" height="45" fill="white" transform="translate(28 38)"/>
</clipPath>
</defs>
</svg>
