<svg width="200" height="120" viewBox="0 0 200 120" fill="none" xmlns="http://www.w3.org/2000/svg">
<g clip-path="url(#clip0_825_6394)">
<path fill-rule="evenodd" clip-rule="evenodd" d="M44.9984 74.1128C45.9414 74.1357 46.7675 74.2123 47.4768 74.3427C48.9117 74.6065 50.2302 75.1399 51.4324 75.9428C51.513 75.9966 51.5661 76.0494 51.5916 76.1014C51.6321 76.1843 51.631 76.2649 51.5882 76.3433C51.4374 76.6193 51.1975 76.9249 50.8687 77.26C50.8549 77.2739 50.8331 77.2759 50.8174 77.2647C49.362 76.245 47.707 75.6424 45.8526 75.4569C44.4477 75.3162 43.0925 75.4282 41.7869 75.7929C41.3651 75.9108 40.9579 76.083 40.5652 76.3097C40.152 76.5485 39.8079 76.8171 39.5328 77.1155C38.9957 77.6993 38.6941 78.3899 38.6281 79.1874C38.5907 79.6417 38.6331 80.0853 38.7552 80.5181C39.0171 81.45 39.5995 82.1717 40.5024 82.6834C41.1793 83.0669 41.9036 83.3238 42.6752 83.4542C43.4947 83.5927 44.3204 83.6473 45.1522 83.6182C47.1866 83.5474 49.0326 82.9392 50.6903 81.7936C50.791 81.7242 50.8707 81.7293 50.9295 81.8091L51.0135 81.9226C51.2007 82.122 51.3734 82.3326 51.5314 82.5543C51.5706 82.6095 51.5911 82.6688 51.5929 82.7324C51.5943 82.7867 51.5934 82.8409 51.5902 82.8951C51.5889 82.9176 51.5797 82.9384 51.5642 82.9535C51.5349 82.9822 51.4974 83.0138 51.4515 83.0484L51.4156 83.0748C51.3969 83.0883 51.377 83.1022 51.3559 83.1166L51.3123 83.1458L51.2655 83.1761L51.2157 83.2075L51.1628 83.24C51.1537 83.2455 51.1445 83.251 51.1351 83.2566C49.8177 84.0496 48.45 84.5539 47.0319 84.7694C45.5214 84.9992 44.012 84.9936 42.5037 84.7526C41.6414 84.6146 40.806 84.3485 39.9974 83.9542C39.3259 83.6267 38.7467 83.1997 38.2598 82.6733C37.6658 82.0317 37.2888 81.292 37.1289 80.4542L37.0975 80.2864L37.0756 80.1644L37.0611 80.08L37.0483 80.0018L37.0371 79.9296L37.0275 79.8636L37.0196 79.8037L37.0152 79.7671L37.01 79.7174C37.0095 79.7122 37.0091 79.7072 37.0087 79.7022C36.9951 79.5474 36.9975 79.3927 37.0157 79.2382L37.0234 79.1798L37.1105 78.6807C37.2972 77.6148 37.7926 76.7264 38.5966 76.0154C39.264 75.4253 40.0555 74.98 40.9711 74.6794C42.2243 74.2672 43.5667 74.0783 44.9984 74.1128ZM158.039 74.2136C159.784 74.4229 161.382 75.0071 162.832 75.9663C162.908 76.0165 162.956 76.075 162.974 76.1417C163.001 76.2385 162.99 76.3196 162.94 76.385C162.715 76.678 162.477 76.9683 162.227 77.256C162.209 77.2771 162.177 77.2809 162.154 77.2647C160.926 76.3964 159.57 75.8335 158.084 75.5759C156.549 75.3097 155.024 75.35 153.507 75.6968C152.813 75.8554 152.171 76.1305 151.581 76.5221C150.58 77.1874 150.044 78.1204 149.973 79.3212C149.911 80.3758 150.248 81.275 150.985 82.0187C151.391 82.4278 151.878 82.7495 152.447 82.9838C152.851 83.15 153.22 83.271 153.555 83.3467C154.539 83.5676 155.536 83.6581 156.547 83.6182C158.531 83.5398 160.372 82.9258 162.068 81.7761C162.121 81.7408 162.191 81.7476 162.235 81.7923C162.452 82.0082 162.662 82.2533 162.865 82.5275C162.941 82.6301 162.98 82.7186 162.981 82.7929C162.982 82.8776 162.951 82.9479 162.887 83.0039L162.702 83.1242C161.354 83.9988 159.878 84.5521 158.273 84.7842C156.927 84.9786 155.52 84.9777 154.053 84.7815C152.735 84.6054 151.53 84.15 150.437 83.4152C150.161 83.2298 149.91 83.0176 149.682 82.7788C148.92 81.9777 148.497 81.0263 148.414 79.9246C148.31 78.5537 148.689 77.3841 149.552 76.4159C149.832 76.1018 150.174 75.807 150.577 75.5315C151.292 75.0427 152.08 74.6894 152.94 74.4717C153.8 74.2535 154.718 74.1339 155.693 74.1128C156.543 74.0944 157.325 74.1281 158.039 74.2136ZM116.585 74.2976C116.633 74.2976 116.672 74.3358 116.672 74.383L116.676 83.385C116.676 83.4117 116.698 83.4334 116.726 83.4334L127.177 83.4414C127.185 83.4414 127.193 83.4452 127.197 83.4517C127.202 83.4581 127.203 83.4663 127.2 83.4737L126.722 84.6928C126.713 84.7159 126.689 84.7311 126.663 84.7311H115.139C115.12 84.7311 115.105 84.7161 115.105 84.6975V74.3588C115.105 74.325 115.133 74.2976 115.167 74.2976H116.585ZM99.9649 74.2976C99.9888 74.2976 100.012 74.307 100.029 74.3236C100.046 74.3402 100.055 74.3628 100.055 74.3863V83.3857C100.055 83.412 100.077 83.4334 100.103 83.4334H110.544C110.56 83.4333 110.575 83.441 110.584 83.4539C110.592 83.4669 110.594 83.4834 110.588 83.4979L110.099 84.6988C110.091 84.7183 110.072 84.7311 110.051 84.7311H98.5361C98.5165 84.7311 98.5006 84.7155 98.5006 84.6961L98.5047 74.3359C98.5047 74.3268 98.5082 74.3181 98.5145 74.3117C98.5208 74.3053 98.5293 74.3017 98.5382 74.3017L99.9649 74.2976ZM93.5289 74.297C93.5388 74.297 93.5467 74.3048 93.5467 74.3144V84.7136C93.5467 84.7233 93.5388 84.7311 93.5289 84.7311H92.0448C92.035 84.7311 92.0271 84.7233 92.0271 84.7136V74.3144C92.0271 74.3048 92.035 74.297 92.0448 74.297H93.5289ZM63.3627 74.2976C63.4157 74.2976 63.4652 74.3236 63.4946 74.3669L65.6335 77.5224L67.7536 80.6521L69.1565 82.7242L70.2032 84.2707C70.2652 84.3626 70.2795 84.4952 70.2463 84.6686C70.2397 84.7048 70.2074 84.7311 70.1697 84.7311H68.7218C68.6818 84.7311 68.6445 84.7111 68.6228 84.678L66.9596 82.1531C66.935 82.1159 66.8931 82.0934 66.8482 82.0933H58.0993C58.0507 82.0934 58.0051 82.1179 57.9784 82.1585L56.3043 84.6995C56.2928 84.7167 56.273 84.7271 56.2517 84.7271L54.7457 84.7311C54.7051 84.7311 54.6719 84.6991 54.6712 84.6592C54.6698 84.5808 54.6771 84.5035 54.6931 84.4273C54.7063 84.3619 54.7377 84.2925 54.7874 84.219C57.004 80.9233 59.2213 77.6496 61.4393 74.3978C61.4848 74.331 61.5486 74.2976 61.6306 74.2976H63.3627ZM74.096 74.2976C74.8628 74.2976 75.6311 74.298 76.4009 74.2986L77.9424 74.3004C78.4569 74.3011 78.9721 74.302 79.4879 74.303C80.132 74.3039 80.7757 74.3223 81.4189 74.3581C82.575 74.4231 83.689 74.6684 84.7609 75.094C85.3175 75.3149 85.8172 75.6238 86.26 76.0207C87.0094 76.6923 87.4624 77.5248 87.6191 78.5181C87.6929 78.9845 87.7129 79.4535 87.6792 79.9253C87.564 81.5566 86.8454 82.7683 85.5234 83.5604C85.1813 83.7651 84.7684 83.9517 84.2846 84.1202C83.5375 84.3801 82.7656 84.5467 81.9689 84.6202C81.3202 84.6798 80.6697 84.7114 80.0174 84.715C78.0646 84.7257 76.0946 84.7311 74.1076 84.7311C74.06 84.7311 74.0215 84.6932 74.0215 84.6464V74.3709C74.0215 74.3304 74.0548 74.2976 74.096 74.2976ZM139.293 74.3131C139.315 74.3139 139.335 74.3249 139.347 74.3427L146.103 84.3037C146.117 84.3234 146.124 84.3452 146.124 84.3662L146.125 84.6652C146.125 84.7016 146.094 84.7311 146.056 84.7311H144.582C144.552 84.7311 144.523 84.7154 144.506 84.6894L142.81 82.1249C142.798 82.1077 142.778 82.0974 142.756 82.0974L134.01 82.0933C133.941 82.0934 133.878 82.1278 133.84 82.1847L132.194 84.6881C132.177 84.7148 132.146 84.7308 132.114 84.7304L130.62 84.7271C130.599 84.7271 130.581 84.7138 130.577 84.6948C130.532 84.5281 130.558 84.3738 130.655 84.2318C132.887 80.9374 135.118 77.6424 137.349 74.3467C137.36 74.329 137.38 74.3179 137.402 74.3171C138.033 74.2862 138.663 74.2849 139.293 74.3131ZM75.619 75.6095C75.5951 75.6102 75.576 75.6292 75.576 75.6525V83.3709C75.576 83.4076 75.6063 83.4374 75.6436 83.4374C77.0221 83.4374 78.3946 83.4327 79.7612 83.4233C80.5634 83.4175 81.3617 83.3606 82.1561 83.2526C82.7625 83.1702 83.3451 83.0167 83.904 82.7923C84.3937 82.5951 84.7836 82.3684 85.0738 82.1121C85.5166 81.7215 85.8141 81.2405 85.9662 80.6693C86.1225 80.0841 86.1609 79.5004 86.0817 78.9179C85.9159 77.6997 85.2654 76.8386 84.1302 76.3346C83.5029 76.0564 82.8299 75.868 82.111 75.7694L82.0111 75.7562L81.9409 75.7475L81.8678 75.739L81.753 75.7264L81.6728 75.7182L81.5899 75.7101L81.4601 75.6982L81.3239 75.6866L81.2296 75.6791L81.0828 75.668L80.9296 75.6572C80.8633 75.6527 80.7956 75.6485 80.7264 75.6446L80.586 75.6371C80.5623 75.6359 80.5384 75.6347 80.5144 75.6336L80.3681 75.6271L80.218 75.6213L80.0639 75.6162C80.0379 75.6154 80.0118 75.6147 79.9854 75.6139L79.8255 75.6099C79.7985 75.6093 79.7714 75.6087 79.7441 75.6081C78.3944 75.5808 77.0193 75.5812 75.619 75.6095ZM138.204 75.5758C138.185 75.5754 138.165 75.5871 138.152 75.6068L134.795 80.7358C134.772 80.7699 134.782 80.7869 134.823 80.7869H141.887C141.923 80.7869 141.932 80.7719 141.912 80.7419L138.548 75.6155C138.535 75.5953 138.515 75.583 138.495 75.5826L138.204 75.5758ZM62.5462 75.5685L62.3323 75.5812C62.3126 75.5825 62.293 75.5953 62.2797 75.6155L58.909 80.7492C58.894 80.7716 58.9001 80.7828 58.9275 80.7828H65.9757C66.0326 80.7828 66.0456 80.7593 66.0146 80.7123C65.3167 79.6472 64.6184 78.5826 63.9195 77.5187L62.8708 75.9233C62.8542 75.898 62.838 75.8739 62.8222 75.851L62.7913 75.807C62.7205 75.7081 62.659 75.6362 62.607 75.5913C62.5887 75.5754 62.5668 75.5672 62.5462 75.5685ZM127.507 35.0234C132.836 35.0234 138.164 35.0324 143.49 35.0503C143.503 35.0503 143.506 35.0557 143.498 35.0664L137.719 43.0953C137.69 43.1352 137.672 43.1789 137.662 43.2264C136.986 46.8742 136.302 50.5113 135.611 54.1377C135.441 55.0284 135.262 55.917 135.073 56.8037C134.965 57.3068 134.818 57.7979 134.63 58.2768C134.384 58.9036 134.007 59.4206 133.498 59.8279C133.102 60.1451 132.646 60.4132 132.131 60.6323C131.599 60.859 131.053 61.0499 130.495 61.2049C129.85 61.3836 129.201 61.5456 128.547 61.6908L127.888 61.8366L127.349 61.9546L126.939 62.0441L126.243 62.1947L125.532 62.3475L124.807 62.5022L124.066 62.659L123.31 62.8178L122.694 62.9464L121.911 63.1089L121.113 63.2734L120.464 63.4065L119.639 63.5747L118.798 63.745L117.943 63.9173L117.073 64.0916L116.008 64.3035L115.105 64.4823L114.001 64.6996L112.875 64.9198L112.495 64.9939C108.455 65.7806 104.404 66.5071 100.342 67.1733C100.286 67.1824 100.23 67.1875 100.174 67.1886H100.14C100.073 67.1878 100.006 67.1811 99.9396 67.1686L99.8023 67.1417L98.669 66.9608L97.9574 66.8454L97.4735 66.7657L97.035 66.692L96.8095 66.6531L96.2618 66.5574L95.7075 66.4597L95.0051 66.3349L94.4357 66.2329L93.7145 66.1026L93.13 65.9962L92.39 65.8605L91.6395 65.7218L90.8785 65.5801L90.1071 65.4353L89.3253 65.2876L88.3732 65.1062L87.5683 64.9518L86.7529 64.7944L85.9271 64.6339L84.9223 64.4374L84.244 64.3039L83.3868 64.1344L82.5039 63.9588L81.795 63.8167L81.0941 63.6755L80.4015 63.5349L79.717 63.3952L78.8728 63.2215L78.3725 63.1179L77.8767 63.0147L77.2228 62.8777L76.7377 62.7755L76.2572 62.6737L75.6237 62.5386L75.1539 62.4378L74.6887 62.3374L74.0756 62.2042L73.4707 62.0717L73.0223 61.9729L72.4317 61.8417L71.8491 61.7113L71.0446 61.5292L70.5069 61.4056L70.312 61.3595L70.2306 61.3393C69.3099 61.1014 68.4453 60.7824 67.6368 60.3823C67.3247 60.2277 67.0081 60.0127 66.687 59.7371C66.221 59.3362 65.8814 58.8693 65.6682 58.3366C65.4719 57.8465 65.3097 57.2925 65.1817 56.6746C64.9093 55.3628 64.6492 54.0485 64.4014 52.7318C63.847 49.7842 63.2969 46.8359 62.7512 43.887C62.7152 43.6921 62.6758 43.4981 62.633 43.305C62.6075 43.1908 62.5594 43.0846 62.4888 42.9865L60.0541 39.6032L57.6124 36.2116C57.3407 35.8343 57.0689 35.4568 56.7969 35.0792C56.781 35.0573 56.7867 35.0463 56.814 35.0463C80.39 35.0315 103.954 35.0239 127.507 35.0234ZM138.873 36.5624H61.4119C61.3882 36.5624 61.3832 36.5718 61.3969 36.5906C62.912 38.7116 64.4121 40.8225 65.8971 42.9233C65.9581 43.0089 65.9973 43.1034 66.0146 43.2069C66.6897 47.2217 67.3732 51.2351 68.0652 55.2472L68.0893 55.385L68.1136 55.5205L68.138 55.6538L68.1626 55.7847L68.1873 55.9134L68.2122 56.0398L68.2373 56.1639L68.2626 56.2857L68.288 56.4053C68.2922 56.425 68.2965 56.4447 68.3007 56.4642L68.3264 56.5804L68.3522 56.6943L68.3782 56.8058L68.4043 56.9152C68.4087 56.9332 68.4131 56.9511 68.4174 56.969L68.4438 57.0748C68.4482 57.0923 68.4527 57.1097 68.4571 57.1269L68.4837 57.2294L68.5105 57.3296L68.5375 57.4275C68.542 57.4437 68.5465 57.4597 68.551 57.4756L68.5782 57.5702L68.6056 57.6624L68.6331 57.7523L68.6608 57.84C68.6654 57.8544 68.67 57.8687 68.6747 57.883C68.8943 58.5559 69.2771 59.0642 69.8233 59.4078C70.2101 59.6511 70.6524 59.8465 71.1503 59.9939L71.2167 60.012L71.3321 60.0411L71.5531 60.0942L71.9077 60.1768L72.5524 60.3237L73.0066 60.4258L73.5609 60.5488L73.9728 60.6394L74.3982 60.7321L74.9264 60.8463L75.4738 60.9636L76.0406 61.0841L76.8262 61.2497L77.7512 61.4428L78.8332 61.6671L79.893 61.8855L80.7838 62.0679L81.6583 62.246L82.6581 62.4482L83.6356 62.6444L84.5911 62.8347L85.3924 62.993L86.0477 63.1216L86.9462 63.2966L87.5744 63.4179L88.3134 63.5594L89.2558 63.7384L90.0598 63.8899L90.847 64.0371L91.4901 64.1564L92.2465 64.2957L92.6184 64.3637L93.2289 64.4746L93.946 64.6038L94.6464 64.7287L95.2171 64.8294L95.8866 64.9464L96.4317 65.0405L97.0704 65.1495L97.3835 65.2024L97.7943 65.2712L98.1977 65.3382L98.7888 65.4349L99.1735 65.497L99.7366 65.5866L99.9205 65.6155C99.9904 65.6266 100.067 65.6325 100.151 65.6325H100.183C100.311 65.6306 100.455 65.6168 100.615 65.5906L101.608 65.4273L102.334 65.3067L103.044 65.1878L103.851 65.0513L104.526 64.9361L105.399 64.7851L106.14 64.6554L106.656 64.5642L107.06 64.4921L107.653 64.3854L108.039 64.3151L108.604 64.2112L108.972 64.1428L109.333 64.0752C114.671 63.07 119.995 61.9991 125.305 60.8623L126.407 60.6253L127.012 60.4934L127.544 60.376L127.969 60.2804L128.304 60.2035L128.539 60.1484L128.718 60.1052L128.869 60.0674L128.886 60.0631C129.493 59.9067 130.005 59.6995 130.424 59.4414C130.835 59.187 131.148 58.8621 131.363 58.467C131.581 58.0661 131.744 57.6178 131.852 57.122L131.865 57.0597C131.852 56.9697 131.867 56.8857 131.911 56.8077L131.935 56.7039L131.999 56.3826L132 56.3984L131.999 56.3757C131.996 56.2926 132.012 56.2126 132.048 56.1357C132.258 55.0689 132.454 53.9995 132.635 52.9273L132.762 52.1754L133.017 50.6688C133.06 50.4174 133.103 50.1658 133.145 49.9141L133.403 48.4019L133.662 46.886L133.922 45.3663L134.184 43.843C134.227 43.5888 134.271 43.3344 134.315 43.0799C134.321 43.044 134.335 43.0113 134.356 42.9818L138.892 36.598C138.909 36.5743 138.902 36.5624 138.873 36.5624ZM87.6799 56.1525L99.6315 56.1565C99.6579 56.1565 99.6793 56.1779 99.6793 56.2042V64.3756C99.6793 64.3907 99.6726 64.405 99.6608 64.4147C99.6491 64.4244 99.6336 64.4286 99.6185 64.426C95.6599 63.7871 91.6815 63.0703 87.6833 62.2754C87.656 62.27 87.6362 62.2464 87.6362 62.219L87.6492 56.1827C87.6492 56.166 87.6629 56.1525 87.6799 56.1525ZM115.771 57.7145L116.935 57.7176L120.659 57.7293L120.929 57.729L121.235 57.7272L121.526 57.7244L121.843 57.7206L121.955 57.719C122.612 57.7096 123.27 57.7084 123.928 57.7155L124.21 57.719C124.628 57.725 125.034 57.7258 125.429 57.7215L125.576 57.7197C126.395 57.7079 127.213 57.7061 128.032 57.7142L128.383 57.7183C129.057 57.7273 129.731 57.7331 130.406 57.7358C130.414 57.7358 130.421 57.7394 130.426 57.7456C130.43 57.7518 130.431 57.7597 130.428 57.7667C130.34 57.9831 130.227 58.152 130.09 58.2734C129.812 58.5212 129.464 58.7051 129.044 58.8252C128.406 59.0075 127.763 59.1704 127.114 59.3138L126.534 59.4415L126.144 59.5268L125.753 59.612L125.162 59.74L124.766 59.8253L124.367 59.9107L123.766 60.0389L123.362 60.1244L122.957 60.2099L122.345 60.3383L121.935 60.4239L121.522 60.5096L120.9 60.6382L120.483 60.7239L120.063 60.8097L119.43 60.9385L119.006 61.0244L118.58 61.1103L117.936 61.2393L117.072 61.4114L116.418 61.5406L115.98 61.6268L115.54 61.713L114.875 61.8423L114.43 61.9286L113.983 62.015L113.308 62.1445L112.856 62.231L112.174 62.3607L111.717 62.4472L110.808 62.6183L110.139 62.7435L109.351 62.8903L108.322 63.0802L107.444 63.2409L106.708 63.3746L105.749 63.547L104.932 63.6925L104.475 63.7733L104.024 63.8525L103.251 63.987L102.818 64.0616L102.077 64.1882L101.663 64.2582L100.954 64.3767L100.656 64.426C100.648 64.4274 100.639 64.425 100.633 64.4194C100.627 64.4138 100.623 64.4056 100.623 64.3971V57.7526C100.623 57.7438 100.627 57.7353 100.633 57.7291C100.639 57.7229 100.648 57.7195 100.657 57.7197L101.037 57.7223L101.455 57.7241L101.979 57.725L102.512 57.7249L103.588 57.7221L104.444 57.7181L105.63 57.7116L107.495 57.7063L109.046 57.705L112.48 57.7076L115.771 57.7145ZM101.523 58.5678C101.505 58.5678 101.49 58.5822 101.49 58.6L101.494 63.3904C101.494 63.3985 101.498 63.4061 101.504 63.4113C101.511 63.4165 101.519 63.4186 101.528 63.4173L102.009 63.3357L102.62 63.2313L103.116 63.1457L103.746 63.0364L104.514 62.9016L105.034 62.8095L105.694 62.692L106.364 62.5718L107.043 62.4488L108.012 62.272L109 62.0899L109.574 61.9834L110.3 61.8479L111.185 61.6817L112.085 61.5115L113.152 61.308L114.24 61.0991L114.976 60.9568L115.405 60.8729L115.82 60.7906L116.222 60.7101L116.61 60.6312L116.985 60.5541L117.346 60.4787L117.625 60.4196L117.829 60.3759L118.028 60.3329L118.285 60.2765L118.634 60.1987L119.251 60.0586L119.541 59.9911L119.765 59.9372L119.9 59.9034L119.924 59.8971C120.539 59.7349 121.139 59.5297 121.725 59.2815C122.096 59.1242 122.423 58.8962 122.705 58.5974C122.721 58.5803 122.718 58.5718 122.694 58.5718L101.523 58.5678ZM86.7691 57.715C86.7783 57.715 86.7872 57.7186 86.7937 57.725C86.8003 57.7314 86.8039 57.7402 86.8039 57.7492L86.7991 59.4287C86.7991 59.4472 86.7839 59.4623 86.765 59.4623H74.1582L74.0988 59.4619C74.0893 59.4618 74.0799 59.4616 74.0706 59.4614L74.0171 59.46C73.914 59.4562 73.8341 59.448 73.7776 59.4354C73.1876 59.3055 72.5986 59.1729 72.0106 59.0375C71.7249 58.9717 71.4432 58.8926 71.1653 58.8003C70.8446 58.6937 70.5528 58.5362 70.29 58.3279C70.0914 58.1697 69.9504 57.9806 69.867 57.7607C69.863 57.7503 69.8644 57.7386 69.8708 57.7295C69.8772 57.7203 69.8879 57.7149 69.8992 57.715H86.7691ZM131.154 54.5396C131.163 54.5396 131.171 54.5435 131.177 54.5501C131.182 54.5567 131.184 54.5654 131.183 54.5738L130.7 56.9717C130.698 56.9837 130.687 56.9925 130.674 56.9925H100.674C100.644 56.9925 100.619 56.9682 100.619 56.9381V54.5732C100.619 54.5546 100.634 54.5396 100.653 54.5396H131.154ZM68.4492 50.4193L86.7643 50.4233C86.7835 50.4233 86.7991 50.4386 86.7991 50.4576V55.3292C86.7991 55.3478 86.7839 55.3628 86.765 55.3628H69.3307C69.2953 55.3629 69.2649 55.3376 69.2589 55.303L68.4198 50.4535C68.4184 50.445 68.4209 50.4364 68.4265 50.4298C68.4322 50.4232 68.4404 50.4194 68.4492 50.4193ZM125.533 50.4104L125.554 50.4105C127.632 50.4258 129.727 50.43 131.841 50.4233C131.851 50.4231 131.861 50.4275 131.868 50.4353C131.874 50.4431 131.877 50.4534 131.876 50.4636L131.313 53.7298C131.309 53.7511 131.29 53.7667 131.267 53.7667L124.115 53.7714C124.104 53.7713 124.094 53.7668 124.088 53.7591C124.081 53.7514 124.078 53.7412 124.079 53.7311L124.425 51.301C124.426 51.2946 124.424 51.2883 124.42 51.2835C124.415 51.2787 124.409 51.276 124.403 51.2761C117.636 51.2811 110.87 51.2851 104.104 51.2882C103.238 51.2887 102.383 51.2806 101.538 51.264C101.521 51.2637 101.504 51.2701 101.492 51.2819C101.48 51.2936 101.473 51.3097 101.473 51.3265L101.469 53.7298C101.469 53.7481 101.454 53.763 101.435 53.7634L100.653 53.7667C100.634 53.7667 100.619 53.7517 100.619 53.7331V50.4609C100.619 50.4402 100.636 50.4233 100.657 50.4233L123.809 50.4231L124.059 50.4223L124.331 50.4206L124.574 50.4179L124.858 50.4141L125.228 50.4106L125.389 50.41L125.533 50.4104ZM99.6465 52.0033C99.6563 52.0033 99.6643 52.0111 99.6643 52.0207V53.7492C99.6643 53.7589 99.6563 53.7667 99.6465 53.7667H87.6697C87.6599 53.7667 87.6519 53.7589 87.6519 53.7492V52.0207C87.6519 52.0111 87.6599 52.0033 87.6697 52.0033H99.6465ZM132.82 44.6773C132.829 44.6774 132.837 44.6813 132.843 44.6879C132.849 44.6945 132.851 44.7032 132.849 44.7116L132.02 49.5906C132.016 49.6154 131.994 49.6337 131.969 49.6337H113.629C113.618 49.6337 113.606 49.629 113.598 49.6207C113.589 49.6123 113.584 49.6011 113.584 49.5893V44.715C113.584 44.705 113.588 44.6954 113.596 44.6884C113.603 44.6813 113.613 44.6773 113.623 44.6773H132.82ZM99.6458 46.2734C99.662 46.2734 99.6752 46.2861 99.6752 46.3017L99.6793 49.5752C99.6793 49.59 99.6738 49.6043 99.6635 49.6148C99.6532 49.6253 99.6392 49.6312 99.6246 49.631L98.8552 49.6229C98.846 49.6229 98.8371 49.6191 98.8306 49.6125C98.8241 49.6058 98.8204 49.5967 98.8204 49.5873L98.804 47.1007C98.8036 47.0821 98.7884 47.0671 98.7698 47.0671L75.4892 47.0631C75.4797 47.063 75.4706 47.067 75.4642 47.0739C75.4579 47.0808 75.4548 47.0901 75.4557 47.0994L75.7174 49.5994C75.7184 49.6081 75.7155 49.6169 75.7093 49.6234C75.7032 49.63 75.6945 49.6337 75.6853 49.6337L68.3201 49.6296C68.3003 49.6296 68.2835 49.6156 68.2804 49.5967L67.7092 46.3171C67.7074 46.3063 67.7105 46.2952 67.7177 46.2868C67.725 46.2784 67.7356 46.2735 67.7468 46.2734H99.6458ZM112.73 46.2728C112.74 46.2728 112.748 46.2806 112.748 46.2902V48.0201C112.748 48.0297 112.74 48.0375 112.73 48.0375H100.637C100.627 48.0375 100.62 48.0297 100.62 48.0201V46.2902C100.62 46.2806 100.627 46.2728 100.637 46.2728H112.73ZM67.2008 43.0436L99.6328 43.0517C99.6406 43.0517 99.6481 43.0547 99.6536 43.0601C99.6591 43.0655 99.6622 43.0729 99.6622 43.0806L99.6581 45.4636C99.6581 45.4818 99.6428 45.4966 99.624 45.4966L67.7283 45.5134C67.7244 45.5134 67.7207 45.5119 67.7181 45.5093L67.716 45.5066C67.7151 45.5058 67.714 45.5053 67.7129 45.5052L67.7112 45.5053C67.6721 45.5089 67.6349 45.5046 67.5999 45.4925C67.5805 45.4859 67.5663 45.468 67.563 45.4462L67.1721 43.0765C67.1707 43.0684 67.1731 43.0601 67.1786 43.0537C67.1841 43.0474 67.1922 43.0437 67.2008 43.0436ZM112.733 38.9482C112.743 38.9482 112.751 38.9563 112.751 38.9663V43.8695C112.751 43.8796 112.743 43.8877 112.733 43.8877H100.637C100.627 43.8877 100.619 43.8796 100.619 43.8695V38.9663C100.619 38.9563 100.627 38.9482 100.637 38.9482H112.733ZM113.623 40.5275L134.608 40.5315C134.631 40.5315 134.636 40.5407 134.623 40.5591L133.426 42.2425C133.411 42.2628 133.388 42.2748 133.362 42.2748C132.259 42.2734 131.154 42.2734 130.048 42.2748C124.588 42.2811 119.113 42.2811 113.623 42.2748C113.613 42.2748 113.603 42.2708 113.596 42.2638C113.588 42.2567 113.584 42.2471 113.584 42.2371V40.5651C113.584 40.5443 113.602 40.5275 113.623 40.5275ZM99.6192 38.9482C99.6524 38.9482 99.6793 38.9746 99.6793 39.0073V42.1988C99.6793 42.2172 99.6653 42.2328 99.6465 42.2351C99.3632 42.2674 99.0964 42.2694 98.8464 42.2412C98.8271 42.2388 98.8127 42.2226 98.8129 42.2035L98.8047 39.8433C98.8043 39.8243 98.7885 39.8091 98.7691 39.8091L73.056 39.805C73.0482 39.8051 73.0409 39.8091 73.0369 39.8156C73.033 39.8222 73.0329 39.8302 73.0369 39.8366L74.4253 42.2082C74.4311 42.2186 74.4311 42.2312 74.4252 42.2414C74.4193 42.2516 74.4084 42.2579 74.3966 42.258H66.9009C66.8632 42.258 66.8278 42.24 66.8059 42.2096L64.5175 38.9871C64.4993 38.9612 64.5061 38.9482 64.538 38.9482H99.6192Z" fill="white" fill-opacity="0.5"/>
</g>
<defs>
<clipPath id="clip0_825_6394">
<rect width="126" height="50" fill="white" transform="translate(37 35)"/>
</clipPath>
</defs>
</svg>
