<svg width="200" height="120" viewBox="0 0 200 120" fill="none" xmlns="http://www.w3.org/2000/svg">
<g clip-path="url(#clip0_336_10152)">
<path d="M139.478 40.7467C139.708 40.345 139.861 39.805 139.938 39.1267C140 38.5824 140.043 38.0368 140.068 37.4899C140.077 37.311 140.105 37.1205 140.154 36.9183C140.184 36.7931 140.211 36.6665 140.235 36.5386C140.265 36.3753 140.299 36.2513 140.336 36.1667C140.432 35.9524 140.566 35.7675 140.739 35.612C140.887 35.4781 141.065 35.4171 141.274 35.4292C141.699 35.4552 142.052 35.6133 142.333 35.9036C142.515 36.0911 142.645 36.3524 142.725 36.6877C142.807 37.0333 142.834 37.3305 142.806 37.5793C142.724 38.2956 142.558 38.9911 142.306 39.6659C142.244 39.8326 142.239 40.0058 142.289 40.1856C142.294 40.2049 142.305 40.2222 142.32 40.2356C142.335 40.2489 142.353 40.2576 142.372 40.2607C142.797 40.329 143.191 40.3549 143.553 40.3385C144.06 40.3152 144.567 40.2875 145.073 40.2555C145.735 40.2132 146.241 40.2059 146.592 40.2335C147.261 40.2845 147.897 40.4041 148.501 40.5925C149.105 40.7809 149.68 41.0699 150.227 41.4595C150.483 41.6427 150.658 41.8181 150.753 41.9857C150.927 42.295 150.843 42.5227 150.499 42.6687C150.356 42.73 150.147 42.7655 149.872 42.775C146.094 42.9046 142.271 42.9763 138.403 42.9901C138.383 42.9905 138.364 42.9831 138.349 42.9696C138.335 42.956 138.326 42.9373 138.325 42.9175C138.3 42.5305 138.345 42.1909 138.461 41.8989C138.52 41.7485 138.649 41.593 138.848 41.4323C139.143 41.193 139.353 40.9645 139.478 40.7467Z" fill="white" fill-opacity="0.5"/>
<path d="M56.1789 52.8528C55.732 53.1751 55.4187 53.411 55.2391 53.5605C53.1285 55.3187 51.0023 55.3243 48.8605 53.5773C48.4388 53.2334 48.106 52.9284 47.8621 52.6623C47.1392 51.8752 46.4653 51.0492 45.8405 50.1844C45.7017 49.9917 45.6049 49.8254 45.5502 49.6854C45.4808 49.5048 45.4344 49.3161 45.4109 49.1191C45.4091 49.1038 45.4105 49.0883 45.4148 49.0735C45.4192 49.0587 45.4266 49.045 45.4364 49.0331C45.4463 49.0213 45.4584 49.0115 45.4722 49.0045C45.4859 48.9974 45.5009 48.9932 45.5164 48.9921C45.8331 48.9661 46.149 48.9843 46.464 49.0465C46.8919 49.1312 47.3193 49.2184 47.7463 49.3083C48.1394 49.3904 48.6835 49.3549 49.3786 49.202C49.9653 49.0724 50.5437 48.9126 51.1139 48.7225C53.582 47.8965 55.4777 47.2304 56.8012 46.7241C57.2186 46.5651 57.5384 46.302 57.7605 45.9348C57.941 45.6367 58.0448 45.2574 58.0717 44.7969C58.1055 44.2206 58.0231 43.6638 57.8243 43.1264C57.7532 42.9346 57.5748 42.5345 57.2893 41.9263C57.1027 41.528 56.8923 41.1418 56.658 40.7676C56.4879 40.4964 56.4132 40.2099 56.4341 39.9084C56.4359 39.8777 56.4483 39.8485 56.4693 39.8261C56.4902 39.8036 56.5182 39.7892 56.5486 39.7853C56.8307 39.7455 57.1053 39.7546 57.3726 39.8125C58.2057 39.9939 59.0341 40.1931 59.8576 40.41C60.7741 40.6519 61.6106 41.0554 62.3674 41.6204C62.9046 42.0213 63.2179 42.5367 63.3072 43.1665C63.3385 43.3825 63.3198 43.6517 63.2513 43.9739C63.1957 44.2375 63.1376 44.5044 63.0768 44.7749C63.0048 45.0885 63.1272 45.2786 63.4439 45.3451C63.621 45.3831 63.8857 45.4756 64.238 45.6225C64.4341 45.7045 64.5869 45.9236 64.6962 46.2795C64.8246 46.6986 64.8177 47.0934 64.6754 47.4641C64.5756 47.7241 64.3617 47.976 64.0336 48.2196C63.6787 48.484 63.3671 48.6715 63.099 48.7821C62.7466 48.9273 62.4546 49.0923 62.2229 49.2772C62.025 49.4353 61.894 49.647 61.8298 49.9122C61.7256 50.3347 61.6957 50.8138 61.74 51.3495C61.7738 51.7677 61.868 52.1033 62.0224 52.3565C62.0264 52.3629 62.0319 52.3683 62.0384 52.3723C62.0449 52.3762 62.0523 52.3786 62.06 52.3792C62.0677 52.3798 62.0755 52.3787 62.0827 52.3759C62.09 52.3731 62.0965 52.3686 62.1018 52.363C62.4715 51.9577 62.8608 51.4147 63.2695 50.7339C63.463 50.4116 63.5802 50.152 63.621 49.955C63.6982 49.5826 63.8167 49.2236 63.9763 48.878C64.0874 48.6387 64.2579 48.4538 64.4879 48.3233C64.9592 48.0555 65.551 47.779 66.2635 47.4939C66.6262 47.3487 67.0953 47.1245 67.6707 46.8213C67.9493 46.6752 68.1601 46.4999 68.3033 46.2951C68.4127 46.1396 68.4825 45.889 68.5129 45.5434C68.6413 44.0694 68.6834 42.7216 68.6392 41.4999C68.6296 41.2251 68.5828 40.921 68.4986 40.5875C68.4205 40.2799 68.2912 40.0065 68.1107 39.7671C67.9076 39.4984 67.685 39.2634 67.4429 39.0621C67.0576 38.7416 66.8241 38.3571 66.7425 37.9087C66.6835 37.5873 66.7291 37.2857 66.8792 37.0041C67.0354 36.7103 67.2637 36.4818 67.5639 36.3185C67.7297 36.2278 67.9345 36.1915 68.1784 36.2096C68.6357 36.2424 69.0926 36.2805 69.5491 36.3237C69.7348 36.3409 69.9162 36.3755 70.0932 36.4273C70.18 36.4533 70.3553 36.5112 70.6191 36.601C71.5364 36.9155 72.3014 37.4551 72.9141 38.2197C73.3142 38.72 73.6982 39.3624 74.0661 40.1469C74.2102 40.4562 74.2601 40.7504 74.2158 41.0294C74.1898 41.1876 74.0735 41.4122 73.867 41.7034C73.6595 41.9937 73.5359 42.22 73.496 42.3825C73.3588 42.9441 73.3168 43.5627 73.3697 44.2383C73.3711 44.2561 73.3762 44.2734 73.3846 44.2891C73.3929 44.3049 73.4044 44.3187 73.4184 44.3298C73.4323 44.3409 73.4484 44.3489 73.4655 44.3535C73.4827 44.358 73.5006 44.359 73.5181 44.3563C73.9806 44.288 74.4371 44.2327 74.8875 44.1904C75.1453 44.1662 75.4017 44.1891 75.6568 44.2591C76.0413 44.3653 76.3355 44.4526 76.5394 44.5209C76.9812 44.6695 77.3634 44.9356 77.6863 45.3192C78.1028 45.8134 78.187 46.2774 77.9388 46.7111C77.819 46.9219 77.511 47.1936 77.0146 47.5263C75.4915 48.5475 73.9607 49.5372 72.422 50.4954C72.3845 50.5188 72.3571 50.5552 72.3451 50.5976C72.333 50.64 72.3373 50.6854 72.3569 50.7248C72.5704 51.1534 72.6182 51.6031 72.5001 52.074C72.4333 52.3366 72.3687 52.6044 72.3062 52.8775C72.3047 52.8843 72.3046 52.8914 72.3061 52.8983C72.3076 52.9052 72.3105 52.9116 72.3147 52.9173C72.3189 52.9229 72.3243 52.9276 72.3304 52.931C72.3366 52.9344 72.3434 52.9365 72.3504 52.9371C73.305 53.0002 74.2601 53.0654 75.2156 53.1328C76.9295 53.2537 78.1002 53.2857 78.7277 53.2287C79.4063 53.1673 79.9487 53.2213 80.3548 53.3907C80.6542 53.516 80.8846 53.7959 81.0461 54.2305C81.2292 54.7238 81.4353 55.2081 81.6644 55.6833C81.8414 56.0488 81.8553 56.4177 81.706 56.7901C81.6989 56.8082 81.6868 56.8241 81.671 56.8361C81.6553 56.8482 81.6363 56.856 81.6162 56.8588C81.0426 56.9443 80.4663 57.0061 79.8875 57.0441C79.2089 57.089 78.6344 57.1512 78.164 57.2307C76.9942 57.4295 75.823 57.6165 74.6506 57.7919C74.4475 57.8221 74.2796 57.8269 74.1468 57.8062C73.9785 57.7794 73.8153 57.7301 73.6574 57.6584C73.6383 57.6499 73.6214 57.6373 73.6077 57.6216C73.594 57.6059 73.5838 57.5874 73.5779 57.5674C73.5719 57.5474 73.5704 57.5263 73.5733 57.5055C73.5763 57.4848 73.5836 57.4649 73.5949 57.4472C73.7511 57.2052 73.9629 57.0273 74.2301 56.9132C74.3317 56.87 74.3373 56.8169 74.2471 56.7538C73.5624 56.2734 72.7679 55.9365 71.8636 55.7429C71.8404 55.7378 71.816 55.7418 71.7954 55.754C71.7749 55.7663 71.7597 55.786 71.7529 55.809C71.6896 56.0285 71.6371 56.2389 71.5954 56.4402C71.5546 56.6346 71.5347 56.8501 71.5355 57.0869C71.5399 58.058 71.5828 59.0231 71.6644 59.9821C71.6664 60.006 71.6742 60.029 71.6871 60.0492C71.7001 60.0693 71.7178 60.0859 71.7386 60.0975C72.2567 60.3895 72.6759 60.7584 72.9961 61.2043C73.7138 62.2039 73.7285 63.22 73.0404 64.2525C72.964 64.3682 72.7418 64.6439 72.3739 65.0793C72.143 65.3541 71.9295 65.6349 71.7334 65.9217C71.0183 66.9663 70.2885 68.0005 69.5439 69.0243C69.5387 69.0321 69.2827 69.3475 68.7759 69.9704C68.4643 70.3532 68.2035 70.7713 67.9935 71.2249C67.9249 71.3727 67.9618 71.4859 68.1042 71.5645C68.3229 71.6863 68.489 71.8621 68.6027 72.092C68.8613 72.6155 69.0123 73.1629 69.0557 73.734C69.1009 74.3155 69.0943 74.7276 69.0362 74.9704C68.9468 75.3436 68.7086 75.5868 68.3215 75.7C68.1063 75.7622 67.7909 75.7743 67.3752 75.7363C66.7738 75.6819 66.1403 75.5799 65.4746 75.4305C65.1353 75.3544 64.7613 75.3311 64.3525 75.3605C64.3096 75.3638 64.2697 75.3812 64.2393 75.4097C63.9824 75.6516 63.7281 75.8962 63.4765 76.1433C63.191 76.4223 62.9328 76.6634 62.7019 76.8664C60.8214 78.5184 59.0471 79.9703 57.3791 81.2223C56.8012 81.656 56.0713 82.1165 55.1896 82.6038C54.3574 83.0643 53.4748 83.3905 52.5419 83.5823C51.9543 83.7041 51.3998 83.7249 50.8782 83.6445C50.6292 83.6056 50.3931 83.4929 50.1701 83.3063C50.164 83.301 50.1592 83.2944 50.1559 83.2871C50.1526 83.2798 50.151 83.2719 50.1511 83.264C50.1512 83.2561 50.1531 83.2483 50.1566 83.2413C50.1601 83.2342 50.1652 83.2281 50.1714 83.2233C50.7893 82.7222 51.5078 82.2686 52.3271 81.8625C52.7115 81.6716 53.1272 81.4059 53.5741 81.0655C54.3934 80.4425 55.1631 79.7669 55.8834 79.0385C56.2844 78.6324 56.8537 77.9806 57.5913 77.0829C58.8349 75.57 59.6997 74.544 60.1857 74.0049C60.5389 73.6143 60.8005 73.1987 60.9706 72.7581C61.034 72.5922 61.04 72.4229 60.9888 72.2501C60.896 71.9339 60.7654 71.6323 60.597 71.3455C60.0954 70.4875 59.5457 69.6607 58.9477 68.8649C58.9361 68.8494 58.9201 68.8375 58.9017 68.8306C58.8832 68.8237 58.8631 68.8222 58.8436 68.826C58.4045 68.9124 57.9883 69.0649 57.5952 69.2835C57.3366 69.4261 57.0164 69.4818 56.6345 69.4507C56.61 69.4487 56.5862 69.4415 56.5647 69.4297C56.5431 69.4178 56.5244 69.4016 56.5096 69.382C56.1824 68.9543 55.9993 68.5103 55.9602 68.0497C55.9316 67.7119 56.0236 67.3365 56.2362 66.9235C56.5608 66.2919 56.986 65.6923 57.5119 65.1247C57.5431 65.0918 57.5774 65.0633 57.6147 65.0391C57.8968 64.8603 58.1701 64.6983 58.4348 64.5531C58.44 64.5505 58.5854 64.4818 58.8709 64.3471C59.2814 64.1544 59.6055 63.858 59.8433 63.458C60.0889 63.045 60.2651 62.6052 60.3718 62.1387C60.43 61.8873 60.3423 61.7879 60.1089 61.8406C60.069 61.8497 60.0331 61.871 60.0062 61.9015C59.9793 61.932 59.9629 61.9701 59.9592 62.0104C59.9357 62.2393 59.8277 62.4743 59.635 62.7154C59.6136 62.7421 59.5871 62.7644 59.5572 62.7808C59.5272 62.7973 59.4944 62.8076 59.4606 62.8113C59.0458 62.858 58.7225 62.7396 58.4908 62.4562C57.9762 61.8255 57.5379 61.1161 57.1761 60.3282C57.1673 60.3089 57.1545 60.2917 57.1387 60.2776C57.1228 60.2635 57.1042 60.2529 57.0839 60.2465C57.0637 60.24 57.0424 60.2378 57.0212 60.2401C57.0001 60.2423 56.9797 60.2489 56.9613 60.2595C56.1742 60.7131 55.443 61.1641 54.7678 61.6125C54.511 61.7827 54.0263 62.0108 53.3138 62.2968C52.8035 62.5024 52.2789 62.5538 51.74 62.451C51.7202 62.4474 51.7014 62.4393 51.6852 62.4274C51.6689 62.4155 51.6556 62.4001 51.6463 62.3823C51.4406 61.9883 51.3204 61.7045 51.2857 61.5309C51.0323 60.2668 51.0279 58.9808 51.2727 57.6727C51.2778 57.6437 51.2903 57.6164 51.309 57.5933C51.3276 57.5702 51.3518 57.5521 51.3794 57.5405C51.8871 57.3323 52.3935 57.1137 52.8985 56.8847C53.2596 56.7223 53.5672 56.527 53.8215 56.2989C54.8785 55.3494 55.6738 54.2085 56.2076 52.8762C56.224 52.8356 56.2145 52.8278 56.1789 52.8528ZM63.5246 56.6177C63.7095 56.4372 63.8982 56.2281 64.0909 55.9905C65.1097 54.7385 65.9992 53.5397 66.7595 52.3941C66.9243 52.1461 67.0155 51.8977 67.0328 51.6489C67.0343 51.6311 67.0288 51.6135 67.0174 51.5995C67.0061 51.5855 66.9897 51.5763 66.9716 51.5737L64.9722 51.3313C64.9397 51.3272 64.9066 51.3336 64.8772 51.3496C64.8479 51.3656 64.8238 51.3905 64.8082 51.4208C64.4662 52.0739 64.0822 52.6995 63.6561 53.2974C63.4044 53.6499 63.0855 53.9989 62.6993 54.3445C62.3461 54.6625 61.9908 54.9783 61.6332 55.2919C61.1108 55.7507 60.745 56.3374 60.5358 57.0519C60.4334 57.4001 60.4534 57.7185 60.5957 58.007C60.6041 58.0246 60.6172 58.0398 60.6338 58.0514C60.6504 58.0629 60.67 58.0704 60.6908 58.0731C60.9919 58.1129 61.198 58.1155 61.3091 58.0809C61.9096 57.8908 62.4425 57.5936 62.9076 57.1893C63.1003 57.0208 63.3059 56.8303 63.5246 56.6177ZM64.6975 59.3614C64.4597 59.548 64.2263 59.7644 63.9972 60.0107C63.9774 60.0319 63.9647 60.0584 63.9607 60.0865C63.9568 60.1146 63.9618 60.1429 63.975 60.1675L64.8732 61.8471C64.8819 61.8635 64.8958 61.8765 64.913 61.8842C64.9302 61.892 64.9496 61.8939 64.9683 61.8899C65.9368 61.6618 66.7755 61.1995 67.4845 60.5031C67.6572 60.3347 67.7492 60.0914 67.7605 59.7735C67.8039 58.5881 67.8282 57.4022 67.8334 56.216C67.8334 56.1736 67.8186 56.168 67.7891 56.1991C66.9855 57.0363 66.191 57.8818 65.4056 58.7354C65.252 58.9013 65.016 59.1099 64.6975 59.3614ZM65.3432 63.7276C65.1436 63.795 64.9813 63.8783 64.8563 63.9777C64.4988 64.2594 64.1425 64.5423 63.7876 64.8266C63.6296 64.9536 63.46 65.0543 63.2786 65.1286C63.0938 65.2055 62.908 65.2806 62.7215 65.3541C62.4064 65.4776 62.1439 65.6184 61.9339 65.7766C61.2527 66.2863 60.6369 66.9119 60.0867 67.6532C60.0564 67.6946 60.0668 67.7184 60.118 67.7244L64.0636 68.1586C64.1002 68.1627 64.1373 68.1588 64.1722 68.1472C64.2071 68.1355 64.2389 68.1164 64.2653 68.0912C64.4736 67.8942 64.6333 67.7015 64.7444 67.5132C64.8312 67.3646 64.8758 67.2886 64.8784 67.2851C65.3983 66.4807 65.948 65.6966 66.5278 64.9329C66.6866 64.7238 66.871 64.5384 67.081 64.3769C67.2554 64.2438 67.3687 64.0378 67.4207 63.7587C67.4261 63.73 67.4209 63.7003 67.406 63.6751C67.3912 63.6498 67.3678 63.6308 67.34 63.6213C66.8141 63.4381 66.3203 63.417 65.8587 63.5578C65.7623 63.5872 65.5905 63.6438 65.3432 63.7276Z" fill="white" fill-opacity="0.5"/>
<path d="M130.432 49.7727C129.705 49.796 129.133 49.7817 128.716 49.7299C128.543 49.7083 128.411 49.6094 128.32 49.4331C128.312 49.4157 128.308 49.3961 128.309 49.3761C128.31 49.3561 128.317 49.3364 128.328 49.3191C128.488 49.0702 128.662 48.8322 128.852 48.605C129.009 48.4149 129.104 48.2576 129.135 48.1332C129.186 47.9406 129.176 47.7492 129.107 47.5591C128.838 46.8221 128.488 46.1551 128.057 45.5581C127.934 45.3879 127.78 45.2522 127.594 45.1511C127.454 45.0742 127.261 45.0362 127.015 45.0371C126.807 45.038 126.598 45.0323 126.39 45.0202C126.169 45.009 125.962 45.0142 125.77 45.0358C124.554 45.1749 123.474 45.26 122.533 45.2911C122.148 45.3041 121.797 45.1879 121.477 44.9425C121.471 44.9373 121.465 44.9309 121.461 44.9235C121.457 44.9162 121.454 44.9081 121.453 44.8997C121.453 44.8914 121.453 44.8829 121.456 44.8749C121.458 44.8669 121.463 44.8594 121.468 44.8531C121.722 44.5584 122.053 44.3023 122.46 44.0845C123.643 43.4495 124.894 42.8049 126.214 42.1509C126.25 42.1334 126.279 42.1065 126.301 42.0731C126.322 42.0397 126.333 42.0012 126.334 41.9617C126.347 41.3768 126.241 40.7853 126.016 40.1875C125.943 39.9913 125.888 39.6621 125.852 39.1999C125.827 38.8742 125.955 38.7187 126.235 38.7333C126.366 38.7411 126.437 38.7446 126.447 38.7437C126.769 38.7368 127.092 38.7256 127.414 38.71C128.154 38.6746 128.731 38.9541 129.147 39.5485C129.428 39.9494 129.784 40.3693 130.216 40.8082C130.269 40.8627 130.48 41.0437 130.851 41.3513C131.068 41.5327 131.26 41.7375 131.428 41.9656C131.565 42.1531 131.634 42.3587 131.635 42.5825C131.636 42.8538 131.598 43.1436 131.523 43.4521C131.391 43.9947 131.301 44.6941 131.255 45.5503C131.218 46.2078 131.354 46.775 131.662 47.252C131.805 47.474 132.128 47.7764 132.632 48.1592C133.043 48.4719 133.387 48.7579 133.663 49.0171C133.978 49.3126 134.118 49.6647 134.083 50.0733C134.068 50.2695 133.981 50.4945 133.824 50.7486C133.695 50.9576 133.56 51.1633 133.421 51.3655C133.27 51.5858 133.157 51.8519 133.083 52.1638C133.081 52.1737 133.081 52.1841 133.082 52.1942C133.084 52.2043 133.088 52.214 133.093 52.2227C133.099 52.2314 133.106 52.239 133.115 52.2449C133.123 52.2508 133.133 52.2549 133.143 52.2571C133.541 52.3435 133.934 52.4463 134.323 52.5656C134.697 52.6805 134.974 52.8183 135.153 52.979C135.316 53.1241 135.449 53.2939 135.553 53.4883C135.66 53.6888 135.697 53.8918 135.665 54.0974C135.609 54.4465 135.427 54.7701 135.119 55.0681C134.665 55.5062 134.141 55.9408 133.548 56.3719C133.52 56.3928 133.498 56.4208 133.484 56.4529C133.47 56.4851 133.465 56.5202 133.47 56.5546C133.531 56.978 133.725 57.3076 134.052 57.5435C134.657 57.9798 134.76 58.3863 134.362 58.763C134.146 58.9678 133.842 59.0922 133.449 59.1363C133.032 59.1829 132.612 59.1713 132.19 59.1013C132.025 59.0736 131.742 59.0887 131.342 59.1466C131.067 59.1864 130.799 59.2702 130.539 59.3981C129.327 59.9934 128.186 60.7023 127.115 61.5248C127.099 61.5373 127.086 61.5531 127.078 61.5711C127.069 61.589 127.064 61.6087 127.064 61.6285L127.088 63.5647C127.088 63.5826 127.094 63.6 127.106 63.6136C127.118 63.6272 127.135 63.6361 127.153 63.6386C128.671 63.8546 129.932 63.3993 130.933 62.2726C131.541 61.59 132.143 60.9032 132.741 60.212C132.755 60.1958 132.772 60.1829 132.791 60.1744C132.81 60.1659 132.83 60.1619 132.849 60.1627L133.833 60.2133C133.853 60.2141 133.873 60.22 133.891 60.2306C133.908 60.2412 133.924 60.2561 133.936 60.2742C134.252 60.745 134.394 61.2647 134.362 61.8333C134.349 62.0596 134.342 62.1784 134.342 62.1897C134.336 62.4489 134.329 62.7081 134.321 62.9673C134.315 63.2368 134.268 63.4304 134.182 63.5479C134.059 63.7155 133.872 63.8265 133.622 63.8809C133.206 63.9699 132.854 64.0408 132.568 64.0935C132.171 64.1661 131.822 64.246 131.519 64.3332C130.195 64.7143 128.852 65.0097 127.49 65.2197C126.962 65.3009 126.519 65.3329 126.161 65.3156C125.647 65.2914 125.208 65.2046 124.843 65.0551C124.781 65.0292 124.65 64.9298 124.45 64.757C124.323 64.6456 124.226 64.5173 124.16 64.3721C124.019 64.0568 123.932 63.7768 123.9 63.5323C123.843 63.1003 123.824 62.5888 123.841 61.9978C123.853 61.5641 123.849 61.1827 123.827 60.8535C123.794 60.3601 123.775 59.9787 123.77 59.7091C123.746 58.547 123.706 55.828 123.648 51.5521C123.648 51.5437 123.65 51.5354 123.653 51.5276C123.656 51.5198 123.661 51.5127 123.667 51.5068C123.673 51.5009 123.68 51.4962 123.688 51.4931C123.696 51.4899 123.705 51.4884 123.714 51.4886C124.003 51.4912 124.293 51.4951 124.583 51.5002C124.973 51.5072 125.336 51.5914 125.674 51.753C125.908 51.8644 126.087 52.0355 126.209 52.2662C126.336 52.5055 126.42 52.7535 126.463 53.0101C126.495 53.2053 126.535 53.3838 126.583 53.5453C126.626 53.6888 126.718 53.8421 126.86 54.0054C127.062 54.2396 127.236 54.4931 127.381 54.7662C127.475 54.945 127.504 55.1221 127.466 55.2975C127.44 55.4228 127.4 55.5438 127.347 55.6604C127.26 55.8513 127.21 55.9676 127.197 56.009C126.931 56.8307 126.925 57.6886 127.179 58.5829C127.253 58.8447 127.408 58.9976 127.646 59.0417C128.025 59.1125 128.393 59.0736 128.75 58.925C129.226 58.7263 129.67 58.4779 130.082 58.1798C130.588 57.8126 130.967 57.4791 131.218 57.1793C131.758 56.5356 131.972 55.7412 131.861 54.796C131.833 54.5549 131.698 54.4193 131.456 54.389C131.368 54.3787 131.26 54.367 131.132 54.354C131.027 54.3437 130.92 54.3497 130.811 54.3722C130.378 54.4586 130.008 54.5121 129.7 54.5329C129.472 54.5484 129.242 54.4992 129.012 54.3851C128.994 54.3766 128.98 54.3627 128.971 54.3457C128.962 54.3286 128.959 54.3092 128.962 54.2905C129.002 54.0633 129.086 53.8529 129.215 53.6594C129.411 53.363 129.61 53.0684 129.811 52.7755C129.973 52.5405 130.086 52.3003 130.148 52.0549C130.333 51.3266 130.448 50.5861 130.494 49.8336C130.495 49.8256 130.494 49.8175 130.491 49.81C130.488 49.8024 130.483 49.7956 130.477 49.7898C130.472 49.7841 130.464 49.7796 130.457 49.7766C130.449 49.7737 130.44 49.7723 130.432 49.7727Z" fill="white" fill-opacity="0.5"/>
<path d="M141.315 51.1226C141.273 51.1594 141.224 51.1805 141.177 51.1822L140.234 51.2198C140.213 51.2207 140.192 51.2171 140.172 51.2092C140.153 51.2013 140.135 51.1893 140.12 51.174C140.105 51.1586 140.093 51.1401 140.085 51.1197C140.077 51.0993 140.072 51.0774 140.072 51.0552V46.4713C140.072 46.4369 140.085 46.4038 140.109 46.3785C140.133 46.3533 140.165 46.3378 140.2 46.3352C140.918 46.2911 141.591 46.2894 142.22 46.33C142.494 46.3473 142.718 46.4367 142.894 46.5983C142.999 46.695 143.139 46.8778 143.315 47.1465C143.554 47.5128 143.687 47.9206 143.715 48.3699C143.717 48.4102 143.705 48.4517 143.681 48.4878C143.035 49.4546 142.247 50.3329 141.315 51.1226Z" fill="white" fill-opacity="0.5"/>
<path d="M95.4155 53.5775C95.6602 53.3027 95.8529 53.1182 95.9934 53.0241C96.2868 52.8297 96.5007 52.5726 96.6352 52.2529C96.6432 52.2345 96.6466 52.2143 96.645 52.194C96.6435 52.1736 96.6369 52.1539 96.6261 52.1363C96.3163 51.6231 95.9405 51.163 95.4988 50.7561C95.3894 50.6558 95.0688 50.3163 94.5368 49.7374C94.22 49.3935 94.0695 49.0129 94.0851 48.5956C94.0859 48.5747 94.0908 48.5541 94.0995 48.5352C94.1082 48.5163 94.1206 48.4994 94.1359 48.4855C94.3572 48.2798 94.6236 48.1865 94.9351 48.2055C95.3916 48.2323 95.8459 48.2742 96.298 48.3313C97.244 48.4505 98.1096 48.768 98.895 49.2838C99.0287 49.3711 99.1601 49.4817 99.2894 49.6156C99.4109 49.74 99.5311 49.8657 99.65 49.9927C100.128 50.5016 100.422 51.0727 100.533 51.706C100.568 51.9091 100.552 52.1156 100.483 52.3255C100.428 52.4923 100.308 52.6487 100.121 52.7947C99.9026 52.964 99.6821 53.1316 99.46 53.2975C99.2317 53.4677 98.9918 53.6021 98.7401 53.7006C97.8836 54.0341 97.0492 54.2764 96.2369 54.4276C95.9409 54.4829 95.6177 54.4739 95.2671 54.4004C95.2474 54.3965 95.2293 54.3871 95.2152 54.3732C95.2011 54.3594 95.1915 54.3418 95.1877 54.3227C95.1321 54.0583 95.2081 53.8099 95.4155 53.5775Z" fill="white" fill-opacity="0.5"/>
<path d="M145.093 51.5891C144.946 51.5036 144.906 51.3835 144.972 51.2288C145.112 50.9005 145.398 50.6806 145.831 50.5692C146.196 50.475 146.565 50.4214 146.939 50.4085C147.201 50.3998 147.457 50.3661 147.706 50.3074C148.657 50.0845 149.598 50.1406 150.531 50.4758C150.55 50.4831 150.568 50.4946 150.582 50.5094C150.597 50.5241 150.608 50.5419 150.615 50.5614C150.776 51.0193 150.681 51.4055 150.331 51.72C150.302 51.7477 150.261 51.7646 150.217 51.768C149.407 51.8362 148.597 51.8945 147.785 51.9429C147.329 51.9697 146.874 51.9554 146.42 51.9002C146.411 51.8984 146.257 51.8868 145.958 51.8652C145.662 51.8444 145.374 51.7524 145.093 51.5891Z" fill="white" fill-opacity="0.5"/>
<path d="M90.6489 67.3491C95.1295 67.4087 99.0751 67.4109 102.486 67.3556C103.25 67.3435 104.195 67.286 105.32 67.1832C106.666 67.0605 108.001 67.131 109.325 67.3945C109.857 67.5007 110.36 67.6848 110.834 67.9466C111.246 68.1747 111.657 68.4049 112.068 68.6373C112.076 68.6425 112.162 68.6831 112.325 68.7592C112.47 68.8257 112.585 68.9246 112.67 69.0559C112.78 69.2227 112.838 69.3104 112.844 69.319C113.267 69.8746 113.501 70.4962 113.544 71.184C113.56 71.425 113.508 71.6467 113.389 71.8488C112.937 72.6152 112.266 72.9548 111.378 72.8675C111.116 72.8424 110.831 72.74 110.524 72.5603C110.142 72.3374 109.763 72.1093 109.386 71.876C109.004 71.6393 108.631 71.457 108.267 71.3291C105.75 70.4409 103.27 69.9372 100.826 69.818C99.2933 69.7437 97.0665 69.7014 94.1454 69.691C93.2576 69.6875 92.4848 69.6448 91.827 69.5627C91.0572 69.4659 90.2909 69.3445 89.5281 69.1985C88.8738 69.0732 88.3032 68.8775 87.8163 68.6114C87.6028 68.4948 87.4826 68.3034 87.4557 68.0373C87.4537 68.0171 87.4563 67.9966 87.4633 67.9773C87.4703 67.958 87.4815 67.9405 87.4961 67.9258C87.6714 67.7539 87.8493 67.5846 88.0298 67.4178C88.2077 67.2545 88.4086 67.115 88.6325 66.9992C89.3997 66.6018 90.1738 66.2186 90.9548 65.8496C91.8252 65.4375 92.5924 65.0453 93.2563 64.6729C94.3281 64.0715 95.4011 63.4723 96.4755 62.8753C96.9676 62.6014 97.7308 62.1897 98.7653 61.6402C99.7476 61.1175 100.72 60.5823 101.681 60.0345C101.808 59.9619 101.918 59.8699 102.012 59.7584C102.246 59.4802 102.479 59.2279 102.71 59.0016C102.86 58.8538 103.065 58.7182 103.325 58.5946C104.407 58.0797 105.264 57.2822 105.895 56.2022C106.118 55.8195 106.212 55.4302 106.177 55.0345C106.176 55.0152 106.169 54.9966 106.157 54.9807C106.146 54.9647 106.13 54.952 106.112 54.9438C105.432 54.644 104.657 54.5801 103.787 54.752C103.435 54.8211 103.137 54.9088 102.892 55.0151C102.69 55.1024 102.477 55.2726 102.25 55.5257C102.066 55.7322 101.88 55.9365 101.692 56.1387C101.663 56.169 101.628 56.1906 101.586 56.2035L101.188 56.3279C101.149 56.3398 101.113 56.3641 101.085 56.3979C100.864 56.6632 100.645 56.9306 100.429 57.2001C100.248 57.4256 100.044 57.6131 99.8145 57.7626C99.0109 58.2836 98.3526 58.6651 97.8397 58.907C96.2039 59.6794 94.1619 60.5624 91.7137 61.556C91.3319 61.7107 90.9986 61.7171 90.714 61.5754C90.5283 61.4821 90.3217 61.2605 90.0944 60.9106C89.8071 60.4674 89.5663 60.0012 89.3719 59.5122C89.227 59.1493 89.1536 58.7731 89.1519 58.3834C89.1502 57.9108 89.1901 57.4408 89.2717 56.9733C89.3003 56.8109 89.345 56.6999 89.4058 56.6403C89.4839 56.5642 89.5828 56.5413 89.7025 56.5716C89.7668 56.588 89.8457 56.6372 89.9395 56.7193C90.1946 56.9396 90.4415 57.0805 90.6802 57.1418C92.152 57.5185 93.6906 57.5159 95.2961 57.134C97.267 56.664 99.3081 56.1893 101.42 55.7097C101.502 55.6916 101.579 55.6588 101.65 55.6112C102.023 55.365 102.372 55.0699 102.695 54.7261C102.724 54.695 102.761 54.6745 102.802 54.6678C103.091 54.6159 103.382 54.5822 103.674 54.5667C103.971 54.552 104.212 54.5049 104.397 54.4254C104.549 54.3589 104.698 54.2841 104.843 54.2012C105.002 54.1105 105.153 54.0461 105.297 54.0081C105.801 53.8768 106.302 53.7403 106.802 53.5986C106.996 53.5433 107.177 53.5402 107.346 53.5895C107.801 53.7191 108.212 53.9221 108.578 54.1986C108.919 54.4561 109.253 54.8483 109.58 55.3754C109.881 55.8609 110.117 56.3253 110.288 56.7686C110.342 56.9094 110.352 57.0671 110.319 57.2416C110.293 57.3764 110.232 57.5172 110.135 57.6641C109.845 58.1022 109.421 58.5031 108.864 58.8668C108.115 59.3567 107.404 59.7122 106.731 59.9334C106.457 60.0233 106.232 60.1313 106.054 60.2574C105.753 60.4708 105.46 60.6937 105.174 60.9261C104.899 61.1508 104.599 61.3318 104.274 61.4692C103.987 61.5901 103.838 61.6532 103.828 61.6584C102.938 62.0636 102.109 62.3617 101.339 62.5526C100.944 62.6503 100.686 62.7306 100.566 62.7937C99.6795 63.2559 98.7883 63.7091 97.8918 64.1532C97.6141 64.2906 97.2999 64.3994 96.9493 64.4798C95.9609 64.7079 95.0011 65.0254 94.0699 65.4323C93.4398 65.7079 92.5325 66.1628 91.3479 66.797C91.0381 66.962 90.7977 67.1301 90.6268 67.3012C90.5964 67.3323 90.6038 67.3483 90.6489 67.3491Z" fill="white" fill-opacity="0.5"/>
<path d="M141.988 56.8575C141.843 56.7581 141.728 56.6372 141.641 56.4946C141.557 56.3564 141.514 56.2013 141.512 56.0293C141.506 55.6207 141.716 55.4163 142.143 55.4163C142.408 55.4163 142.546 55.4163 142.557 55.4163C143.283 55.3705 144.006 55.3969 144.726 55.4954C144.797 55.5049 144.884 55.5477 144.986 55.6237C144.994 55.6297 145.046 55.6647 145.142 55.7287C145.388 55.8902 145.408 56.1637 145.201 56.549C145.112 56.7149 144.996 56.8583 144.853 56.9793C144.599 57.1953 144.275 57.3128 143.881 57.3318C143.552 57.3482 143.226 57.3219 142.903 57.2528C142.578 57.1836 142.273 57.0519 141.988 56.8575Z" fill="white" fill-opacity="0.5"/>
<path d="M142.051 62.0494C141.905 61.9466 141.72 61.785 141.496 61.5647C141.279 61.3513 141.201 61.1215 141.262 60.8753C141.311 60.6783 141.455 60.5271 141.696 60.4217C141.952 60.3076 142.225 60.2389 142.513 60.2156C143.501 60.137 144.252 60.1599 144.768 60.2843C145.101 60.3646 145.371 60.5547 145.577 60.8545C145.748 61.1025 145.877 61.35 145.963 61.5971C146.056 61.8641 146.076 62.1501 146.025 62.4551C146.016 62.5111 145.994 62.5644 145.962 62.6112C145.929 62.658 145.887 62.6972 145.838 62.7259C145.617 62.8547 145.38 62.9303 145.127 62.9527C144.963 62.9666 144.719 62.97 144.394 62.9631C144.04 62.9545 143.697 62.8819 143.364 62.7454C142.84 62.5302 142.402 62.2983 142.051 62.0494Z" fill="white" fill-opacity="0.5"/>
<path d="M140.445 73.1866C140.659 73.2644 140.891 73.2436 141.143 73.1244C141.296 73.0527 141.474 72.9183 141.677 72.7213C142.868 71.5636 143.742 70.195 144.297 68.6156C144.651 67.6073 144.651 66.6172 144.296 65.6452C144.149 65.246 143.848 65.0494 143.392 65.0555C142.742 65.0641 142.091 65.0732 141.44 65.0827C141.185 65.0862 140.967 65.0006 140.788 64.8261C140.619 64.6619 140.629 64.509 140.816 64.3673C141.07 64.1755 141.366 64.0891 141.707 64.1081C141.988 64.1228 142.265 64.1107 142.538 64.0718C142.907 64.0191 143.181 63.9971 143.359 64.0057C144.454 64.061 145.507 64.2852 146.518 64.6784C147.368 65.0084 147.927 65.2996 148.197 65.5519C148.733 66.0539 148.842 66.7602 148.526 67.6708C148.253 68.4588 147.705 69.7924 146.882 71.6716C146.827 71.7986 146.773 72.0146 146.72 72.3196C146.673 72.5909 146.8 72.7719 147.102 72.8626C147.331 72.9309 147.634 72.9576 148.012 72.943C149.806 72.8721 151.596 72.9209 153.383 73.0894C153.562 73.1058 153.878 73.1654 154.331 73.2682C154.709 73.3546 155.044 73.5128 155.336 73.7426C155.573 73.9292 155.71 74.1379 155.747 74.3686C155.779 74.5655 155.747 74.753 155.651 74.931C155.571 75.0779 155.44 75.201 155.256 75.3004C154.91 75.4861 154.533 75.5734 154.124 75.5622C153.723 75.5501 153.323 75.5194 152.925 75.4702C150.653 75.1894 148.382 74.8965 146.113 74.5915C145.099 74.4558 144.236 74.369 143.524 74.331C141.133 74.2048 138.855 74.2662 136.688 74.515C136.138 74.5781 134.813 74.7578 132.713 75.0541C131.902 75.1682 131.048 75.3142 130.149 75.4922C128.61 75.7963 127.069 76.0862 125.526 76.3618C123.889 76.6547 122.154 76.7519 120.319 76.6534C119.593 76.6145 118.962 76.4085 118.428 76.0352C118.411 76.0236 118.398 76.008 118.39 75.9901C118.382 75.9722 118.379 75.9528 118.382 75.9341C118.411 75.7613 118.492 75.6555 118.627 75.6166C119.364 75.4049 120.375 75.1997 121.66 75.001C122.787 74.8256 123.915 74.6528 125.043 74.4826C126.163 74.3124 127.27 74.0739 128.366 73.7672C128.382 73.7626 128.396 73.7544 128.408 73.7431C128.42 73.7319 128.429 73.718 128.434 73.7026C128.439 73.6873 128.44 73.671 128.438 73.6551C128.435 73.6393 128.428 73.6244 128.419 73.6117C127.72 72.7062 127.143 71.7126 126.687 70.6309C126.368 69.8714 126.176 69.0817 126.111 68.2618C126.082 67.8937 126.123 67.5339 126.234 67.1822C126.311 66.9438 126.473 66.8055 126.721 66.7675C127.046 66.7183 127.354 66.7844 127.645 66.9658C128.26 67.3477 128.793 67.8216 129.244 68.3875C130.179 69.56 130.967 70.8244 131.606 72.1809C131.814 72.6198 132.121 72.9922 132.528 73.2981C132.674 73.4069 132.767 73.3728 132.807 73.1957C132.869 72.9166 132.87 72.6522 132.811 72.4025C132.537 71.2646 132.363 70.1112 132.289 68.9422C132.254 68.3918 132.276 67.8453 132.354 67.3028C132.407 66.9286 132.523 66.6496 132.701 66.4655C132.893 66.266 133.134 66.1316 133.425 66.0625C133.611 66.0184 133.708 65.9955 133.717 65.9938C135.178 65.586 136.67 65.389 138.193 65.4028C138.39 65.4046 138.92 65.459 139.781 65.5661C141.142 65.7363 141.847 66.5053 141.895 67.873C141.936 69.0238 141.648 70.1639 141.03 71.2931C141.001 71.3458 140.851 71.5653 140.581 71.9515C140.429 72.1692 140.303 72.4055 140.204 72.6604C140.106 72.917 140.186 73.0924 140.445 73.1866ZM136.802 66.9438C136.573 66.917 136.359 66.9576 136.157 67.0656C135.971 67.1667 135.804 67.2958 135.657 67.4531C135.451 67.6751 135.361 67.9447 135.387 68.2618C135.464 69.2157 135.801 70.1177 136.397 70.9678C136.41 70.9862 136.427 71.0009 136.447 71.0106C136.467 71.0202 136.49 71.0245 136.512 71.0229C136.534 71.0213 136.556 71.014 136.574 71.0016C136.593 70.9892 136.608 70.9722 136.618 70.9523C137.107 69.9915 137.399 68.9841 137.494 67.93C137.519 67.6613 137.47 67.4362 137.348 67.2548C137.229 67.0768 137.046 66.9731 136.802 66.9438Z" fill="white" fill-opacity="0.5"/>
</g>
<defs>
<clipPath id="clip0_336_10152">
<rect width="200" height="120" fill="white"/>
</clipPath>
</defs>
</svg>
