<svg width="200" height="120" viewBox="0 0 200 120" fill="none" xmlns="http://www.w3.org/2000/svg">
<path d="M108.134 38.0474C108.134 41.385 108.123 44.7338 108.134 48.0714C108.145 50.1434 108.179 52.2154 108.235 54.2874C108.28 55.6874 108.369 57.0874 108.448 58.4762C108.493 59.2042 108.537 59.921 108.627 60.649C108.705 61.3322 108.84 62.0154 108.952 62.6986C109.008 63.0682 109.075 63.449 109.153 63.8186C109.198 63.9978 109.254 64.1882 109.355 64.345C109.4 64.4122 109.557 64.4346 109.657 64.457C109.725 64.4682 109.803 64.4122 109.87 64.4122C110.889 64.3786 111.92 64.3114 112.939 64.3226C113.734 64.3338 114.529 64.4122 115.313 64.5018C116.109 64.5914 116.904 64.7034 117.699 64.849C118.405 64.9722 119.11 65.1514 119.816 65.3082C120.365 65.4314 120.925 65.5434 121.473 65.7002C122.134 65.8906 122.773 66.1258 123.422 66.3498C123.803 66.4842 124.195 66.6186 124.565 66.7754C125.035 66.977 125.494 67.1898 125.953 67.4138C126.245 67.5482 126.525 67.705 126.793 67.873C127.689 68.4106 128.541 69.0042 129.022 69.9674C129.291 70.505 129.347 71.1098 129.269 71.7034C129.101 72.9802 128.462 74.0218 127.589 74.929C126.917 75.6234 126.166 76.2058 125.326 76.6762C124.688 77.0346 124.061 77.4042 123.411 77.7066C122.739 78.0202 122.033 78.2554 121.339 78.513C120.913 78.6698 120.477 78.8266 120.04 78.9498C119.491 79.1066 118.942 79.2522 118.393 79.3978C117.968 79.5098 117.531 79.633 117.105 79.7338C116.769 79.8122 116.422 79.8794 116.075 79.9466C115.47 80.0586 114.877 80.1818 114.272 80.2826C113.622 80.3834 112.961 80.4506 112.312 80.529C111.55 80.6186 110.789 80.7194 110.027 80.7978C109.691 80.8314 109.355 80.8538 109.03 80.8874C108.179 80.9434 107.328 81.0106 106.477 81.0666C106.297 81.0778 106.129 81.0666 105.95 81.0778C105.805 81.089 105.726 81.0218 105.715 80.8762C105.704 80.7978 105.693 80.7194 105.693 80.641C105.659 80.0138 105.614 79.3866 105.581 78.7594C105.547 78.2218 105.536 77.6842 105.491 77.1354C105.39 75.7466 105.278 74.369 105.166 72.9802C105.099 72.129 105.043 71.289 104.976 70.4378C104.931 69.8442 104.875 69.2394 104.819 68.6458C104.741 67.7722 104.662 66.8986 104.573 66.025C104.55 65.7674 104.505 65.521 104.472 65.2634C104.438 64.9834 104.427 64.7146 104.393 64.4346C104.36 64.1322 104.304 63.8298 104.259 63.5274C104.259 63.505 104.248 63.4826 104.248 63.4602C104.181 62.833 104.125 62.2058 104.046 61.5898C103.957 60.9066 103.856 60.2234 103.766 59.5514C103.665 58.8458 103.587 58.1402 103.475 57.4458C103.374 56.8186 103.262 56.1802 103.15 55.553C103.072 55.105 103.016 54.657 102.949 54.209C102.837 53.537 102.725 52.865 102.613 52.193C102.534 51.7114 102.456 51.2298 102.377 50.7482C102.277 50.1882 102.165 49.617 102.053 49.057C101.985 48.6986 101.918 48.3402 101.862 47.9818C101.75 47.3882 101.638 46.7946 101.537 46.1898C101.448 45.7194 101.381 45.249 101.28 44.7898C101.179 44.2858 101.056 43.7818 100.955 43.2778C100.877 42.9082 100.821 42.5498 100.753 42.1802C100.653 41.6874 100.552 41.1946 100.451 40.7018C100.361 40.2314 100.272 39.7722 100.171 39.3018C100.137 39.1114 100.227 39.0218 100.395 38.9546C101.369 38.585 102.344 38.2154 103.329 37.857C104.382 37.465 105.435 37.0954 106.499 36.7034C106.992 36.5242 107.485 36.3338 107.977 36.1434C108.179 36.065 108.235 36.0986 108.224 36.3338C108.224 36.793 108.201 37.2522 108.201 37.7226C108.201 37.8346 108.201 37.9466 108.201 38.0474C108.179 38.0474 108.157 38.0474 108.134 38.0474ZM113.421 69.1386C113.006 69.1162 112.961 69.1722 112.973 69.4634C112.973 69.497 112.984 69.5418 112.984 69.5754C113.085 70.3146 113.185 71.0426 113.286 71.7818C113.331 72.0842 113.376 72.3866 113.421 72.689C113.521 73.3722 113.622 74.0666 113.712 74.7498C113.79 75.321 113.857 75.8922 113.936 76.4634C113.969 76.6762 114.126 76.7322 114.294 76.609C114.686 76.329 115.067 76.0378 115.459 75.7578C116.097 75.2986 116.725 74.8282 117.363 74.369C118.013 73.8874 118.662 73.417 119.312 72.9354C119.67 72.6666 120.04 72.3978 120.398 72.1178C120.521 72.0282 120.521 71.9386 120.376 71.8826C119.849 71.6474 119.334 71.401 118.808 71.1658C118.293 70.9418 117.755 70.729 117.24 70.5162C116.893 70.3706 116.545 70.2138 116.187 70.0794C115.56 69.8442 114.933 69.6202 114.294 69.4074C113.992 69.2842 113.645 69.2058 113.421 69.1386Z" fill="white" fill-opacity="0.5"/>
<path d="M56.5702 43.9038C56.5702 45.2142 56.5478 46.5246 56.5702 47.835C56.6262 50.5118 56.6822 53.1998 56.7718 55.8766C56.8054 57.0414 56.895 58.2174 56.9734 59.3822C57.0182 59.9982 57.0854 60.603 57.1526 61.2078C57.1974 61.6334 57.2422 62.059 57.3318 62.4846C57.4438 63.0446 57.5782 63.5934 57.7238 64.1422C57.8022 64.4334 57.903 64.4782 58.2054 64.411C58.2278 64.411 58.2502 64.3998 58.2726 64.3998C59.3926 64.3662 60.5126 64.3214 61.6214 64.3102C62.159 64.3102 62.7078 64.3438 63.2342 64.411C63.9286 64.4894 64.6118 64.6126 65.3062 64.7246C66.0902 64.8478 66.863 64.9822 67.6358 65.1278C68.0838 65.2174 68.5318 65.3406 68.9686 65.4526C69.4614 65.5758 69.9542 65.7102 70.447 65.8558C70.8838 65.979 71.3318 66.1246 71.7574 66.2702C72.2166 66.427 72.6758 66.595 73.1238 66.7854C73.5158 66.9534 73.9078 67.155 74.2886 67.3342C75.0166 67.6814 75.6886 68.107 76.327 68.5998C76.7638 68.947 77.167 69.339 77.4246 69.8318C77.7158 70.3918 77.8054 71.019 77.727 71.6462C77.6262 72.4078 77.3686 73.1134 76.9542 73.763C76.5174 74.435 75.9798 75.0174 75.375 75.5326C74.4342 76.339 73.3702 76.9774 72.2614 77.5038C71.4774 77.8734 70.6486 78.1758 69.831 78.4894C69.3606 78.6686 68.8902 78.8254 68.4086 78.971C67.9158 79.1166 67.423 79.2398 66.9302 79.363C66.4486 79.4862 65.967 79.6206 65.4854 79.7214C65.0934 79.811 64.7014 79.8558 64.2982 79.9342C63.839 80.0238 63.391 80.1246 62.9206 80.1918C62.2486 80.2926 61.5766 80.3934 60.9046 80.4718C60.0982 80.5726 59.2806 80.6734 58.463 80.763C58.0598 80.8078 57.6678 80.8302 57.2646 80.8526C56.3574 80.9086 55.439 80.9758 54.5318 81.0318C54.1958 81.0542 54.1958 81.0318 54.1734 80.6958C54.1174 79.7438 54.0502 78.803 53.9942 77.851C53.9382 77.0334 53.8822 76.2158 53.8262 75.4094C53.7478 74.4014 53.6694 73.3822 53.591 72.3742C53.535 71.7134 53.5014 71.0414 53.4454 70.3806C53.3558 69.3502 53.255 68.331 53.1542 67.3006C53.1094 66.8078 53.0646 66.3262 53.0086 65.8334C52.9302 65.1726 52.8406 64.523 52.7622 63.8622C52.6838 63.2126 52.639 62.5518 52.5606 61.9022C52.4934 61.2974 52.3926 60.6814 52.3142 60.0766C52.2134 59.3262 52.1126 58.587 52.0006 57.8366C51.8998 57.1982 51.7766 56.5598 51.6758 55.9214C51.5974 55.4286 51.5414 54.9358 51.4742 54.4542C51.3958 53.9278 51.295 53.4014 51.2054 52.875C51.0822 52.1134 50.9478 51.363 50.8246 50.6014C50.735 50.0302 50.6454 49.4702 50.5446 48.899C50.3878 48.0926 50.2198 47.2862 50.063 46.4686C49.9734 45.9758 49.895 45.483 49.8054 45.0014C49.7158 44.5198 49.6038 44.0382 49.503 43.5454C49.4246 43.1646 49.3574 42.7726 49.279 42.3918C49.1782 41.8878 49.0774 41.395 48.9766 40.891C48.8646 40.3422 48.7414 39.7934 48.6406 39.2334C48.5958 39.0206 48.7526 38.9534 48.9094 38.8974C49.5142 38.6734 50.1078 38.4494 50.7126 38.2254C51.2726 38.0126 51.8326 37.811 52.3926 37.6094C52.8182 37.4526 53.255 37.2846 53.6806 37.1166C54.2518 36.9038 54.8118 36.7022 55.383 36.4894C55.6182 36.3998 55.8422 36.3102 56.0774 36.2318C56.1894 36.187 56.3126 36.1422 56.4358 36.1198C56.6486 36.075 56.7046 36.131 56.6934 36.3438C56.671 36.971 56.6598 37.5982 56.6374 38.2366C56.6262 38.7182 56.6262 39.1886 56.6262 39.6702C56.6262 41.0702 56.6262 42.4702 56.6262 43.8702C56.5926 43.9038 56.5814 43.9038 56.5702 43.9038ZM61.8118 69.1374C61.431 69.1262 61.375 69.1934 61.4086 69.4734C61.4422 69.7086 61.487 69.9438 61.5206 70.1902C61.5654 70.459 61.5878 70.739 61.6326 71.0078C61.711 71.5006 61.7894 71.9822 61.8678 72.475C61.9574 73.091 62.0358 73.7182 62.1142 74.3454C62.215 75.051 62.327 75.7566 62.4278 76.4734C62.4614 76.675 62.6182 76.7422 62.7862 76.6302C62.8422 76.5966 62.887 76.5406 62.943 76.507C63.7382 75.9246 64.5222 75.3422 65.3174 74.7598C65.9222 74.3118 66.527 73.8526 67.143 73.4046C67.6918 73.0014 68.2406 72.6206 68.7894 72.2062C69.0134 72.0382 68.991 71.9486 68.7558 71.8366C68.655 71.7918 68.5542 71.747 68.4534 71.7022C67.8598 71.4558 67.2774 71.2094 66.6838 70.963C66.0118 70.6718 65.3398 70.3694 64.6566 70.1006C63.9958 69.843 63.3126 69.6078 62.6406 69.3838C62.3382 69.2494 62.0246 69.1934 61.8118 69.1374Z" fill="white" fill-opacity="0.5"/>
<path d="M138.632 41.1836C139.013 41.2284 139.405 41.262 139.786 41.3068C139.987 41.3292 140.088 41.486 140.099 41.6764C140.178 42.6508 140.245 43.614 140.312 44.5884C140.379 45.6636 140.447 46.7388 140.514 47.814C140.57 48.6428 140.626 49.4716 140.693 50.3004C140.783 51.3868 140.872 52.4732 140.951 53.5484C140.984 53.9516 141.007 54.366 141.029 54.7692C141.085 55.542 141.163 56.3148 141.219 57.0876C141.298 58.0396 141.354 58.9916 141.432 59.9324C141.488 60.75 141.544 61.5676 141.611 62.3852C141.667 63.2252 141.723 64.054 141.791 64.894C141.88 65.9692 141.97 67.0332 142.059 68.1084C142.16 69.43 142.25 70.7516 142.362 72.0732C142.451 73.2492 142.552 74.4252 142.653 75.6012C142.675 75.8476 142.631 75.9036 142.384 75.9484C141.376 76.1052 140.368 76.1276 139.36 75.9596C139.136 75.9148 139.058 75.814 139.047 75.6012C138.957 74.4476 138.856 73.294 138.755 72.1404C138.722 71.8044 138.688 71.4684 138.666 71.1324C138.599 70.3372 138.543 69.542 138.464 68.758C138.375 67.8844 138.24 67.022 138.151 66.1484C138.061 65.3532 137.994 64.5468 137.904 63.7516C137.792 62.7212 137.669 61.6908 137.546 60.6492C137.49 60.1676 137.434 59.6972 137.367 59.2156C137.266 58.5324 137.154 57.8604 137.064 57.1772C136.986 56.6284 136.93 56.0796 136.851 55.5308C136.751 54.7916 136.627 54.0524 136.527 53.3132C136.437 52.686 136.37 52.0588 136.269 51.4316C136.179 50.8492 136.056 50.2668 135.967 49.6844C135.888 49.214 135.832 48.7324 135.754 48.2508C135.653 47.6124 135.53 46.9852 135.429 46.3468C135.339 45.8316 135.272 45.3052 135.183 44.79C135.082 44.2636 134.97 43.7372 134.869 43.2108C134.779 42.7404 134.701 42.2588 134.623 41.7884C134.6 41.654 134.645 41.5644 134.802 41.542C134.903 41.5308 135.003 41.486 135.104 41.486C136.023 41.3964 136.952 41.318 137.871 41.2396C138.128 41.2172 138.386 41.2396 138.643 41.2396C138.632 41.2172 138.632 41.206 138.632 41.1836Z" fill="white" fill-opacity="0.5"/>
<path d="M87.2033 41.1953C87.4609 41.2177 87.8417 41.2513 88.2225 41.3073C88.4465 41.3409 88.5361 41.5089 88.5585 41.7105C88.5921 42.0241 88.6257 42.3377 88.6369 42.6513C88.7041 43.8161 88.7713 44.9697 88.8385 46.1345C88.8945 47.0081 88.9617 47.8817 89.0289 48.7553C89.1073 49.8081 89.2081 50.8497 89.2865 51.9025C89.4097 53.4369 89.5217 54.9713 89.6337 56.4945C89.7457 57.9505 89.8465 59.3953 89.9473 60.8513C90.0033 61.6913 90.0593 62.5425 90.1377 63.3825C90.2385 64.5585 90.3617 65.7233 90.4513 66.8993C90.5409 68.0417 90.6081 69.1729 90.6977 70.3153C90.7761 71.3905 90.8769 72.4769 90.9553 73.5521C91.0001 74.1457 91.0225 74.7393 91.0561 75.3329C91.0673 75.4337 91.1009 75.5345 91.1233 75.6353C91.1681 75.8257 91.1009 75.9153 90.8993 75.9489C90.0369 76.0945 89.1857 76.1393 88.3121 76.0273C88.1217 76.0049 87.9313 75.9937 87.7521 75.9377C87.6737 75.9153 87.5729 75.8145 87.5729 75.7473C87.4945 75.0081 87.4385 74.2577 87.3601 73.5185C87.2817 72.6785 87.1921 71.8497 87.1025 71.0097C87.0689 70.6625 87.0465 70.3041 87.0129 69.9569C86.9457 69.1393 86.8897 68.3329 86.8001 67.5153C86.7105 66.7089 86.5873 65.9137 86.4865 65.1073C86.3969 64.3121 86.3409 63.5169 86.2401 62.7329C86.1393 61.9153 86.0161 61.0977 85.9153 60.2801C85.8369 59.6529 85.7809 59.0145 85.7025 58.3873C85.6129 57.6929 85.4897 57.0097 85.3889 56.3153C85.3889 56.2817 85.3777 56.2593 85.3777 56.2257C85.2993 55.5873 85.2321 54.9489 85.1425 54.3105C85.0305 53.4817 84.9073 52.6641 84.7729 51.8353C84.6945 51.2977 84.5937 50.7713 84.5153 50.2449C84.4257 49.6289 84.3473 49.0241 84.2353 48.4081C84.0785 47.5121 83.9105 46.6161 83.7537 45.7089C83.6641 45.1713 83.5969 44.6225 83.4961 44.0849C83.4065 43.6033 83.3057 43.1329 83.2049 42.6513C83.1489 42.3601 83.0817 42.0801 83.0481 41.7889C83.0369 41.7217 83.1041 41.5985 83.1601 41.5761C83.2945 41.5201 83.4513 41.4977 83.6081 41.4865C84.5041 41.3969 85.4113 41.3185 86.3073 41.2401C86.5761 41.2177 86.8337 41.2177 87.2033 41.1953Z" fill="white" fill-opacity="0.5"/>
<path d="M150.564 70.2576C150.564 72.1952 150.575 74.1216 150.564 76.0592C150.564 76.7872 150.519 77.504 150.508 78.232C150.508 78.3888 150.43 78.4673 150.284 78.4785C150.172 78.4897 150.049 78.4896 149.937 78.4896C149.142 78.5232 148.347 78.5568 147.551 78.6016C147.249 78.6128 146.958 78.6465 146.655 78.6689C146.465 78.6913 146.387 78.6128 146.364 78.4112C146.308 77.7168 146.252 77.0336 146.174 76.3392C146.073 75.4544 145.95 74.5697 145.86 73.6849C145.759 72.7441 145.703 71.7921 145.614 70.8401C145.558 70.1345 145.491 69.4288 145.423 68.7232C145.367 68.1072 145.311 67.5025 145.255 66.8865C145.188 66.1697 145.121 65.464 145.065 64.7472C144.953 63.3024 144.841 61.8465 144.74 60.4017C144.718 59.9985 144.74 60.0097 145.155 59.9761C146.028 59.9089 146.902 59.7857 147.775 59.7521C148.47 59.7297 149.164 59.7745 149.859 59.8193C150.206 59.8417 150.273 60.1553 150.307 60.4353C150.351 60.8049 150.385 61.1745 150.407 61.5553C150.452 62.3281 150.497 63.1008 150.508 63.8737C150.553 66.0016 150.575 68.1185 150.609 70.2465C150.587 70.2577 150.575 70.2576 150.564 70.2576Z" fill="white" fill-opacity="0.5"/>
<path d="M84.8035 76.8985C84.8147 77.5481 84.8035 77.4473 84.1651 77.5593C83.4147 77.6937 82.6531 77.7945 81.9027 77.8953C81.5779 77.9401 81.2531 77.9737 80.9283 78.0073C80.7603 78.0297 80.7043 77.9177 80.6819 77.7833C80.5811 77.2569 80.4915 76.7193 80.3907 76.1929C80.3123 75.8009 80.2227 75.4089 80.1443 75.0169C80.0435 74.5353 79.9539 74.0537 79.8643 73.5721C79.7635 73.0793 79.6739 72.5977 79.5731 72.1049C79.4723 71.6009 79.3939 71.0969 79.2931 70.6041C79.2147 70.2009 79.1251 69.8089 79.0467 69.4057C78.9571 68.9465 78.8563 68.4873 78.7779 68.0281C78.6323 67.2329 78.5091 66.4377 78.3635 65.6537C78.2627 65.1385 78.1395 64.6345 78.0499 64.1193C77.9715 63.6713 77.9155 63.2121 77.8371 62.7641C77.7587 62.2825 77.6691 61.8009 77.5907 61.3193C77.5123 60.8601 77.4339 60.4121 77.3667 59.9529C77.3219 59.6841 77.3667 59.6393 77.6355 59.5833C78.2627 59.4601 78.8899 59.3593 79.5059 59.2137C80.2227 59.0345 80.9619 59.0009 81.6899 58.9449C81.9363 58.9337 82.1827 58.9337 82.4179 58.9561C82.6867 58.9785 82.8771 59.1801 82.9219 59.4825C83.0563 60.3561 83.2019 61.2297 83.3251 62.1033C83.4259 62.7865 83.5155 63.4697 83.5939 64.1641C83.6947 65.0489 83.7619 65.9337 83.8627 66.8185C83.9747 67.9385 84.1091 69.0585 84.2211 70.1785C84.3107 71.0857 84.3667 71.9929 84.4339 72.8889C84.5011 73.7289 84.5459 74.5577 84.6243 75.3977C84.6691 75.9129 84.7475 76.4057 84.8035 76.8985Z" fill="white" fill-opacity="0.5"/>
<path d="M128.934 60.0315C128.922 59.6619 128.911 59.6507 129.27 59.5835C129.841 59.4603 130.423 59.3707 130.983 59.2251C131.678 59.0459 132.394 59.0459 133.1 58.9451C133.47 58.9003 133.828 58.9115 134.164 59.0571C134.276 59.1019 134.388 59.2475 134.422 59.3707C134.735 60.5803 134.903 61.8235 135.015 63.0667C135.082 63.8395 135.194 64.6123 135.273 65.3851C135.374 66.3259 135.452 67.2555 135.542 68.1963C135.654 69.3051 135.788 70.4139 135.889 71.5115C135.978 72.4635 136.023 73.4267 136.102 74.3787C136.158 75.1963 136.225 76.0251 136.292 76.8427C136.292 76.9099 136.326 76.9659 136.348 77.0331C136.404 77.2683 136.292 77.4251 136.046 77.4587C135.374 77.5483 134.702 77.6379 134.03 77.7275C133.537 77.7947 133.055 77.8843 132.562 77.9739C132.338 78.0075 132.271 77.9515 132.226 77.7387C132.137 77.2795 132.014 76.8091 131.924 76.3499C131.868 76.0811 131.846 75.8011 131.79 75.5323C131.678 74.9387 131.543 74.3451 131.431 73.7515C131.263 72.9003 131.118 72.0379 130.95 71.1867C130.849 70.6715 130.726 70.1451 130.625 69.6299C130.546 69.2603 130.49 68.9019 130.434 68.5323C130.345 68.0619 130.266 67.6027 130.177 67.1323C130.065 66.5387 129.964 65.9563 129.852 65.3627C129.751 64.8251 129.628 64.2763 129.527 63.7387C129.46 63.4139 129.404 63.0779 129.348 62.7531C129.214 61.9355 129.079 61.1067 128.956 60.2891C128.945 60.2219 128.945 60.1323 128.934 60.0315Z" fill="white" fill-opacity="0.5"/>
<path d="M98.9857 70.4503C98.9857 72.5223 98.9857 74.5831 98.9857 76.6551C98.9857 77.1927 98.9409 77.7191 98.9297 78.2567C98.9297 78.3911 98.8625 78.4583 98.7393 78.4807C98.6833 78.4919 98.6385 78.4919 98.5825 78.5031C97.7761 78.5367 96.9585 78.5815 96.1521 78.6151C95.8161 78.6375 95.4801 78.6711 95.1441 78.6823C94.8529 78.6935 94.8081 78.6487 94.7857 78.3687C94.7521 77.9655 94.7297 77.5511 94.6849 77.1367C94.6289 76.4871 94.5617 75.8263 94.4945 75.1767C94.4161 74.3815 94.3153 73.5863 94.2369 72.7799C94.1025 71.4359 93.9681 70.1031 93.8449 68.7591C93.7441 67.7063 93.6657 66.6423 93.5761 65.5895C93.5089 64.8503 93.4529 64.1111 93.3969 63.3607C93.3297 62.4199 93.2625 61.4791 93.1953 60.5495C93.1953 60.4823 93.1953 60.4151 93.1953 60.3479C93.2177 60.0455 93.2625 60.0119 93.5761 59.9895C94.4833 59.9111 95.3793 59.8103 96.2865 59.7543C96.7905 59.7207 97.2945 59.7655 97.7985 59.7879C98.0225 59.7991 98.2465 59.8327 98.4593 59.9111C98.5601 59.9447 98.6833 60.0791 98.7057 60.1911C98.7953 60.6279 98.8849 61.0647 98.8961 61.5127C98.9633 64.4919 99.0081 67.4711 99.0641 70.4503C99.0305 70.4503 99.0081 70.4503 98.9857 70.4503Z" fill="white" fill-opacity="0.5"/>
<path d="M149.963 53.9526C149.963 55.0278 149.963 56.1029 149.963 57.1781C149.963 57.4021 149.896 57.4693 149.672 57.4357C149.011 57.3685 148.351 57.2901 147.69 57.2229C147.511 57.2005 147.499 57.0885 147.499 56.9541C147.477 56.2485 147.466 55.543 147.443 54.8486C147.41 53.4038 147.387 51.9477 147.354 50.5029C147.343 50.1781 147.365 50.1557 147.679 50.1781C148.317 50.2117 148.967 50.2453 149.605 50.2901C149.952 50.3125 150.019 50.3685 150.019 50.7157C150.03 51.7909 150.019 52.8662 150.019 53.9414C150.008 53.9526 149.986 53.9526 149.963 53.9526Z" fill="white" fill-opacity="0.5"/>
<path d="M95.8125 52.9103C95.8125 52.0927 95.8125 51.2863 95.8125 50.4687C95.8125 50.1887 95.8349 50.1551 96.1149 50.1775C96.7533 50.2111 97.3917 50.2223 98.0189 50.3007C98.4333 50.3455 98.5117 50.3679 98.5117 50.8047C98.4781 52.8207 98.4669 54.8367 98.4109 56.8415C98.3885 57.5695 98.4557 57.4575 97.8061 57.4015C97.2573 57.3567 96.6973 57.2895 96.1485 57.2223C96.0029 57.2111 95.9805 57.1103 95.9693 56.9871C95.9469 56.3487 95.9021 55.6991 95.8909 55.0607C95.8797 54.3439 95.8909 53.6271 95.8909 52.9103C95.8573 52.9103 95.8349 52.9103 95.8125 52.9103Z" fill="white" fill-opacity="0.5"/>
<path d="M80.3877 49.5156C80.7125 49.5156 81.0485 49.5156 81.3733 49.5156C81.6533 49.5156 81.7093 49.5604 81.7429 49.8404C81.8101 50.4676 81.8661 51.0948 81.9221 51.722C82.0229 52.8644 82.1125 53.9956 82.2021 55.138C82.2245 55.4404 82.2245 55.754 82.2469 56.0564C82.2469 56.1236 82.2581 56.202 82.2805 56.2692C82.3477 56.5492 82.3029 56.6052 82.0117 56.6052C81.3621 56.594 80.7125 56.5828 80.0629 56.5828C79.9173 56.5828 79.8613 56.5156 79.8501 56.3924C79.8053 56.1012 79.7493 55.7988 79.7157 55.5076C79.6261 54.7572 79.5477 53.9956 79.4693 53.234C79.4133 52.6964 79.3573 52.1588 79.3013 51.6212C79.2453 51.05 79.1781 50.4788 79.1221 49.9076C79.1221 49.874 79.1109 49.8292 79.1109 49.7956C79.0661 49.594 79.0997 49.538 79.3237 49.5268C79.6597 49.5268 80.0181 49.5268 80.3877 49.5156C80.3877 49.5268 80.3877 49.5268 80.3877 49.5156Z" fill="white" fill-opacity="0.5"/>
<path d="M131.922 49.5156C132.258 49.5156 132.594 49.5156 132.93 49.5156C133.221 49.5156 133.289 49.594 133.311 49.874C133.412 51.162 133.524 52.4388 133.625 53.7268C133.692 54.5892 133.77 55.4516 133.837 56.314C133.86 56.5604 133.804 56.6164 133.557 56.6052C133.143 56.5828 132.74 56.538 132.325 56.5268C132.135 56.5156 131.933 56.5492 131.743 56.5828C131.474 56.6276 131.385 56.5716 131.351 56.3028C131.261 55.6532 131.183 54.9924 131.105 54.3428C131.037 53.794 131.015 53.2452 130.925 52.7076C130.825 52.1476 130.78 51.5988 130.746 51.0388C130.724 50.6244 130.645 50.2212 130.589 49.8068C130.567 49.6052 130.657 49.5268 130.847 49.5268C131.228 49.538 131.575 49.5268 131.922 49.5156C131.922 49.5268 131.922 49.5268 131.922 49.5156Z" fill="white" fill-opacity="0.5"/>
<path d="M94.1697 50.2758C94.2481 50.2758 94.3153 50.2758 94.3937 50.2758C94.5841 50.2646 94.6737 50.3542 94.6849 50.5446C94.7521 51.9446 94.8081 53.3558 94.8865 54.7558C94.9201 55.495 94.9985 56.2342 95.0433 56.9622C95.0657 57.3094 95.0321 57.3318 94.6737 57.343C94.2257 57.3654 93.7777 57.399 93.3409 57.4214C93.0273 57.4438 92.9601 57.399 92.9265 57.0966C92.8369 56.2566 92.7585 55.4054 92.6689 54.5654C92.6129 53.9494 92.5457 53.3446 92.4897 52.7286C92.4337 52.2022 92.3777 51.687 92.3105 51.1606C92.2993 51.0262 92.2321 50.903 92.2545 50.7798C92.2657 50.6902 92.3665 50.5446 92.4449 50.5334C93.0273 50.4214 93.6097 50.3318 94.1921 50.2422C94.1697 50.2534 94.1697 50.2646 94.1697 50.2758Z" fill="white" fill-opacity="0.5"/>
<path d="M130.444 56.3918C130.455 56.8062 130.432 56.8174 130.007 56.8622C129.559 56.907 129.111 56.9854 128.663 57.0526C128.484 57.075 128.428 57.019 128.394 56.8398C128.248 56.0894 128.069 55.339 127.912 54.5886C127.823 54.163 127.756 53.7262 127.666 53.3006C127.565 52.8302 127.442 52.371 127.352 51.9006C127.252 51.419 127.173 50.9374 127.095 50.4558C127.084 50.3998 127.173 50.299 127.229 50.2766C127.845 50.1086 128.45 49.963 129.066 49.8062C129.357 49.739 129.458 49.8286 129.503 50.131C129.604 50.8142 129.727 51.4974 129.839 52.1694C129.906 52.6286 129.962 53.0766 130.029 53.5358C130.141 54.3198 130.264 55.0926 130.376 55.8766C130.399 56.0558 130.421 56.2238 130.444 56.3918Z" fill="white" fill-opacity="0.5"/>
<path d="M77.033 57.0753C76.977 57.0193 76.865 56.9409 76.8314 56.8401C76.7306 56.4481 76.6522 56.0561 76.5738 55.6641C76.4506 55.0817 76.3386 54.4993 76.2266 53.9169C76.1482 53.5137 76.0698 53.0993 75.9914 52.6961C75.9018 52.2705 75.801 51.8449 75.7114 51.4193C75.6442 51.1169 75.577 50.8033 75.5322 50.5009C75.521 50.4337 75.6106 50.2993 75.6778 50.2769C76.2714 50.1089 76.8538 49.9633 77.4474 49.8177C77.8282 49.7281 77.9402 49.8065 77.9962 50.2657C78.0746 50.8145 78.1194 51.3633 78.1978 51.9121C78.2874 52.5169 78.4106 53.1217 78.5002 53.7265C78.5898 54.3537 78.6682 54.9697 78.7578 55.5969C78.7914 55.8545 78.8586 56.1009 78.9034 56.3473C78.9594 56.6385 78.9034 56.7729 78.6346 56.8177C78.1306 56.9185 77.6154 56.9857 77.033 57.0753Z" fill="white" fill-opacity="0.5"/>
<path d="M146.538 56.1602C146.538 56.541 146.538 56.821 146.538 57.101C146.538 57.2578 146.482 57.3474 146.314 57.3586C145.81 57.381 145.306 57.4146 144.802 57.4482C144.601 57.4594 144.5 57.4034 144.489 57.1906C144.444 56.6866 144.388 56.1826 144.332 55.6898C144.231 54.8386 144.119 53.9986 144.007 53.1474C143.996 53.0802 144.007 53.0018 143.996 52.9234C143.94 52.4082 143.884 51.893 143.828 51.3778C143.806 51.1762 143.794 50.9634 143.817 50.7618C143.828 50.6834 143.918 50.5602 143.985 50.549C144.634 50.4482 145.284 50.3586 145.934 50.269C146.124 50.2466 146.191 50.3362 146.202 50.5154C146.27 51.613 146.337 52.7106 146.404 53.8194C146.449 54.637 146.494 55.4434 146.538 56.1602Z" fill="white" fill-opacity="0.5"/>
</svg>
