<svg width="200" height="120" viewBox="0 0 200 120" fill="none" xmlns="http://www.w3.org/2000/svg">
<g clip-path="url(#clip0_336_10231)">
<path d="M71.0873 38.0558L65.2673 38.1147C65.2186 38.1156 65.1795 38.1546 65.1795 38.2023C65.1795 48.8577 65.1784 59.5035 65.1761 70.1398C65.175 71.8158 64.6523 73.2718 63.608 74.5077C62.1148 76.2735 60.177 77.0767 57.7948 76.9173C56.4647 76.8286 55.2561 76.3555 54.1691 75.4978C54.0059 75.3687 53.7898 75.1532 53.5209 74.8512C53.3161 74.6234 53.1 74.4067 52.8727 74.2013C52.8626 74.1597 52.8997 74.1227 52.9841 74.0901C53.7234 74.4875 54.5112 74.7272 55.3472 74.8091C57.4245 75.0101 59.2059 74.4028 60.6913 72.9872C62.1418 71.6053 62.853 69.8985 62.8248 67.8666C62.7719 64.078 62.7579 60.2893 62.7826 56.5007C62.8254 49.7933 62.8366 43.0259 62.8164 36.1985C62.8159 36.1683 62.8278 36.1392 62.8494 36.1176C62.871 36.0961 62.9004 36.084 62.9312 36.084H70.7953C70.859 36.084 70.9124 36.1367 70.9185 36.2052L71.0873 38.0558Z" fill="#D9D9D9"/>
<path d="M71.0871 38.0547L71.1293 38.0682C71.6717 41.007 73.1486 43.3504 75.5601 45.0982L76.9105 46.2348C78.3756 47.7009 80.1316 48.6248 82.1786 49.0064L82.2275 49.0839V55.0481C82.2275 55.1519 82.1442 55.2365 82.0401 55.2384C80.0146 55.2653 78.0313 54.9633 76.0901 54.3325C75.2754 54.0675 74.4258 53.7094 73.5414 53.2582C72.6951 52.8282 71.8945 52.3668 71.1394 51.874C70.992 51.7775 70.9183 51.8173 70.9183 51.9936C70.9183 57.0406 70.9183 62.0647 70.9183 67.0657C70.9183 68.543 70.857 69.6622 70.7343 70.4233C70.2223 73.6092 68.8101 76.3381 66.4976 78.6102C63.9769 81.0877 60.9634 82.5016 57.4569 82.8518C54.3219 83.165 51.341 82.6026 48.5142 81.1646C47.7096 80.6112 46.9557 79.9859 46.2524 79.2888C46.2918 79.1731 46.2873 79.0822 46.2389 79.016C46.0127 78.705 45.8062 78.3817 45.6194 78.0461C45.5755 77.9664 45.3943 77.6296 45.0759 77.0358C43.4059 73.9128 42.9615 70.6035 43.7424 67.1078C44.4446 63.9624 46.0026 61.2929 48.4163 59.0994C48.7663 58.7806 49.3745 58.3512 50.241 57.8113C52.2564 56.5596 54.4513 55.8316 56.8257 55.6273C57.1993 55.5948 57.5644 55.5229 57.9211 55.4118L57.9566 55.4051C58.0275 57.3696 58.0269 59.4199 57.9549 61.5562C57.9539 61.5808 57.9422 61.6037 57.9229 61.6187C57.9036 61.6337 57.8788 61.6391 57.8553 61.6336C55.9142 61.2115 54.1913 61.4248 52.6868 62.2735C51.7033 62.828 50.8953 63.5931 50.2629 64.5686C49.4887 65.763 49.1483 67.082 49.2417 68.5256C49.316 69.6762 49.6541 70.732 50.2562 71.6929C50.8987 72.7167 51.7708 73.5525 52.8725 74.2002C53.0998 74.4056 53.3159 74.6223 53.5207 74.8502C53.7896 75.1521 54.0057 75.3677 54.1688 75.4967C55.2559 76.3544 56.4644 76.8275 57.7945 76.9162C60.1768 77.0756 62.1145 76.2724 63.6078 74.5066C64.6521 73.2707 65.1748 71.8147 65.1759 70.1387C65.1782 59.5024 65.1793 48.8566 65.1793 38.2012C65.1793 38.1535 65.2183 38.1145 65.2671 38.1136L71.0871 38.0547Z" fill="white" fill-opacity="0.5"/>
<path d="M71.1289 38.0684L73.1207 38.0987C73.2038 38.0994 73.2715 38.1625 73.2743 38.2418C73.3013 39.1634 73.4194 40.0289 73.6288 40.8383C73.8369 41.6398 74.0986 42.3689 74.4136 43.0256C74.7524 43.7317 75.1907 44.3805 75.7286 44.9721L75.5598 45.0984C73.1482 43.3506 71.6713 41.0072 71.1289 38.0684Z" fill="#9B9B9B"/>
<path d="M75.7293 44.9727C76.2166 45.3925 76.737 45.7669 77.2907 46.0958C77.1545 46.1104 77.0279 46.157 76.9109 46.2355L75.5605 45.0989L75.7293 44.9727Z" fill="#D9D9D9"/>
<path d="M77.2899 46.0957C78.566 46.7603 79.8883 47.1414 81.2566 47.239C81.6325 47.266 81.9104 47.2929 82.0905 47.3199C82.1398 47.3273 82.1763 47.3695 82.1765 47.4192L82.1782 49.0071C80.1313 48.6254 78.3753 47.7015 76.9102 46.2355C77.0272 46.1569 77.1538 46.1103 77.2899 46.0957Z" fill="#D9D9D9"/>
<path d="M121.343 47.582C121.391 47.582 121.429 47.6175 121.429 47.6612L121.462 65.2877C121.462 65.3026 121.468 65.3168 121.478 65.327C121.489 65.3373 121.503 65.3425 121.517 65.3416L124.927 65.089C124.95 65.0871 124.973 65.095 124.99 65.1107C125.007 65.1263 125.016 65.1484 125.016 65.1715V68.5375C125.016 68.5822 124.982 68.6199 124.935 68.6251L121.546 68.94C121.498 68.9452 121.461 68.9867 121.462 69.036L121.428 77.0949C121.427 77.1773 121.359 77.2438 121.274 77.2447L118.108 77.2835C118.085 77.2839 118.063 77.2756 118.047 77.2604C118.031 77.2452 118.021 77.2243 118.022 77.2026L118.011 69.4013C118.012 69.352 117.991 69.3049 117.954 69.2713C117.918 69.2377 117.869 69.2208 117.819 69.2245L106.857 70.1069C106.828 70.1092 106.799 70.0993 106.778 70.0794C106.756 70.0596 106.744 70.0317 106.744 70.0025V66.7173C106.744 66.6262 106.815 66.55 106.908 66.5422L117.885 65.6312C117.956 65.6259 118.012 65.5664 118.011 65.4948V47.6948C118.011 47.6672 118.023 47.6406 118.044 47.621C118.064 47.6015 118.092 47.5905 118.121 47.5905L121.343 47.582ZM135.019 63.429L154.049 63.4621C154.851 63.4635 155.62 63.7828 156.186 64.3497C156.753 64.9165 157.07 65.6846 157.069 66.4849L157.055 74.1295C157.054 74.9298 156.734 75.6968 156.166 76.2616C155.597 76.8265 154.827 77.1431 154.025 77.1417L134.995 77.1086C134.193 77.1072 133.424 76.7879 132.858 76.2211C132.292 75.6542 131.974 74.8861 131.976 74.0859L131.989 66.4412C131.991 65.6409 132.311 64.874 132.879 64.3091C133.447 63.7442 134.217 63.4276 135.019 63.429ZM101.817 47.6073C101.875 47.6073 101.922 47.6548 101.922 47.7134L101.92 52.5123C101.92 52.56 101.958 52.599 102.006 52.5999L105.259 52.6268C105.294 52.6269 105.328 52.6404 105.353 52.6645C105.377 52.6885 105.391 52.721 105.391 52.7548L105.365 56.008C105.364 56.0542 105.326 56.0913 105.278 56.0922L102.008 56.1528C101.961 56.1537 101.924 56.1912 101.924 56.237L101.934 62.4083C101.934 62.4399 101.948 62.4698 101.971 62.4905C101.995 62.5111 102.026 62.5205 102.057 62.5161L105.288 62.0194C105.314 62.0149 105.341 62.0224 105.361 62.0399C105.382 62.0574 105.394 62.0831 105.394 62.1103V65.6413C105.394 65.7006 105.351 65.7508 105.293 65.7592L102.027 66.2189C101.949 66.2298 101.892 66.295 101.892 66.3721L101.891 73.0728L101.89 73.2508L101.888 73.4218L101.884 73.5858L101.879 73.7427L101.873 73.8926L101.866 74.0354L101.857 74.1713L101.847 74.3001L101.836 74.4219L101.824 74.5366C101.82 74.5737 101.815 74.6096 101.81 74.6444L101.796 74.7451L101.78 74.8387L101.763 74.9254C101.748 74.9947 101.732 75.0566 101.714 75.1113C101.466 75.8926 100.963 76.4567 100.205 76.8035C99.7889 76.9933 99.1829 77.0977 98.3874 77.1167C97.2306 77.1448 96.0394 77.1364 94.814 77.0915C94.7603 77.0897 94.7177 77.0457 94.7178 76.9921V73.7457C94.7178 73.7152 94.73 73.6859 94.7516 73.6647C94.7732 73.6434 94.8024 73.6319 94.8325 73.6329C95.8813 73.6497 96.884 73.6362 97.8405 73.5924C98.0813 73.5812 98.2518 73.4622 98.3519 73.2355C98.4037 73.121 98.4329 72.9335 98.4397 72.6731C98.496 70.7187 98.4976 68.7862 98.4447 66.8756C98.4433 66.842 98.4274 66.8106 98.4009 66.7894C98.3745 66.7682 98.3401 66.7591 98.3063 66.7644L94.5895 67.31C94.5681 67.3133 94.5464 67.3072 94.5294 67.2931C94.5124 67.279 94.5018 67.2583 94.5 67.2359C94.4033 66.0561 94.3864 64.874 94.4494 63.6897C94.4523 63.6418 94.4897 63.6024 94.5388 63.5954L98.3046 63.0465C98.4014 63.0323 98.4732 62.9478 98.4734 62.8478C98.4854 61.4039 98.4783 59.9397 98.4521 58.455L98.4413 57.8916L98.4706 57.1532L98.4751 57.0453C98.4864 56.7523 98.4605 56.4615 98.3975 56.173C98.3877 56.126 98.3451 56.0927 98.2962 56.0939L94.5186 56.1141C94.4958 56.1141 94.4739 56.105 94.4577 56.0889C94.4416 56.0728 94.4325 56.051 94.4325 56.0282L94.4308 52.775C94.4309 52.692 94.5009 52.6244 94.5878 52.6235L98.3215 52.5898C98.4048 52.5889 98.4718 52.5198 98.4718 52.4349L98.4431 47.7605C98.4426 47.7232 98.457 47.6872 98.483 47.6606C98.509 47.634 98.5445 47.6191 98.5815 47.6191L101.817 47.6073ZM135.552 71.7823C135.464 71.7827 135.39 71.8494 135.38 71.9372C135.304 72.6209 135.351 73.199 135.522 73.6716C135.546 73.7392 135.602 73.7907 135.671 73.8097C136.019 73.9062 136.372 73.9494 136.727 73.9393L137.107 73.9292H152.955C153.278 73.9292 153.493 73.7777 153.6 73.4746C153.763 73.0132 153.788 72.48 153.674 71.8749C153.665 71.8271 153.623 71.7924 153.575 71.7924L135.552 71.7823ZM152.507 66.6486L152.351 66.6471L136.789 66.6468L136.576 66.6487L136.435 66.6514L136.31 66.6552L136.236 66.6584L136.138 66.6639L136.082 66.6683L136.033 66.6731L135.991 66.6784L135.956 66.6842C135.951 66.6852 135.946 66.6862 135.941 66.6872L135.917 66.6937C135.541 66.8138 135.354 67.1489 135.355 67.699L135.356 67.8288L135.357 67.9501L135.359 68.063L135.362 68.1675L135.365 68.2635L135.369 68.351L135.374 68.4301L135.379 68.5008L135.385 68.5629L135.392 68.6167C135.399 68.664 135.441 68.6992 135.492 68.6992C141.405 68.6576 147.319 68.6503 153.234 68.6773C153.261 68.6773 153.298 68.6816 153.343 68.6902L153.402 68.7025C153.46 68.7149 153.517 68.7183 153.575 68.7127C153.624 68.708 153.664 68.6675 153.671 68.615C153.706 68.3343 153.719 68.0009 153.711 67.6148C153.701 67.1063 153.508 66.797 153.131 66.687L153.107 66.6812L153.075 66.6759L153.036 66.671L152.989 66.6666L152.906 66.6608L152.806 66.6559L152.689 66.6521L152.507 66.6486ZM108.177 57.6935L116.166 59.1265C116.214 59.1354 116.249 59.1772 116.249 59.2258L116.229 62.7619C116.229 62.7834 116.22 62.8038 116.204 62.8178C116.187 62.8318 116.166 62.8378 116.145 62.8343L108.15 61.3997C108.095 61.3899 108.054 61.3416 108.054 61.2852L108.091 57.7659C108.092 57.744 108.101 57.7233 108.118 57.7093C108.135 57.6953 108.156 57.6896 108.177 57.6935ZM135.789 54.7451L139.333 54.8057C139.382 54.8069 139.423 54.8433 139.43 54.8916L139.74 57.4039C139.752 57.4896 139.824 57.5535 139.909 57.5538L149.186 57.5841C149.236 57.5841 149.279 57.5511 149.289 57.505L149.846 54.8883C149.857 54.8389 149.898 54.8038 149.944 54.8041L153.397 54.8007C153.452 54.8005 153.504 54.8264 153.539 54.8716C153.574 54.9167 153.588 54.9765 153.578 55.0347L153.161 57.4797C153.158 57.5013 153.164 57.5233 153.178 57.5399C153.193 57.5564 153.213 57.5659 153.235 57.5656L159.673 57.5858C159.72 57.5865 159.759 57.623 159.763 57.67C159.843 58.7892 159.863 59.8752 159.823 60.9282C159.821 61.0183 159.747 61.0899 159.656 61.0899H129.391C129.361 61.0899 129.333 61.078 129.312 61.0568C129.29 61.0357 129.278 61.007 129.278 60.977V57.7356C129.278 57.6585 129.341 57.5959 129.419 57.5959L135.883 57.5841C135.922 57.584 135.96 57.5669 135.985 57.5373C136.011 57.5077 136.023 57.4684 136.018 57.4292L135.711 54.8276C135.709 54.8063 135.716 54.785 135.731 54.7691C135.746 54.7533 135.767 54.7446 135.789 54.7451ZM108.206 50.1044L116.188 51.5711C116.236 51.5801 116.27 51.6213 116.269 51.6687L116.2 55.1964C116.2 55.218 116.19 55.2383 116.173 55.2519C116.156 55.2655 116.135 55.2711 116.114 55.2671L108.157 53.8763C108.097 53.8656 108.052 53.813 108.053 53.7517V50.2324C108.052 50.1938 108.069 50.1572 108.099 50.1324C108.129 50.1077 108.168 50.0974 108.206 50.1044ZM142.245 47.5904L146.61 47.6073C146.66 47.6073 146.704 47.6412 146.717 47.6898L147.238 49.7407C147.261 49.8301 147.343 49.8925 147.437 49.8923H158.689C158.722 49.8923 158.754 49.9051 158.777 49.9279C158.8 49.9507 158.813 49.9815 158.812 50.0135L158.77 53.3324C158.77 53.355 158.76 53.3765 158.743 53.392C158.726 53.4076 158.704 53.4158 158.681 53.4149C157.502 53.3825 156.323 53.3724 155.145 53.3847L154.127 53.3979L153.633 53.4024L153.157 53.4048L152.699 53.4051L152.26 53.4032L151.838 53.3991L151.567 53.3953L150.756 53.382L150.254 53.3761L149.79 53.3727L149.571 53.3719L149.296 53.3719L148.996 53.3732L148.807 53.375L148.543 53.3788L148.38 53.3822L147.778 53.3981L147.35 53.4074L146.94 53.4141L146.677 53.4171L146.422 53.419L146.056 53.4197L145.709 53.4178L143.461 53.393H143.425C139.07 53.4143 134.688 53.4121 130.279 53.3863C130.248 53.3859 130.218 53.3727 130.197 53.3498C130.175 53.3269 130.164 53.2962 130.166 53.265C130.221 52.294 130.217 51.2523 130.154 50.1398C130.151 50.0781 130.173 50.0176 130.215 49.9727C130.258 49.9277 130.317 49.9023 130.379 49.9024L142.563 49.8923C142.596 49.892 142.628 49.8759 142.648 49.8487C142.668 49.8214 142.675 49.786 142.667 49.7525L142.174 47.6713C142.17 47.6516 142.175 47.6309 142.189 47.6152C142.203 47.5994 142.223 47.5903 142.245 47.5904Z" fill="white" fill-opacity="0.5"/>
<path d="M48.5137 81.1666C51.3404 82.6046 54.3213 83.167 57.4564 82.8538C60.9628 82.5036 63.9764 81.0897 66.497 78.6122C68.8095 76.3402 70.2217 73.6112 70.7338 70.4254C70.8564 69.6643 70.9177 68.5451 70.9177 67.0678C70.9177 62.0667 70.9177 57.0427 70.9177 51.9956C70.9177 51.8194 70.9915 51.7795 71.1389 51.8761C71.8939 52.3689 72.6946 52.8303 73.5408 53.2602C74.4253 53.7115 75.2749 54.0696 76.0896 54.3345C78.0307 54.9654 80.0141 55.2673 82.0396 55.2404C82.1436 55.2386 82.227 55.1539 82.227 55.0501V49.0859L84.3268 49.3116C84.429 49.3234 84.5064 49.4042 84.5074 49.5002L84.5378 57.293C84.5378 57.3274 84.5235 57.3603 84.4982 57.3837C84.4728 57.4071 84.4388 57.4188 84.4044 57.4159C83.5256 57.343 82.6467 57.2504 81.7678 57.1381C79.21 56.8114 76.8261 55.9875 74.616 54.6662C74.1997 54.4181 73.812 54.1953 73.453 53.9977C73.4168 53.9781 73.3729 53.9789 73.3376 54C73.3022 54.0211 73.2806 54.0593 73.2809 54.1004C73.2831 56.4668 73.2747 58.7967 73.2555 61.0901C73.2465 62.1015 73.2522 63.2241 73.2724 64.4578C73.3141 66.9881 73.3028 69.0929 73.2387 70.7722C73.1025 74.3476 71.7899 77.4734 69.3007 80.1496C66.4875 83.1738 63.0598 84.7768 59.0177 84.9587C55.0409 85.1371 51.5396 83.8731 48.5137 81.1666Z" fill="#9B9B9B"/>
<path d="M58.0052 55.3161C57.967 55.3352 57.9507 55.3655 57.9563 55.407L57.9208 55.4137C57.2412 55.279 56.436 55.3155 55.5054 55.5232C54.6187 55.7208 53.8737 55.9172 53.2705 56.1125C52.5999 56.3292 52.0637 56.524 51.6619 56.6968C51.1128 56.9326 50.6216 57.2289 50.1884 57.5859C50.0432 57.7049 50.0606 57.7807 50.2407 57.8132C49.3742 58.3532 48.766 58.7826 48.416 59.1014C46.0023 61.2949 44.4443 63.9643 43.7421 67.1098C42.9612 70.6054 43.4056 73.9147 45.0756 77.0377C45.394 77.6316 45.5752 77.9683 45.6191 78.048C45.8059 78.3837 46.0124 78.707 46.2386 79.0179C46.287 79.0842 46.2915 79.1751 46.2521 79.2907C43.458 76.8244 41.7908 73.7997 41.2507 70.2165C41.0819 69.0928 41.0476 67.9736 41.1477 66.8589C41.348 64.6261 42.008 62.5454 43.1277 60.6168C43.696 59.6368 44.3661 58.7393 45.138 57.9244C47.1062 55.8487 49.5289 54.4556 52.4063 53.745C54.1078 53.3252 55.9015 53.1978 57.7875 53.3628C57.8656 53.3693 57.9264 53.4278 57.9293 53.4992L58.0052 55.3161Z" fill="#D9D9D9"/>
<path d="M52.9838 74.09C52.8994 74.1226 52.8623 74.1596 52.8724 74.2012C51.7707 73.5535 50.8986 72.7177 50.2561 71.6939C49.6541 70.733 49.3159 69.6772 49.2416 68.5266C49.1482 67.083 49.4886 65.764 50.2629 64.5696C50.8953 63.594 51.7032 62.829 52.6867 62.2745C54.1913 61.4258 55.9141 61.2125 57.8552 61.6346C57.8788 61.6401 57.9036 61.6347 57.9228 61.6197C57.9421 61.6047 57.9538 61.5818 57.9548 61.5572C58.0268 59.4209 58.0274 57.3705 57.9565 55.4061C57.9509 55.3645 57.9672 55.3342 58.0054 55.3151C58.711 55.2893 59.4357 55.3224 60.1795 55.4145C60.2311 55.4206 60.2731 55.4592 60.2842 55.5105C60.3528 55.8405 60.3905 56.1565 60.3973 56.4585C60.4445 58.8439 60.4355 61.2114 60.3703 63.5609C60.3696 63.591 60.3553 63.6192 60.3313 63.6375C60.3074 63.6559 60.2764 63.6624 60.247 63.6552C58.6559 63.2713 57.1677 63.3583 55.7824 63.9162C54.719 64.345 53.8244 65.0051 53.0986 65.8964C52.1072 67.1144 51.6048 68.5709 51.5913 70.266C51.58 71.704 52.0442 72.9787 52.9838 74.09Z" fill="#9B9B9B"/>
<path d="M57.9215 55.4115C57.5647 55.5227 57.1996 55.5945 56.826 55.6271C54.4516 55.8314 52.2567 56.5594 50.2413 57.811C50.0613 57.7785 50.0438 57.7027 50.189 57.5837C50.6222 57.2267 51.1134 56.9304 51.6626 56.6946C52.0643 56.5217 52.6005 56.327 53.2712 56.1103C53.8743 55.915 54.6193 55.7186 55.506 55.521C56.4366 55.3133 57.2418 55.2768 57.9215 55.4115Z" fill="#D9D9D9"/>
</g>
<defs>
<clipPath id="clip0_336_10231">
<rect width="119" height="49" fill="white" transform="translate(41 36)"/>
</clipPath>
</defs>
</svg>
