<svg width="200" height="120" viewBox="0 0 200 120" fill="none" xmlns="http://www.w3.org/2000/svg">
<g clip-path="url(#clip0_336_10563)">
<path d="M91.8714 40.2374C90.1076 41.2219 88.2358 41.8851 86.256 42.227C85.5554 42.3479 84.8507 42.4336 84.1417 42.484C82.7562 42.5821 81.3707 42.5942 79.9852 42.5201C79.544 42.4965 79.2699 42.4653 79.1629 42.4267C78.8627 42.3192 78.6665 42.0848 78.5743 41.7235C78.5057 41.4533 78.5558 41.1874 78.7246 40.9258C78.9189 40.6245 79.2105 40.4844 79.5994 40.5057C80.1133 40.534 80.6274 40.5561 81.1417 40.5719C82.6259 40.6187 84.1023 40.5313 85.5709 40.3095C88.1876 39.9148 90.5533 38.9236 92.668 37.336C92.9107 37.154 93.2086 36.909 93.5617 36.601C94.5259 35.7591 95.4838 34.9074 96.4354 34.0459C96.4751 34.0096 96.4861 34.0173 96.4686 34.0689C96.0823 35.1924 95.6973 36.3073 95.3137 37.4135C94.977 38.3841 94.6305 39.2366 94.2743 39.9709C93.8385 40.8695 93.3177 41.709 92.712 42.4894C92.4629 42.8108 92.2097 43.1049 91.9526 43.3716C90.9252 44.4376 89.7349 45.2523 88.3817 45.8156C87.5368 46.167 86.6474 46.4292 85.7137 46.6021C84.8509 46.762 83.9128 46.8654 82.8994 46.9123C81.7455 46.9659 80.4029 46.9527 78.8714 46.8727C76.577 46.7534 74.8672 46.673 73.7423 46.6316C72.1053 46.5718 70.5387 46.5865 69.0423 46.676C67.6278 46.7607 66.1855 46.9653 64.7154 47.2899C62.6343 47.7496 60.6562 48.4975 58.7812 49.5336C57.3328 50.3341 55.981 51.2815 54.7257 52.3759C53.808 53.1763 53.0004 54.0499 52.3029 54.9965C51.9326 55.4992 51.5935 56.0594 51.2857 56.6771C50.9756 57.2987 50.7612 57.9537 50.6423 58.6419C50.5627 59.102 50.564 59.5615 50.6463 60.0205C50.7244 60.455 50.8994 60.8184 51.1714 61.1107C51.4274 61.3857 51.7497 61.5854 52.1383 61.7099C52.6415 61.871 53.1465 61.8418 53.6532 61.6224C54.1709 61.3979 54.697 61.0703 55.2314 60.6397C55.6817 60.2773 55.976 60.035 56.1143 59.9129C56.7631 59.3382 57.4093 58.7602 58.0532 58.1792C59.2505 57.0982 60.5099 56.1014 61.8314 55.1886C63.3164 54.1636 64.9951 53.2945 66.8674 52.5815C66.9909 52.5342 67.117 52.4594 67.2457 52.357C67.3794 52.2506 67.4747 52.1405 67.5314 52.0266C67.6114 51.8671 67.6373 51.6969 67.6091 51.5161C67.5848 51.3589 67.5206 51.2319 67.4166 51.135C67.3076 51.0333 67.1732 50.9715 67.0132 50.9494C66.8478 50.9262 66.6832 50.9303 66.5194 50.9618C65.4471 51.1686 64.4107 51.4968 63.4103 51.9463C62.2796 52.4541 61.2467 53.0097 60.3114 53.6132C60.0132 53.8059 59.6947 54.0214 59.356 54.2597C57.6528 55.4588 56.1192 56.8601 54.7554 58.4634C54.7535 58.4658 54.7109 58.5199 54.6274 58.6259C54.3657 58.9584 54.0326 59.0819 53.628 58.9964C53.4432 58.9574 53.2857 58.8633 53.1554 58.714C53.037 58.5773 52.9564 58.4171 52.9137 58.2335C52.8402 57.916 52.9152 57.6225 53.1389 57.3531C55.5667 54.4273 58.4657 52.1383 61.836 50.4861C63.0128 49.9094 64.2541 49.458 65.56 49.1318C65.8922 49.049 66.2208 48.9969 66.5457 48.9752C66.9042 48.9512 67.2332 48.975 67.5326 49.0467C68.3692 49.2476 68.9611 49.7444 69.3086 50.537C69.4758 50.9195 69.5556 51.3006 69.548 51.6804C69.54 52.0853 69.4429 52.4761 69.2566 52.8527C68.9495 53.4748 68.5006 53.9554 67.9097 54.2945C67.6587 54.4387 67.3989 54.5632 67.1303 54.668C66.9212 54.7492 66.8154 54.7903 66.8132 54.7915C65.284 55.4202 63.8509 56.2014 62.5137 57.135C61.8417 57.6042 61.1549 58.1355 60.4532 58.7287C59.4798 59.5509 58.6846 60.2446 58.0674 60.8099C57.557 61.2771 57.0594 61.7032 56.5749 62.088C56.165 62.4134 55.857 62.6457 55.6509 62.7847C55.2086 63.0829 54.7396 63.3258 54.244 63.5133C53.8543 63.6607 53.4846 63.7501 53.1349 63.7816C52.269 63.8592 51.4471 63.6675 50.6692 63.2066C49.8711 62.7339 49.3097 62.0691 48.9852 61.2123C48.7893 60.6947 48.6813 60.1479 48.6612 59.572C48.6486 59.2135 48.6762 58.8215 48.744 58.396C48.8796 57.5428 49.1398 56.7175 49.5246 55.9201C49.9311 55.0771 50.3994 54.3052 50.9297 53.6044C51.8871 52.339 52.98 51.2143 54.2086 50.2303C55.6132 49.1056 57.1132 48.1389 58.7086 47.3301C60.3063 46.5209 61.9878 45.8979 63.7532 45.461C64.9642 45.1613 66.1591 44.9464 67.3377 44.8164C68.393 44.6998 69.6088 44.6302 70.9852 44.6078C72.1619 44.5885 73.3381 44.606 74.5137 44.6604C75.6855 44.7147 76.8572 44.773 78.0286 44.8353C79.1592 44.8952 80.1448 44.9326 80.9851 44.9475C81.4796 44.9566 82.0417 44.9505 82.6714 44.9292C83.8528 44.8898 85.0183 44.7293 86.168 44.4476C88.6293 43.8441 90.5335 42.4447 91.8806 40.2492C91.8909 40.2323 91.8878 40.2284 91.8714 40.2374Z" fill="white" fill-opacity="0.5"/>
<path d="M85.5838 52.5956C85.6082 52.5542 85.6007 52.5469 85.5615 52.5737C83.0007 54.3279 80.2337 55.6076 77.2603 56.4128C76.5335 56.6094 75.8022 56.7875 75.0666 56.947C74.1242 57.1511 73.1832 57.3618 72.2438 57.5793C71.7581 57.692 71.2752 57.8165 70.7952 57.9528C69.0984 58.4338 67.5053 59.1572 66.0158 60.1232C65.0882 60.7247 64.2485 61.3574 63.4969 62.0212C62.5514 62.8559 61.8135 63.4961 61.2832 63.9416C60.2965 64.7705 59.267 65.5375 58.1946 66.2426C57.4343 66.7425 56.6409 67.1782 55.8146 67.5497C55.1796 67.8353 54.524 68.0553 53.8478 68.2098C52.9948 68.404 52.1388 68.4532 51.2798 68.3575C50.9045 68.3157 50.531 68.2417 50.1592 68.1353C49.2339 67.8706 48.3476 67.4439 47.5003 66.8554C46.8337 66.3925 46.2828 65.8694 45.8478 65.2859C45.3301 64.5914 44.9322 63.8158 44.6541 62.9589C44.4255 62.2562 44.2771 61.5553 44.2089 60.8565C44.0504 59.2323 44.2034 57.6417 44.6678 56.0849C45.0933 54.6584 45.6994 53.3194 46.4861 52.0679C47.3322 50.7214 48.323 49.5006 49.4586 48.4054C51.0293 46.8911 52.7508 45.5949 54.6232 44.5167C54.9276 44.3414 55.2626 44.1535 55.6283 43.9529C57.5872 42.8802 59.6323 42.0283 61.7638 41.3973C62.1253 41.2901 62.4943 41.192 62.8706 41.103C65.0767 40.5822 67.3247 40.283 69.6146 40.2054C71.4752 40.1424 73.3043 40.1514 75.1021 40.2326C75.5725 40.2538 75.8093 40.2649 75.8123 40.2657C76.0683 40.3157 76.2775 40.4544 76.4398 40.6817C76.5556 40.844 76.6139 41.0256 76.6146 41.2265C76.6154 41.4136 76.5697 41.5903 76.4775 41.7565C76.3735 41.9444 76.2253 42.0803 76.0329 42.1643C75.9076 42.219 75.7202 42.2444 75.4706 42.2405C75.0611 42.2338 74.652 42.2224 74.2432 42.2062C72.9388 42.1546 71.6341 42.143 70.3289 42.1713C69.1392 42.197 67.9531 42.2775 66.7706 42.413C64.2228 42.7042 61.7628 43.3492 59.3906 44.3483C57.7274 45.0483 56.1291 45.8815 54.5958 46.8478C53.1459 47.7617 51.8076 48.8252 50.5809 50.0381C49.2541 51.3503 48.1739 52.8518 47.3403 54.5426C46.7845 55.6701 46.4045 56.8346 46.2003 58.0361C46.0823 58.731 46.0424 59.4598 46.0809 60.2224C46.1289 61.175 46.3407 62.0858 46.7163 62.9548C47.0436 63.7123 47.5002 64.3379 48.0861 64.8315C48.4758 65.1597 48.939 65.4634 49.4758 65.7427C50.8144 66.4384 52.2144 66.5897 53.6758 66.1965C54.467 65.9838 55.2335 65.6728 55.9752 65.2635C56.6796 64.8751 57.3405 64.4604 57.9581 64.0196C58.656 63.5217 59.335 62.9975 59.9952 62.4472C60.7632 61.8059 61.5209 61.1517 62.2683 60.4848C63.1708 59.6788 64.2038 58.9165 65.3672 58.198C66.9645 57.2116 68.6803 56.4682 70.5146 55.9679C71.3375 55.7433 72.0756 55.561 72.7289 55.4207C73.6123 55.2308 74.4946 55.0358 75.3758 54.8357C76.2859 54.6293 77.1855 54.3817 78.0746 54.0929C79.8255 53.5241 81.4944 52.7634 83.0815 51.8108C84.1954 51.1423 85.2697 50.4122 86.3043 49.6203C86.5413 49.4391 86.8426 49.1982 87.2083 48.8977C88.2956 48.005 89.3794 47.1084 90.4598 46.2078C90.475 46.1952 90.479 46.1984 90.4718 46.2173C89.9941 47.4815 89.5087 48.7425 89.0158 50.0003C88.3282 51.7537 87.4546 53.4016 86.3952 54.9438C85.3076 56.5263 84.0322 57.9254 82.5689 59.1411C81.2325 60.2516 79.7346 61.1697 78.0752 61.8953C77.9483 61.9508 77.8314 61.9904 77.7243 62.0141C77.6059 62.0401 77.4853 62.0381 77.3626 62.0082C77.0914 61.9412 76.8876 61.7929 76.7512 61.5632C76.6251 61.3501 76.5807 61.1161 76.6181 60.8612C76.6699 60.5094 76.8735 60.2571 77.2289 60.1043C79.6061 59.082 81.6619 57.5884 83.3963 55.6234C84.2272 54.6823 84.9563 53.673 85.5838 52.5956Z" fill="white" fill-opacity="0.5"/>
<path d="M41.6188 52.0939C41.3193 52.2901 41.0153 52.5044 40.7067 52.7368C38.4904 54.4071 36.7934 56.5237 35.6159 59.0867C35.4601 59.4255 35.2121 59.6217 34.8719 59.6752C34.6875 59.7044 34.5117 59.6786 34.3445 59.5978C34.1909 59.5242 34.0601 59.4115 33.9519 59.2598C33.729 58.9474 33.7083 58.5947 33.8896 58.2015C35.1296 55.5137 36.8894 53.2613 39.169 51.4445C40.6307 50.2796 42.1519 49.3706 43.7325 48.7174C44.9321 48.2222 46.1212 47.7401 47.2999 47.2709C47.3483 47.2516 47.3563 47.2628 47.3239 47.3046C46.877 47.8856 46.437 48.4663 46.0039 49.0466C46.0008 49.0501 45.7829 49.3351 45.3502 49.9016C44.5414 50.9601 43.8399 52.0917 43.2456 53.2964C42.3447 55.1242 41.8012 57.0544 41.6153 59.0867C41.578 59.4984 41.5589 59.8913 41.5582 60.2656C41.5563 61.7231 41.7906 63.1206 42.261 64.4581C42.7894 65.9597 43.5824 67.2276 44.6399 68.2617C45.5028 69.1059 46.4812 69.7339 47.5753 70.1456C47.8991 70.2673 48.2584 70.3853 48.653 70.4995C48.9841 70.5956 49.2035 70.6849 49.3113 70.7672C49.514 70.9216 49.6332 71.1314 49.669 71.3965C49.7014 71.6364 49.6601 71.8596 49.545 72.066C49.3557 72.406 49.0361 72.5647 48.5862 72.5423C48.5252 72.5391 48.3721 72.4993 48.1267 72.4229C48.0323 72.3934 47.881 72.3467 47.673 72.2829C45.1568 71.5123 43.1814 70.0169 41.7467 67.7967C40.7639 66.2753 40.1258 64.5609 39.8325 62.6534C39.5167 60.6026 39.5887 58.5673 40.0485 56.5476C40.3974 55.0151 40.9302 53.5394 41.6467 52.1205C41.6696 52.0756 41.6603 52.0667 41.6188 52.0939Z" fill="white" fill-opacity="0.5"/>
<path d="M165.241 52.8528C165.166 52.7881 165.137 52.7064 165.153 52.6075C165.288 51.7736 165.428 50.9483 165.571 50.1316C165.587 50.039 165.604 49.9601 165.622 49.8947C165.646 49.8092 165.685 49.7412 165.738 49.6908C165.847 49.5896 165.964 49.5726 166.092 49.64C166.107 49.6475 166.194 49.7131 166.355 49.8368C166.781 50.1641 167.207 50.4921 167.633 50.8206C167.773 50.9282 167.857 51.0261 167.886 51.1143C167.923 51.2281 167.903 51.3347 167.825 51.434C167.786 51.4836 167.708 51.5451 167.591 51.6183C166.919 52.0387 166.244 52.4535 165.565 52.8628C165.443 52.9369 165.334 52.9335 165.241 52.8528Z" fill="white" fill-opacity="0.5"/>
<path d="M108.894 66.8662C108.896 66.7346 108.908 66.604 108.931 66.4744C109.711 61.9122 110.489 57.3494 111.264 52.786C111.294 52.6123 111.289 52.4864 111.251 52.4084C111.188 52.2796 111.061 52.2152 110.871 52.2152C106.739 52.2152 102.606 52.2152 98.4738 52.2152C98.2936 52.2152 98.1625 52.2368 98.0806 52.2802C97.9416 52.3534 97.8576 52.4746 97.8286 52.6436C96.9433 57.8388 96.0551 63.0481 95.164 68.2713C95.162 68.2843 95.1555 68.296 95.1458 68.3044C95.136 68.3129 95.1237 68.3175 95.1109 68.3174H93.5063C93.5023 68.3174 93.4983 68.3165 93.4946 68.3147C93.491 68.3129 93.4877 68.3103 93.4851 68.3071C93.4825 68.3039 93.4806 68.3002 93.4795 68.2961C93.4784 68.2921 93.4782 68.2879 93.4789 68.2838C94.365 63.0865 95.2515 57.9033 96.1383 52.734C96.2678 51.9804 96.6562 51.4393 97.3035 51.1108C97.5138 51.0044 97.7395 50.9378 97.9806 50.911C98.0469 50.9039 98.2791 50.9004 98.6772 50.9004C102.871 50.9004 107.064 50.9004 111.257 50.9004C111.447 50.9004 111.59 50.9035 111.686 50.9098C112.16 50.9406 112.52 51.1454 112.768 51.5244C112.9 51.7269 112.976 51.9534 112.995 52.2039C113.005 52.3418 112.983 52.5744 112.927 52.9018C112.154 57.4597 111.378 62.0172 110.6 66.5743C110.575 66.7243 110.609 66.8404 110.704 66.9223C110.768 66.9775 110.868 67.0084 111.003 67.0151C111.105 67.0198 111.212 67.02 111.324 67.0157C111.329 67.0155 111.335 67.0165 111.339 67.0187C111.344 67.0209 111.349 67.0242 111.352 67.0283C111.355 67.0325 111.358 67.0374 111.359 67.0426C111.361 67.0479 111.361 67.0534 111.36 67.0588L111.15 68.282C111.149 68.2919 111.144 68.3009 111.136 68.3074C111.129 68.3139 111.119 68.3174 111.11 68.3174C110.818 68.3174 110.529 68.3143 110.243 68.308C109.804 68.2985 109.46 68.1354 109.211 67.8187C108.993 67.5422 108.887 67.2246 108.894 66.8662Z" fill="white" fill-opacity="0.5"/>
<path d="M117.096 57.8758C116.909 57.8655 116.731 57.8257 116.561 57.7564C116.393 57.6879 116.245 57.5847 116.117 57.4468C115.851 57.1612 115.718 56.8249 115.717 56.4381C115.717 56.3715 115.768 56.029 115.87 55.4105C116.008 54.575 116.151 53.7402 116.297 52.9062C116.332 52.703 116.371 52.5282 116.415 52.3821C116.463 52.2162 116.537 52.0557 116.636 51.9005C116.978 51.3663 117.443 51.0458 118.032 50.9391C118.172 50.9135 118.552 50.9007 119.172 50.9007C121.681 50.9007 124.187 50.9007 126.692 50.9007C126.696 50.9007 126.701 50.9018 126.706 50.9039C126.71 50.906 126.714 50.9091 126.717 50.9129C126.72 50.9168 126.722 50.9212 126.724 50.9261C126.725 50.9309 126.725 50.9359 126.724 50.9409L126.517 52.1705C126.515 52.1832 126.509 52.1946 126.499 52.2028C126.49 52.211 126.478 52.2155 126.465 52.2155C123.857 52.2155 121.259 52.2155 118.674 52.2155C118.491 52.2155 118.36 52.2373 118.281 52.281C118.15 52.3531 118.066 52.4741 118.029 52.6439C117.963 52.9409 117.904 53.2943 117.851 53.704C117.85 53.7077 117.85 53.7114 117.851 53.715C117.852 53.7186 117.854 53.7219 117.856 53.7247C117.859 53.7275 117.862 53.7298 117.865 53.7313C117.868 53.7328 117.872 53.7335 117.875 53.7335L126.217 53.737C126.222 53.7371 126.226 53.7381 126.23 53.74C126.234 53.742 126.238 53.7448 126.24 53.7484C126.243 53.7519 126.245 53.7561 126.246 53.7605C126.248 53.765 126.248 53.7697 126.247 53.7743L126.041 54.9945C126.039 55.0064 126.033 55.0172 126.024 55.025C126.015 55.0328 126.004 55.037 125.993 55.037L117.647 55.0406C117.638 55.0406 117.631 55.0435 117.624 55.0489C117.618 55.0543 117.614 55.0618 117.612 55.0701C117.506 55.6256 117.445 55.9937 117.429 56.1745C117.415 56.3278 117.462 56.4373 117.568 56.5031C117.628 56.5401 117.729 56.5586 117.871 56.5586C120.751 56.5586 123.631 56.5586 126.511 56.5586C126.663 56.5586 126.775 56.537 126.849 56.4936C126.922 56.4503 126.983 56.3912 127.03 56.3164C127.063 56.2628 127.089 56.184 127.108 56.08C127.363 54.6386 127.518 53.7443 127.572 53.3973C127.609 53.153 127.648 52.9324 127.687 52.7355C127.738 52.4782 127.804 52.2661 127.887 52.099C128.152 51.5582 128.563 51.1948 129.119 51.0088C129.306 50.9458 129.555 50.9111 129.865 50.9048C130.194 50.8977 130.532 50.8965 130.879 50.9013C130.887 50.9014 130.894 50.9033 130.901 50.9067C130.908 50.9101 130.914 50.9151 130.919 50.9212C130.924 50.9273 130.927 50.9344 130.929 50.9421C130.931 50.9498 130.932 50.9578 130.931 50.9657L130.728 52.1658C130.726 52.1797 130.719 52.1923 130.708 52.2013C130.698 52.2104 130.685 52.2154 130.671 52.2155C130.47 52.2155 130.272 52.2155 130.076 52.2155C129.872 52.2155 129.729 52.2361 129.647 52.2775C129.499 52.352 129.408 52.4851 129.375 52.677C129.207 53.6669 129.039 54.6569 128.871 55.6469C128.788 56.1361 128.701 56.4773 128.609 56.6703C128.436 57.0363 128.174 57.3327 127.825 57.5596C127.486 57.7798 127.107 57.8892 126.686 57.8876C124.081 57.8781 121.467 57.8734 118.844 57.8734C118.835 57.8734 118.827 57.8763 118.821 57.8817C118.815 57.8871 118.81 57.8946 118.809 57.903C118.697 58.4958 118.547 59.06 118.36 59.5953C118.359 59.5977 118.359 59.6003 118.359 59.6028C118.359 59.6053 118.36 59.6077 118.362 59.6097C118.363 59.6118 118.365 59.6135 118.367 59.6147C118.369 59.6159 118.371 59.6165 118.374 59.6166C121.419 59.6166 124.46 59.6166 127.497 59.6166C127.843 59.6166 128.099 59.6446 128.264 59.7005C128.802 59.8821 129.109 60.3022 129.186 60.9609C129.199 61.0716 129.186 61.2294 129.148 61.4342C129.108 61.6458 129.088 61.7543 129.087 61.7598C128.834 63.2792 128.575 64.7977 128.312 66.3151C128.25 66.6677 128.183 66.923 128.111 67.081C128 67.3248 127.846 67.5421 127.649 67.7327C127.346 68.0262 127.002 68.2102 126.618 68.2846C126.504 68.3067 126.129 68.3177 125.494 68.3177C124.935 68.3177 124.37 68.3177 123.8 68.3177C123.796 68.3177 123.792 68.3168 123.789 68.3152C123.786 68.3136 123.783 68.3113 123.78 68.3084C123.778 68.3056 123.776 68.3022 123.775 68.2986C123.775 68.295 123.774 68.2912 123.775 68.2876L123.984 67.0473C123.986 67.039 123.99 67.0315 123.996 67.0261C124.003 67.0207 124.011 67.0177 124.019 67.0177C124.638 67.0177 125.246 67.0177 125.845 67.0177C126.063 67.0177 126.212 67.0006 126.291 66.9663C126.451 66.897 126.55 66.7615 126.586 66.5598C126.753 65.6328 127.043 63.9298 127.456 61.4508C127.483 61.2928 127.475 61.175 127.435 61.0974C127.371 60.9753 127.255 60.9142 127.086 60.9142C126.544 60.9138 126.016 60.9158 125.501 60.9201C125.486 60.9203 125.472 60.9254 125.46 60.9347C125.449 60.944 125.44 60.9569 125.437 60.9715C124.879 63.2702 123.812 65.2212 122.238 66.8245C122.024 67.0423 121.813 67.235 121.607 67.4024C121.385 67.582 121.155 67.7501 120.917 67.9065C120.698 68.0502 120.466 68.1655 120.223 68.2521C120.099 68.2959 119.957 68.3177 119.797 68.3177C119.247 68.3177 118.699 68.3177 118.155 68.3177C118.118 68.3177 118.116 68.3093 118.149 68.2923C118.611 68.0567 119.046 67.7835 119.456 67.4727C120.791 66.4603 121.867 65.2101 122.687 63.7222C123.157 62.8662 123.513 61.9467 123.753 60.9639C123.755 60.9583 123.755 60.9524 123.754 60.9468C123.753 60.9411 123.75 60.9358 123.747 60.9312C123.743 60.9267 123.739 60.923 123.734 60.9204C123.729 60.9179 123.724 60.9166 123.718 60.9166L121.69 60.9201C121.681 60.9201 121.673 60.9228 121.666 60.9278C121.659 60.9328 121.654 60.9398 121.652 60.9479C121.151 62.4532 120.394 63.7711 119.383 64.9017C118.28 66.1331 116.974 67.0595 115.464 67.6807C114.513 68.0723 113.51 68.2852 112.455 68.3195C112.448 68.3197 112.442 68.3185 112.437 68.3159C112.431 68.3134 112.426 68.3096 112.422 68.3048C112.418 68.3001 112.415 68.2945 112.414 68.2884C112.412 68.2824 112.412 68.276 112.413 68.2699L112.627 67.0502C112.628 67.042 112.633 67.0346 112.639 67.0291C112.645 67.0237 112.653 67.0205 112.661 67.0201C113.766 66.9642 114.8 66.6559 115.763 66.0953C117.771 64.9261 119.173 63.2095 119.968 60.9455C119.969 60.9422 119.97 60.9387 119.969 60.9352C119.969 60.9318 119.968 60.9285 119.966 60.9257C119.964 60.9228 119.961 60.9205 119.958 60.9189C119.955 60.9174 119.952 60.9166 119.949 60.9166H117.812C117.802 60.9166 117.793 60.9193 117.784 60.9245C117.776 60.9297 117.769 60.9372 117.764 60.9461C117.104 62.2087 116.225 63.2456 115.128 64.0567C114.787 64.3092 114.46 64.5093 114.148 64.657C113.783 64.8296 113.401 64.961 113.001 65.0512C112.997 65.0521 112.993 65.052 112.989 65.0508C112.984 65.0496 112.981 65.0474 112.978 65.0443C112.974 65.0413 112.972 65.0375 112.971 65.0334C112.969 65.0292 112.969 65.0248 112.97 65.0205L113.18 63.7937C113.183 63.7808 113.188 63.7686 113.196 63.7582C113.204 63.7478 113.214 63.7395 113.226 63.734C114.442 63.1786 115.383 62.3046 116.047 61.1122C116.579 60.1565 116.937 59.0879 117.121 57.9065C117.121 57.9028 117.121 57.8991 117.12 57.8955C117.119 57.8919 117.118 57.8885 117.115 57.8857C117.113 57.8828 117.11 57.8804 117.107 57.8787C117.103 57.877 117.1 57.876 117.096 57.8758Z" fill="white" fill-opacity="0.5"/>
<path d="M145.183 60.9198L142.742 60.9163C142.737 60.9163 142.732 60.9151 142.727 60.913C142.723 60.9108 142.719 60.9077 142.715 60.9038C142.712 60.8999 142.71 60.8954 142.709 60.8905C142.707 60.8856 142.707 60.8805 142.708 60.8755L142.92 59.6559C142.921 59.6478 142.926 59.6404 142.932 59.6351C142.938 59.6298 142.946 59.6269 142.954 59.6269L145.411 59.6128C145.419 59.6126 145.428 59.6099 145.435 59.6051C145.442 59.6003 145.448 59.5936 145.452 59.5856C145.87 58.6787 146.282 57.7691 146.687 56.8568C146.772 56.6673 146.757 56.5258 146.643 56.4325C146.577 56.3785 146.466 56.3515 146.31 56.3515C145.538 56.3515 144.748 56.3515 143.942 56.3515C143.937 56.3515 143.932 56.3503 143.927 56.3481C143.923 56.3459 143.919 56.3427 143.915 56.3387C143.912 56.3347 143.909 56.3301 143.908 56.325C143.907 56.32 143.906 56.3147 143.907 56.3096L144.12 55.0763C144.121 55.0684 144.125 55.0611 144.132 55.0559C144.138 55.0506 144.145 55.0476 144.154 55.0474C145.162 55.0297 146.17 55.0291 147.179 55.0456C147.44 55.05 147.641 55.0807 147.782 55.1378C148.139 55.282 148.371 55.5485 148.478 55.9373C148.526 56.1122 148.531 56.2909 148.494 56.4733C148.459 56.6426 148.4 56.815 148.318 56.9903C147.918 57.8471 147.528 58.7031 147.149 59.5584C147.146 59.5647 147.145 59.5716 147.146 59.5784C147.146 59.5853 147.148 59.5919 147.152 59.5977C147.156 59.6034 147.16 59.6081 147.166 59.6114C147.172 59.6146 147.178 59.6163 147.185 59.6163H149.621C149.625 59.6163 149.628 59.6172 149.632 59.6188C149.635 59.6204 149.638 59.6227 149.64 59.6256C149.643 59.6285 149.644 59.6318 149.645 59.6354C149.646 59.639 149.646 59.6428 149.646 59.6464L149.437 60.8808C149.435 60.8908 149.43 60.8998 149.423 60.9063C149.415 60.9128 149.406 60.9163 149.396 60.9163L146.933 60.9198C146.925 60.9198 146.917 60.9228 146.911 60.9281C146.905 60.9334 146.901 60.9407 146.899 60.9488C146.597 62.7353 146.292 64.5212 145.984 66.3066C145.925 66.6469 145.855 66.9065 145.772 67.0854C145.499 67.6743 145.054 68.0602 144.437 68.243C144.27 68.2926 144.052 68.3174 143.783 68.3174C142.722 68.3174 141.661 68.3182 140.6 68.3198C140.387 68.3202 140.186 68.2792 139.998 68.1969C139.814 68.1161 139.654 67.993 139.518 67.8276C139.294 67.5542 139.182 67.2402 139.18 66.8857C139.18 66.8049 139.227 66.4872 139.32 65.9325C139.918 62.3831 140.344 59.8875 140.597 58.4457C140.653 58.1246 140.57 57.9375 140.347 57.8843C140.317 57.8769 140.152 57.8725 139.853 57.8713C139.439 57.869 139.025 57.8729 138.611 57.8832C138.603 57.8835 138.595 57.8867 138.589 57.8922C138.583 57.8977 138.579 57.9051 138.578 57.9133C138.119 60.6291 137.658 63.3443 137.194 66.059C137.106 66.5731 137.015 66.928 136.922 67.1238C136.712 67.563 136.377 67.8973 135.917 68.1266C135.691 68.2392 135.452 68.2983 135.2 68.3038C134.781 68.3129 134.349 68.3174 133.902 68.3174C133.898 68.3174 133.893 68.3164 133.889 68.3143C133.885 68.3123 133.881 68.3094 133.878 68.3057C133.875 68.3021 133.873 68.2978 133.871 68.2932C133.87 68.2886 133.87 68.2837 133.871 68.279L134.084 67.0505C134.086 67.0423 134.09 67.0348 134.096 67.0294C134.102 67.024 134.11 67.021 134.119 67.021C134.37 67.0166 134.621 67.0123 134.872 67.008C135.185 67.0029 135.369 66.8431 135.423 66.5288C136.165 62.2013 136.904 57.8786 137.64 53.5607C137.641 53.5551 137.641 53.5494 137.64 53.544C137.638 53.5385 137.636 53.5334 137.632 53.5291C137.629 53.5247 137.624 53.5212 137.619 53.5188C137.614 53.5164 137.609 53.5152 137.603 53.5152C136.216 53.5152 134.839 53.5189 133.472 53.5264C133.059 53.5284 132.751 53.3659 132.547 53.0389C132.424 52.8423 132.368 52.6256 132.378 52.3889C132.379 52.3759 132.413 52.1616 132.48 51.746C132.523 51.482 132.568 51.2171 132.616 50.9512C132.619 50.937 132.626 50.9241 132.637 50.9148C132.648 50.9055 132.661 50.9004 132.675 50.9004H133.822C133.83 50.9004 133.839 50.9024 133.847 50.9062C133.855 50.9101 133.862 50.9157 133.867 50.9226C133.873 50.9296 133.877 50.9377 133.879 50.9464C133.881 50.9552 133.881 50.9643 133.879 50.9731C133.837 51.1941 133.796 51.4194 133.758 51.6491C133.731 51.8126 133.734 51.9333 133.766 52.0113C133.821 52.1472 133.938 52.2152 134.115 52.2152C135.353 52.2152 136.587 52.2152 137.818 52.2152C137.834 52.2152 137.849 52.2092 137.861 52.1984C137.873 52.1876 137.881 52.1727 137.884 52.1561L138.095 50.9435C138.096 50.9353 138.1 50.9279 138.107 50.9225C138.113 50.9171 138.121 50.9141 138.129 50.914L139.718 50.901C139.726 50.9009 139.733 50.9026 139.74 50.9059C139.747 50.9092 139.753 50.914 139.757 50.9201C139.762 50.9261 139.766 50.9332 139.768 50.9408C139.769 50.9484 139.77 50.9564 139.768 50.9642L139.561 52.185C139.56 52.1887 139.56 52.1925 139.561 52.1961C139.562 52.1997 139.564 52.203 139.566 52.2059C139.568 52.2088 139.571 52.2111 139.575 52.2127C139.578 52.2143 139.581 52.2151 139.585 52.2152H142.87C142.877 52.2151 142.883 52.2166 142.889 52.2195C142.895 52.2224 142.9 52.2266 142.904 52.2319C142.908 52.2372 142.911 52.2434 142.913 52.2501C142.915 52.2568 142.915 52.2638 142.914 52.2707L142.712 53.4714C142.711 53.4836 142.705 53.4947 142.696 53.5027C142.687 53.5107 142.676 53.5151 142.664 53.5152H139.384C139.37 53.5152 139.356 53.5205 139.345 53.5301C139.333 53.5397 139.326 53.553 139.323 53.5678L138.818 56.5223C138.817 56.5273 138.818 56.5324 138.819 56.5372C138.82 56.5421 138.822 56.5466 138.826 56.5505C138.829 56.5543 138.833 56.5574 138.837 56.5594C138.842 56.5615 138.846 56.5626 138.851 56.5625C139.475 56.5554 140.087 56.5566 140.69 56.566C141.024 56.5711 141.275 56.6046 141.442 56.6665C141.967 56.8603 142.262 57.2822 142.329 57.9322C142.34 58.0394 142.326 58.1975 142.287 58.4067C142.251 58.5974 142.233 58.6951 142.232 58.6998C141.811 61.1761 141.391 63.6526 140.97 66.1293C140.915 66.4543 140.888 66.6302 140.888 66.657C140.893 66.8591 140.999 66.9769 141.205 67.0103C141.235 67.0151 141.375 67.0174 141.625 67.0174C142.302 67.0178 142.98 67.0192 143.658 67.0216C143.925 67.0228 144.106 66.9253 144.2 66.7291C144.225 66.6779 144.265 66.4937 144.321 66.1766C144.628 64.4361 144.923 62.6936 145.206 60.9488C145.207 60.9453 145.207 60.9416 145.206 60.9382C145.205 60.9347 145.203 60.9315 145.201 60.9287C145.199 60.926 145.196 60.9238 145.193 60.9222C145.19 60.9207 145.186 60.9199 145.183 60.9198Z" fill="white" fill-opacity="0.5"/>
<path d="M144.506 53.2286C144.294 53.0198 144.18 52.7787 144.165 52.5053C144.16 52.4175 144.191 52.1653 144.258 51.7489C144.302 51.4787 144.351 51.2092 144.405 50.9406C144.407 50.9321 144.411 50.9245 144.418 50.9191C144.424 50.9136 144.432 50.9106 144.44 50.9104L146.015 50.9004C146.024 50.9003 146.034 50.9025 146.042 50.9067C146.051 50.911 146.058 50.9171 146.064 50.9248C146.07 50.9325 146.075 50.9415 146.077 50.9512C146.079 50.9609 146.08 50.971 146.078 50.9808C146.035 51.2025 145.995 51.4302 145.958 51.6638C145.932 51.8258 145.937 51.9455 145.974 52.0231C146.035 52.1508 146.154 52.2146 146.329 52.2146C147.562 52.215 148.796 52.2152 150.03 52.2152C150.035 52.2152 150.041 52.2164 150.046 52.2188C150.05 52.2212 150.055 52.2247 150.058 52.229C150.062 52.2334 150.064 52.2385 150.066 52.2439C150.067 52.2494 150.067 52.2551 150.066 52.2607L149.854 53.4726C149.852 53.4846 149.845 53.4954 149.836 53.5032C149.828 53.511 149.816 53.5152 149.805 53.5152C148.278 53.5152 146.743 53.5148 145.201 53.514C144.93 53.514 144.699 53.4188 144.506 53.2286Z" fill="white" fill-opacity="0.5"/>
<path d="M160.344 53.7037L160.801 50.9506C160.804 50.9366 160.811 50.9239 160.821 50.9147C160.832 50.9055 160.845 50.9004 160.859 50.9004L162.432 50.9039C162.44 50.904 162.448 50.9059 162.456 50.9095C162.463 50.9131 162.47 50.9183 162.475 50.9249C162.48 50.9314 162.484 50.939 162.486 50.9473C162.488 50.9555 162.488 50.9641 162.487 50.9725L162.022 53.7037C162.022 53.7072 162.022 53.7109 162.023 53.7145C162.024 53.718 162.025 53.7213 162.027 53.7241C162.03 53.7269 162.033 53.7292 162.036 53.7308C162.039 53.7324 162.042 53.7332 162.046 53.7332L167.859 53.7368C167.865 53.7367 167.87 53.738 167.876 53.7405C167.881 53.743 167.885 53.7467 167.889 53.7513C167.893 53.7558 167.895 53.7612 167.897 53.7669C167.898 53.7727 167.898 53.7787 167.897 53.7846L167.688 54.9918C167.686 55.0045 167.679 55.0159 167.67 55.0241C167.66 55.0323 167.649 55.0368 167.636 55.0368H161.845C161.835 55.0367 161.824 55.0407 161.816 55.048C161.807 55.0552 161.802 55.0653 161.8 55.0763C161.601 56.3196 161.442 57.567 161.326 58.8186C161.228 59.8712 161.214 60.9181 161.284 61.9593C161.288 62.0128 161.306 62.0187 161.338 61.977C162.652 60.2905 163.701 58.4313 164.486 56.3994C164.492 56.3841 164.502 56.3709 164.515 56.3618C164.529 56.3526 164.544 56.3478 164.56 56.348L166.153 56.3551C166.157 56.355 166.16 56.3558 166.163 56.3574C166.165 56.3589 166.168 56.3612 166.17 56.364C166.172 56.3667 166.173 56.37 166.173 56.3734C166.174 56.3768 166.173 56.3802 166.172 56.3834C165.496 58.4185 164.527 60.2779 163.268 61.9616C162.802 62.5829 162.277 63.1781 161.692 63.7473C161.685 63.7534 161.681 63.7612 161.679 63.7698C161.677 63.7783 161.677 63.7874 161.68 63.7958C161.985 64.761 162.545 65.4787 163.358 65.9491C163.665 66.1271 164.019 66.2686 164.421 66.3733C164.944 66.5096 165.496 66.5764 166.076 66.5737C166.083 66.5737 166.089 66.5751 166.095 66.5779C166.101 66.5806 166.106 66.5847 166.11 66.5897C166.114 66.5947 166.117 66.6006 166.119 66.6069C166.12 66.6132 166.121 66.6198 166.12 66.6263L165.837 68.2773C165.836 68.2854 165.832 68.2929 165.826 68.2984C165.819 68.3039 165.811 68.307 165.803 68.3074C165.019 68.333 164.256 68.2314 163.516 68.0025C163.125 67.8819 162.773 67.733 162.46 67.5558C161.442 66.9782 160.717 66.108 160.284 64.9451C160.282 64.94 160.279 64.9355 160.275 64.9317C160.272 64.928 160.267 64.9252 160.262 64.9236C160.257 64.9219 160.252 64.9215 160.246 64.9222C160.241 64.923 160.236 64.925 160.232 64.928C159.085 65.7375 157.83 66.2556 156.468 66.4821C155.93 66.5715 155.355 66.5959 154.742 66.5553C154.143 66.516 153.57 66.3513 153.022 66.0613C153.016 66.0578 153.01 66.0525 153.006 66.0461C153.002 66.0396 152.999 66.0322 152.998 66.0244C152.998 66.0167 152.999 66.0089 153.002 66.0017C153.005 65.9945 153.009 65.9882 153.015 65.9833C153.395 65.669 153.741 65.3268 154.054 64.9569C154.063 64.9468 154.074 64.9399 154.087 64.9373C154.1 64.9348 154.114 64.9367 154.125 64.9428C154.466 65.1177 154.81 65.223 155.157 65.2589C155.425 65.2865 155.778 65.2719 156.213 65.2152C156.653 65.1584 157.083 65.0509 157.502 64.8925C158.362 64.5691 159.14 64.1031 159.838 63.4944C159.845 63.4887 159.85 63.4812 159.853 63.4727C159.856 63.4642 159.857 63.455 159.856 63.446C159.676 62.3343 159.605 61.2547 159.642 60.2072C159.704 58.4825 159.871 56.7701 160.142 55.0698C160.143 55.0658 160.142 55.0616 160.141 55.0577C160.14 55.0537 160.138 55.05 160.136 55.0469C160.133 55.0437 160.13 55.0412 160.127 55.0395C160.123 55.0377 160.119 55.0368 160.115 55.0368H158.041C158.037 55.0367 158.032 55.0356 158.028 55.0335C158.023 55.0314 158.019 55.0284 158.016 55.0246C158.013 55.0207 158.011 55.0163 158.01 55.0114C158.008 55.0066 158.008 55.0015 158.009 54.9966L158.215 53.7734C158.217 53.7631 158.222 53.7538 158.23 53.7471C158.237 53.7404 158.247 53.7368 158.257 53.7368L160.311 53.7332C160.319 53.7333 160.326 53.7303 160.332 53.7249C160.338 53.7195 160.342 53.7119 160.344 53.7037Z" fill="white" fill-opacity="0.5"/>
<path d="M152.754 62.5542C152.762 62.6039 152.778 62.607 152.802 62.5637C153.283 61.7002 153.672 60.811 153.969 59.8963C154.285 58.9241 154.538 57.9345 154.729 56.9276C154.8 56.549 154.961 55.6225 155.211 54.1479C155.242 53.9652 155.248 53.8385 155.229 53.768C155.2 53.6585 155.131 53.584 155.022 53.5446C154.968 53.5249 154.876 53.5151 154.745 53.5151C153.553 53.5151 152.351 53.5151 151.137 53.5151C151.134 53.515 151.13 53.5142 151.127 53.5126C151.124 53.5111 151.121 53.5088 151.118 53.506C151.116 53.5031 151.115 53.4998 151.114 53.4963C151.113 53.4928 151.113 53.4891 151.113 53.4855L151.322 52.2576C151.325 52.2456 151.331 52.2348 151.34 52.227C151.349 52.2193 151.36 52.215 151.372 52.2151C152.762 52.2151 154.143 52.2137 155.514 52.2109C155.685 52.2105 155.85 52.236 156.009 52.2872C156.167 52.338 156.312 52.4182 156.442 52.5277C156.708 52.7499 156.869 53.0311 156.926 53.3715C156.957 53.5574 156.938 53.8584 156.87 54.2744C156.808 54.649 156.745 55.0231 156.68 55.3965C156.679 55.3997 156.631 55.6847 156.535 56.2516C156.353 57.3353 156.102 58.4025 155.784 59.4531C155.537 60.2654 155.236 61.0557 154.88 61.8239C154.494 62.657 154.019 63.4321 153.456 64.1491C153.029 64.6927 152.537 65.1649 151.982 65.5655C151.085 66.2127 150.067 66.5494 148.929 66.5754C148.924 66.5755 148.919 66.5745 148.915 66.5725C148.91 66.5704 148.906 66.5673 148.903 66.5634C148.9 66.5595 148.897 66.5549 148.896 66.5499C148.894 66.5449 148.894 66.5397 148.895 66.5346L149.105 65.3138C149.107 65.3056 149.111 65.2983 149.117 65.2928C149.123 65.2873 149.131 65.2841 149.14 65.2836C150.032 65.2289 150.806 64.8915 151.461 64.2714C151.468 64.2655 151.472 64.2578 151.474 64.2493C151.476 64.2409 151.475 64.2321 151.472 64.2241C151.176 63.4615 151.004 62.669 150.954 61.8469C150.929 61.414 150.924 60.9808 150.94 60.5475C150.976 59.5839 151.077 58.6286 151.241 57.6816C151.367 56.9548 151.43 56.5894 151.431 56.5854C151.513 56.0836 151.597 55.5823 151.686 55.0816C151.688 55.0689 151.695 55.0575 151.704 55.0493C151.714 55.0411 151.726 55.0366 151.738 55.0367L153.334 55.0402C153.339 55.0402 153.344 55.0413 153.348 55.0435C153.353 55.0457 153.357 55.0489 153.36 55.0528C153.363 55.0568 153.365 55.0614 153.367 55.0664C153.368 55.0713 153.368 55.0765 153.367 55.0816C153.183 56.1527 153.008 57.2051 152.84 58.2388C152.751 58.7884 152.685 59.3407 152.643 59.8957C152.574 60.8014 152.611 61.6875 152.754 62.5542Z" fill="white" fill-opacity="0.5"/>
<path d="M101.271 57.5402C101.283 57.5914 101.302 57.5944 101.328 57.5491L103.502 53.7826C103.51 53.7691 103.521 53.7579 103.534 53.7502C103.547 53.7424 103.562 53.7383 103.576 53.7383L104.957 53.7507C104.977 53.7511 104.981 53.7601 104.971 53.7779L101.75 59.3431C101.742 59.3575 101.736 59.3735 101.734 59.3901C101.731 59.4068 101.732 59.4237 101.736 59.44L102.317 61.8733C102.332 61.9352 102.324 61.9931 102.292 62.0471L101.314 63.7288C101.301 63.7508 101.292 63.7495 101.286 63.7246L100.694 61.2558C100.684 61.2172 100.67 61.2151 100.65 61.2493L98.4687 65.0181C98.4627 65.0288 98.454 65.0376 98.4436 65.0437C98.4332 65.0498 98.4213 65.053 98.4093 65.053H97.0036C96.9861 65.053 96.9819 65.0453 96.991 65.03L100.206 59.479C100.235 59.429 100.243 59.3695 100.23 59.3135L98.9162 53.7986C98.9145 53.7916 98.9144 53.7843 98.9158 53.7772C98.9172 53.7702 98.9201 53.7636 98.9243 53.7579C98.9285 53.7523 98.9339 53.7478 98.94 53.7447C98.9461 53.7416 98.9528 53.74 98.9596 53.7401L100.347 53.7471C100.355 53.7473 100.363 53.7504 100.37 53.7559C100.376 53.7613 100.38 53.7688 100.382 53.7773L101.271 57.5402Z" fill="white" fill-opacity="0.5"/>
<path d="M106.154 57.5418L108.342 53.7759C108.349 53.7638 108.359 53.7538 108.371 53.7469C108.382 53.7399 108.396 53.7363 108.409 53.7363H109.78C109.824 53.7363 109.834 53.7554 109.812 53.7936L106.586 59.3683C106.576 59.385 106.573 59.4047 106.578 59.4232L107.903 65.0103C107.905 65.0153 107.905 65.0204 107.904 65.0255C107.903 65.0305 107.901 65.0352 107.898 65.0392C107.895 65.0433 107.891 65.0466 107.887 65.0488C107.882 65.0511 107.877 65.0522 107.872 65.0522L106.474 65.0487C106.466 65.0487 106.458 65.0459 106.452 65.0408C106.445 65.0356 106.441 65.0284 106.439 65.0203L105.542 61.2675C105.529 61.2159 105.51 61.2127 105.483 61.258L103.303 65.0262C103.298 65.0342 103.292 65.0408 103.284 65.0453C103.276 65.0499 103.268 65.0523 103.259 65.0522H101.856C101.826 65.0522 101.819 65.0388 101.834 65.0121L105.063 59.4368C105.079 59.4092 105.084 59.376 105.076 59.3446L104.487 56.8599C104.483 56.8468 104.483 56.8332 104.485 56.8198C104.487 56.8064 104.491 56.7935 104.498 56.7819L105.488 55.0759C105.51 55.0385 105.526 55.0411 105.536 55.0836L106.124 57.5371C106.131 57.5635 106.141 57.565 106.154 57.5418Z" fill="white" fill-opacity="0.5"/>
<path d="M132.002 57.6041C131.708 57.3425 131.593 57.0086 131.655 56.6025C131.723 56.1664 131.796 55.7315 131.877 55.2978C131.878 55.2895 131.883 55.282 131.889 55.2766C131.895 55.2712 131.903 55.2682 131.911 55.2682L133.109 55.2617C133.113 55.2617 133.116 55.2625 133.12 55.2641C133.123 55.2657 133.126 55.2681 133.129 55.2711C133.131 55.274 133.133 55.2775 133.134 55.2813C133.135 55.2851 133.135 55.2891 133.135 55.293C133.098 55.5266 133.06 55.7522 133.023 55.9696C132.992 56.1493 132.991 56.2783 133.021 56.3567C133.063 56.4666 133.145 56.532 133.268 56.5529C133.289 56.5564 133.386 56.5582 133.56 56.5582C134.034 56.5582 134.502 56.5582 134.965 56.5582C134.972 56.5582 134.98 56.56 134.987 56.5634C134.994 56.5667 135 56.5716 135.004 56.5777C135.009 56.5838 135.013 56.5909 135.015 56.5985C135.017 56.6062 135.017 56.6142 135.016 56.622L134.816 57.8139C134.814 57.8304 134.805 57.8454 134.793 57.8563C134.781 57.8671 134.765 57.873 134.749 57.8729C134.069 57.8729 133.4 57.8729 132.743 57.8729C132.45 57.8729 132.203 57.7833 132.002 57.6041Z" fill="white" fill-opacity="0.5"/>
<path d="M132.82 59.6414C132.821 59.6356 132.823 59.6303 132.828 59.6265C132.832 59.6228 132.837 59.6207 132.843 59.6207L134.469 59.6172C134.474 59.6172 134.478 59.6183 134.483 59.6204C134.487 59.6226 134.491 59.6257 134.494 59.6296C134.497 59.6335 134.499 59.638 134.501 59.6429C134.502 59.6478 134.502 59.653 134.501 59.658C134.135 61.7931 133.77 63.9275 133.408 66.0611C133.32 66.5775 133.229 66.9319 133.137 67.1241C132.967 67.4763 132.712 67.765 132.371 67.9904C132.11 68.1629 131.832 68.2687 131.536 68.3077C131.484 68.3148 131.193 68.3183 130.664 68.3183C130.201 68.3183 129.738 68.3183 129.275 68.3183C129.27 68.3183 129.265 68.3172 129.26 68.3149C129.256 68.3127 129.252 68.3094 129.248 68.3054C129.245 68.3013 129.243 68.2965 129.241 68.2914C129.24 68.2863 129.24 68.281 129.241 68.2758L129.45 67.0538C129.452 67.0438 129.457 67.0348 129.464 67.0283C129.472 67.0218 129.481 67.0183 129.491 67.0183C130.021 67.0183 130.548 67.0167 131.072 67.0136C131.391 67.0116 131.579 66.8501 131.634 66.529C132.029 64.2489 132.424 61.9531 132.82 59.6414Z" fill="white" fill-opacity="0.5"/>
<path d="M58.5385 80.3027C58.4163 80.1829 58.3366 80.0373 58.2997 79.866C58.2117 79.4551 58.2957 79.1254 58.5517 78.8768C58.6488 78.7822 58.8111 78.692 59.0385 78.6062C59.2934 78.5096 59.5483 78.4137 59.8031 78.3184C62.5216 77.3004 65.0563 75.9228 67.4071 74.1856C68.6486 73.2681 69.7833 72.2267 70.8111 71.0614C71.3429 70.4587 71.8098 69.8282 72.2117 69.1699C72.4444 68.7882 72.6542 68.3732 72.8408 67.9249C73.0827 67.343 73.214 66.7348 73.2345 66.1002C73.2654 65.1535 72.9149 64.3818 72.1831 63.785C71.5732 63.2882 70.8898 63.1109 70.1328 63.2532C69.7968 63.3166 69.4471 63.4377 69.0837 63.6166C68.6848 63.8127 68.3008 64.0365 67.9317 64.2878C67.4182 64.6369 66.9191 65.0074 66.4345 65.3993C65.329 66.2932 64.2262 67.1906 63.126 68.0915C62.5801 68.5382 61.8844 69.0559 61.0391 69.6444C59.5961 70.6494 58.0774 71.4465 56.4831 72.0358C55.3349 72.4601 54.1366 72.7286 52.8883 72.8412C52.6155 72.8661 52.4064 72.8541 52.2608 72.8052C52.03 72.7276 51.8587 72.5836 51.7471 72.3732C51.6012 72.0971 51.5801 71.8101 51.6837 71.5123C51.7652 71.2787 51.9187 71.1044 52.1443 70.9893C52.257 70.9318 52.4359 70.8905 52.6808 70.8652C54.4248 70.6872 56.0812 70.1906 57.65 69.3756C58.4519 68.9592 59.2254 68.4922 59.9705 67.9745C60.4924 67.6117 61.0062 67.2371 61.5117 66.8506C61.7574 66.6627 62.0587 66.4216 62.4157 66.1273C63.7966 64.9889 64.8357 64.1391 65.5328 63.5782C66.0109 63.1937 66.561 62.8023 67.1831 62.404C67.8414 61.9821 68.5018 61.6618 69.1643 61.4432C69.5658 61.3108 69.938 61.232 70.2808 61.2068C71.1574 61.1422 71.9985 61.3492 72.8043 61.8279C73.8835 62.4688 74.6014 63.3678 74.958 64.5248C75.0692 64.8852 75.1359 65.2715 75.158 65.6836C75.2037 66.5467 75.0814 67.3913 74.7911 68.2174C74.4612 69.1546 74.0166 70.0295 73.4574 70.8422C72.6673 71.9901 71.7473 73.0479 70.6974 74.0154C69.9119 74.739 69.1243 75.3863 68.3345 75.9571C65.7357 77.8358 62.9397 79.3125 59.9465 80.3872C59.5824 80.5179 59.3515 80.5865 59.254 80.5928C58.9923 80.6093 58.7538 80.5126 58.5385 80.3027Z" fill="white" fill-opacity="0.5"/>
<path d="M36.5621 76.0529C34.6257 73.9713 33.3531 71.5169 32.7444 68.6896C32.2747 66.5087 32.2369 64.3622 32.6312 62.2499C32.6587 62.1025 32.7251 61.9668 32.8307 61.8427C32.9263 61.7301 33.0415 61.6416 33.1764 61.5774C33.4686 61.4379 33.7607 61.4553 34.0529 61.6294C34.3291 61.7945 34.4851 62.0409 34.5209 62.3686C34.5312 62.4648 34.5223 62.5991 34.4941 62.7716C34.472 62.9048 34.4514 63.0383 34.4324 63.1723C34.0442 65.8688 34.3724 68.4249 35.4169 70.8405C36.1042 72.4293 37.0924 73.8547 38.3815 75.1169C39.615 76.3251 41.0708 77.2999 42.7489 78.0413C45.5173 79.2649 48.3865 79.8745 51.3564 79.8702C52.4368 79.8686 53.564 79.7853 54.7381 79.6202C55.2291 79.5509 55.5158 79.5215 55.5981 79.5322C55.9291 79.5747 56.176 79.7772 56.3387 80.1396C56.4213 80.3248 56.4335 80.5294 56.3752 80.7536C56.3086 81.0089 56.1808 81.2033 55.9918 81.3368C55.8714 81.4219 55.667 81.4879 55.3787 81.5348C54.2023 81.7258 52.9842 81.832 51.7244 81.8533C49.0086 81.8994 46.3838 81.4863 43.8501 80.6141C43.4615 80.4802 43.1027 80.3484 42.7735 80.2188C41.2455 79.6173 39.8291 78.8227 38.5244 77.8351C37.8387 77.3163 37.1846 76.7222 36.5621 76.0529Z" fill="white" fill-opacity="0.5"/>
<path d="M53.3971 85.9999H53.1257C52.736 85.9251 52.477 85.7297 52.3486 85.4138C52.2301 85.1223 52.2356 84.8347 52.3651 84.551C52.4627 84.3375 52.6215 84.1841 52.8417 84.0907C52.9621 84.0395 53.167 84.0062 53.4566 83.9909C55.0741 83.9058 56.6747 83.6852 58.2583 83.329C62.672 82.3359 66.6707 80.4576 70.2543 77.6941C71.5785 76.6726 72.8215 75.4958 73.9834 74.1634C75.1415 72.8355 76.089 71.3927 76.8257 69.835C77.1781 69.0893 77.4579 68.2796 77.6651 67.4058C77.8781 66.508 77.9566 65.6496 77.9006 64.8306C77.872 64.415 77.9809 64.0995 78.2274 63.884C78.4598 63.6803 78.7368 63.6076 79.0583 63.6659C79.3554 63.7195 79.571 63.8907 79.7051 64.1794C79.7798 64.3402 79.8219 64.5738 79.8314 64.8803C79.8726 66.2264 79.6825 67.5553 79.2611 68.8671C78.9747 69.7602 78.6339 70.5849 78.2389 71.3413C77.3905 72.9671 76.3583 74.4526 75.1423 75.7979C74.908 76.0575 74.6429 76.3402 74.3469 76.6459C72.7065 78.3382 70.8684 79.8177 68.8326 81.0842C64.0749 84.045 58.9297 85.6836 53.3971 85.9999Z" fill="white" fill-opacity="0.5"/>
<path d="M40.3257 73.2842C39.3246 72.3053 38.5076 71.2625 37.8749 70.1559C37.145 68.8784 36.6583 67.4923 36.4149 65.9977C36.3844 65.811 36.3918 65.6353 36.4371 65.4706C36.4832 65.3032 36.568 65.158 36.6914 65.0351C36.8274 64.8996 36.9891 64.8141 37.1766 64.7787C37.3522 64.7452 37.5253 64.7613 37.696 64.8271C37.909 64.9094 38.0709 65.0509 38.1817 65.2514C38.2392 65.355 38.2947 65.5563 38.348 65.8553C38.5168 66.8031 38.8069 67.6865 39.2183 68.5055C40.2385 70.5351 41.697 72.1573 43.5937 73.3723C43.7629 73.4806 43.8792 73.5726 43.9429 73.6482C44.0503 73.7762 44.116 73.9159 44.14 74.0672C44.212 74.5233 44.0787 74.8706 43.74 75.1089C43.3968 75.35 43.0358 75.3526 42.6571 75.1166C41.816 74.5923 41.0389 73.9815 40.3257 73.2842Z" fill="white" fill-opacity="0.5"/>
<path d="M65.4362 72.4188C62.9661 74.3019 60.2531 75.6537 57.2973 76.4742C56.9038 76.5834 56.5342 76.6793 56.1887 76.762C55.3217 76.97 54.4447 77.1199 53.5579 77.2117C52.7217 77.298 51.8836 77.3466 51.0436 77.3576C50.636 77.3632 50.2552 77.3531 49.9013 77.3275C48.8651 77.2534 47.8419 77.0888 46.8316 76.8335C46.5021 76.7504 46.2746 76.6564 46.1493 76.5516C45.9367 76.374 45.8253 76.1262 45.815 75.8083C45.8059 75.5306 45.9095 75.2832 46.1259 75.0661C46.2828 74.9085 46.4708 74.8209 46.6899 74.8031C46.8015 74.7941 46.9967 74.8238 47.2756 74.8924C49.0836 75.3375 50.9122 75.476 52.7613 75.3078C53.1167 75.2759 53.4941 75.2243 53.8933 75.153C57.5127 74.5085 60.8365 73.1035 63.8647 70.938C65.2742 69.9299 66.5851 68.7993 67.7973 67.5462C68.5082 66.8115 68.9462 66.3439 69.1116 66.1434C69.3638 65.8373 69.6733 65.7116 70.0402 65.7664C70.204 65.7908 70.3529 65.8601 70.487 65.9744C70.6078 66.0776 70.7009 66.2092 70.7664 66.3691C70.9276 66.7603 70.8569 67.1282 70.5544 67.4729C70.0291 68.0705 69.3925 68.7615 68.6447 69.5458C67.6478 70.5906 66.5782 71.5482 65.4362 72.4188Z" fill="white" fill-opacity="0.5"/>
<path d="M130.133 74.745C129.81 75.2 129.45 75.6221 129.055 76.0113C129.006 76.0602 128.961 76.0874 128.921 76.0929C128.869 76.1008 128.822 76.0848 128.781 76.045C128.775 76.0386 128.77 76.0307 128.767 76.022C128.764 76.0132 128.763 76.0039 128.764 75.9948C128.776 75.9093 128.825 75.8254 128.912 75.7431C129.283 75.3897 129.646 74.941 129.999 74.397C130.004 74.3895 130.007 74.3809 130.008 74.3719C130.009 74.363 130.008 74.3539 130.004 74.3456C129.899 74.0808 129.778 73.8238 129.642 73.5744C129.571 73.4432 129.592 73.3314 129.705 73.2388C129.776 73.1805 129.835 73.1913 129.882 73.2713C130.011 73.4911 130.121 73.7192 130.213 73.9556C130.231 74.0032 130.25 74.003 130.268 73.955C130.407 73.5815 130.507 73.2094 130.566 72.8387C130.568 72.8311 130.567 72.8234 130.565 72.816C130.563 72.8086 130.56 72.8017 130.555 72.7958C130.55 72.79 130.544 72.7853 130.538 72.7821C130.531 72.7789 130.524 72.7773 130.516 72.7773C130.241 72.7773 129.966 72.7773 129.692 72.7773C129.64 72.7773 129.602 72.7661 129.577 72.7436C129.535 72.7062 129.529 72.6577 129.56 72.5982C129.6 72.5202 129.663 72.4814 129.747 72.4818L130.594 72.486C130.603 72.486 130.611 72.483 130.617 72.4776C130.623 72.4722 130.627 72.4647 130.629 72.4564L130.733 71.8543C130.747 71.7779 130.79 71.7302 130.864 71.7113C130.935 71.6928 130.989 71.7058 131.024 71.7503C131.049 71.7814 131.055 71.8285 131.043 71.8915C131.006 72.0818 130.974 72.2689 130.946 72.4529C130.945 72.4586 130.945 72.4644 130.947 72.4699C130.949 72.4754 130.951 72.4805 130.955 72.4847C130.959 72.489 130.964 72.4922 130.969 72.4943C130.974 72.4963 130.98 72.4971 130.985 72.4966C131.297 72.4651 131.607 72.4688 131.916 72.5078C132.028 72.522 132.108 72.5486 132.157 72.5876C132.239 72.653 132.268 72.7458 132.244 72.8659C132.098 73.5782 131.994 74.2967 131.931 75.0216C131.912 75.2426 131.93 75.4596 131.986 75.6727C132.016 75.7842 132.073 75.799 132.158 75.7171C132.238 75.6402 132.297 75.5483 132.336 75.4411C132.446 75.133 132.525 74.8163 132.572 74.4909C132.59 74.3696 132.652 74.3203 132.758 74.3432C132.867 74.3668 132.91 74.4308 132.886 74.5352C132.873 74.5912 132.866 74.6213 132.865 74.6256C132.798 75.046 132.666 75.4431 132.469 75.8169C132.443 75.8654 132.395 75.9209 132.324 75.9836C132.266 76.0352 132.204 76.07 132.138 76.0881C131.848 76.1673 131.686 76.03 131.653 75.6763C131.623 75.3596 131.622 75.0438 131.649 74.7291C131.654 74.6684 131.687 74.3914 131.749 73.8982C131.797 73.5141 131.843 73.239 131.886 73.0727C131.915 72.9616 131.899 72.8821 131.837 72.834C131.802 72.8068 131.737 72.7911 131.641 72.7867C131.415 72.7757 131.18 72.7728 130.935 72.7779C130.924 72.7782 130.913 72.7826 130.904 72.7903C130.895 72.798 130.889 72.8086 130.886 72.8204C130.786 73.3436 130.626 73.8407 130.408 74.3119C130.403 74.3236 130.4 74.3365 130.399 74.3499C130.399 74.3632 130.401 74.3767 130.406 74.3893L130.897 75.632C130.944 75.7509 130.92 75.8274 130.826 75.8612C130.717 75.9002 130.638 75.8837 130.589 75.8116C130.583 75.8041 130.557 75.7381 130.508 75.6136C130.396 75.3225 130.29 75.0357 130.191 74.7533C130.177 74.7139 130.158 74.7111 130.133 74.745Z" fill="white" fill-opacity="0.5"/>
<path d="M127.871 74.138C127.542 74.2869 127.212 74.4344 126.883 74.5806C126.835 74.6019 126.795 74.608 126.763 74.5989C126.729 74.5895 126.7 74.5711 126.675 74.544C126.669 74.5373 126.665 74.5292 126.662 74.5203C126.66 74.5114 126.659 74.5019 126.661 74.4925C126.678 74.3933 126.734 74.3234 126.827 74.2828C127.201 74.1209 127.565 73.9578 127.919 73.7935C127.932 73.7879 127.942 73.7796 127.951 73.7693C127.959 73.759 127.965 73.747 127.967 73.7344L128.114 72.9219C128.115 72.9183 128.115 72.9145 128.114 72.9109C128.113 72.9073 128.111 72.9039 128.109 72.9011C128.107 72.8982 128.104 72.8959 128.1 72.8943C128.097 72.8927 128.093 72.8918 128.09 72.8918L127.218 72.8782C127.198 72.8778 127.18 72.8706 127.168 72.8581C127.089 72.7801 127.086 72.708 127.158 72.6418C127.196 72.6075 127.25 72.5898 127.322 72.5886C127.593 72.5855 127.871 72.5847 128.158 72.5863C128.167 72.5865 128.176 72.5831 128.183 72.5767C128.19 72.5703 128.195 72.5613 128.197 72.5514L128.313 71.8855C128.316 71.8666 128.324 71.8485 128.335 71.8322C128.346 71.8159 128.361 71.8019 128.378 71.7909C128.476 71.7267 128.555 71.7419 128.614 71.8364C128.623 71.852 128.627 71.8714 128.623 71.8908L128.509 72.529C128.507 72.536 128.508 72.5432 128.509 72.5501C128.511 72.557 128.514 72.5634 128.519 72.5689C128.523 72.5744 128.529 72.5788 128.535 72.5818C128.541 72.5848 128.548 72.5863 128.555 72.5863H129.237C129.312 72.5863 129.353 72.6249 129.359 72.7021C129.365 72.7742 129.337 72.8258 129.275 72.8569C129.242 72.8735 129.191 72.8817 129.122 72.8817C128.905 72.8817 128.689 72.8817 128.473 72.8817C128.465 72.8817 128.458 72.8843 128.453 72.8891C128.447 72.8938 128.444 72.9004 128.442 72.9077L128.323 73.5725C128.319 73.595 128.326 73.6017 128.345 73.5926L128.865 73.3355C128.963 73.2875 129.028 73.3121 129.062 73.4094C129.087 73.4815 129.049 73.5479 128.946 73.6085C128.731 73.7362 128.507 73.8532 128.275 73.9595C128.267 73.9634 128.26 73.9693 128.254 73.9767C128.248 73.9841 128.245 73.9929 128.243 74.0021C128.156 74.5284 128.061 75.0525 127.959 75.5745C127.933 75.7108 127.892 75.8067 127.836 75.8623C127.757 75.9419 127.654 75.9824 127.529 75.984C127.279 75.9872 127.032 75.9403 126.787 75.8434C126.769 75.8361 126.754 75.8239 126.744 75.8085C126.702 75.7423 126.699 75.6828 126.734 75.63C126.761 75.5899 126.805 75.566 126.865 75.5585C126.943 75.5483 127.02 75.5591 127.095 75.591C127.239 75.6513 127.383 75.6746 127.527 75.6608C127.595 75.6541 127.634 75.6174 127.646 75.5509L127.892 74.1557C127.895 74.1356 127.888 74.1297 127.871 74.138Z" fill="white" fill-opacity="0.5"/>
<path d="M114.358 75.7944C114.363 75.8311 114.378 75.8352 114.401 75.8068C114.856 75.2581 115.247 74.6885 115.576 74.0979C115.63 74.0002 115.704 73.9855 115.797 74.0536C115.888 74.1198 115.901 74.2043 115.838 74.3071C115.438 74.9559 114.993 75.5707 114.505 76.1513C114.496 76.1621 114.489 76.1751 114.487 76.1892C114.484 76.2032 114.485 76.2177 114.489 76.2311C114.581 76.51 114.704 76.7588 114.856 76.9774C114.952 77.1145 115.068 77.2093 115.206 77.2617C115.287 77.2928 115.351 77.2701 115.397 77.1937C115.461 77.0873 115.51 76.9755 115.545 76.8581C115.557 76.8179 115.585 76.6989 115.63 76.5012C115.662 76.3586 115.688 76.2148 115.708 76.0698C115.718 75.9981 115.734 75.9477 115.756 75.9185C115.793 75.8689 115.845 75.8464 115.912 75.8512C116.004 75.8575 116.044 75.9081 116.031 76.003C115.99 76.2969 115.928 76.5815 115.844 76.8569C115.771 77.094 115.672 77.2867 115.545 77.4348C115.37 77.6397 115.168 77.6747 114.94 77.54C114.756 77.4313 114.601 77.2654 114.476 77.0424C114.362 76.8407 114.269 76.6357 114.196 76.4273C114.195 76.4226 114.192 76.4183 114.189 76.4149C114.185 76.4115 114.181 76.4089 114.176 76.4076C114.171 76.4062 114.167 76.4059 114.162 76.4069C114.157 76.4079 114.153 76.41 114.149 76.4131C113.634 76.8244 113.104 77.1742 112.561 77.4626C112.502 77.4937 112.447 77.5112 112.396 77.5152C112.24 77.5278 112.209 77.4669 112.303 77.3326C112.332 77.292 112.373 77.2573 112.427 77.2286C112.98 76.9308 113.508 76.5723 114.008 76.1531C114.026 76.138 114.04 76.1183 114.048 76.0959C114.056 76.0735 114.059 76.0492 114.055 76.0255C113.935 75.2321 113.913 74.4294 113.988 73.6175C113.988 73.6137 113.988 73.6098 113.986 73.6062C113.985 73.6025 113.983 73.5992 113.981 73.5963C113.978 73.5935 113.975 73.5912 113.972 73.5897C113.969 73.5882 113.965 73.5874 113.961 73.5874L113.1 73.5785C113.076 73.5783 113.052 73.569 113.034 73.5525C113.016 73.5359 113.005 73.5132 113.002 73.4887C112.989 73.369 113.032 73.3006 113.129 73.2837C113.135 73.2825 113.202 73.2819 113.331 73.2819C113.551 73.2819 113.778 73.2819 114.011 73.2819C114.021 73.282 114.031 73.2781 114.039 73.2711C114.046 73.2642 114.051 73.2545 114.052 73.2441C114.099 72.8245 114.154 72.4223 114.219 72.0374C114.219 72.0327 114.223 72.0028 114.229 71.9476C114.245 71.8066 114.32 71.7442 114.454 71.7603C114.536 71.7702 114.571 71.819 114.558 71.9068L114.372 73.2411C114.371 73.2448 114.371 73.2486 114.372 73.2522C114.373 73.2557 114.375 73.2591 114.378 73.2619C114.38 73.2648 114.383 73.2671 114.387 73.2687C114.39 73.2703 114.394 73.2712 114.397 73.2713C115.007 73.2835 115.616 73.287 116.225 73.2819C116.228 73.2819 116.25 73.2805 116.291 73.2778C116.398 73.2703 116.453 73.3258 116.458 73.4444C116.461 73.533 116.4 73.5773 116.272 73.5773H114.347C114.336 73.5773 114.325 73.5815 114.317 73.5892C114.309 73.5968 114.304 73.6074 114.303 73.6187C114.235 74.3609 114.253 75.0861 114.358 75.7944Z" fill="white" fill-opacity="0.5"/>
<path d="M115.954 73.0486C115.93 73.0453 115.906 73.0366 115.886 73.0232C115.865 73.0097 115.847 72.9918 115.834 72.9706C115.627 72.6484 115.395 72.3492 115.138 72.073C115.124 72.0586 115.116 72.0407 115.115 72.0228C115.111 71.8818 115.177 71.8091 115.313 71.8048C115.329 71.8042 115.345 71.8071 115.36 71.8133C115.375 71.8195 115.389 71.8289 115.4 71.8408C115.672 72.128 115.91 72.4276 116.112 72.7396C116.158 72.8109 116.176 72.8747 116.165 72.931C116.146 73.0268 116.076 73.066 115.954 73.0486Z" fill="white" fill-opacity="0.5"/>
<path d="M144.128 72.2466C144.1 72.221 144.089 72.1887 144.092 72.1497C144.095 72.1182 144.11 72.0916 144.138 72.0699C144.205 72.016 144.302 71.9911 144.428 71.9955C145.74 72.04 147.195 71.9793 148.792 71.8135C148.864 71.8056 148.925 71.8137 148.973 71.8377C149.089 71.8948 149.088 71.9651 148.971 72.0486C148.928 72.079 148.874 72.0977 148.81 72.1048C147.292 72.2754 145.77 72.3344 144.244 72.2821C144.19 72.2801 144.152 72.2683 144.128 72.2466Z" fill="white" fill-opacity="0.5"/>
<path d="M162.804 73.9187C162.862 73.8844 162.857 73.8673 162.791 73.8673L159.958 73.8714C159.784 73.8718 159.731 73.8127 159.801 73.6941C159.853 73.6047 159.93 73.5633 160.029 73.57C160.083 73.574 160.112 73.576 160.116 73.576C160.864 73.576 161.629 73.576 162.411 73.576C162.422 73.576 162.433 73.5719 162.442 73.5645C162.451 73.5571 162.456 73.5467 162.459 73.5352L162.583 72.8302C162.584 72.8238 162.584 72.8173 162.582 72.811C162.581 72.8048 162.578 72.7989 162.574 72.794C162.57 72.789 162.565 72.785 162.559 72.7823C162.554 72.7796 162.548 72.7782 162.541 72.7782C161.981 72.7782 161.415 72.783 160.844 72.7924C160.776 72.7936 160.714 72.7723 160.66 72.7286C160.596 72.6774 160.596 72.6266 160.66 72.5761C160.753 72.5036 160.856 72.4704 160.97 72.4763C161.047 72.4802 161.086 72.4822 161.089 72.4822C161.597 72.4775 162.102 72.4812 162.605 72.4934C162.617 72.4937 162.628 72.4897 162.637 72.4821C162.646 72.4745 162.652 72.4638 162.654 72.452C162.677 72.296 162.703 72.1471 162.732 72.0053C162.75 71.9198 162.782 71.8613 162.827 71.8298C162.896 71.7806 162.967 71.794 163.039 71.87C163.045 71.8769 163.05 71.8852 163.053 71.894C163.056 71.9029 163.056 71.9121 163.055 71.9208L162.96 72.4467C162.959 72.4516 162.959 72.4566 162.96 72.4614C162.961 72.4662 162.963 72.4707 162.966 72.4745C162.969 72.4783 162.973 72.4814 162.977 72.4836C162.981 72.4857 162.985 72.4869 162.99 72.4869C163.522 72.4826 164.045 72.4812 164.559 72.4828C164.562 72.4828 164.59 72.4849 164.643 72.4893C164.716 72.4952 164.779 72.4721 164.83 72.4201C164.873 72.3764 164.896 72.3538 164.899 72.3522C164.959 72.3002 165.017 72.2458 165.073 72.1891C165.138 72.1241 165.213 72.0794 165.297 72.055C165.356 72.0384 165.405 72.0441 165.442 72.0721C165.483 72.1028 165.496 72.1463 165.481 72.2027C165.472 72.235 165.45 72.2695 165.414 72.3061C164.959 72.767 164.463 73.1745 163.925 73.5287C163.877 73.5602 163.882 73.576 163.939 73.576L165.783 73.5795C165.802 73.5795 165.82 73.587 165.833 73.6002C165.911 73.6801 165.912 73.7513 165.836 73.8135C165.799 73.8446 165.745 73.8606 165.675 73.8614C164.942 73.8716 164.209 73.8761 163.476 73.875C163.457 73.8749 163.439 73.8805 163.423 73.8909C162.957 74.1935 162.477 74.4611 161.983 74.694C161.885 74.7396 161.89 74.7621 161.997 74.7613C162.768 74.757 163.536 74.7558 164.301 74.7578C164.565 74.7586 164.699 74.8639 164.703 75.0739C164.704 75.1019 164.68 75.2455 164.632 75.5047C164.547 75.9703 164.463 76.4363 164.381 76.9028C164.346 77.1104 164.303 77.2498 164.252 77.3211C164.159 77.4539 164.018 77.5203 163.829 77.5203C162.921 77.5203 162.012 77.5203 161.104 77.5203C160.86 77.5203 160.716 77.5134 160.672 77.4996C160.491 77.4433 160.425 77.2778 160.472 77.0032C160.566 76.4616 160.666 75.8966 160.771 75.3085C160.777 75.2726 160.763 75.261 160.73 75.2736C160.348 75.4178 159.973 75.5551 159.607 75.6855C159.536 75.7103 159.474 75.7215 159.419 75.7192C159.243 75.7117 159.217 75.6404 159.34 75.5053C159.377 75.4647 159.427 75.434 159.491 75.4131C160.659 75.0333 161.764 74.5352 162.804 73.9187ZM162.902 72.8078L162.772 73.5358C162.771 73.5407 162.771 73.5457 162.772 73.5505C162.773 73.5553 162.775 73.5598 162.779 73.5637C162.782 73.5675 162.785 73.5706 162.79 73.5727C162.794 73.5749 162.799 73.576 162.804 73.576H163.268C163.324 73.576 163.377 73.5594 163.419 73.5287L164.363 72.8456C164.425 72.8007 164.418 72.7782 164.341 72.7782H162.936C162.928 72.7782 162.92 72.7812 162.914 72.7866C162.908 72.792 162.903 72.7995 162.902 72.8078ZM164.283 75.0981C164.234 75.0687 164.179 75.0532 164.123 75.0532C163.218 75.0532 162.325 75.0528 161.444 75.052C161.365 75.052 161.295 75.0708 161.232 75.1082C161.177 75.1409 161.137 75.1976 161.112 75.2784C161.054 75.4659 161.015 75.6747 160.995 75.9047C160.995 75.9091 160.995 75.9136 160.997 75.9178C160.998 75.922 161 75.9258 161.003 75.929C161.006 75.9323 161.009 75.9349 161.013 75.9366C161.017 75.9383 161.021 75.9391 161.025 75.939L164.204 75.929C164.212 75.929 164.22 75.9262 164.227 75.9209C164.233 75.9156 164.237 75.9083 164.239 75.9C164.276 75.7278 164.308 75.5547 164.336 75.3806C164.337 75.3763 164.344 75.3457 164.358 75.289C164.379 75.2047 164.354 75.1411 164.283 75.0981ZM160.926 77.2136C161.828 77.2266 162.736 77.2305 163.648 77.2254C163.652 77.225 163.688 77.227 163.753 77.2313C163.84 77.2368 163.911 77.214 163.966 77.1628C164.011 77.1214 164.042 77.0442 164.061 76.9311C164.1 76.7074 164.138 76.4905 164.178 76.2805C164.179 76.275 164.179 76.2693 164.178 76.2638C164.176 76.2583 164.174 76.2532 164.17 76.2489C164.167 76.2445 164.162 76.241 164.158 76.2386C164.153 76.2362 164.147 76.235 164.142 76.235L160.962 76.2386C160.953 76.2386 160.945 76.2414 160.938 76.2466C160.932 76.2518 160.927 76.259 160.926 76.267L160.787 77.0481C160.767 77.1573 160.814 77.2124 160.926 77.2136Z" fill="white" fill-opacity="0.5"/>
<path d="M98.2888 72.8821C98.1269 73.1642 97.9396 73.4263 97.727 73.6686C97.6825 73.7194 97.6343 73.7495 97.5825 73.759C97.4743 73.7783 97.433 73.7318 97.4585 73.6195C97.468 73.577 97.492 73.5307 97.5305 73.4807C97.8977 73.0076 98.1827 72.5323 98.3853 72.0548C98.4341 71.9398 98.5059 71.8683 98.6008 71.8403C98.6093 71.8377 98.6184 71.8372 98.6273 71.8387C98.6362 71.8403 98.6447 71.8438 98.6522 71.8492C98.7387 71.9114 98.7549 71.992 98.7008 72.0909C98.6714 72.1444 98.6558 72.1734 98.6539 72.1777C98.6093 72.2735 98.561 72.3725 98.5088 72.475C98.5051 72.4819 98.5032 72.4897 98.5034 72.4977C98.5035 72.5056 98.5056 72.5133 98.5096 72.5201C98.5135 72.5269 98.5191 72.5326 98.5257 72.5365C98.5324 72.5403 98.54 72.5424 98.5476 72.5423C99.0086 72.5423 99.4796 72.5423 99.9608 72.5423C100.019 72.5423 100.062 72.5512 100.09 72.5689C100.146 72.6044 100.156 72.6575 100.119 72.7285C100.081 72.8013 100.021 72.8382 99.9368 72.839L98.3322 72.8549C98.3235 72.8551 98.3149 72.8577 98.3073 72.8624C98.2997 72.8672 98.2933 72.874 98.2888 72.8821Z" fill="white" fill-opacity="0.5"/>
<path d="M96.9306 74.0113C96.8921 73.9507 96.8391 73.9199 96.7717 73.9191L96.2751 73.9162C96.2632 73.9161 96.2517 73.9205 96.2426 73.9286C96.2334 73.9367 96.2273 73.9481 96.2254 73.9605C96.0932 74.7957 95.8334 75.5906 95.446 76.3454C95.2411 76.7449 94.9771 77.0909 94.654 77.3836C94.6014 77.4309 94.5405 77.4518 94.4711 77.4463C94.3713 77.4384 94.334 77.3962 94.3592 77.3198C94.3694 77.2879 94.3952 77.2517 94.4363 77.2111C94.759 76.8916 95.0121 76.5503 95.1957 76.187C95.5313 75.5229 95.7643 74.8215 95.8946 74.0828C95.9666 73.6739 96.0372 73.2711 96.1066 72.8744C96.1078 72.8679 96.1074 72.8612 96.1055 72.8548C96.1036 72.8485 96.1003 72.8427 96.0958 72.8379C96.0912 72.8332 96.0856 72.8296 96.0795 72.8275C96.0733 72.8255 96.0667 72.8249 96.0603 72.826C95.9407 72.846 95.8214 72.8455 95.7026 72.8242C95.6834 72.8208 95.6667 72.8106 95.6557 72.7958C95.5993 72.7182 95.6012 72.6508 95.6614 72.5937C95.6953 72.5618 95.7468 72.5453 95.8157 72.5441C96.0732 72.5409 96.3363 72.5402 96.6049 72.5417C96.6086 72.5418 96.6124 72.5409 96.6158 72.5391C96.6191 72.5373 96.622 72.5347 96.6242 72.5315C96.6264 72.5283 96.6278 72.5246 96.6283 72.5207C96.6289 72.5169 96.6284 72.5129 96.6271 72.5092C96.591 72.4033 96.5464 72.3089 96.4934 72.2262C96.4386 72.1407 96.4104 72.0767 96.4089 72.0341C96.4047 71.9301 96.4734 71.8777 96.6152 71.877C96.6406 71.8768 96.6652 71.8835 96.6861 71.8961C96.7071 71.9088 96.7235 71.9269 96.7334 71.9485L96.9923 72.5098C96.9963 72.5183 97.002 72.5255 97.009 72.5306C97.016 72.5358 97.0238 72.5386 97.0317 72.5388L97.7129 72.5417C97.7226 72.5419 97.7321 72.5438 97.7406 72.5474C97.7491 72.5509 97.7566 72.556 97.7626 72.5624C97.8399 72.6455 97.8403 72.718 97.7637 72.7799C97.726 72.8106 97.6713 72.8269 97.5997 72.8289C97.2401 72.8395 96.8662 72.8421 96.478 72.8366C96.4649 72.8365 96.4521 72.8411 96.442 72.8496C96.4319 72.8581 96.425 72.8701 96.4226 72.8833L96.2974 73.5705C96.2962 73.5768 96.2964 73.5833 96.298 73.5895C96.2996 73.5956 96.3025 73.6014 96.3066 73.6063C96.3106 73.6112 96.3157 73.6151 96.3215 73.6177C96.3272 73.6203 96.3334 73.6215 96.3397 73.6213C96.5222 73.6162 96.6963 73.6174 96.862 73.6249C97.0098 73.6316 97.1142 73.6609 97.1751 73.7129C97.2468 73.7736 97.2805 73.8575 97.2763 73.9646C97.2759 73.9757 97.2618 74.0612 97.234 74.2211C97.0313 75.3864 96.89 76.1697 96.81 76.5711C96.754 76.852 96.6195 77.0643 96.4066 77.2081C96.2687 77.3015 96.1026 77.3513 95.9083 77.3576C95.7312 77.3632 95.5552 77.3397 95.3803 77.2873C95.266 77.2527 95.2437 77.1855 95.3134 77.0858C95.3786 76.9929 95.4626 76.9635 95.5654 76.9978C95.6946 77.0407 95.7601 77.0624 95.762 77.0628C96.0412 77.1018 96.2473 77.0187 96.3803 76.8134C96.4424 76.7177 96.5009 76.5217 96.5557 76.2255C96.6803 75.5538 96.8018 74.8813 96.9203 74.2081C96.9211 74.2045 96.9279 74.1774 96.9409 74.1265C96.9527 74.0793 96.9492 74.0409 96.9306 74.0113Z" fill="white" fill-opacity="0.5"/>
<path d="M95.2902 73.1294L94.5022 72.3152C94.4885 72.3009 94.4793 72.2836 94.4759 72.2655C94.4462 72.1107 94.5085 72.0353 94.6628 72.0392C94.7037 72.04 94.7428 72.0557 94.7731 72.0835C95.0641 72.3483 95.3207 72.6201 95.5428 72.899C95.5549 72.9142 95.5612 72.9331 95.5605 72.9522C95.5567 73.1093 95.4826 73.1773 95.3382 73.156C95.3208 73.1534 95.304 73.144 95.2902 73.1294Z" fill="white" fill-opacity="0.5"/>
<path d="M147.791 73.3801C148.117 73.3844 148.453 73.3856 148.799 73.3836C148.945 73.3828 149.043 73.4437 149.091 73.5662C149.123 73.6458 149.126 73.7492 149.102 73.8765C149.064 74.0774 148.99 74.2639 148.88 74.436C148.839 74.4999 148.791 74.5414 148.737 74.5607C148.633 74.597 148.574 74.5503 148.562 74.4207C148.56 74.4032 148.566 74.3845 148.578 74.3687C148.656 74.2651 148.717 74.1526 148.762 74.0313C148.798 73.9359 148.804 73.8573 148.78 73.7955C148.749 73.7112 148.677 73.6714 148.564 73.6761C148.519 73.6781 148.495 73.6791 148.491 73.6791C147.001 73.6755 145.511 73.6755 144.022 73.6791C143.928 73.6791 143.86 73.6946 143.816 73.7258C143.753 73.7707 143.713 73.8375 143.695 73.9261C143.667 74.0651 143.638 74.2131 143.608 74.3699C143.603 74.3978 143.592 74.4242 143.575 74.4469C143.559 74.4697 143.537 74.4882 143.512 74.501C143.427 74.546 143.366 74.5381 143.328 74.4774C143.306 74.442 143.299 74.3903 143.309 74.3226C143.326 74.2024 143.356 74.0421 143.399 73.8416C143.438 73.6635 143.521 73.5355 143.647 73.4575C143.726 73.4086 143.861 73.3848 144.05 73.386C144.301 73.3872 144.552 73.383 144.802 73.3736C144.806 73.3734 144.81 73.3725 144.813 73.3709C144.817 73.3692 144.82 73.3669 144.822 73.364C144.825 73.3611 144.827 73.3578 144.828 73.3541C144.829 73.3505 144.83 73.3467 144.83 73.3429C144.813 73.1305 144.755 72.9312 144.656 72.7449C144.652 72.7364 144.649 72.7272 144.649 72.718C144.648 72.7088 144.65 72.6998 144.654 72.6917C144.718 72.5514 144.8 72.5168 144.9 72.5877C144.951 72.6231 144.991 72.6838 145.02 72.7697C145.085 72.956 145.132 73.1473 145.163 73.3435C145.164 73.3517 145.168 73.3593 145.174 73.3648C145.18 73.3703 145.188 73.3734 145.196 73.3736L146.205 73.383C146.212 73.3831 146.219 73.3816 146.225 73.3788C146.231 73.3759 146.237 73.3717 146.241 73.3664C146.246 73.3611 146.249 73.3549 146.252 73.3481C146.254 73.3413 146.255 73.3341 146.254 73.3269C146.242 73.1622 146.207 72.9952 146.15 72.8258C146.149 72.8246 146.135 72.7913 146.106 72.726C146.06 72.6235 146.087 72.5386 146.188 72.4713C146.277 72.4126 146.341 72.4273 146.382 72.5156C146.5 72.7756 146.568 73.049 146.587 73.3358C146.587 73.3443 146.591 73.3523 146.596 73.3582C146.602 73.3641 146.609 73.3675 146.616 73.3677L147.27 73.3807C147.331 73.3819 147.385 73.3566 147.432 73.305C147.657 73.0596 147.858 72.7868 148.034 72.4866C148.062 72.4389 148.106 72.4025 148.157 72.3838C148.267 72.3444 148.331 72.3677 148.348 72.4535C148.358 72.4996 148.345 72.552 148.31 72.6107C148.158 72.8636 147.979 73.1043 147.771 73.3328C147.743 73.3639 147.749 73.3797 147.791 73.3801Z" fill="white" fill-opacity="0.5"/>
<path d="M111.675 75.2859C111.676 75.2879 111.678 75.2896 111.68 75.2909C111.681 75.2921 111.684 75.2929 111.686 75.2931C111.688 75.2932 111.69 75.2928 111.692 75.2919C111.694 75.2909 111.695 75.2895 111.696 75.2876C112.09 74.6763 112.379 74.0164 112.561 73.3081C112.592 73.1879 112.608 73.121 112.608 73.1072C112.611 73.0351 112.577 72.9861 112.507 72.9601C112.475 72.9478 112.422 72.9419 112.349 72.9423C111.828 72.9471 111.307 72.9419 110.786 72.927C110.671 72.9238 110.658 72.861 110.747 72.7385C110.806 72.6573 110.884 72.6197 110.982 72.6256C111.043 72.6291 111.075 72.6309 111.078 72.6309C111.649 72.6238 112.152 72.6289 112.586 72.6463C112.752 72.653 112.86 72.7188 112.909 72.8436C112.939 72.9201 112.938 73.0323 112.904 73.1805C112.716 74.0278 112.37 74.812 111.866 75.5329C111.861 75.5398 111.858 75.5479 111.857 75.5564C111.857 75.5648 111.859 75.5733 111.863 75.5807C112.05 75.9333 112.216 76.2993 112.362 76.6786C112.395 76.7657 112.408 76.8376 112.403 76.8943C112.389 77.0251 112.308 77.0551 112.158 76.9841C112.142 76.9761 112.129 76.9621 112.12 76.9446L111.624 75.8384C111.622 75.8331 111.618 75.8286 111.614 75.8252C111.609 75.8218 111.604 75.8196 111.598 75.8188C111.593 75.8181 111.587 75.8188 111.582 75.8208C111.577 75.8229 111.572 75.8263 111.568 75.8307C111.091 76.4181 110.534 76.9438 109.899 77.4078C109.88 77.4222 109.856 77.431 109.832 77.4333C109.808 77.4355 109.784 77.4313 109.762 77.4208C109.648 77.3669 109.65 77.2912 109.768 77.1939C110.363 76.7019 110.911 76.1584 111.411 75.5636C111.416 75.5572 111.419 75.5491 111.42 75.5404C111.421 75.5318 111.419 75.5229 111.415 75.5151C111.2 75.096 110.982 74.678 110.762 74.2612C110.72 74.1824 110.699 74.1249 110.698 74.0887C110.695 74.017 110.732 73.9589 110.808 73.9144C110.899 73.862 110.968 73.8823 111.014 73.9752L111.675 75.2859Z" fill="white" fill-opacity="0.5"/>
<path d="M94.0044 73.8326C93.9327 73.7794 93.9263 73.7089 93.9849 73.6211C94.0558 73.5151 94.1448 73.5029 94.2518 73.5844C94.5569 73.8165 94.8373 74.0751 95.0929 74.3603C95.1474 74.4214 95.1461 74.4812 95.0889 74.5399C94.9876 74.6443 94.8836 74.6461 94.7769 74.5453C94.5495 74.3298 94.3219 74.1147 94.0941 73.9C94.0903 73.8964 94.0604 73.874 94.0044 73.8326Z" fill="white" fill-opacity="0.5"/>
<path d="M98.4103 75.8092C98.1116 75.7911 97.8127 75.7848 97.5137 75.7903C97.4219 75.7919 97.356 75.7887 97.316 75.7809C97.1548 75.7494 97.1485 75.6625 97.2971 75.5203C97.3104 75.5077 97.3279 75.5008 97.3463 75.5008L98.2651 75.4972C98.2718 75.4973 98.2783 75.4957 98.2843 75.4927C98.2903 75.4897 98.2955 75.4853 98.2996 75.4799C98.3037 75.4745 98.3065 75.4682 98.3079 75.4614C98.3092 75.4547 98.3091 75.4477 98.3074 75.4411C98.2899 75.3706 98.2613 75.301 98.2217 75.2325C98.1687 75.1407 98.1413 75.0728 98.1394 75.0286C98.1337 74.9061 98.192 74.7964 98.3143 74.6995C98.5695 74.497 98.8162 74.2839 99.0543 74.0601C99.1403 73.979 99.1253 73.9355 99.0091 73.9295C98.6937 73.9138 98.3668 73.9106 98.0285 73.9201C97.864 73.9244 97.8091 73.8594 97.864 73.7251C97.8925 73.6558 97.9432 73.6211 98.016 73.6211C98.3245 73.6211 98.6144 73.6211 98.8857 73.6211C99.0838 73.6211 99.2508 73.6439 99.3868 73.6896C99.4699 73.7176 99.5242 73.756 99.5497 73.8049C99.5859 73.8738 99.5703 73.9534 99.5028 74.0436C99.4564 74.1062 99.4024 74.1624 99.3411 74.212L98.5074 74.8886C98.4913 74.9019 98.4802 74.9209 98.4758 74.9425C98.4715 74.964 98.4741 74.9869 98.4834 75.0074L98.6925 75.4689C98.6965 75.4773 98.7024 75.4845 98.7096 75.4895C98.7167 75.4945 98.7249 75.4972 98.7331 75.4972H99.6377C99.7085 75.4972 99.7504 75.5333 99.7634 75.6054C99.7741 75.6656 99.7537 75.7149 99.7023 75.7531C99.671 75.7767 99.6261 75.7891 99.5674 75.7903C99.3457 75.7935 99.1074 75.7941 98.8525 75.7921C98.846 75.7921 98.8396 75.7934 98.8336 75.7961C98.8277 75.7988 98.8223 75.8028 98.8179 75.8077C98.8135 75.8127 98.8101 75.8185 98.808 75.8249C98.8059 75.8312 98.8051 75.838 98.8057 75.8447C98.8263 76.0767 98.8303 76.2906 98.8177 76.4864C98.7884 76.9363 98.607 77.252 98.2737 77.4336C98.0805 77.5384 97.8723 77.5818 97.6491 77.5636C97.4259 77.5451 97.2175 77.4677 97.024 77.3314C97.0163 77.326 97.0098 77.3192 97.0049 77.3112C97.0001 77.3032 96.997 77.2944 96.996 77.2853C96.9777 77.1352 97.0257 77.0647 97.14 77.0738C97.1784 77.0769 97.2415 77.1006 97.3291 77.1447C97.4788 77.2191 97.6226 77.2646 97.7605 77.2812C98.0146 77.3111 98.2066 77.2083 98.3365 76.9727C98.535 76.6127 98.5723 76.2349 98.4485 75.8394C98.4458 75.831 98.4407 75.8236 98.4339 75.8182C98.427 75.8128 98.4188 75.8097 98.4103 75.8092Z" fill="white" fill-opacity="0.5"/>
<path d="M146.546 76.7538C147.164 77.0123 147.822 77.1651 148.52 77.2124C148.632 77.2199 148.67 77.2786 148.633 77.3885C148.602 77.4826 148.524 77.5256 148.4 77.5173C147.626 77.4661 146.887 77.2742 146.184 76.9417C146.167 76.9338 146.148 76.9325 146.131 76.9382C145.373 77.1931 144.6 77.3816 143.812 77.5037C143.741 77.5143 143.685 77.5116 143.642 77.4954C143.54 77.4564 143.534 77.3814 143.623 77.2703C143.649 77.2377 143.686 77.2169 143.726 77.2124C144.438 77.1257 145.143 76.9677 145.843 76.7385C145.862 76.7322 145.863 76.7229 145.847 76.7107C145.473 76.4286 145.151 76.1022 144.881 75.7316C144.877 75.7262 144.872 75.7217 144.866 75.7185C144.861 75.7153 144.854 75.7135 144.848 75.7131C144.841 75.7127 144.834 75.7138 144.828 75.7163C144.822 75.7187 144.817 75.7225 144.812 75.7274C144.357 76.2167 143.842 76.5998 143.266 76.8767C143.202 76.9079 143.146 76.9212 143.099 76.9169C142.99 76.9075 142.966 76.8401 143.027 76.7148C143.035 76.6987 143.048 76.685 143.065 76.6758C143.566 76.4079 143.979 76.1243 144.304 75.8249C144.646 75.5109 144.918 75.1404 145.12 74.7134C145.123 74.7072 145.125 74.7003 145.124 74.6933C145.124 74.6863 145.122 74.6795 145.118 74.6736C145.115 74.6677 145.11 74.6628 145.104 74.6594C145.098 74.656 145.091 74.6543 145.085 74.6543C144.77 74.6543 144.45 74.6543 144.126 74.6543C144.06 74.6543 144.009 74.6392 143.974 74.6088C143.9 74.545 143.916 74.4757 144.024 74.4008C144.061 74.3743 144.105 74.3603 144.147 74.3606L145.186 74.3689C145.205 74.3691 145.224 74.3625 145.239 74.3503C145.254 74.3382 145.265 74.3211 145.269 74.3021C145.295 74.1694 145.331 74.0437 145.376 73.9251C145.404 73.8527 145.439 73.8026 145.48 73.7751C145.551 73.7282 145.615 73.7471 145.671 73.8318C145.677 73.8404 145.681 73.8498 145.683 73.8592C145.685 73.8686 145.685 73.8778 145.682 73.8861L145.573 74.2951C145.571 74.3025 145.571 74.3104 145.572 74.3181C145.573 74.3257 145.575 74.3329 145.579 74.3391C145.583 74.3453 145.589 74.3503 145.595 74.3538C145.601 74.3572 145.608 74.3589 145.614 74.3589H148.127C148.171 74.3589 148.213 74.3748 148.247 74.4038C148.318 74.4652 148.313 74.5314 148.23 74.6023C148.191 74.6359 148.142 74.6543 148.092 74.6543H145.495C145.483 74.6543 145.47 74.6581 145.459 74.6653C145.448 74.6725 145.439 74.6828 145.433 74.6951L145.234 75.0963C145.231 75.1026 145.229 75.1096 145.229 75.1167C145.229 75.1238 145.231 75.1307 145.235 75.1367C145.238 75.1428 145.243 75.1478 145.249 75.1513C145.254 75.1548 145.261 75.1566 145.268 75.1566C146.071 75.1566 146.853 75.1568 147.615 75.1572C147.684 75.1572 147.752 75.1659 147.818 75.1832C147.899 75.2049 147.956 75.2401 147.988 75.289C148.031 75.3563 148.028 75.4373 147.979 75.5318C147.915 75.6543 147.835 75.7641 147.739 75.861C147.401 76.2005 147.003 76.4856 146.544 76.716C146.517 76.7294 146.518 76.742 146.546 76.7538ZM145.852 76.2852C145.953 76.379 146.065 76.4716 146.187 76.563C146.194 76.5684 146.203 76.5716 146.212 76.5725C146.221 76.5733 146.23 76.5716 146.238 76.5677C146.735 76.3341 147.171 76.0227 147.546 75.6335C147.663 75.5133 147.638 75.4528 147.473 75.4521L145.158 75.4414C145.118 75.4414 145.11 75.4576 145.136 75.4899C145.36 75.7838 145.599 76.0489 145.852 76.2852Z" fill="white" fill-opacity="0.5"/>
<path d="M93.4896 77.3234C93.4656 77.2939 93.4623 77.2576 93.4798 77.2147C93.4886 77.1926 93.5082 77.1655 93.5387 77.1332C94.1177 76.5131 94.5825 75.8111 94.933 75.0272C94.9604 74.9653 95.0071 74.9348 95.073 74.9356C95.1823 74.9371 95.2326 74.984 95.2238 75.0762C95.2204 75.1128 95.2014 75.1672 95.1667 75.2393C94.828 75.9456 94.3737 76.6137 93.8038 77.2437C93.741 77.3134 93.6737 77.3528 93.6021 77.3618C93.5526 77.3677 93.5151 77.3549 93.4896 77.3234Z" fill="white" fill-opacity="0.5"/>
<path d="M130.231 77.6087C130.219 77.6025 130.209 77.5934 130.201 77.5821C130.193 77.5709 130.187 77.5578 130.184 77.5437L129.947 76.4062C129.932 76.3322 129.946 76.2668 129.988 76.2101C130.06 76.1139 130.134 76.0909 130.21 76.1409C130.254 76.1705 130.285 76.226 130.303 76.3076C130.38 76.6696 130.444 77.034 130.496 77.4007C130.508 77.4854 130.496 77.5487 130.461 77.5904C130.406 77.655 130.329 77.6611 130.231 77.6087Z" fill="white" fill-opacity="0.5"/>
<path d="M131.848 77.522C131.832 77.5078 131.82 77.4907 131.812 77.4706C131.669 77.092 131.503 76.7183 131.314 76.3496C131.305 76.3316 131.301 76.3119 131.304 76.2935C131.328 76.1316 131.417 76.08 131.57 76.1387C131.587 76.1448 131.602 76.1575 131.612 76.1747C131.809 76.4997 131.967 76.8442 132.086 77.2082C132.087 77.2129 132.103 77.2492 132.132 77.3169C132.167 77.3993 132.156 77.4723 132.098 77.5362C132.061 77.5779 132.021 77.5962 131.979 77.5911C131.937 77.586 131.894 77.5629 131.848 77.522Z" fill="white" fill-opacity="0.5"/>
<path d="M126.99 77.0512C126.816 77.243 126.684 77.3805 126.596 77.4636C126.593 77.4668 126.567 77.4946 126.519 77.547C126.47 77.6013 126.409 77.6315 126.338 77.6374C126.28 77.6421 126.236 77.624 126.204 77.583C126.16 77.5263 126.172 77.4648 126.24 77.3986C126.62 77.0291 126.954 76.6697 127.24 76.3202C127.314 76.23 127.402 76.1894 127.505 76.1985C127.514 76.1992 127.522 76.2025 127.529 76.2079C127.536 76.2133 127.542 76.2207 127.545 76.2292C127.578 76.312 127.565 76.3898 127.507 76.4626C127.42 76.5722 127.248 76.7683 126.99 77.0512Z" fill="white" fill-opacity="0.5"/>
<path d="M128.781 77.1637C128.779 77.2173 128.783 77.2703 128.791 77.3227C128.815 77.4625 128.767 77.576 128.648 77.6631C128.632 77.6748 128.613 77.6797 128.596 77.6767C128.551 77.6696 128.515 77.6495 128.488 77.6164C128.467 77.5912 128.457 77.5537 128.458 77.5041C128.464 77.1247 128.45 76.7464 128.416 76.369C128.415 76.3482 128.418 76.3284 128.427 76.3122C128.49 76.1933 128.583 76.1622 128.706 76.2189C128.714 76.2225 128.72 76.2282 128.726 76.2356C128.731 76.2429 128.735 76.2516 128.736 76.2608C128.779 76.5287 128.794 76.8297 128.781 77.1637Z" fill="white" fill-opacity="0.5"/>
</g>
<defs>
<clipPath id="clip0_336_10563">
<rect width="136" height="52" fill="white" transform="translate(32 34)"/>
</clipPath>
</defs>
</svg>
